<?xml version="1.0" encoding="UTF-8" standalone="no"?>
<!-- Created with Inkscape (http://www.inkscape.org/) -->

<svg
   xmlns:dc="http://purl.org/dc/elements/1.1/"
   xmlns:cc="http://creativecommons.org/ns#"
   xmlns:rdf="http://www.w3.org/1999/02/22-rdf-syntax-ns#"
   xmlns:svg="http://www.w3.org/2000/svg"
   xmlns="http://www.w3.org/2000/svg"
   xmlns:sodipodi="http://sodipodi.sourceforge.net/DTD/sodipodi-0.dtd"
   xmlns:inkscape="http://www.inkscape.org/namespaces/inkscape"
   width="877"
   height="160"
   viewBox="0 0 877 160"
   version="1.1"
   id="svg8"
   inkscape:version="0.92.3 (2405546, 2018-03-11)"
   sodipodi:docname="phaseque-phases.svg">
  <defs
     id="defs2" />
  <sodipodi:namedview
     id="base"
     pagecolor="#f5f5f5"
     bordercolor="#000000"
     borderopacity="0.16470588"
     inkscape:pageopacity="0"
     inkscape:pageshadow="2"
     inkscape:zoom="1"
     inkscape:cx="615.65513"
     inkscape:cy="10.023371"
     inkscape:document-units="px"
     inkscape:current-layer="g266"
     showgrid="true"
     units="px"
     guidecolor="#00d1ae"
     guideopacity="0.49803922"
     inkscape:window-width="3564"
     inkscape:window-height="1410"
     inkscape:window-x="275"
     inkscape:window-y="494"
     inkscape:window-maximized="0"
     inkscape:snap-global="true">
    <inkscape:grid
       type="xygrid"
       id="grid815"
       color="#3fb6ff"
       opacity="0.1254902"
       empcolor="#3f96ff"
       empopacity="0.29019608" />
  </sodipodi:namedview>
  <metadata
     id="metadata5">
    <rdf:RDF>
      <cc:Work
         rdf:about="">
        <dc:format>image/svg+xml</dc:format>
        <dc:type
           rdf:resource="http://purl.org/dc/dcmitype/StillImage" />
        <dc:title></dc:title>
      </cc:Work>
    </rdf:RDF>
  </metadata>
  <g
     inkscape:label="Layer 1"
     inkscape:groupmode="layer"
     id="layer1"
     transform="translate(0,-666.5)">
    <rect
       x="391.12323"
       y="703"
       width="466"
       height="466"
       rx="6"
       ry="6"
       id="rect18"
       style="fill-opacity:0.98229998;stroke-width:2" />
    <g
       transform="matrix(7.978,0,0,7.978,-223.85331,-948)"
       id="g266"
       style="stroke-width:0.94760001">
      <rect
         x="77.584373"
         y="207.44246"
         width="57.41"
         height="57.41"
         rx="0.2507"
         ry="0.2507"
         id="rect20"
         style="fill:#ffffff;fill-opacity:1" />
      <g
         id="g264"
         style="fill:none"
         transform="translate(46.894364,-2.7575834)">
        <g
           id="g102"
           style="stroke:#cccccc;stroke-width:0.2507px">
          <g
             transform="translate(93.93,22.21)"
             id="g26">
            <path
               d="m -48.29,233.8 v 2.91"
               id="path22"
               inkscape:connector-curvature="0" />
            <path
               d="m -49.74,235.2 h 2.91"
               id="path24"
               inkscape:connector-curvature="0" />
          </g>
          <g
             transform="translate(107.7,22.21)"
             id="g32">
            <path
               d="m -48.29,233.8 v 2.91"
               id="path28"
               inkscape:connector-curvature="0" />
            <path
               d="m -49.74,235.2 h 2.91"
               id="path30"
               inkscape:connector-curvature="0" />
          </g>
          <g
             transform="translate(100.8,22.21)"
             id="g38">
            <path
               d="m -48.29,233.8 v 2.91"
               id="path34"
               inkscape:connector-curvature="0" />
            <path
               d="m -49.74,235.2 h 2.91"
               id="path36"
               inkscape:connector-curvature="0" />
          </g>
          <g
             transform="translate(114.6,22.21)"
             id="g44">
            <path
               d="m -48.29,233.8 v 2.91"
               id="path40"
               inkscape:connector-curvature="0" />
            <path
               d="m -49.74,235.2 h 2.91"
               id="path42"
               inkscape:connector-curvature="0" />
          </g>
          <g
             transform="translate(121.4,22.21)"
             id="g50">
            <path
               d="m -48.29,233.8 v 2.91"
               id="path46"
               inkscape:connector-curvature="0" />
            <path
               d="m -49.74,235.2 h 2.91"
               id="path48"
               inkscape:connector-curvature="0" />
          </g>
          <g
             transform="translate(128.3,22.21)"
             id="g56">
            <path
               d="m -48.29,233.8 v 2.91"
               id="path52"
               inkscape:connector-curvature="0" />
            <path
               d="m -49.74,235.2 h 2.91"
               id="path54"
               inkscape:connector-curvature="0" />
          </g>
          <g
             transform="translate(0,6.017)"
             id="g100">
            <g
               transform="translate(93.93,-20.79)"
               id="g62">
              <path
                 d="m -48.29,233.8 v 2.91"
                 id="path58"
                 inkscape:connector-curvature="0" />
              <path
                 d="m -49.74,235.2 h 2.91"
                 id="path60"
                 inkscape:connector-curvature="0" />
            </g>
            <g
               transform="translate(107.7,-20.79)"
               id="g68">
              <path
                 d="m -48.29,233.8 v 2.91"
                 id="path64"
                 inkscape:connector-curvature="0" />
              <path
                 d="m -49.74,235.2 h 2.91"
                 id="path66"
                 inkscape:connector-curvature="0" />
            </g>
            <g
               transform="translate(100.8,-20.79)"
               id="g74">
              <path
                 d="m -48.29,233.8 v 2.91"
                 id="path70"
                 inkscape:connector-curvature="0" />
              <path
                 d="m -49.74,235.2 h 2.91"
                 id="path72"
                 inkscape:connector-curvature="0" />
            </g>
            <g
               transform="translate(114.6,-20.79)"
               id="g80">
              <path
                 d="m -48.29,233.8 v 2.91"
                 id="path76"
                 inkscape:connector-curvature="0" />
              <path
                 d="m -49.74,235.2 h 2.91"
                 id="path78"
                 inkscape:connector-curvature="0" />
            </g>
            <g
               transform="translate(121.4,-20.79)"
               id="g86">
              <path
                 d="m -48.29,233.8 v 2.91"
                 id="path82"
                 inkscape:connector-curvature="0" />
              <path
                 d="m -49.74,235.2 h 2.91"
                 id="path84"
                 inkscape:connector-curvature="0" />
            </g>
            <g
               transform="translate(128.3,-20.79)"
               id="g92">
              <path
                 d="m -48.29,233.8 v 2.91"
                 id="path88"
                 inkscape:connector-curvature="0" />
              <path
                 d="m -49.74,235.2 h 2.91"
                 id="path90"
                 inkscape:connector-curvature="0" />
            </g>
            <g
               transform="translate(87.05,-20.79)"
               id="g98">
              <path
                 d="m -48.29,233.8 v 2.91"
                 id="path94"
                 inkscape:connector-curvature="0" />
              <path
                 d="m -49.74,235.2 h 2.91"
                 id="path96"
                 inkscape:connector-curvature="0" />
            </g>
          </g>
        </g>
        <g
           id="g120"
           style="stroke:#000000;stroke-width:0.2507px">
          <path
             d="m 31.75,220.4 6.879,-9.059"
             id="path104"
             inkscape:connector-curvature="0" />
          <path
             d="m 38.63,220.4 6.879,-9.059"
             id="path106"
             inkscape:connector-curvature="0" />
          <path
             d="m 45.51,220.4 6.879,-9.059"
             id="path108"
             inkscape:connector-curvature="0" />
          <path
             d="m 52.39,220.4 6.879,-9.059"
             id="path110"
             inkscape:connector-curvature="0" />
          <path
             d="m 59.27,220.4 6.879,-9.059"
             id="path112"
             inkscape:connector-curvature="0" />
          <path
             d="m 66.15,220.4 6.879,-9.059"
             id="path114"
             inkscape:connector-curvature="0" />
          <path
             d="m 73.03,220.4 6.879,-9.059"
             id="path116"
             inkscape:connector-curvature="0" />
          <path
             d="m 79.9,220.4 6.879,-9.059"
             id="path118"
             inkscape:connector-curvature="0" />
        </g>
        <g
           transform="translate(0,2.256)"
           id="g164"
           style="stroke:#cccccc;stroke-width:0.2507px">
          <g
             transform="translate(87.05,1.45)"
             id="g126">
            <path
               d="m -48.29,233.8 v 2.91"
               id="path122"
               inkscape:connector-curvature="0" />
            <path
               d="m -49.74,235.2 h 2.91"
               id="path124"
               inkscape:connector-curvature="0" />
          </g>
          <g
             transform="translate(93.93,1.45)"
             id="g132">
            <path
               d="m -48.29,233.8 v 2.91"
               id="path128"
               inkscape:connector-curvature="0" />
            <path
               d="m -49.74,235.2 h 2.91"
               id="path130"
               inkscape:connector-curvature="0" />
          </g>
          <g
             transform="translate(107.7,1.45)"
             id="g138">
            <path
               d="m -48.29,233.8 v 2.91"
               id="path134"
               inkscape:connector-curvature="0" />
            <path
               d="m -49.74,235.2 h 2.91"
               id="path136"
               inkscape:connector-curvature="0" />
          </g>
          <g
             transform="translate(100.8,1.45)"
             id="g144">
            <path
               d="m -48.29,233.8 v 2.91"
               id="path140"
               inkscape:connector-curvature="0" />
            <path
               d="m -49.74,235.2 h 2.91"
               id="path142"
               inkscape:connector-curvature="0" />
          </g>
          <g
             transform="translate(114.6,1.45)"
             id="g150">
            <path
               d="m -48.29,233.8 v 2.91"
               id="path146"
               inkscape:connector-curvature="0" />
            <path
               d="m -49.74,235.2 h 2.91"
               id="path148"
               inkscape:connector-curvature="0" />
          </g>
          <g
             transform="translate(121.4,1.45)"
             id="g156">
            <path
               d="m -48.29,233.8 v 2.91"
               id="path152"
               inkscape:connector-curvature="0" />
            <path
               d="m -49.74,235.2 h 2.91"
               id="path154"
               inkscape:connector-curvature="0" />
          </g>
          <g
             transform="translate(128.3,1.45)"
             id="g162">
            <path
               d="m -48.29,233.8 v 2.91"
               id="path158"
               inkscape:connector-curvature="0" />
            <path
               d="m -49.74,235.2 h 2.91"
               id="path160"
               inkscape:connector-curvature="0" />
          </g>
        </g>
        <g
           transform="translate(87.05,22.21)"
           id="g170"
           style="stroke:#cccccc;stroke-width:0.26460001px">
          <path
             d="m -48.29,233.8 v 2.91"
             id="path166"
             inkscape:connector-curvature="0" />
          <path
             d="m -49.74,235.2 h 2.91"
             id="path168"
             inkscape:connector-curvature="0" />
        </g>
        <g
           id="g190"
           style="stroke:#000000">
          <g
             id="g178"
             style="stroke-width:0.2507px">
            <path
               d="m 31.75,262.2 c 2.392,-0.0524 4.597,0.7923 6.615,2.526"
               id="path172"
               inkscape:connector-curvature="0" />
            <path
               d="m 38.63,262.2 6.615,2e-5"
               id="path174"
               inkscape:connector-curvature="0" />
            <path
               d="m 45.51,262.2 6.879,2e-5"
               id="path176"
               inkscape:connector-curvature="0" />
          </g>
          <path
             d="m 53.65,262.2 c 2.12,-0.4173 3.77,-1.789 4.841,-4.334"
             id="path180"
             inkscape:connector-curvature="0"
             style="stroke-width:0.2507" />
          <path
             d="m 59.53,262.2 6.615,2e-5"
             id="path182"
             inkscape:connector-curvature="0"
             style="stroke-width:0.2507px" />
          <path
             d="m 63.89,260.4 10.71,4.325"
             id="path184"
             inkscape:connector-curvature="0"
             style="stroke-width:0.2507" />
          <path
             d="m 71.44,261.1 c 1.89,-1.593 4.021,-2.612 6.615,-2.526"
             id="path186"
             inkscape:connector-curvature="0"
             style="stroke-width:0.2507px" />
          <path
             d="m 80.43,262.2 6.615,2e-5"
             id="path188"
             inkscape:connector-curvature="0"
             style="stroke-width:0.2507px" />
        </g>
        <g
           transform="translate(0,-0.2507)"
           id="g208"
           style="stroke:#cccccc">
          <path
             d="m 37.31,248.4 h 2.91"
             id="path192"
             inkscape:connector-curvature="0"
             style="stroke-width:0.2507px" />
          <g
             id="g206"
             style="stroke-width:0.26460001px">
            <path
               d="M 44.19,248.4 H 47.1"
               id="path194"
               inkscape:connector-curvature="0" />
            <path
               d="m 51.06,248.4 h 2.91"
               id="path196"
               inkscape:connector-curvature="0" />
            <path
               d="m 57.94,248.4 h 2.91"
               id="path198"
               inkscape:connector-curvature="0" />
            <path
               d="m 64.82,248.4 h 2.91"
               id="path200"
               inkscape:connector-curvature="0" />
            <path
               d="m 71.7,248.4 h 2.91"
               id="path202"
               inkscape:connector-curvature="0" />
            <path
               d="m 78.58,248.4 h 2.91"
               id="path204"
               inkscape:connector-curvature="0" />
          </g>
        </g>
        <g
           transform="translate(0,9.277)"
           id="g224"
           style="stroke:#cccccc;stroke-width:0.26460001px">
          <path
             d="M 44.19,220.4 H 47.1"
             id="path210"
             inkscape:connector-curvature="0" />
          <path
             d="m 51.06,220.4 h 2.91"
             id="path212"
             inkscape:connector-curvature="0" />
          <path
             d="m 57.94,220.4 h 2.91"
             id="path214"
             inkscape:connector-curvature="0" />
          <path
             d="m 64.82,220.4 h 2.91"
             id="path216"
             inkscape:connector-curvature="0" />
          <path
             d="m 71.7,220.4 h 2.91"
             id="path218"
             inkscape:connector-curvature="0" />
          <path
             d="m 78.58,220.4 h 2.91"
             id="path220"
             inkscape:connector-curvature="0" />
          <path
             d="m 37.31,220.4 h 2.91"
             id="path222"
             inkscape:connector-curvature="0" />
        </g>
        <g
           transform="translate(0,9.026)"
           id="g262"
           style="stroke:#000000">
          <path
             d="m 38.63,233.9 6.615,1e-5"
             id="path226"
             inkscape:connector-curvature="0"
             style="stroke:#000000;stroke-width:0.2507px" />
          <circle
             cx="39.290001"
             cy="233.89999"
             r="0.66149998"
             id="circle228"
             style="stroke-width:0" />
          <path
             d="m 45.51,228.6 6.615,1e-5"
             id="path230"
             inkscape:connector-curvature="0"
             style="stroke:#000000;stroke-width:0.2507px" />
          <circle
             cx="46.169998"
             cy="228.60001"
             r="0.66149998"
             id="circle232"
             style="stroke-width:0" />
          <path
             d="m 31.75,226.8 6.615,10e-6"
             id="path234"
             inkscape:connector-curvature="0"
             style="stroke:#000000;stroke-width:0.2507px" />
          <g
             id="g242">
            <circle
               cx="32.41"
               cy="226.8"
               r="0.66149998"
               id="circle236"
               style="stroke-width:0" />
            <path
               d="m 53.46,227.3 4.841,10e-6"
               id="path238"
               inkscape:connector-curvature="0"
               style="stroke:#000000;stroke-width:0.2507" />
            <circle
               cx="54.110001"
               cy="227.3"
               r="0.66149998"
               id="circle240"
               style="stroke-width:0" />
          </g>
          <path
             d="m 59.27,229.4 6.615,1e-5"
             id="path244"
             inkscape:connector-curvature="0"
             style="stroke:#000000;stroke-width:0.2507px" />
          <g
             id="g252">
            <circle
               cx="59.93"
               cy="229.39999"
               r="0.66149998"
               id="circle246"
               style="stroke-width:0" />
            <path
               d="m 63.48,226.5 10.29,1e-5"
               id="path248"
               inkscape:connector-curvature="0"
               style="stroke:#000000;stroke-width:0.2507" />
            <circle
               cx="64.160004"
               cy="226.5"
               r="0.66149998"
               id="circle250"
               style="stroke-width:0" />
          </g>
          <path
             d="m 70.91,228.3 6.615,10e-6"
             id="path254"
             inkscape:connector-curvature="0"
             style="stroke:#000000;stroke-width:0.2507px" />
          <circle
             cx="71.57"
             cy="228.3"
             r="0.66149998"
             id="circle256"
             style="stroke-width:0" />
          <path
             d="m 79.9,232 6.615,1e-5"
             id="path258"
             inkscape:connector-curvature="0"
             style="stroke:#000000;stroke-width:0.2507px" />
          <circle
             cx="80.57"
             cy="232"
             r="0.66149998"
             id="circle260"
             style="stroke-width:0" />
        </g>
      </g>
      <path
         style="fill:none;stroke:#000000;stroke-width:0.17548259"
         inkscape:connector-curvature="0"
         id="path386"
         d="M 56.259271,214.02194 H 36.166773"
         sodipodi:nodetypes="cc" />
      <g
         transform="matrix(0.2506894,0,0,0.2506894,-4.550526,195.14414)"
         aria-label="MANUAL"
         id="g428">
        <path
           d="m 273.5,44.04 -0.01,-4.623 -2.292,3.826 h -0.5778 l -2.292,-3.766 v 4.563 h -1.235 v -6.974 h 1.066 l 2.77,4.623 2.72,-4.623 h 1.066 l 0.01,6.974 z"
           id="path416"
           inkscape:connector-curvature="0" />
        <path
           d="m 281.1,42.42 h -3.487 l -0.6874,1.614 h -1.335 l 3.138,-6.974 h 1.275 l 3.148,6.974 h -1.355 z m -0.4284,-1.016 -1.315,-3.049 -1.305,3.049 z"
           id="path418"
           inkscape:connector-curvature="0" />
        <path
           d="m 290.2,37.06 v 6.974 h -1.066 l -3.846,-4.722 v 4.722 h -1.285 V 37.06 h 1.066 l 3.846,4.722 V 37.06 Z"
           id="path420"
           inkscape:connector-curvature="0" />
        <path
           d="m 295.1,44.14 q -1.445,0 -2.252,-0.807 -0.807,-0.817 -0.807,-2.331 v -3.935 h 1.295 v 3.886 q 0,2.052 1.773,2.052 1.763,0 1.763,-2.052 v -3.886 h 1.275 v 3.935 q 0,1.514 -0.807,2.331 -0.797,0.807 -2.242,0.807 z"
           id="path422"
           inkscape:connector-curvature="0" />
        <path
           d="m 304.3,42.42 h -3.487 l -0.6874,1.614 h -1.335 l 3.138,-6.974 h 1.275 l 3.148,6.974 h -1.355 z m -0.4284,-1.016 -1.315,-3.049 -1.305,3.049 z"
           id="path424"
           inkscape:connector-curvature="0" />
        <path
           d="m 307.3,37.06 h 1.295 v 5.878 h 3.646 v 1.096 h -4.942 z"
           id="path426"
           inkscape:connector-curvature="0" />
      </g>
      <g
         transform="matrix(0.2506894,0,0,0.2506894,9.3430063,198.35134)"
         aria-label="RESO"
         id="g446">
        <path
           d="m 160.3,42.94 -0.9955,-1.427 q -0.0627,0.007 -0.188,0.007 h -1.1 v 1.42 h -0.905 v -4.873 h 2.005 q 0.6335,0 1.1,0.2088 0.4734,0.2088 0.724,0.5987 0.2506,0.3899 0.2506,0.9259 0,0.55 -0.2715,0.9468 -0.2645,0.3968 -0.7658,0.5917 l 1.121,1.601 z m -0.0209,-3.14 q 0,-0.4664 -0.3063,-0.717 -0.3063,-0.2506 -0.898,-0.2506 h -1.058 v 1.942 h 1.058 q 0.5917,0 0.898,-0.2506 0.3063,-0.2576 0.3063,-0.724 z"
           id="path438"
           inkscape:connector-curvature="0" />
        <path
           d="m 165.9,42.18 v 0.7588 h -3.655 v -4.873 h 3.557 v 0.7588 h -2.652 v 1.267 h 2.353 v 0.7449 h -2.353 v 1.344 z"
           id="path440"
           inkscape:connector-curvature="0" />
        <path
           d="m 168.4,43.01 q -0.5639,0 -1.093,-0.1601 -0.5221,-0.1601 -0.8284,-0.4247 l 0.3133,-0.7031 q 0.2994,0.2367 0.731,0.3899 0.4386,0.1462 0.8772,0.1462 0.543,0 0.8076,-0.174 0.2715,-0.174 0.2715,-0.4595 0,-0.2088 -0.1532,-0.3411 -0.1462,-0.1392 -0.3759,-0.2158 -0.2297,-0.07658 -0.6266,-0.174 -0.5569,-0.1323 -0.905,-0.2645 -0.3411,-0.1323 -0.5917,-0.4107 -0.2437,-0.2854 -0.2437,-0.7658 0,-0.4038 0.2158,-0.731 0.2228,-0.3342 0.6614,-0.5291 0.4455,-0.1949 1.086,-0.1949 0.4455,0 0.8772,0.1114 0.4317,0.1114 0.7449,0.3202 l -0.2854,0.7031 q -0.3202,-0.188 -0.6683,-0.2854 -0.3481,-0.09746 -0.6753,-0.09746 -0.536,0 -0.8006,0.181 -0.2576,0.181 -0.2576,0.4804 0,0.2088 0.1462,0.3411 0.1532,0.1323 0.3829,0.2088 0.2297,0.07658 0.6266,0.174 0.543,0.1253 0.8911,0.2645 0.3481,0.1323 0.5917,0.4107 0.2506,0.2785 0.2506,0.7519 0,0.4038 -0.2228,0.731 -0.2158,0.3272 -0.6614,0.5221 -0.4456,0.1949 -1.086,0.1949 z"
           id="path442"
           inkscape:connector-curvature="0" />
        <path
           d="m 173.5,43.01 q -0.7449,0 -1.344,-0.3202 -0.5987,-0.3272 -0.9398,-0.8981 -0.3411,-0.5778 -0.3411,-1.288 0,-0.7102 0.3411,-1.281 0.3411,-0.5778 0.9398,-0.8981 0.5987,-0.3272 1.344,-0.3272 0.7449,0 1.344,0.3272 0.5987,0.3202 0.9398,0.8911 0.3411,0.5709 0.3411,1.288 0,0.717 -0.3411,1.288 -0.3411,0.5709 -0.9398,0.8981 -0.5987,0.3202 -1.344,0.3202 z m 0,-0.7936 q 0.4873,0 0.8772,-0.2158 0.3898,-0.2228 0.6126,-0.6126 0.2228,-0.3968 0.2228,-0.8841 0,-0.4873 -0.2228,-0.8772 -0.2228,-0.3968 -0.6126,-0.6126 -0.3898,-0.2228 -0.8772,-0.2228 -0.4873,0 -0.8772,0.2228 -0.3898,0.2158 -0.6126,0.6126 -0.2228,0.3899 -0.2228,0.8772 0,0.4873 0.2228,0.8841 0.2228,0.3899 0.6126,0.6126 0.3898,0.2158 0.8772,0.2158 z"
           id="path444"
           inkscape:connector-curvature="0" />
      </g>
      <g
         transform="matrix(0.2506894,0,0,0.2506894,9.3430063,198.35134)"
         aria-label="ABS"
         id="g482">
        <path
           d="m 127.8,41.81 h -2.437 l -0.4804,1.128 h -0.9329 l 2.193,-4.873 h 0.8911 l 2.2,4.873 h -0.9468 z m -0.2994,-0.7101 -0.9189,-2.13 -0.912,2.13 z"
           id="path476"
           inkscape:connector-curvature="0" />
        <path
           d="m 133.3,40.41 q 0.4038,0.1323 0.6405,0.4455 0.2367,0.3063 0.2367,0.7658 0,0.6335 -0.4873,0.9816 -0.4873,0.3411 -1.42,0.3411 h -2.423 v -4.873 h 2.283 q 0.8632,0 1.33,0.3411 0.4664,0.3342 0.4664,0.9259 0,0.362 -0.1671,0.6405 -0.1671,0.2785 -0.4595,0.4316 z m -2.548,-1.629 v 1.344 h 1.281 q 0.4734,0 0.724,-0.1671 0.2576,-0.174 0.2576,-0.5012 0,-0.3342 -0.2576,-0.5012 -0.2506,-0.174 -0.724,-0.174 z m 1.462,3.453 q 1.051,0 1.051,-0.7031 0,-0.7031 -1.051,-0.7031 h -1.462 v 1.406 z"
           id="path478"
           inkscape:connector-curvature="0" />
        <path
           d="m 136.7,43.01 q -0.5639,0 -1.093,-0.1601 -0.5221,-0.1601 -0.8284,-0.4247 l 0.3133,-0.7031 q 0.2994,0.2367 0.731,0.3899 0.4386,0.1462 0.8772,0.1462 0.543,0 0.8076,-0.174 0.2715,-0.174 0.2715,-0.4595 0,-0.2088 -0.1532,-0.3411 -0.1462,-0.1392 -0.3759,-0.2158 -0.2297,-0.07658 -0.6266,-0.174 -0.5569,-0.1323 -0.905,-0.2645 -0.3411,-0.1323 -0.5917,-0.4107 -0.2437,-0.2854 -0.2437,-0.7658 0,-0.4038 0.2158,-0.731 0.2228,-0.3342 0.6614,-0.5291 0.4456,-0.1949 1.086,-0.1949 0.4456,0 0.8772,0.1114 0.4316,0.1114 0.7449,0.3202 l -0.2854,0.7031 q -0.3202,-0.188 -0.6683,-0.2854 -0.3481,-0.09746 -0.6753,-0.09746 -0.536,0 -0.8006,0.181 -0.2576,0.181 -0.2576,0.4804 0,0.2088 0.1462,0.3411 0.1532,0.1323 0.3829,0.2088 0.2297,0.07658 0.6266,0.174 0.543,0.1253 0.8911,0.2645 0.3481,0.1323 0.5917,0.4107 0.2506,0.2785 0.2506,0.7519 0,0.4038 -0.2228,0.731 -0.2158,0.3272 -0.6614,0.5221 -0.4455,0.1949 -1.086,0.1949 z"
           id="path480"
           inkscape:connector-curvature="0" />
      </g>
      <g
         transform="matrix(0.2506894,0,0,0.2506894,9.3430063,198.35134)"
         aria-label="/"
         id="g486"
         style="fill:#eaeae3">
        <path
           d="m 148.4,37.08 h 0.7797 l -2.297,6.558 h -0.7797 z"
           id="path484"
           inkscape:connector-curvature="0"
           style="fill:#000000" />
      </g>
      <g
         transform="matrix(0.2506894,0,0,0.2506894,9.3430063,198.35134)"
         aria-label="PHASE"
         id="g506">
        <path
           d="m 86.67,38.07 q 0.6335,0 1.1,0.2088 0.4734,0.2088 0.724,0.5987 0.2506,0.3899 0.2506,0.9259 0,0.5291 -0.2506,0.9259 -0.2506,0.3899 -0.724,0.5987 -0.4664,0.2088 -1.1,0.2088 h -1.1 v 1.406 h -0.905 v -4.873 z m -0.04177,2.701 q 0.5917,0 0.8981,-0.2506 0.3063,-0.2506 0.3063,-0.717 0,-0.4664 -0.3063,-0.717 -0.3063,-0.2506 -0.8981,-0.2506 h -1.058 v 1.935 z"
           id="path496"
           inkscape:connector-curvature="0" />
        <path
           d="m 93.99,38.07 v 4.873 h -0.905 v -2.088 h -2.52 v 2.088 H 89.66 V 38.07 h 0.905 v 2.012 h 2.52 V 38.07 Z"
           id="path498"
           inkscape:connector-curvature="0" />
        <path
           d="m 98.46,41.81 h -2.437 l -0.4804,1.128 h -0.9329 l 2.193,-4.873 h 0.8911 l 2.2,4.873 H 98.947 Z m -0.2994,-0.7101 -0.9189,-2.13 -0.912,2.13 z"
           id="path500"
           inkscape:connector-curvature="0" />
        <path
           d="m 102,43.01 q -0.5639,0 -1.093,-0.1601 -0.5221,-0.1601 -0.8284,-0.4247 l 0.3133,-0.7031 q 0.2994,0.2367 0.731,0.3899 0.4386,0.1462 0.8772,0.1462 0.543,0 0.8076,-0.174 0.2715,-0.174 0.2715,-0.4595 0,-0.2088 -0.1532,-0.3411 -0.1462,-0.1392 -0.3759,-0.2158 -0.2297,-0.07658 -0.6266,-0.174 -0.5569,-0.1323 -0.905,-0.2645 -0.3411,-0.1323 -0.5917,-0.4107 -0.2437,-0.2854 -0.2437,-0.7658 0,-0.4038 0.2158,-0.731 0.2228,-0.3342 0.6614,-0.5291 0.4455,-0.1949 1.086,-0.1949 0.4455,0 0.8772,0.1114 0.4317,0.1114 0.7449,0.3202 l -0.2854,0.7031 q -0.3202,-0.188 -0.6683,-0.2854 -0.3481,-0.09746 -0.6753,-0.09746 -0.536,0 -0.8006,0.181 -0.2576,0.181 -0.2576,0.4804 0,0.2088 0.1462,0.3411 0.1532,0.1323 0.3829,0.2088 0.2297,0.07658 0.6266,0.174 0.543,0.1253 0.8911,0.2645 0.3481,0.1323 0.5917,0.4107 0.2506,0.2785 0.2506,0.7519 0,0.4038 -0.2228,0.731 -0.2158,0.3272 -0.6614,0.5221 -0.4456,0.1949 -1.086,0.1949 z"
           id="path502"
           inkscape:connector-curvature="0" />
        <path
           d="m 108.5,42.18 v 0.7588 h -3.655 v -4.873 h 3.557 v 0.7588 h -2.652 v 1.267 h 2.353 v 0.7449 h -2.353 v 1.344 z"
           id="path504"
           inkscape:connector-curvature="0" />
      </g>
      <path
         style="fill:none;stroke:#000000;stroke-width:0.17548257;stroke-linecap:round;stroke-linejoin:round"
         d="m 37.871461,213.44786 0.652294,0.57307 -0.652294,0.57308"
         id="path542"
         inkscape:connector-curvature="0" />
      <path
         style="fill:none;stroke:#000000;stroke-width:0.17548257;stroke-linecap:round;stroke-linejoin:round"
         d="m 45.91859,213.44786 0.652294,0.57307 -0.652294,0.57308"
         id="path544"
         inkscape:connector-curvature="0" />
      <path
         style="fill:none;stroke:#000000;stroke-width:0.17548257;stroke-linecap:round;stroke-linejoin:round"
         d="m 55.695477,213.44786 0.652294,0.57307 -0.652294,0.57308"
         id="path546"
         inkscape:connector-curvature="0" />
      <g
         transform="matrix(0.94760592,0,0,0.94760592,68.004325,-40.430307)"
         id="g1255">
        <rect
           x="-21.700001"
           y="265.79999"
           width="7.6729999"
           height="5.5560002"
           rx="0.79369998"
           ry="0.79369998"
           id="rect1247"
           style="fill-opacity:0.98229998" />
        <rect
           x="-21.17"
           y="266.29999"
           width="6.6149998"
           height="4.4980001"
           rx="0.26460001"
           ry="0.26460001"
           id="rect1249"
           style="fill:#ffffff;fill-opacity:0.98229998" />
        <g
           aria-label="8"
           id="g1253"
           style="fill:#ffd42a">
          <path
             d="m -17.46,269.8 -0.08516,-0.0881 0.09397,-1.069 h 0.05286 l 0.03524,0.0382 0.1645,0.1791 -0.06461,0.7606 z m 0.1204,-1.377 -0.04111,0.0382 h -0.05286 l 0.09104,-1.066 0.09985,-0.091 0.1644,0.1791 -0.06461,0.7606 z m 0.2379,-1.248 0.09691,-0.091 h 1.195 l 0.08223,0.091 -0.1968,0.1821 h -1.013 z m 1.131,1.242 0.1233,0.1351 -0.1468,0.1351 h -1.104 l -0.1233,-0.1351 0.1468,-0.1351 z m 0.3612,-1.113 0.08516,0.0881 -0.09397,1.069 h -0.05286 l -0.03524,-0.0382 -0.1645,-0.1791 0.06461,-0.7606 z m -0.3583,2.625 -0.09691,0.091 h -1.195 l -0.08223,-0.091 0.1968,-0.1821 h 1.013 z m 0.2379,-1.248 0.04111,-0.0382 h 0.05286 l -0.09103,1.069 -0.09985,0.0881 -0.1644,-0.1791 0.06461,-0.7576 z"
             id="path1251"
             inkscape:connector-curvature="0"
             style="fill:#000000;stroke-width:0.26460001" />
        </g>
      </g>
      <g
         transform="matrix(0.94760592,0,0,0.94760592,-19.360929,4.5684466)"
         id="g1295">
        <circle
           cx="65.089996"
           cy="221.10001"
           r="2.9100001"
           id="circle1291"
           style="fill:#151715" />
        <circle
           cx="65.089996"
           cy="221.10001"
           r="2.381"
           id="circle1293"
           style="fill:#ffffff" />
      </g>
      <circle
         style="fill:#ffffff;stroke:#000000;stroke-width:0.10027576;stroke-linecap:round;stroke-linejoin:round"
         id="circle1307"
         r="0.42316371"
         cy="211.26686"
         cx="36.793495" />
      <path
         style="fill:#ffffff;stroke:#000000;stroke-width:0.20055152;stroke-linecap:round;stroke-linejoin:round;stroke-miterlimit:0;stroke-opacity:0.99320003"
         inkscape:connector-curvature="0"
         id="path1311"
         d="m 67.923776,207.59338 c -2.077965,0 -1.180748,1.98871 -2.266233,2.61218 -1.090749,0.52143 -1.966658,1.4021 -2.479067,2.4926 -0.209351,0.35724 -0.564553,0.25445 -0.710454,0.69542 -0.156881,0.47455 -0.241765,0.98145 -0.241765,1.50839 0,0.53623 0.08784,1.05215 0.250213,1.53397 0.144122,0.42768 0.487341,0.3447 0.714214,0.69968 0.52695,1.10378 1.426674,1.98847 2.541991,2.49987 0.330409,0.20983 0.242191,0.55001 0.675608,0.6919 0.477062,0.15603 0.986964,0.24044 1.516671,0.24044 0.539233,0 1.057909,-0.0873 1.542492,-0.24883 0.427425,-0.14247 0.347706,-0.48032 0.697167,-0.70595 1.110554,-0.52293 2.001253,-1.41714 2.516921,-2.52694 0.21063,-0.33593 0.55603,-0.2445 0.699424,-0.67812 0.156881,-0.47455 0.241765,-0.98145 0.241765,-1.5084 0,-0.53622 -0.08784,-1.05214 -0.250213,-1.53397 -0.145651,-0.43218 -0.49436,-0.34269 -0.720983,-0.7112 -0.522687,-1.08473 -1.406368,-1.95638 -2.501128,-2.46729 -1.040361,-0.59238 -0.148559,-2.59463 -2.226623,-2.59463 z" />
      <path
         style="fill:#ffffff;stroke:#000000;stroke-width:0.20055152;stroke-linecap:round;stroke-linejoin:round;stroke-miterlimit:0;stroke-opacity:0.99320003"
         inkscape:connector-curvature="0"
         id="path1313"
         d="m 72.561529,214.90348 a 4.635247,4.6101781 0 0 1 -4.635247,4.61018 4.635247,4.6101781 0 0 1 -4.635247,-4.61018 4.635247,4.6101781 0 0 1 4.635247,-4.61018 4.635247,4.6101781 0 0 1 4.635247,4.61018 z" />
      <ellipse
         style="fill:#ffffff;stroke:#000000;stroke-width:0.20055152;stroke-linecap:round;stroke-linejoin:round;stroke-miterlimit:0;stroke-opacity:0.99320003"
         id="ellipse1315"
         ry="0.41163197"
         rx="0.41413888"
         cy="208.4382"
         cx="67.923805" />
      <path
         style="fill:#ffffff;fill-opacity:0.08772003;stroke:#000000;stroke-width:0.20055152;stroke-linecap:round;stroke-linejoin:round;stroke-miterlimit:0;stroke-opacity:0.99320003"
         inkscape:connector-curvature="0"
         id="path1321"
         stroke-miterlimit="0"
         d="m 70.906979,214.90348 a 2.9756832,2.9581349 0 0 1 -2.975683,2.95813 2.9756832,2.9581349 0 0 1 -2.975683,-2.95813 2.9756832,2.9581349 0 0 1 2.975683,-2.95814 2.9756832,2.9581349 0 0 1 2.975683,2.95814 z" />
      <circle
         cx="73.739792"
         cy="209.29057"
         r="0.64251691"
         id="circle1435"
         style="fill:none;stroke:#000000;stroke-width:0.17548259;stroke-linecap:round;stroke-linejoin:round" />
      <path
         d="m 73.037838,210.01252 1.4179,-1.4179"
         id="path1437"
         inkscape:connector-curvature="0"
         style="fill:none;stroke:#000000;stroke-width:0.17548259;stroke-linecap:round" />
      <g
         transform="matrix(0.2506894,0,0,0.2506894,-123.94855,111.16156)"
         id="g1956"
         style="fill:#ffffff;stroke:#000000;stroke-width:0.80000001">
        <path
           d="m 628.2,398 a 12.13,12.13 0 0 0 -12.13,12.13 12.13,12.13 0 0 0 12.13,12.13 12.13,12.13 0 0 0 12.13,-12.13 A 12.13,12.13 0 0 0 628.2,398 Z m 0,2.312 a 9.818,9.818 0 0 1 9.816,9.816 9.818,9.818 0 0 1 -9.816,9.818 9.818,9.818 0 0 1 -9.818,-9.818 9.818,9.818 0 0 1 9.818,-9.816 z"
           id="path1948"
           inkscape:connector-curvature="0" />
        <path
           d="m 628.2,403.3 c -3.748,10e-6 -6.786,3.038 -6.787,6.786 0,3.748 3.038,6.787 6.787,6.787 3.748,-6e-4 6.786,-3.039 6.786,-6.787 -5e-4,-3.747 -3.038,-6.785 -6.786,-6.786 z m 0,1.602 c 2.862,5.6e-4 5.183,2.321 5.184,5.184 0,2.863 -2.321,5.184 -5.184,5.185 -2.864,0 -5.185,-2.321 -5.185,-5.185 6e-4,-2.863 2.322,-5.184 5.185,-5.184 z"
           id="path1950"
           inkscape:connector-curvature="0" />
        <path
           d="m 624.2,422.1 c 1.899,0.0227 11.59,-1.78 12.22,-2.32 0.6775,-0.5757 4.424,-11.09 4.264,-11.96 -0.1658,-0.8736 -7.393,-9.378 -8.23,-9.676 -0.8379,-0.298 -11.82,1.715 -12.49,2.291 -0.6775,0.5758 -4.424,11.09 -4.264,11.96 0.1648,0.8738 7.393,9.378 8.23,9.676 0.054,0.0147 0.1438,0.0274 0.2698,0.0299 z m 3.166,-2.55 c -5.216,-0.4567 -9.074,-5.055 -8.618,-10.27 0.4558,-5.216 5.054,-9.076 10.27,-8.62 5.217,0.456 9.077,5.056 8.62,10.27 -0.4568,5.216 -5.056,9.075 -10.27,8.618 z"
           id="path1952"
           inkscape:connector-curvature="0" />
        <path
           d="m 625.6,401.6 c -3.272,0 -5.906,2.634 -5.906,5.906 v 5.279 c 0,3.272 2.634,5.906 5.906,5.906 h 5.279 c 3.272,0 5.906,-2.634 5.906,-5.906 v -5.279 c 0,-3.272 -2.634,-5.906 -5.906,-5.906 z m 2.641,1.885 a 6.662,6.662 0 0 1 6.66,6.66 6.662,6.662 0 0 1 -6.66,6.662 6.662,6.662 0 0 1 -6.662,-6.662 6.662,6.662 0 0 1 6.662,-6.66 z"
           id="path1954"
           inkscape:connector-curvature="0" />
      </g>
      <path
         d="m 59.018971,219.41591 c 2.506894,-6.26723 -2.506894,-7.52068 0,-13.78791"
         id="path3500"
         inkscape:connector-curvature="0"
         style="fill:none;stroke:#000000;stroke-width:0.17548259;stroke-miterlimit:4;stroke-dasharray:0.70193036, 0.70193036;stroke-dashoffset:0"
         sodipodi:nodetypes="cc" />
    </g>
  </g>
</svg>
