<?xml version="1.0" encoding="UTF-8" standalone="no"?>
<!-- Created with Inkscape (http://www.inkscape.org/) -->

<svg
   xmlns:dc="http://purl.org/dc/elements/1.1/"
   xmlns:cc="http://creativecommons.org/ns#"
   xmlns:rdf="http://www.w3.org/1999/02/22-rdf-syntax-ns#"
   xmlns:svg="http://www.w3.org/2000/svg"
   xmlns="http://www.w3.org/2000/svg"
   xmlns:sodipodi="http://sodipodi.sourceforge.net/DTD/sodipodi-0.dtd"
   xmlns:inkscape="http://www.inkscape.org/namespaces/inkscape"
   width="500"
   height="150"
   viewBox="0 0 500 150"
   version="1.1"
   id="svg8"
   inkscape:version="0.92.3 (2405546, 2018-03-11)"
   sodipodi:docname="phaseque-output.svg">
  <defs
     id="defs2" />
  <sodipodi:namedview
     id="base"
     pagecolor="#f5f5f5"
     bordercolor="#000000"
     borderopacity="0.16470588"
     inkscape:pageopacity="0"
     inkscape:pageshadow="2"
     inkscape:zoom="1.4142136"
     inkscape:cx="227.51743"
     inkscape:cy="60.192458"
     inkscape:document-units="px"
     inkscape:current-layer="layer1"
     showgrid="false"
     units="px"
     guidecolor="#00d1ae"
     guideopacity="0.49803922"
     inkscape:window-width="2727"
     inkscape:window-height="1324"
     inkscape:window-x="772"
     inkscape:window-y="492"
     inkscape:window-maximized="0">
    <inkscape:grid
       type="xygrid"
       id="grid815"
       color="#3fb6ff"
       opacity="0.1254902"
       empcolor="#3f96ff"
       empopacity="0.29019608" />
  </sodipodi:namedview>
  <metadata
     id="metadata5">
    <rdf:RDF>
      <cc:Work
         rdf:about="">
        <dc:format>image/svg+xml</dc:format>
        <dc:type
           rdf:resource="http://purl.org/dc/dcmitype/StillImage" />
        <dc:title></dc:title>
      </cc:Work>
    </rdf:RDF>
  </metadata>
  <g
     inkscape:label="Layer 1"
     inkscape:groupmode="layer"
     id="layer1"
     transform="translate(0,-676.5)">
    <g
       id="g1546"
       transform="translate(-199.335,-14.211439)">
      <path
         id="path268"
         d="m 245.665,781.28856 v -42"
         style="fill:none;stroke:#000000;stroke-width:1.39999998"
         inkscape:connector-curvature="0" />
      <g
         id="g326"
         transform="matrix(2,0,0,2,-449.33499,127.28856)">
        <g
           id="g278"
           aria-label="GATE">
          <path
             id="path270"
             d="m 341.8,293.4 h 0.8563 v 1.942 q -0.3759,0.2994 -0.8772,0.4595 -0.5012,0.1601 -1.03,0.1601 -0.7449,0 -1.344,-0.3202 -0.5987,-0.3272 -0.9398,-0.898 -0.3411,-0.5709 -0.3411,-1.288 0,-0.7171 0.3411,-1.288 0.3411,-0.5709 0.9398,-0.8911 0.6057,-0.3272 1.358,-0.3272 0.6126,0 1.114,0.2019 0.5012,0.2019 0.8424,0.5917 l -0.5709,0.5569 q -0.5569,-0.5569 -1.344,-0.5569 -0.5152,0 -0.9189,0.2158 -0.3968,0.2158 -0.6266,0.6057 -0.2228,0.3898 -0.2228,0.8911 0,0.4873 0.2228,0.8772 0.2297,0.3898 0.6266,0.6126 0.4038,0.2228 0.912,0.2228 0.5709,0 1.002,-0.2506 z"
             inkscape:connector-curvature="0" />
          <path
             id="path272"
             d="m 347,294.8 h -2.437 l -0.4804,1.128 h -0.9329 l 2.193,-4.873 h 0.8911 l 2.2,4.873 h -0.9468 z m -0.2994,-0.7101 -0.9189,-2.13 -0.912,2.13 z"
             inkscape:connector-curvature="0" />
          <path
             id="path274"
             d="m 349.8,291.8 h -1.615 v -0.7658 h 4.135 V 291.8 h -1.615 v 4.107 H 349.8 Z"
             inkscape:connector-curvature="0" />
          <path
             id="path276"
             d="m 356.6,295.2 v 0.7588 h -3.655 v -4.873 h 3.557 v 0.7588 h -2.652 v 1.267 h 2.353 v 0.7449 h -2.353 v 1.344 z"
             inkscape:connector-curvature="0" />
        </g>
        <g
           id="g282"
           aria-label="V"
           style="fill:#eaeae3">
          <path
             id="path280"
             d="m 384,291.1 -2.123,4.873 h -0.8911 l -2.13,-4.873 h 0.9816 l 1.622,3.759 1.636,-3.759 z"
             inkscape:connector-curvature="0"
             style="fill:#000000" />
        </g>
        <g
           id="g294"
           aria-label="SHIFT">
          <path
             id="path284"
             d="m 407.1,296 q -0.5639,0 -1.093,-0.1601 -0.5221,-0.1601 -0.8284,-0.4247 l 0.3133,-0.7031 q 0.2994,0.2367 0.731,0.3898 0.4386,0.1462 0.8772,0.1462 0.543,0 0.8076,-0.174 0.2715,-0.174 0.2715,-0.4595 0,-0.2088 -0.1532,-0.3411 -0.1462,-0.1392 -0.3759,-0.2158 -0.2297,-0.0766 -0.6266,-0.174 -0.5569,-0.1323 -0.905,-0.2645 -0.3411,-0.1323 -0.5917,-0.4107 -0.2436,-0.2854 -0.2436,-0.7658 0,-0.4038 0.2158,-0.731 0.2228,-0.3342 0.6614,-0.5291 0.4456,-0.1949 1.086,-0.1949 0.4456,0 0.8772,0.1114 0.4316,0.1114 0.7449,0.3202 l -0.2854,0.7031 q -0.3202,-0.188 -0.6683,-0.2854 -0.3481,-0.0975 -0.6753,-0.0975 -0.536,0 -0.8006,0.181 -0.2576,0.181 -0.2576,0.4804 0,0.2088 0.1462,0.3411 0.1532,0.1323 0.3829,0.2088 0.2297,0.0766 0.6266,0.174 0.543,0.1253 0.8911,0.2646 0.3481,0.1323 0.5917,0.4107 0.2506,0.2785 0.2506,0.7519 0,0.4038 -0.2228,0.731 -0.2158,0.3272 -0.6614,0.5221 Q 407.7407,296 407.1002,296 Z"
             inkscape:connector-curvature="0" />
          <path
             id="path286"
             d="m 414.3,291.1 v 4.873 h -0.905 v -2.088 h -2.52 v 2.088 H 409.97 V 291.1 h 0.905 v 2.012 h 2.52 V 291.1 Z"
             inkscape:connector-curvature="0" />
          <path
             id="path288"
             d="m 415.6,291.1 h 0.905 v 4.873 H 415.6 Z"
             inkscape:connector-curvature="0" />
          <path
             id="path290"
             d="m 418.7,291.8 v 1.483 h 2.353 v 0.7658 H 418.7 v 1.866 h -0.905 v -4.873 h 3.557 v 0.7588 z"
             inkscape:connector-curvature="0" />
          <path
             id="path292"
             d="m 423.3,291.8 h -1.615 v -0.7658 h 4.135 V 291.8 h -1.615 v 4.107 H 423.3 Z"
             inkscape:connector-curvature="0" />
        </g>
        <g
           id="g302"
           aria-label="LEN">
          <path
             id="path296"
             d="m 442.8,291.1 h 0.905 v 4.107 h 2.548 v 0.7658 H 442.8 Z"
             inkscape:connector-curvature="0" />
          <path
             id="path298"
             d="m 450.6,295.2 v 0.7588 h -3.655 v -4.873 h 3.557 v 0.7588 h -2.652 v 1.267 h 2.353 v 0.7449 h -2.353 v 1.344 z"
             inkscape:connector-curvature="0" />
          <path
             id="path300"
             d="m 456,291.1 v 4.873 h -0.7449 l -2.687,-3.3 v 3.3 h -0.898 V 291.1 h 0.7449 l 2.687,3.3 v -3.3 z"
             inkscape:connector-curvature="0" />
        </g>
        <g
           id="g312"
           aria-label="EXPR">
          <path
             id="path304"
             d="m 496,295.2 v 0.7588 h -3.655 v -4.873 h 3.557 v 0.7588 h -2.652 v 1.267 h 2.353 v 0.7449 h -2.353 v 1.344 z"
             inkscape:connector-curvature="0" />
          <path
             id="path306"
             d="m 500.1,295.9 -1.323,-1.852 -1.309,1.852 h -1.03 l 1.81,-2.485 -1.713,-2.388 h 1.023 l 1.246,1.733 1.232,-1.733 h 0.9816 l -1.706,2.353 1.831,2.52 z"
             inkscape:connector-curvature="0" />
          <path
             id="path308"
             d="m 503.7,291.1 q 0.6335,0 1.1,0.2088 0.4734,0.2088 0.724,0.5987 0.2506,0.3898 0.2506,0.9259 0,0.5291 -0.2506,0.9259 -0.2506,0.3899 -0.724,0.5987 -0.4664,0.2088 -1.1,0.2088 h -1.1 v 1.406 h -0.905 v -4.873 z m -0.0418,2.701 q 0.5917,0 0.898,-0.2506 0.3063,-0.2506 0.3063,-0.717 0,-0.4664 -0.3063,-0.717 -0.3063,-0.2506 -0.898,-0.2506 h -1.058 v 1.935 z"
             inkscape:connector-curvature="0" />
          <path
             id="path310"
             d="m 509.8,295.9 -0.9955,-1.427 q -0.0627,0.007 -0.188,0.007 h -1.1 v 1.42 h -0.905 v -4.873 h 2.005 q 0.6335,0 1.1,0.2088 0.4734,0.2088 0.724,0.5987 0.2506,0.3898 0.2506,0.9259 0,0.55 -0.2715,0.9468 -0.2645,0.3968 -0.7658,0.5917 l 1.121,1.601 z m -0.0209,-3.14 q 0,-0.4664 -0.3063,-0.717 -0.3063,-0.2506 -0.8981,-0.2506 h -1.058 v 1.942 h 1.058 q 0.5917,0 0.8981,-0.2506 0.3063,-0.2576 0.3063,-0.724 z"
             inkscape:connector-curvature="0" />
        </g>
        <g
           id="g324"
           aria-label="PHASE">
          <path
             id="path314"
             d="m 541.6,291.1 q 0.6335,0 1.1,0.2088 0.4734,0.2088 0.724,0.5987 0.2506,0.3898 0.2506,0.9259 0,0.5291 -0.2506,0.9259 -0.2506,0.3899 -0.724,0.5987 -0.4664,0.2088 -1.1,0.2088 h -1.1 v 1.406 h -0.905 v -4.873 z m -0.0418,2.701 q 0.5917,0 0.8981,-0.2506 0.3063,-0.2506 0.3063,-0.717 0,-0.4664 -0.3063,-0.717 -0.3063,-0.2506 -0.8981,-0.2506 h -1.058 v 1.935 z"
             inkscape:connector-curvature="0" />
          <path
             id="path316"
             d="m 548.9,291.1 v 4.873 h -0.905 v -2.088 h -2.52 v 2.088 H 544.57 V 291.1 h 0.905 v 2.012 h 2.52 V 291.1 Z"
             inkscape:connector-curvature="0" />
          <path
             id="path318"
             d="m 553.4,294.8 h -2.437 l -0.4804,1.128 h -0.9329 l 2.193,-4.873 h 0.8911 l 2.2,4.873 h -0.9468 z m -0.2994,-0.7101 -0.9189,-2.13 -0.912,2.13 z"
             inkscape:connector-curvature="0" />
          <path
             id="path320"
             d="m 557,296 q -0.5639,0 -1.093,-0.1601 -0.5221,-0.1601 -0.8284,-0.4247 l 0.3133,-0.7031 q 0.2994,0.2367 0.731,0.3898 0.4386,0.1462 0.8772,0.1462 0.543,0 0.8076,-0.174 0.2715,-0.174 0.2715,-0.4595 0,-0.2088 -0.1532,-0.3411 -0.1462,-0.1392 -0.3759,-0.2158 -0.2297,-0.0766 -0.6265,-0.174 -0.5569,-0.1323 -0.905,-0.2645 -0.3411,-0.1323 -0.5917,-0.4107 -0.2437,-0.2854 -0.2437,-0.7658 0,-0.4038 0.2158,-0.731 0.2228,-0.3342 0.6614,-0.5291 0.4456,-0.1949 1.086,-0.1949 0.4455,0 0.8772,0.1114 0.4316,0.1114 0.7449,0.3202 l -0.2854,0.7031 q -0.3202,-0.188 -0.6683,-0.2854 -0.3481,-0.0975 -0.6753,-0.0975 -0.536,0 -0.8006,0.181 -0.2576,0.181 -0.2576,0.4804 0,0.2088 0.1462,0.3411 0.1532,0.1323 0.3829,0.2088 0.2297,0.0766 0.6266,0.174 0.543,0.1253 0.8911,0.2646 0.3481,0.1323 0.5917,0.4107 0.2506,0.2785 0.2506,0.7519 0,0.4038 -0.2228,0.731 -0.2158,0.3272 -0.6614,0.5221 Q 557.6407,296 557.0002,296 Z"
             inkscape:connector-curvature="0" />
          <path
             id="path322"
             d="m 563.5,295.2 v 0.7588 h -3.655 v -4.873 h 3.557 v 0.7588 h -2.652 v 1.267 h 2.353 v 0.7449 h -2.353 v 1.344 z"
             inkscape:connector-curvature="0" />
        </g>
      </g>
      <g
         id="g350"
         style="fill:none;stroke:#000000"
         transform="matrix(2,0,0,2,-449.33499,127.28856)">
        <g
           id="g340"
           style="stroke-width:0.69999999">
          <path
             id="path328"
             d="M 381.5,327 V 306"
             inkscape:connector-curvature="0" />
          <path
             id="path330"
             d="M 415.5,327 V 306"
             inkscape:connector-curvature="0" />
          <path
             id="path332"
             d="M 449.5,327 V 306"
             inkscape:connector-curvature="0" />
          <path
             id="path334"
             d="M 483.5,327 V 306"
             inkscape:connector-curvature="0" />
          <path
             id="path336"
             d="M 517.5,327 V 306"
             inkscape:connector-curvature="0" />
          <path
             id="path338"
             d="M 551.5,327 V 306"
             inkscape:connector-curvature="0" />
        </g>
        <g
           id="g348"
           style="stroke-width:1px;stroke-linecap:round">
          <path
             id="path342"
             d="m 515,293.5 h 5"
             inkscape:connector-curvature="0" />
          <path
             id="path344"
             d="m 517.5,291 v 5"
             inkscape:connector-curvature="0" />
          <path
             id="path346"
             d="m 480.6,295.6 c 2.855,-0.1746 5.043,-1.262 5.875,-4.203"
             inkscape:connector-curvature="0" />
        </g>
      </g>
      <g
         id="g384"
         style="fill:#ffffff;stroke:#000000;stroke-linecap:round;stroke-linejoin:round"
         transform="matrix(2,0,0,2,-449.33499,127.28856)">
        <g
           id="g366"
           style="stroke-width:0.40000001">
          <circle
             id="circle352"
             r="3.6559999"
             cy="304.79999"
             cx="347.39999" />
          <circle
             id="circle354"
             r="3.6559999"
             cy="304.79999"
             cx="551.40002" />
          <circle
             id="circle356"
             r="3.6559999"
             cy="304.79999"
             cx="381.39999" />
          <circle
             id="circle358"
             r="3.6559999"
             cy="304.79999"
             cx="415.39999" />
          <circle
             id="circle360"
             r="3.6559999"
             cy="304.79999"
             cx="449.39999" />
          <circle
             id="circle362"
             r="3.6559999"
             cy="304.79999"
             cx="483.39999" />
          <circle
             id="circle364"
             r="3.6559999"
             cy="304.79999"
             cx="517.40002" />
        </g>
        <g
           id="g382"
           stroke-miterlimit="1.333"
           style="stroke-width:0.80000001;stroke-miterlimit:1.33299994">
          <rect
             id="rect368"
             ry="2.652"
             rx="2.652"
             height="30.530001"
             width="29.370001"
             y="317"
             x="332.79999" />
          <rect
             id="rect370"
             ry="2.652"
             rx="2.652"
             height="30.530001"
             width="29.370001"
             y="317"
             x="366.79999" />
          <rect
             id="rect372"
             ry="2.652"
             rx="2.652"
             height="30.530001"
             width="29.370001"
             y="317"
             x="400.70001" />
          <rect
             id="rect374"
             ry="2.652"
             rx="2.652"
             height="30.530001"
             width="29.370001"
             y="317"
             x="434.70001" />
          <rect
             id="rect376"
             ry="2.652"
             rx="2.652"
             height="30.530001"
             width="29.370001"
             y="317"
             x="468.60001" />
          <rect
             id="rect378"
             ry="2.652"
             rx="2.652"
             height="30.530001"
             width="29.370001"
             y="317"
             x="502.5" />
          <rect
             id="rect380"
             ry="2.652"
             rx="2.652"
             height="30.530001"
             width="29.370001"
             y="317"
             x="536.5" />
        </g>
      </g>
      <g
         id="g1632"
         transform="matrix(2,0,0,2,-1010.735,-28.25144)"
         style="fill:#ffffff;stroke:#000000;stroke-width:0.80000001">
        <path
           id="path1624"
           d="m 628.2,398 a 12.13,12.13 0 0 0 -12.13,12.13 12.13,12.13 0 0 0 12.13,12.13 12.13,12.13 0 0 0 12.13,-12.13 A 12.13,12.13 0 0 0 628.2,398 Z m 0,2.312 a 9.818,9.818 0 0 1 9.816,9.816 9.818,9.818 0 0 1 -9.816,9.818 9.818,9.818 0 0 1 -9.818,-9.818 9.818,9.818 0 0 1 9.818,-9.816 z"
           inkscape:connector-curvature="0" />
        <path
           id="path1626"
           d="m 628.2,403.3 c -3.748,10e-6 -6.786,3.038 -6.787,6.786 0,3.748 3.038,6.787 6.787,6.787 3.748,-6e-4 6.786,-3.039 6.786,-6.787 -5e-4,-3.747 -3.038,-6.785 -6.786,-6.786 z m 0,1.602 c 2.862,5.6e-4 5.183,2.321 5.184,5.184 0,2.863 -2.321,5.184 -5.184,5.185 -2.864,0 -5.185,-2.321 -5.185,-5.185 6e-4,-2.863 2.322,-5.184 5.185,-5.184 z"
           inkscape:connector-curvature="0" />
        <path
           id="path1628"
           d="m 624.2,422.1 c 1.899,0.0227 11.59,-1.78 12.22,-2.32 0.6775,-0.5757 4.424,-11.09 4.264,-11.96 -0.1658,-0.8736 -7.393,-9.378 -8.23,-9.676 -0.8379,-0.298 -11.82,1.715 -12.49,2.291 -0.6775,0.5758 -4.424,11.09 -4.264,11.96 0.1648,0.8738 7.393,9.378 8.23,9.676 0.054,0.0147 0.1438,0.0274 0.2698,0.0299 z m 3.166,-2.55 c -5.216,-0.4567 -9.074,-5.055 -8.618,-10.27 0.4558,-5.216 5.054,-9.076 10.27,-8.62 5.217,0.456 9.077,5.056 8.62,10.27 -0.4568,5.216 -5.056,9.075 -10.27,8.618 z"
           inkscape:connector-curvature="0" />
        <path
           id="path1630"
           d="m 625.6,401.6 c -3.272,0 -5.906,2.634 -5.906,5.906 v 5.279 c 0,3.272 2.634,5.906 5.906,5.906 h 5.279 c 3.272,0 5.906,-2.634 5.906,-5.906 v -5.279 c 0,-3.272 -2.634,-5.906 -5.906,-5.906 z m 2.641,1.885 a 6.662,6.662 0 0 1 6.66,6.66 6.662,6.662 0 0 1 -6.66,6.662 6.662,6.662 0 0 1 -6.662,-6.662 6.662,6.662 0 0 1 6.662,-6.66 z"
           inkscape:connector-curvature="0" />
      </g>
      <g
         id="g1642"
         transform="matrix(2,0,0,2,-603.33499,-28.25144)"
         style="fill:#ffffff;stroke:#000000;stroke-width:0.80000001">
        <path
           id="path1634"
           d="m 628.2,398 a 12.13,12.13 0 0 0 -12.13,12.13 12.13,12.13 0 0 0 12.13,12.13 12.13,12.13 0 0 0 12.13,-12.13 A 12.13,12.13 0 0 0 628.2,398 Z m 0,2.312 a 9.818,9.818 0 0 1 9.816,9.816 9.818,9.818 0 0 1 -9.816,9.818 9.818,9.818 0 0 1 -9.818,-9.818 9.818,9.818 0 0 1 9.818,-9.816 z"
           inkscape:connector-curvature="0" />
        <path
           id="path1636"
           d="m 628.2,403.3 c -3.748,10e-6 -6.786,3.038 -6.787,6.786 0,3.748 3.038,6.787 6.787,6.787 3.748,-6e-4 6.786,-3.039 6.786,-6.787 -5e-4,-3.747 -3.038,-6.785 -6.786,-6.786 z m 0,1.602 c 2.862,5.6e-4 5.183,2.321 5.184,5.184 0,2.863 -2.321,5.184 -5.184,5.185 -2.864,0 -5.185,-2.321 -5.185,-5.185 6e-4,-2.863 2.322,-5.184 5.185,-5.184 z"
           inkscape:connector-curvature="0" />
        <path
           id="path1638"
           d="m 624.2,422.1 c 1.899,0.0227 11.59,-1.78 12.22,-2.32 0.6775,-0.5757 4.424,-11.09 4.264,-11.96 -0.1658,-0.8736 -7.393,-9.378 -8.23,-9.676 -0.8379,-0.298 -11.82,1.715 -12.49,2.291 -0.6775,0.5758 -4.424,11.09 -4.264,11.96 0.1648,0.8738 7.393,9.378 8.23,9.676 0.054,0.0147 0.1438,0.0274 0.2698,0.0299 z m 3.166,-2.55 c -5.216,-0.4567 -9.074,-5.055 -8.618,-10.27 0.4558,-5.216 5.054,-9.076 10.27,-8.62 5.217,0.456 9.077,5.056 8.62,10.27 -0.4568,5.216 -5.056,9.075 -10.27,8.618 z"
           inkscape:connector-curvature="0" />
        <path
           id="path1640"
           d="m 625.6,401.6 c -3.272,0 -5.906,2.634 -5.906,5.906 v 5.279 c 0,3.272 2.634,5.906 5.906,5.906 h 5.279 c 3.272,0 5.906,-2.634 5.906,-5.906 v -5.279 c 0,-3.272 -2.634,-5.906 -5.906,-5.906 z m 2.641,1.885 a 6.662,6.662 0 0 1 6.66,6.66 6.662,6.662 0 0 1 -6.66,6.662 6.662,6.662 0 0 1 -6.662,-6.662 6.662,6.662 0 0 1 6.662,-6.66 z"
           inkscape:connector-curvature="0" />
      </g>
      <g
         id="g1652"
         transform="matrix(2,0,0,2,-942.935,-28.25144)"
         style="fill:#ffffff;stroke:#000000;stroke-width:0.80000001">
        <path
           id="path1644"
           d="m 628.2,398 a 12.13,12.13 0 0 0 -12.13,12.13 12.13,12.13 0 0 0 12.13,12.13 12.13,12.13 0 0 0 12.13,-12.13 A 12.13,12.13 0 0 0 628.2,398 Z m 0,2.312 a 9.818,9.818 0 0 1 9.816,9.816 9.818,9.818 0 0 1 -9.816,9.818 9.818,9.818 0 0 1 -9.818,-9.818 9.818,9.818 0 0 1 9.818,-9.816 z"
           inkscape:connector-curvature="0" />
        <path
           id="path1646"
           d="m 628.2,403.3 c -3.748,10e-6 -6.786,3.038 -6.787,6.786 0,3.748 3.038,6.787 6.787,6.787 3.748,-6e-4 6.786,-3.039 6.786,-6.787 -5e-4,-3.747 -3.038,-6.785 -6.786,-6.786 z m 0,1.602 c 2.862,5.6e-4 5.183,2.321 5.184,5.184 0,2.863 -2.321,5.184 -5.184,5.185 -2.864,0 -5.185,-2.321 -5.185,-5.185 6e-4,-2.863 2.322,-5.184 5.185,-5.184 z"
           inkscape:connector-curvature="0" />
        <path
           id="path1648"
           d="m 624.2,422.1 c 1.899,0.0227 11.59,-1.78 12.22,-2.32 0.6775,-0.5757 4.424,-11.09 4.264,-11.96 -0.1658,-0.8736 -7.393,-9.378 -8.23,-9.676 -0.8379,-0.298 -11.82,1.715 -12.49,2.291 -0.6775,0.5758 -4.424,11.09 -4.264,11.96 0.1648,0.8738 7.393,9.378 8.23,9.676 0.054,0.0147 0.1438,0.0274 0.2698,0.0299 z m 3.166,-2.55 c -5.216,-0.4567 -9.074,-5.055 -8.618,-10.27 0.4558,-5.216 5.054,-9.076 10.27,-8.62 5.217,0.456 9.077,5.056 8.62,10.27 -0.4568,5.216 -5.056,9.075 -10.27,8.618 z"
           inkscape:connector-curvature="0" />
        <path
           id="path1650"
           d="m 625.6,401.6 c -3.272,0 -5.906,2.634 -5.906,5.906 v 5.279 c 0,3.272 2.634,5.906 5.906,5.906 h 5.279 c 3.272,0 5.906,-2.634 5.906,-5.906 v -5.279 c 0,-3.272 -2.634,-5.906 -5.906,-5.906 z m 2.641,1.885 a 6.662,6.662 0 0 1 6.66,6.66 6.662,6.662 0 0 1 -6.66,6.662 6.662,6.662 0 0 1 -6.662,-6.662 6.662,6.662 0 0 1 6.662,-6.66 z"
           inkscape:connector-curvature="0" />
      </g>
      <g
         id="g1662"
         transform="matrix(2,0,0,2,-874.935,-28.25144)"
         style="fill:#ffffff;stroke:#000000;stroke-width:0.80000001">
        <path
           id="path1654"
           d="m 628.2,398 a 12.13,12.13 0 0 0 -12.13,12.13 12.13,12.13 0 0 0 12.13,12.13 12.13,12.13 0 0 0 12.13,-12.13 A 12.13,12.13 0 0 0 628.2,398 Z m 0,2.312 a 9.818,9.818 0 0 1 9.816,9.816 9.818,9.818 0 0 1 -9.816,9.818 9.818,9.818 0 0 1 -9.818,-9.818 9.818,9.818 0 0 1 9.818,-9.816 z"
           inkscape:connector-curvature="0" />
        <path
           id="path1656"
           d="m 628.2,403.3 c -3.748,10e-6 -6.786,3.038 -6.787,6.786 0,3.748 3.038,6.787 6.787,6.787 3.748,-6e-4 6.786,-3.039 6.786,-6.787 -5e-4,-3.747 -3.038,-6.785 -6.786,-6.786 z m 0,1.602 c 2.862,5.6e-4 5.183,2.321 5.184,5.184 0,2.863 -2.321,5.184 -5.184,5.185 -2.864,0 -5.185,-2.321 -5.185,-5.185 6e-4,-2.863 2.322,-5.184 5.185,-5.184 z"
           inkscape:connector-curvature="0" />
        <path
           id="path1658"
           d="m 624.2,422.1 c 1.899,0.0227 11.59,-1.78 12.22,-2.32 0.6775,-0.5757 4.424,-11.09 4.264,-11.96 -0.1658,-0.8736 -7.393,-9.378 -8.23,-9.676 -0.8379,-0.298 -11.82,1.715 -12.49,2.291 -0.6775,0.5758 -4.424,11.09 -4.264,11.96 0.1648,0.8738 7.393,9.378 8.23,9.676 0.054,0.0147 0.1438,0.0274 0.2698,0.0299 z m 3.166,-2.55 c -5.216,-0.4567 -9.074,-5.055 -8.618,-10.27 0.4558,-5.216 5.054,-9.076 10.27,-8.62 5.217,0.456 9.077,5.056 8.62,10.27 -0.4568,5.216 -5.056,9.075 -10.27,8.618 z"
           inkscape:connector-curvature="0" />
        <path
           id="path1660"
           d="m 625.6,401.6 c -3.272,0 -5.906,2.634 -5.906,5.906 v 5.279 c 0,3.272 2.634,5.906 5.906,5.906 h 5.279 c 3.272,0 5.906,-2.634 5.906,-5.906 v -5.279 c 0,-3.272 -2.634,-5.906 -5.906,-5.906 z m 2.641,1.885 a 6.662,6.662 0 0 1 6.66,6.66 6.662,6.662 0 0 1 -6.66,6.662 6.662,6.662 0 0 1 -6.662,-6.662 6.662,6.662 0 0 1 6.662,-6.66 z"
           inkscape:connector-curvature="0" />
      </g>
      <g
         id="g1672"
         transform="matrix(2,0,0,2,-807.135,-28.25144)"
         style="fill:#ffffff;stroke:#000000;stroke-width:0.80000001">
        <path
           id="path1664"
           d="m 628.2,398 a 12.13,12.13 0 0 0 -12.13,12.13 12.13,12.13 0 0 0 12.13,12.13 12.13,12.13 0 0 0 12.13,-12.13 A 12.13,12.13 0 0 0 628.2,398 Z m 0,2.312 a 9.818,9.818 0 0 1 9.816,9.816 9.818,9.818 0 0 1 -9.816,9.818 9.818,9.818 0 0 1 -9.818,-9.818 9.818,9.818 0 0 1 9.818,-9.816 z"
           inkscape:connector-curvature="0" />
        <path
           id="path1666"
           d="m 628.2,403.3 c -3.748,10e-6 -6.786,3.038 -6.787,6.786 0,3.748 3.038,6.787 6.787,6.787 3.748,-6e-4 6.786,-3.039 6.786,-6.787 -5e-4,-3.747 -3.038,-6.785 -6.786,-6.786 z m 0,1.602 c 2.862,5.6e-4 5.183,2.321 5.184,5.184 0,2.863 -2.321,5.184 -5.184,5.185 -2.864,0 -5.185,-2.321 -5.185,-5.185 6e-4,-2.863 2.322,-5.184 5.185,-5.184 z"
           inkscape:connector-curvature="0" />
        <path
           id="path1668"
           d="m 624.2,422.1 c 1.899,0.0227 11.59,-1.78 12.22,-2.32 0.6775,-0.5757 4.424,-11.09 4.264,-11.96 -0.1658,-0.8736 -7.393,-9.378 -8.23,-9.676 -0.8379,-0.298 -11.82,1.715 -12.49,2.291 -0.6775,0.5758 -4.424,11.09 -4.264,11.96 0.1648,0.8738 7.393,9.378 8.23,9.676 0.054,0.0147 0.1438,0.0274 0.2698,0.0299 z m 3.166,-2.55 c -5.216,-0.4567 -9.074,-5.055 -8.618,-10.27 0.4558,-5.216 5.054,-9.076 10.27,-8.62 5.217,0.456 9.077,5.056 8.62,10.27 -0.4568,5.216 -5.056,9.075 -10.27,8.618 z"
           inkscape:connector-curvature="0" />
        <path
           id="path1670"
           d="m 625.6,401.6 c -3.272,0 -5.906,2.634 -5.906,5.906 v 5.279 c 0,3.272 2.634,5.906 5.906,5.906 h 5.279 c 3.272,0 5.906,-2.634 5.906,-5.906 v -5.279 c 0,-3.272 -2.634,-5.906 -5.906,-5.906 z m 2.641,1.885 a 6.662,6.662 0 0 1 6.66,6.66 6.662,6.662 0 0 1 -6.66,6.662 6.662,6.662 0 0 1 -6.662,-6.662 6.662,6.662 0 0 1 6.662,-6.66 z"
           inkscape:connector-curvature="0" />
      </g>
      <g
         id="g1682"
         transform="matrix(2,0,0,2,-739.135,-28.25144)"
         style="fill:#ffffff;stroke:#000000;stroke-width:0.80000001">
        <path
           id="path1674"
           d="m 628.2,398 a 12.13,12.13 0 0 0 -12.13,12.13 12.13,12.13 0 0 0 12.13,12.13 12.13,12.13 0 0 0 12.13,-12.13 A 12.13,12.13 0 0 0 628.2,398 Z m 0,2.312 a 9.818,9.818 0 0 1 9.816,9.816 9.818,9.818 0 0 1 -9.816,9.818 9.818,9.818 0 0 1 -9.818,-9.818 9.818,9.818 0 0 1 9.818,-9.816 z"
           inkscape:connector-curvature="0" />
        <path
           id="path1676"
           d="m 628.2,403.3 c -3.748,10e-6 -6.786,3.038 -6.787,6.786 0,3.748 3.038,6.787 6.787,6.787 3.748,-6e-4 6.786,-3.039 6.786,-6.787 -5e-4,-3.747 -3.038,-6.785 -6.786,-6.786 z m 0,1.602 c 2.862,5.6e-4 5.183,2.321 5.184,5.184 0,2.863 -2.321,5.184 -5.184,5.185 -2.864,0 -5.185,-2.321 -5.185,-5.185 6e-4,-2.863 2.322,-5.184 5.185,-5.184 z"
           inkscape:connector-curvature="0" />
        <path
           id="path1678"
           d="m 624.2,422.1 c 1.899,0.0227 11.59,-1.78 12.22,-2.32 0.6775,-0.5757 4.424,-11.09 4.264,-11.96 -0.1658,-0.8736 -7.393,-9.378 -8.23,-9.676 -0.8379,-0.298 -11.82,1.715 -12.49,2.291 -0.6775,0.5758 -4.424,11.09 -4.264,11.96 0.1648,0.8738 7.393,9.378 8.23,9.676 0.054,0.0147 0.1438,0.0274 0.2698,0.0299 z m 3.166,-2.55 c -5.216,-0.4567 -9.074,-5.055 -8.618,-10.27 0.4558,-5.216 5.054,-9.076 10.27,-8.62 5.217,0.456 9.077,5.056 8.62,10.27 -0.4568,5.216 -5.056,9.075 -10.27,8.618 z"
           inkscape:connector-curvature="0" />
        <path
           id="path1680"
           d="m 625.6,401.6 c -3.272,0 -5.906,2.634 -5.906,5.906 v 5.279 c 0,3.272 2.634,5.906 5.906,5.906 h 5.279 c 3.272,0 5.906,-2.634 5.906,-5.906 v -5.279 c 0,-3.272 -2.634,-5.906 -5.906,-5.906 z m 2.641,1.885 a 6.662,6.662 0 0 1 6.66,6.66 6.662,6.662 0 0 1 -6.66,6.662 6.662,6.662 0 0 1 -6.662,-6.662 6.662,6.662 0 0 1 6.662,-6.66 z"
           inkscape:connector-curvature="0" />
      </g>
      <g
         id="g1692"
         transform="matrix(2,0,0,2,-671.335,-28.25144)"
         style="fill:#ffffff;stroke:#000000;stroke-width:0.80000001">
        <path
           id="path1684"
           d="m 628.2,398 a 12.13,12.13 0 0 0 -12.13,12.13 12.13,12.13 0 0 0 12.13,12.13 12.13,12.13 0 0 0 12.13,-12.13 A 12.13,12.13 0 0 0 628.2,398 Z m 0,2.312 a 9.818,9.818 0 0 1 9.816,9.816 9.818,9.818 0 0 1 -9.816,9.818 9.818,9.818 0 0 1 -9.818,-9.818 9.818,9.818 0 0 1 9.818,-9.816 z"
           inkscape:connector-curvature="0" />
        <path
           id="path1686"
           d="m 628.2,403.3 c -3.748,10e-6 -6.786,3.038 -6.787,6.786 0,3.748 3.038,6.787 6.787,6.787 3.748,-6e-4 6.786,-3.039 6.786,-6.787 -5e-4,-3.747 -3.038,-6.785 -6.786,-6.786 z m 0,1.602 c 2.862,5.6e-4 5.183,2.321 5.184,5.184 0,2.863 -2.321,5.184 -5.184,5.185 -2.864,0 -5.185,-2.321 -5.185,-5.185 6e-4,-2.863 2.322,-5.184 5.185,-5.184 z"
           inkscape:connector-curvature="0" />
        <path
           id="path1688"
           d="m 624.2,422.1 c 1.899,0.0227 11.59,-1.78 12.22,-2.32 0.6775,-0.5757 4.424,-11.09 4.264,-11.96 -0.1658,-0.8736 -7.393,-9.378 -8.23,-9.676 -0.8379,-0.298 -11.82,1.715 -12.49,2.291 -0.6775,0.5758 -4.424,11.09 -4.264,11.96 0.1648,0.8738 7.393,9.378 8.23,9.676 0.054,0.0147 0.1438,0.0274 0.2698,0.0299 z m 3.166,-2.55 c -5.216,-0.4567 -9.074,-5.055 -8.618,-10.27 0.4558,-5.216 5.054,-9.076 10.27,-8.62 5.217,0.456 9.077,5.056 8.62,10.27 -0.4568,5.216 -5.056,9.075 -10.27,8.618 z"
           inkscape:connector-curvature="0" />
        <path
           id="path1690"
           d="m 625.6,401.6 c -3.272,0 -5.906,2.634 -5.906,5.906 v 5.279 c 0,3.272 2.634,5.906 5.906,5.906 h 5.279 c 3.272,0 5.906,-2.634 5.906,-5.906 v -5.279 c 0,-3.272 -2.634,-5.906 -5.906,-5.906 z m 2.641,1.885 a 6.662,6.662 0 0 1 6.66,6.66 6.662,6.662 0 0 1 -6.66,6.662 6.662,6.662 0 0 1 -6.662,-6.662 6.662,6.662 0 0 1 6.662,-6.66 z"
           inkscape:connector-curvature="0" />
      </g>
    </g>
  </g>
</svg>
