<?xml version="1.0" encoding="UTF-8"?>
<svg width="670" height="190" version="1.1" viewBox="0 0 670 190" xmlns="http://www.w3.org/2000/svg">
 <g transform="translate(0,-636.5)">
  <g transform="matrix(2 0 0 2 -359 -631.5)">
   <path d="m198.2 658.1q-0.4664 0-0.8634-0.1811-0.3897-0.1879-0.6407-0.522l0.5152-0.6195q0.4037 0.5572 0.9677 0.5572 0.759 0 0.759-0.8981v-2.52h-1.734v-0.759h2.639v3.23q0 0.8566-0.4177 1.288-0.4177 0.4249-1.225 0.4249z"/>
   <path d="m205.6 658.1-7e-3 -3.23-1.601 2.674h-0.4037l-1.601-2.632v3.189h-0.8634v-4.872h0.745l1.936 3.23 1.901-3.23h0.745l7e-3 4.872z"/>
   <path d="m209.8 653.2q0.6335 0 1.1 0.209 0.4733 0.209 0.7242 0.5988 0.2506 0.3901 0.2506 0.9261 0 0.5292-0.2506 0.9261-0.2506 0.3901-0.7242 0.5988-0.4664 0.209-1.1 0.209h-1.1v1.407h-0.9049v-4.872zm-0.0418 2.702q0.592 0 0.8981-0.2506 0.3063-0.2506 0.3063-0.7171 0-0.4665-0.3063-0.7171t-0.8981-0.2506h-1.058v1.936z"/>
   <path d="m200.7 685.9-0.9955-1.427q-0.0627 7e-3 -0.188 7e-3h-1.1v1.42h-0.905v-4.873h2.005q0.6335 0 1.1 0.2088 0.4734 0.2088 0.724 0.5987 0.2506 0.3898 0.2506 0.9259 0 0.55-0.2715 0.9468-0.2645 0.3968-0.7658 0.5917l1.121 1.601zm-0.0209-3.14q0-0.4664-0.3063-0.717t-0.8981-0.2506h-1.058v1.942h1.058q0.5917 0 0.8981-0.2506 0.3063-0.2576 0.3063-0.724z"/>
   <path d="m207 681.1v4.873h-0.7449l-2.687-3.3v3.3h-0.8981v-4.873h0.7449l2.687 3.3v-3.3z"/>
   <path d="m208.3 681.1h2.13q0.7797 0 1.385 0.3063 0.6057 0.2994 0.9398 0.8563 0.3342 0.55 0.3342 1.274t-0.3342 1.281q-0.3342 0.55-0.9398 0.8563-0.6057 0.2994-1.385 0.2994h-2.13zm2.088 4.107q0.536 0 0.9398-0.2019 0.4107-0.2088 0.6266-0.5848 0.2228-0.3829 0.2228-0.8841t-0.2228-0.8772q-0.2158-0.3829-0.6266-0.5848-0.4038-0.2088-0.9398-0.2088h-1.183v3.342z"/>
   <path d="m242.2 699v-21" fill="none" stroke="#000000" stroke-width=".7"/>
   <rect x="227.2" y="689" width="29.37" height="30.53" rx="2.652" ry="2.652" fill="#ffffff" stroke="#000000" stroke-linecap="round" stroke-linejoin="round" stroke-miterlimit="1.333" stroke-width=".8"/>
   <circle cx="242.1" cy="676.8" r="3.656" fill="#ffffff" stroke="#000000" stroke-linecap="round" stroke-linejoin="round" stroke-width=".4"/>
   <path d="m241.9 643.4a12.13 12.13 0 0 0-12.13 12.13 12.13 12.13 0 0 0 12.13 12.13 12.13 12.13 0 0 0 12.13-12.13 12.13 12.13 0 0 0-12.13-12.13zm0 2.312a9.818 9.818 0 0 1 9.816 9.816 9.818 9.818 0 0 1-9.816 9.818 9.818 9.818 0 0 1-9.818-9.818 9.818 9.818 0 0 1 9.818-9.816z" fill="#ffffff" stroke="#000000" stroke-width=".8"/>
   <path d="m241.9 648.7c-3.748 1e-5 -6.786 3.038-6.787 6.786 0 3.748 3.038 6.787 6.787 6.787 3.748-6e-4 6.786-3.039 6.786-6.787-5e-4 -3.747-3.038-6.785-6.786-6.786zm0 1.602c2.862 5.6e-4 5.183 2.321 5.184 5.184 0 2.863-2.321 5.184-5.184 5.185-2.864 0-5.185-2.321-5.185-5.185 6e-4 -2.863 2.322-5.184 5.185-5.184z" fill="#ffffff" stroke="#000000" stroke-width=".8"/>
   <path d="m237.9 667.5c1.899 0.0227 11.59-1.78 12.22-2.32 0.6775-0.5757 4.424-11.09 4.264-11.96-0.1658-0.8736-7.393-9.378-8.23-9.676-0.8379-0.298-11.82 1.715-12.49 2.291-0.6775 0.5758-4.424 11.09-4.264 11.96 0.1648 0.8738 7.393 9.378 8.23 9.676 0.054 0.0147 0.1438 0.0274 0.2698 0.0299zm3.166-2.55c-5.216-0.4567-9.074-5.055-8.618-10.27 0.4558-5.216 5.054-9.076 10.27-8.62 5.217 0.456 9.077 5.056 8.62 10.27-0.4568 5.216-5.056 9.075-10.27 8.618z" fill="#ffffff" stroke="#000000" stroke-width=".8"/>
   <path d="m239.3 647c-3.272 0-5.906 2.634-5.906 5.906v5.279c0 3.272 2.634 5.906 5.906 5.906h5.279c3.272 0 5.906-2.634 5.906-5.906v-5.279c0-3.272-2.634-5.906-5.906-5.906zm2.641 1.885a6.662 6.662 0 0 1 6.66 6.66 6.662 6.662 0 0 1-6.66 6.662 6.662 6.662 0 0 1-6.662-6.662 6.662 6.662 0 0 1 6.662-6.66z" fill="#ffffff" stroke="#000000" stroke-width=".8"/>
   <path d="m241.9 692.1a12.13 12.13 0 0 0-12.13 12.13 12.13 12.13 0 0 0 12.13 12.13 12.13 12.13 0 0 0 12.13-12.13 12.13 12.13 0 0 0-12.13-12.13zm0 2.312a9.818 9.818 0 0 1 9.816 9.816 9.818 9.818 0 0 1-9.816 9.818 9.818 9.818 0 0 1-9.818-9.818 9.818 9.818 0 0 1 9.818-9.816z" fill="#ffffff" stroke="#000000" stroke-width=".8"/>
   <path d="m241.9 697.4c-3.748 1e-5 -6.786 3.038-6.787 6.786 0 3.748 3.038 6.787 6.787 6.787 3.748-6e-4 6.786-3.039 6.786-6.787-5e-4 -3.747-3.038-6.785-6.786-6.786zm0 1.602c2.862 5.6e-4 5.183 2.321 5.184 5.184 0 2.863-2.321 5.184-5.184 5.185-2.864 0-5.185-2.321-5.185-5.185 6e-4 -2.863 2.322-5.184 5.185-5.184z" fill="#ffffff" stroke="#000000" stroke-width=".8"/>
   <path d="m237.9 716.2c1.899 0.0227 11.59-1.78 12.22-2.32 0.6775-0.5757 4.424-11.09 4.264-11.96-0.1658-0.8736-7.393-9.378-8.23-9.676-0.8379-0.298-11.82 1.715-12.49 2.291-0.6775 0.5758-4.424 11.09-4.264 11.96 0.1648 0.8738 7.393 9.378 8.23 9.676 0.054 0.0147 0.1438 0.0274 0.2698 0.0299zm3.166-2.55c-5.216-0.4567-9.074-5.055-8.618-10.27 0.4558-5.216 5.054-9.076 10.27-8.62 5.217 0.456 9.077 5.056 8.62 10.27-0.4568 5.216-5.056 9.075-10.27 8.618z" fill="#ffffff" stroke="#000000" stroke-width=".8"/>
   <path d="m239.3 695.7c-3.272 0-5.906 2.634-5.906 5.906v5.279c0 3.272 2.634 5.906 5.906 5.906h5.279c3.272 0 5.906-2.634 5.906-5.906v-5.279c0-3.272-2.634-5.906-5.906-5.906zm2.641 1.885a6.662 6.662 0 0 1 6.66 6.66 6.662 6.662 0 0 1-6.66 6.662 6.662 6.662 0 0 1-6.662-6.662 6.662 6.662 0 0 1 6.662-6.66z" fill="#ffffff" stroke="#000000" stroke-width=".8"/>
   <path d="m204.9 692.3a12.13 12.13 0 0 0-12.13 12.13 12.13 12.13 0 0 0 12.13 12.13 12.13 12.13 0 0 0 12.13-12.13 12.13 12.13 0 0 0-12.13-12.13zm0 2.312a9.818 9.818 0 0 1 9.816 9.816 9.818 9.818 0 0 1-9.816 9.818 9.818 9.818 0 0 1-9.818-9.818 9.818 9.818 0 0 1 9.818-9.816z" fill="#ffffff" stroke="#000000" stroke-width=".8"/>
   <path d="m204.9 697.6c-3.748 1e-5 -6.786 3.038-6.787 6.786 0 3.748 3.038 6.787 6.787 6.787 3.748-6e-4 6.786-3.039 6.786-6.787-5e-4 -3.747-3.038-6.785-6.786-6.786zm0 1.602c2.862 5.6e-4 5.183 2.321 5.184 5.184 0 2.863-2.321 5.184-5.184 5.185-2.864 0-5.185-2.321-5.185-5.185 6e-4 -2.863 2.322-5.184 5.185-5.184z" fill="#ffffff" stroke="#000000" stroke-width=".8"/>
   <path d="m200.9 716.4c1.899 0.0227 11.59-1.78 12.22-2.32 0.6775-0.5757 4.424-11.09 4.264-11.96-0.1658-0.8736-7.393-9.378-8.23-9.676-0.8379-0.298-11.82 1.715-12.49 2.291-0.6775 0.5758-4.424 11.09-4.264 11.96 0.1648 0.8738 7.393 9.378 8.23 9.676 0.054 0.0147 0.1438 0.0274 0.2698 0.0299zm3.166-2.55c-5.216-0.4567-9.074-5.055-8.618-10.27 0.4558-5.216 5.054-9.076 10.27-8.62 5.217 0.456 9.077 5.056 8.62 10.27-0.4568 5.216-5.056 9.075-10.27 8.618z" fill="#ffffff" stroke="#000000" stroke-width=".8"/>
   <path d="m202.3 695.9c-3.272 0-5.906 2.634-5.906 5.906v5.279c0 3.272 2.634 5.906 5.906 5.906h5.279c3.272 0 5.906-2.634 5.906-5.906v-5.279c0-3.272-2.634-5.906-5.906-5.906zm2.641 1.885a6.662 6.662 0 0 1 6.66 6.66 6.662 6.662 0 0 1-6.66 6.662 6.662 6.662 0 0 1-6.662-6.662 6.662 6.662 0 0 1 6.662-6.66z" fill="#ffffff" stroke="#000000" stroke-width=".8"/>
   <path d="m487.2 699v-21" fill="none" stroke="#000000" stroke-width=".7"/>
   <rect x="472.2" y="689" width="29.37" height="30.53" rx="2.652" ry="2.652" fill="#ffffff" stroke="#000000" stroke-linecap="round" stroke-linejoin="round" stroke-miterlimit="1.333" stroke-width=".8"/>
   <circle cx="487.1" cy="676.8" r="3.656" fill="#ffffff" stroke="#000000" stroke-linecap="round" stroke-linejoin="round" stroke-width=".4"/>
   <path d="m486.9 643.4a12.13 12.13 0 0 0-12.13 12.13 12.13 12.13 0 0 0 12.13 12.13 12.13 12.13 0 0 0 12.13-12.13 12.13 12.13 0 0 0-12.13-12.13zm0 2.312a9.818 9.818 0 0 1 9.816 9.816 9.818 9.818 0 0 1-9.816 9.818 9.818 9.818 0 0 1-9.818-9.818 9.818 9.818 0 0 1 9.818-9.816z" fill="#ffffff" stroke="#000000" stroke-width=".8"/>
   <path d="m486.9 648.7c-3.748 1e-5 -6.786 3.038-6.787 6.786 0 3.748 3.038 6.787 6.787 6.787 3.748-6e-4 6.786-3.039 6.786-6.787-5e-4 -3.747-3.038-6.785-6.786-6.786zm0 1.602c2.862 5.6e-4 5.183 2.321 5.184 5.184 0 2.863-2.321 5.184-5.184 5.185-2.864 0-5.185-2.321-5.185-5.185 6e-4 -2.863 2.322-5.184 5.185-5.184z" fill="#ffffff" stroke="#000000" stroke-width=".8"/>
   <path d="m482.9 667.5c1.899 0.0227 11.59-1.78 12.22-2.32 0.6775-0.5757 4.424-11.09 4.264-11.96-0.1658-0.8736-7.393-9.378-8.23-9.676-0.8379-0.298-11.82 1.715-12.49 2.291-0.6775 0.5758-4.424 11.09-4.264 11.96 0.1648 0.8738 7.393 9.378 8.23 9.676 0.054 0.0147 0.1438 0.0274 0.2698 0.0299zm3.166-2.55c-5.216-0.4567-9.074-5.055-8.618-10.27 0.4558-5.216 5.054-9.076 10.27-8.62 5.217 0.456 9.077 5.056 8.62 10.27-0.4568 5.216-5.056 9.075-10.27 8.618z" fill="#ffffff" stroke="#000000" stroke-width=".8"/>
   <path d="m484.3 647c-3.272 0-5.906 2.634-5.906 5.906v5.279c0 3.272 2.634 5.906 5.906 5.906h5.279c3.272 0 5.906-2.634 5.906-5.906v-5.279c0-3.272-2.634-5.906-5.906-5.906zm2.641 1.885a6.662 6.662 0 0 1 6.66 6.66 6.662 6.662 0 0 1-6.66 6.662 6.662 6.662 0 0 1-6.662-6.662 6.662 6.662 0 0 1 6.662-6.66z" fill="#ffffff" stroke="#000000" stroke-width=".8"/>
   <path d="m486.9 692.1a12.13 12.13 0 0 0-12.13 12.13 12.13 12.13 0 0 0 12.13 12.13 12.13 12.13 0 0 0 12.13-12.13 12.13 12.13 0 0 0-12.13-12.13zm0 2.312a9.818 9.818 0 0 1 9.816 9.816 9.818 9.818 0 0 1-9.816 9.818 9.818 9.818 0 0 1-9.818-9.818 9.818 9.818 0 0 1 9.818-9.816z" fill="#ffffff" stroke="#000000" stroke-width=".8"/>
   <path d="m486.9 697.4c-3.748 1e-5 -6.786 3.038-6.787 6.786 0 3.748 3.038 6.787 6.787 6.787 3.748-6e-4 6.786-3.039 6.786-6.787-5e-4 -3.747-3.038-6.785-6.786-6.786zm0 1.602c2.862 5.6e-4 5.183 2.321 5.184 5.184 0 2.863-2.321 5.184-5.184 5.185-2.864 0-5.185-2.321-5.185-5.185 6e-4 -2.863 2.322-5.184 5.185-5.184z" fill="#ffffff" stroke="#000000" stroke-width=".8"/>
   <path d="m482.9 716.2c1.899 0.0227 11.59-1.78 12.22-2.32 0.6775-0.5757 4.424-11.09 4.264-11.96-0.1658-0.8736-7.393-9.378-8.23-9.676-0.8379-0.298-11.82 1.715-12.49 2.291-0.6775 0.5758-4.424 11.09-4.264 11.96 0.1648 0.8738 7.393 9.378 8.23 9.676 0.054 0.0147 0.1438 0.0274 0.2698 0.0299zm3.166-2.55c-5.216-0.4567-9.074-5.055-8.618-10.27 0.4558-5.216 5.054-9.076 10.27-8.62 5.217 0.456 9.077 5.056 8.62 10.27-0.4568 5.216-5.056 9.075-10.27 8.618z" fill="#ffffff" stroke="#000000" stroke-width=".8"/>
   <path d="m484.3 695.7c-3.272 0-5.906 2.634-5.906 5.906v5.279c0 3.272 2.634 5.906 5.906 5.906h5.279c3.272 0 5.906-2.634 5.906-5.906v-5.279c0-3.272-2.634-5.906-5.906-5.906zm2.641 1.885a6.662 6.662 0 0 1 6.66 6.66 6.662 6.662 0 0 1-6.66 6.662 6.662 6.662 0 0 1-6.662-6.662 6.662 6.662 0 0 1 6.662-6.66z" fill="#ffffff" stroke="#000000" stroke-width=".8"/>
   <path d="m277.2 699v-21" fill="none" stroke="#000000" stroke-width=".7"/>
   <rect x="262.2" y="689" width="29.37" height="30.53" rx="2.652" ry="2.652" fill="#ffffff" stroke="#000000" stroke-linecap="round" stroke-linejoin="round" stroke-miterlimit="1.333" stroke-width=".8"/>
   <circle cx="277.1" cy="676.8" r="3.656" fill="#ffffff" stroke="#000000" stroke-linecap="round" stroke-linejoin="round" stroke-width=".4"/>
   <path d="m276.9 643.4a12.13 12.13 0 0 0-12.13 12.13 12.13 12.13 0 0 0 12.13 12.13 12.13 12.13 0 0 0 12.13-12.13 12.13 12.13 0 0 0-12.13-12.13zm0 2.312a9.818 9.818 0 0 1 9.816 9.816 9.818 9.818 0 0 1-9.816 9.818 9.818 9.818 0 0 1-9.818-9.818 9.818 9.818 0 0 1 9.818-9.816z" fill="#ffffff" stroke="#000000" stroke-width=".8"/>
   <path d="m276.9 648.7c-3.748 1e-5 -6.786 3.038-6.787 6.786 0 3.748 3.038 6.787 6.787 6.787 3.748-6e-4 6.786-3.039 6.786-6.787-5e-4 -3.747-3.038-6.785-6.786-6.786zm0 1.602c2.862 5.6e-4 5.183 2.321 5.184 5.184 0 2.863-2.321 5.184-5.184 5.185-2.864 0-5.185-2.321-5.185-5.185 6e-4 -2.863 2.322-5.184 5.185-5.184z" fill="#ffffff" stroke="#000000" stroke-width=".8"/>
   <path d="m272.9 667.5c1.899 0.0227 11.59-1.78 12.22-2.32 0.6775-0.5757 4.424-11.09 4.264-11.96-0.1658-0.8736-7.393-9.378-8.23-9.676-0.8379-0.298-11.82 1.715-12.49 2.291-0.6775 0.5758-4.424 11.09-4.264 11.96 0.1648 0.8738 7.393 9.378 8.23 9.676 0.054 0.0147 0.1438 0.0274 0.2698 0.0299zm3.166-2.55c-5.216-0.4567-9.074-5.055-8.618-10.27 0.4558-5.216 5.054-9.076 10.27-8.62 5.217 0.456 9.077 5.056 8.62 10.27-0.4568 5.216-5.056 9.075-10.27 8.618z" fill="#ffffff" stroke="#000000" stroke-width=".8"/>
   <path d="m274.3 647c-3.272 0-5.906 2.634-5.906 5.906v5.279c0 3.272 2.634 5.906 5.906 5.906h5.279c3.272 0 5.906-2.634 5.906-5.906v-5.279c0-3.272-2.634-5.906-5.906-5.906zm2.641 1.885a6.662 6.662 0 0 1 6.66 6.66 6.662 6.662 0 0 1-6.66 6.662 6.662 6.662 0 0 1-6.662-6.662 6.662 6.662 0 0 1 6.662-6.66z" fill="#ffffff" stroke="#000000" stroke-width=".8"/>
   <path d="m276.9 692.1a12.13 12.13 0 0 0-12.13 12.13 12.13 12.13 0 0 0 12.13 12.13 12.13 12.13 0 0 0 12.13-12.13 12.13 12.13 0 0 0-12.13-12.13zm0 2.312a9.818 9.818 0 0 1 9.816 9.816 9.818 9.818 0 0 1-9.816 9.818 9.818 9.818 0 0 1-9.818-9.818 9.818 9.818 0 0 1 9.818-9.816z" fill="#ffffff" stroke="#000000" stroke-width=".8"/>
   <path d="m276.9 697.4c-3.748 1e-5 -6.786 3.038-6.787 6.786 0 3.748 3.038 6.787 6.787 6.787 3.748-6e-4 6.786-3.039 6.786-6.787-5e-4 -3.747-3.038-6.785-6.786-6.786zm0 1.602c2.862 5.6e-4 5.183 2.321 5.184 5.184 0 2.863-2.321 5.184-5.184 5.185-2.864 0-5.185-2.321-5.185-5.185 6e-4 -2.863 2.322-5.184 5.185-5.184z" fill="#ffffff" stroke="#000000" stroke-width=".8"/>
   <path d="m272.9 716.2c1.899 0.0227 11.59-1.78 12.22-2.32 0.6775-0.5757 4.424-11.09 4.264-11.96-0.1658-0.8736-7.393-9.378-8.23-9.676-0.8379-0.298-11.82 1.715-12.49 2.291-0.6775 0.5758-4.424 11.09-4.264 11.96 0.1648 0.8738 7.393 9.378 8.23 9.676 0.054 0.0147 0.1438 0.0274 0.2698 0.0299zm3.166-2.55c-5.216-0.4567-9.074-5.055-8.618-10.27 0.4558-5.216 5.054-9.076 10.27-8.62 5.217 0.456 9.077 5.056 8.62 10.27-0.4568 5.216-5.056 9.075-10.27 8.618z" fill="#ffffff" stroke="#000000" stroke-width=".8"/>
   <path d="m274.3 695.7c-3.272 0-5.906 2.634-5.906 5.906v5.279c0 3.272 2.634 5.906 5.906 5.906h5.279c3.272 0 5.906-2.634 5.906-5.906v-5.279c0-3.272-2.634-5.906-5.906-5.906zm2.641 1.885a6.662 6.662 0 0 1 6.66 6.66 6.662 6.662 0 0 1-6.66 6.662 6.662 6.662 0 0 1-6.662-6.662 6.662 6.662 0 0 1 6.662-6.66z" fill="#ffffff" stroke="#000000" stroke-width=".8"/>
   <path d="m312.2 699v-21" fill="none" stroke="#000000" stroke-width=".7"/>
   <rect x="297.2" y="689" width="29.37" height="30.53" rx="2.652" ry="2.652" fill="#ffffff" stroke="#000000" stroke-linecap="round" stroke-linejoin="round" stroke-miterlimit="1.333" stroke-width=".8"/>
   <circle cx="312.1" cy="676.8" r="3.656" fill="#ffffff" stroke="#000000" stroke-linecap="round" stroke-linejoin="round" stroke-width=".4"/>
   <path d="m311.9 643.4a12.13 12.13 0 0 0-12.13 12.13 12.13 12.13 0 0 0 12.13 12.13 12.13 12.13 0 0 0 12.13-12.13 12.13 12.13 0 0 0-12.13-12.13zm0 2.312a9.818 9.818 0 0 1 9.816 9.816 9.818 9.818 0 0 1-9.816 9.818 9.818 9.818 0 0 1-9.818-9.818 9.818 9.818 0 0 1 9.818-9.816z" fill="#ffffff" stroke="#000000" stroke-width=".8"/>
   <path d="m311.9 648.7c-3.748 1e-5 -6.786 3.038-6.787 6.786 0 3.748 3.038 6.787 6.787 6.787 3.748-6e-4 6.786-3.039 6.786-6.787-5e-4 -3.747-3.038-6.785-6.786-6.786zm0 1.602c2.862 5.6e-4 5.183 2.321 5.184 5.184 0 2.863-2.321 5.184-5.184 5.185-2.864 0-5.185-2.321-5.185-5.185 6e-4 -2.863 2.322-5.184 5.185-5.184z" fill="#ffffff" stroke="#000000" stroke-width=".8"/>
   <path d="m307.9 667.5c1.899 0.0227 11.59-1.78 12.22-2.32 0.6775-0.5757 4.424-11.09 4.264-11.96-0.1658-0.8736-7.393-9.378-8.23-9.676-0.8379-0.298-11.82 1.715-12.49 2.291-0.6775 0.5758-4.424 11.09-4.264 11.96 0.1648 0.8738 7.393 9.378 8.23 9.676 0.054 0.0147 0.1438 0.0274 0.2698 0.0299zm3.166-2.55c-5.216-0.4567-9.074-5.055-8.618-10.27 0.4558-5.216 5.054-9.076 10.27-8.62 5.217 0.456 9.077 5.056 8.62 10.27-0.4568 5.216-5.056 9.075-10.27 8.618z" fill="#ffffff" stroke="#000000" stroke-width=".8"/>
   <path d="m309.3 647c-3.272 0-5.906 2.634-5.906 5.906v5.279c0 3.272 2.634 5.906 5.906 5.906h5.279c3.272 0 5.906-2.634 5.906-5.906v-5.279c0-3.272-2.634-5.906-5.906-5.906zm2.641 1.885a6.662 6.662 0 0 1 6.66 6.66 6.662 6.662 0 0 1-6.66 6.662 6.662 6.662 0 0 1-6.662-6.662 6.662 6.662 0 0 1 6.662-6.66z" fill="#ffffff" stroke="#000000" stroke-width=".8"/>
   <path d="m311.9 692.1a12.13 12.13 0 0 0-12.13 12.13 12.13 12.13 0 0 0 12.13 12.13 12.13 12.13 0 0 0 12.13-12.13 12.13 12.13 0 0 0-12.13-12.13zm0 2.312a9.818 9.818 0 0 1 9.816 9.816 9.818 9.818 0 0 1-9.816 9.818 9.818 9.818 0 0 1-9.818-9.818 9.818 9.818 0 0 1 9.818-9.816z" fill="#ffffff" stroke="#000000" stroke-width=".8"/>
   <path d="m311.9 697.4c-3.748 1e-5 -6.786 3.038-6.787 6.786 0 3.748 3.038 6.787 6.787 6.787 3.748-6e-4 6.786-3.039 6.786-6.787-5e-4 -3.747-3.038-6.785-6.786-6.786zm0 1.602c2.862 5.6e-4 5.183 2.321 5.184 5.184 0 2.863-2.321 5.184-5.184 5.185-2.864 0-5.185-2.321-5.185-5.185 6e-4 -2.863 2.322-5.184 5.185-5.184z" fill="#ffffff" stroke="#000000" stroke-width=".8"/>
   <path d="m307.9 716.2c1.899 0.0227 11.59-1.78 12.22-2.32 0.6775-0.5757 4.424-11.09 4.264-11.96-0.1658-0.8736-7.393-9.378-8.23-9.676-0.8379-0.298-11.82 1.715-12.49 2.291-0.6775 0.5758-4.424 11.09-4.264 11.96 0.1648 0.8738 7.393 9.378 8.23 9.676 0.054 0.0147 0.1438 0.0274 0.2698 0.0299zm3.166-2.55c-5.216-0.4567-9.074-5.055-8.618-10.27 0.4558-5.216 5.054-9.076 10.27-8.62 5.217 0.456 9.077 5.056 8.62 10.27-0.4568 5.216-5.056 9.075-10.27 8.618z" fill="#ffffff" stroke="#000000" stroke-width=".8"/>
   <path d="m309.3 695.7c-3.272 0-5.906 2.634-5.906 5.906v5.279c0 3.272 2.634 5.906 5.906 5.906h5.279c3.272 0 5.906-2.634 5.906-5.906v-5.279c0-3.272-2.634-5.906-5.906-5.906zm2.641 1.885a6.662 6.662 0 0 1 6.66 6.66 6.662 6.662 0 0 1-6.66 6.662 6.662 6.662 0 0 1-6.662-6.662 6.662 6.662 0 0 1 6.662-6.66z" fill="#ffffff" stroke="#000000" stroke-width=".8"/>
   <path d="m347.2 699v-21" fill="none" stroke="#000000" stroke-width=".7"/>
   <rect x="332.2" y="689" width="29.37" height="30.53" rx="2.652" ry="2.652" fill="#ffffff" stroke="#000000" stroke-linecap="round" stroke-linejoin="round" stroke-miterlimit="1.333" stroke-width=".8"/>
   <circle cx="347.1" cy="676.8" r="3.656" fill="#ffffff" stroke="#000000" stroke-linecap="round" stroke-linejoin="round" stroke-width=".4"/>
   <path d="m346.9 643.4a12.13 12.13 0 0 0-12.13 12.13 12.13 12.13 0 0 0 12.13 12.13 12.13 12.13 0 0 0 12.13-12.13 12.13 12.13 0 0 0-12.13-12.13zm0 2.312a9.818 9.818 0 0 1 9.816 9.816 9.818 9.818 0 0 1-9.816 9.818 9.818 9.818 0 0 1-9.818-9.818 9.818 9.818 0 0 1 9.818-9.816z" fill="#ffffff" stroke="#000000" stroke-width=".8"/>
   <path d="m346.9 648.7c-3.748 1e-5 -6.786 3.038-6.787 6.786 0 3.748 3.038 6.787 6.787 6.787 3.748-6e-4 6.786-3.039 6.786-6.787-5e-4 -3.747-3.038-6.785-6.786-6.786zm0 1.602c2.862 5.6e-4 5.183 2.321 5.184 5.184 0 2.863-2.321 5.184-5.184 5.185-2.864 0-5.185-2.321-5.185-5.185 6e-4 -2.863 2.322-5.184 5.185-5.184z" fill="#ffffff" stroke="#000000" stroke-width=".8"/>
   <path d="m342.9 667.5c1.899 0.0227 11.59-1.78 12.22-2.32 0.6775-0.5757 4.424-11.09 4.264-11.96-0.1658-0.8736-7.393-9.378-8.23-9.676-0.8379-0.298-11.82 1.715-12.49 2.291-0.6775 0.5758-4.424 11.09-4.264 11.96 0.1648 0.8738 7.393 9.378 8.23 9.676 0.054 0.0147 0.1438 0.0274 0.2698 0.0299zm3.166-2.55c-5.216-0.4567-9.074-5.055-8.618-10.27 0.4558-5.216 5.054-9.076 10.27-8.62 5.217 0.456 9.077 5.056 8.62 10.27-0.4568 5.216-5.056 9.075-10.27 8.618z" fill="#ffffff" stroke="#000000" stroke-width=".8"/>
   <path d="m344.3 647c-3.272 0-5.906 2.634-5.906 5.906v5.279c0 3.272 2.634 5.906 5.906 5.906h5.279c3.272 0 5.906-2.634 5.906-5.906v-5.279c0-3.272-2.634-5.906-5.906-5.906zm2.641 1.885a6.662 6.662 0 0 1 6.66 6.66 6.662 6.662 0 0 1-6.66 6.662 6.662 6.662 0 0 1-6.662-6.662 6.662 6.662 0 0 1 6.662-6.66z" fill="#ffffff" stroke="#000000" stroke-width=".8"/>
   <path d="m346.9 692.1a12.13 12.13 0 0 0-12.13 12.13 12.13 12.13 0 0 0 12.13 12.13 12.13 12.13 0 0 0 12.13-12.13 12.13 12.13 0 0 0-12.13-12.13zm0 2.312a9.818 9.818 0 0 1 9.816 9.816 9.818 9.818 0 0 1-9.816 9.818 9.818 9.818 0 0 1-9.818-9.818 9.818 9.818 0 0 1 9.818-9.816z" fill="#ffffff" stroke="#000000" stroke-width=".8"/>
   <path d="m346.9 697.4c-3.748 1e-5 -6.786 3.038-6.787 6.786 0 3.748 3.038 6.787 6.787 6.787 3.748-6e-4 6.786-3.039 6.786-6.787-5e-4 -3.747-3.038-6.785-6.786-6.786zm0 1.602c2.862 5.6e-4 5.183 2.321 5.184 5.184 0 2.863-2.321 5.184-5.184 5.185-2.864 0-5.185-2.321-5.185-5.185 6e-4 -2.863 2.322-5.184 5.185-5.184z" fill="#ffffff" stroke="#000000" stroke-width=".8"/>
   <path d="m342.9 716.2c1.899 0.0227 11.59-1.78 12.22-2.32 0.6775-0.5757 4.424-11.09 4.264-11.96-0.1658-0.8736-7.393-9.378-8.23-9.676-0.8379-0.298-11.82 1.715-12.49 2.291-0.6775 0.5758-4.424 11.09-4.264 11.96 0.1648 0.8738 7.393 9.378 8.23 9.676 0.054 0.0147 0.1438 0.0274 0.2698 0.0299zm3.166-2.55c-5.216-0.4567-9.074-5.055-8.618-10.27 0.4558-5.216 5.054-9.076 10.27-8.62 5.217 0.456 9.077 5.056 8.62 10.27-0.4568 5.216-5.056 9.075-10.27 8.618z" fill="#ffffff" stroke="#000000" stroke-width=".8"/>
   <path d="m344.3 695.7c-3.272 0-5.906 2.634-5.906 5.906v5.279c0 3.272 2.634 5.906 5.906 5.906h5.279c3.272 0 5.906-2.634 5.906-5.906v-5.279c0-3.272-2.634-5.906-5.906-5.906zm2.641 1.885a6.662 6.662 0 0 1 6.66 6.66 6.662 6.662 0 0 1-6.66 6.662 6.662 6.662 0 0 1-6.662-6.662 6.662 6.662 0 0 1 6.662-6.66z" fill="#ffffff" stroke="#000000" stroke-width=".8"/>
   <path d="m382.2 699v-21" fill="none" stroke="#000000" stroke-width=".7"/>
   <rect x="367.2" y="689" width="29.37" height="30.53" rx="2.652" ry="2.652" fill="#ffffff" stroke="#000000" stroke-linecap="round" stroke-linejoin="round" stroke-miterlimit="1.333" stroke-width=".8"/>
   <circle cx="382.1" cy="676.8" r="3.656" fill="#ffffff" stroke="#000000" stroke-linecap="round" stroke-linejoin="round" stroke-width=".4"/>
   <path d="m381.9 643.4a12.13 12.13 0 0 0-12.13 12.13 12.13 12.13 0 0 0 12.13 12.13 12.13 12.13 0 0 0 12.13-12.13 12.13 12.13 0 0 0-12.13-12.13zm0 2.312a9.818 9.818 0 0 1 9.816 9.816 9.818 9.818 0 0 1-9.816 9.818 9.818 9.818 0 0 1-9.818-9.818 9.818 9.818 0 0 1 9.818-9.816z" fill="#ffffff" stroke="#000000" stroke-width=".8"/>
   <path d="m381.9 648.7c-3.748 1e-5 -6.786 3.038-6.787 6.786 0 3.748 3.038 6.787 6.787 6.787 3.748-6e-4 6.786-3.039 6.786-6.787-5e-4 -3.747-3.038-6.785-6.786-6.786zm0 1.602c2.862 5.6e-4 5.183 2.321 5.184 5.184 0 2.863-2.321 5.184-5.184 5.185-2.864 0-5.185-2.321-5.185-5.185 6e-4 -2.863 2.322-5.184 5.185-5.184z" fill="#ffffff" stroke="#000000" stroke-width=".8"/>
   <path d="m377.9 667.5c1.899 0.0227 11.59-1.78 12.22-2.32 0.6775-0.5757 4.424-11.09 4.264-11.96-0.1658-0.8736-7.393-9.378-8.23-9.676-0.8379-0.298-11.82 1.715-12.49 2.291-0.6775 0.5758-4.424 11.09-4.264 11.96 0.1648 0.8738 7.393 9.378 8.23 9.676 0.054 0.0147 0.1438 0.0274 0.2698 0.0299zm3.166-2.55c-5.216-0.4567-9.074-5.055-8.618-10.27 0.4558-5.216 5.054-9.076 10.27-8.62 5.217 0.456 9.077 5.056 8.62 10.27-0.4568 5.216-5.056 9.075-10.27 8.618z" fill="#ffffff" stroke="#000000" stroke-width=".8"/>
   <path d="m379.3 647c-3.272 0-5.906 2.634-5.906 5.906v5.279c0 3.272 2.634 5.906 5.906 5.906h5.279c3.272 0 5.906-2.634 5.906-5.906v-5.279c0-3.272-2.634-5.906-5.906-5.906zm2.641 1.885a6.662 6.662 0 0 1 6.66 6.66 6.662 6.662 0 0 1-6.66 6.662 6.662 6.662 0 0 1-6.662-6.662 6.662 6.662 0 0 1 6.662-6.66z" fill="#ffffff" stroke="#000000" stroke-width=".8"/>
   <path d="m381.9 692.1a12.13 12.13 0 0 0-12.13 12.13 12.13 12.13 0 0 0 12.13 12.13 12.13 12.13 0 0 0 12.13-12.13 12.13 12.13 0 0 0-12.13-12.13zm0 2.312a9.818 9.818 0 0 1 9.816 9.816 9.818 9.818 0 0 1-9.816 9.818 9.818 9.818 0 0 1-9.818-9.818 9.818 9.818 0 0 1 9.818-9.816z" fill="#ffffff" stroke="#000000" stroke-width=".8"/>
   <path d="m381.9 697.4c-3.748 1e-5 -6.786 3.038-6.787 6.786 0 3.748 3.038 6.787 6.787 6.787 3.748-6e-4 6.786-3.039 6.786-6.787-5e-4 -3.747-3.038-6.785-6.786-6.786zm0 1.602c2.862 5.6e-4 5.183 2.321 5.184 5.184 0 2.863-2.321 5.184-5.184 5.185-2.864 0-5.185-2.321-5.185-5.185 6e-4 -2.863 2.322-5.184 5.185-5.184z" fill="#ffffff" stroke="#000000" stroke-width=".8"/>
   <path d="m377.9 716.2c1.899 0.0227 11.59-1.78 12.22-2.32 0.6775-0.5757 4.424-11.09 4.264-11.96-0.1658-0.8736-7.393-9.378-8.23-9.676-0.8379-0.298-11.82 1.715-12.49 2.291-0.6775 0.5758-4.424 11.09-4.264 11.96 0.1648 0.8738 7.393 9.378 8.23 9.676 0.054 0.0147 0.1438 0.0274 0.2698 0.0299zm3.166-2.55c-5.216-0.4567-9.074-5.055-8.618-10.27 0.4558-5.216 5.054-9.076 10.27-8.62 5.217 0.456 9.077 5.056 8.62 10.27-0.4568 5.216-5.056 9.075-10.27 8.618z" fill="#ffffff" stroke="#000000" stroke-width=".8"/>
   <path d="m379.3 695.7c-3.272 0-5.906 2.634-5.906 5.906v5.279c0 3.272 2.634 5.906 5.906 5.906h5.279c3.272 0 5.906-2.634 5.906-5.906v-5.279c0-3.272-2.634-5.906-5.906-5.906zm2.641 1.885a6.662 6.662 0 0 1 6.66 6.66 6.662 6.662 0 0 1-6.66 6.662 6.662 6.662 0 0 1-6.662-6.662 6.662 6.662 0 0 1 6.662-6.66z" fill="#ffffff" stroke="#000000" stroke-width=".8"/>
   <path d="m417.2 699v-21" fill="none" stroke="#000000" stroke-width=".7"/>
   <rect x="402.2" y="689" width="29.37" height="30.53" rx="2.652" ry="2.652" fill="#ffffff" stroke="#000000" stroke-linecap="round" stroke-linejoin="round" stroke-miterlimit="1.333" stroke-width=".8"/>
   <circle cx="417.1" cy="676.8" r="3.656" fill="#ffffff" stroke="#000000" stroke-linecap="round" stroke-linejoin="round" stroke-width=".4"/>
   <path d="m416.9 643.4a12.13 12.13 0 0 0-12.13 12.13 12.13 12.13 0 0 0 12.13 12.13 12.13 12.13 0 0 0 12.13-12.13 12.13 12.13 0 0 0-12.13-12.13zm0 2.312a9.818 9.818 0 0 1 9.816 9.816 9.818 9.818 0 0 1-9.816 9.818 9.818 9.818 0 0 1-9.818-9.818 9.818 9.818 0 0 1 9.818-9.816z" fill="#ffffff" stroke="#000000" stroke-width=".8"/>
   <path d="m416.9 648.7c-3.748 1e-5 -6.786 3.038-6.787 6.786 0 3.748 3.038 6.787 6.787 6.787 3.748-6e-4 6.786-3.039 6.786-6.787-5e-4 -3.747-3.038-6.785-6.786-6.786zm0 1.602c2.862 5.6e-4 5.183 2.321 5.184 5.184 0 2.863-2.321 5.184-5.184 5.185-2.864 0-5.185-2.321-5.185-5.185 6e-4 -2.863 2.322-5.184 5.185-5.184z" fill="#ffffff" stroke="#000000" stroke-width=".8"/>
   <path d="m412.9 667.5c1.899 0.0227 11.59-1.78 12.22-2.32 0.6775-0.5757 4.424-11.09 4.264-11.96-0.1658-0.8736-7.393-9.378-8.23-9.676-0.8379-0.298-11.82 1.715-12.49 2.291-0.6775 0.5758-4.424 11.09-4.264 11.96 0.1648 0.8738 7.393 9.378 8.23 9.676 0.054 0.0147 0.1438 0.0274 0.2698 0.0299zm3.166-2.55c-5.216-0.4567-9.074-5.055-8.618-10.27 0.4558-5.216 5.054-9.076 10.27-8.62 5.217 0.456 9.077 5.056 8.62 10.27-0.4568 5.216-5.056 9.075-10.27 8.618z" fill="#ffffff" stroke="#000000" stroke-width=".8"/>
   <path d="m414.3 647c-3.272 0-5.906 2.634-5.906 5.906v5.279c0 3.272 2.634 5.906 5.906 5.906h5.279c3.272 0 5.906-2.634 5.906-5.906v-5.279c0-3.272-2.634-5.906-5.906-5.906zm2.641 1.885a6.662 6.662 0 0 1 6.66 6.66 6.662 6.662 0 0 1-6.66 6.662 6.662 6.662 0 0 1-6.662-6.662 6.662 6.662 0 0 1 6.662-6.66z" fill="#ffffff" stroke="#000000" stroke-width=".8"/>
   <path d="m416.9 692.1a12.13 12.13 0 0 0-12.13 12.13 12.13 12.13 0 0 0 12.13 12.13 12.13 12.13 0 0 0 12.13-12.13 12.13 12.13 0 0 0-12.13-12.13zm0 2.312a9.818 9.818 0 0 1 9.816 9.816 9.818 9.818 0 0 1-9.816 9.818 9.818 9.818 0 0 1-9.818-9.818 9.818 9.818 0 0 1 9.818-9.816z" fill="#ffffff" stroke="#000000" stroke-width=".8"/>
   <path d="m416.9 697.4c-3.748 1e-5 -6.786 3.038-6.787 6.786 0 3.748 3.038 6.787 6.787 6.787 3.748-6e-4 6.786-3.039 6.786-6.787-5e-4 -3.747-3.038-6.785-6.786-6.786zm0 1.602c2.862 5.6e-4 5.183 2.321 5.184 5.184 0 2.863-2.321 5.184-5.184 5.185-2.864 0-5.185-2.321-5.185-5.185 6e-4 -2.863 2.322-5.184 5.185-5.184z" fill="#ffffff" stroke="#000000" stroke-width=".8"/>
   <path d="m412.9 716.2c1.899 0.0227 11.59-1.78 12.22-2.32 0.6775-0.5757 4.424-11.09 4.264-11.96-0.1658-0.8736-7.393-9.378-8.23-9.676-0.8379-0.298-11.82 1.715-12.49 2.291-0.6775 0.5758-4.424 11.09-4.264 11.96 0.1648 0.8738 7.393 9.378 8.23 9.676 0.054 0.0147 0.1438 0.0274 0.2698 0.0299zm3.166-2.55c-5.216-0.4567-9.074-5.055-8.618-10.27 0.4558-5.216 5.054-9.076 10.27-8.62 5.217 0.456 9.077 5.056 8.62 10.27-0.4568 5.216-5.056 9.075-10.27 8.618z" fill="#ffffff" stroke="#000000" stroke-width=".8"/>
   <path d="m414.3 695.7c-3.272 0-5.906 2.634-5.906 5.906v5.279c0 3.272 2.634 5.906 5.906 5.906h5.279c3.272 0 5.906-2.634 5.906-5.906v-5.279c0-3.272-2.634-5.906-5.906-5.906zm2.641 1.885a6.662 6.662 0 0 1 6.66 6.66 6.662 6.662 0 0 1-6.66 6.662 6.662 6.662 0 0 1-6.662-6.662 6.662 6.662 0 0 1 6.662-6.66z" fill="#ffffff" stroke="#000000" stroke-width=".8"/>
   <path d="m452.2 699v-21" fill="none" stroke="#000000" stroke-width=".7"/>
   <rect x="437.2" y="689" width="29.37" height="30.53" rx="2.652" ry="2.652" fill="#ffffff" stroke="#000000" stroke-linecap="round" stroke-linejoin="round" stroke-miterlimit="1.333" stroke-width=".8"/>
   <circle cx="452.1" cy="676.8" r="3.656" fill="#ffffff" stroke="#000000" stroke-linecap="round" stroke-linejoin="round" stroke-width=".4"/>
   <path d="m451.9 643.4a12.13 12.13 0 0 0-12.13 12.13 12.13 12.13 0 0 0 12.13 12.13 12.13 12.13 0 0 0 12.13-12.13 12.13 12.13 0 0 0-12.13-12.13zm0 2.312a9.818 9.818 0 0 1 9.816 9.816 9.818 9.818 0 0 1-9.816 9.818 9.818 9.818 0 0 1-9.818-9.818 9.818 9.818 0 0 1 9.818-9.816z" fill="#ffffff" stroke="#000000" stroke-width=".8"/>
   <path d="m451.9 648.7c-3.748 1e-5 -6.786 3.038-6.787 6.786 0 3.748 3.038 6.787 6.787 6.787 3.748-6e-4 6.786-3.039 6.786-6.787-5e-4 -3.747-3.038-6.785-6.786-6.786zm0 1.602c2.862 5.6e-4 5.183 2.321 5.184 5.184 0 2.863-2.321 5.184-5.184 5.185-2.864 0-5.185-2.321-5.185-5.185 6e-4 -2.863 2.322-5.184 5.185-5.184z" fill="#ffffff" stroke="#000000" stroke-width=".8"/>
   <path d="m447.9 667.5c1.899 0.0227 11.59-1.78 12.22-2.32 0.6775-0.5757 4.424-11.09 4.264-11.96-0.1658-0.8736-7.393-9.378-8.23-9.676-0.8379-0.298-11.82 1.715-12.49 2.291-0.6775 0.5758-4.424 11.09-4.264 11.96 0.1648 0.8738 7.393 9.378 8.23 9.676 0.054 0.0147 0.1438 0.0274 0.2698 0.0299zm3.166-2.55c-5.216-0.4567-9.074-5.055-8.618-10.27 0.4558-5.216 5.054-9.076 10.27-8.62 5.217 0.456 9.077 5.056 8.62 10.27-0.4568 5.216-5.056 9.075-10.27 8.618z" fill="#ffffff" stroke="#000000" stroke-width=".8"/>
   <path d="m449.3 647c-3.272 0-5.906 2.634-5.906 5.906v5.279c0 3.272 2.634 5.906 5.906 5.906h5.279c3.272 0 5.906-2.634 5.906-5.906v-5.279c0-3.272-2.634-5.906-5.906-5.906zm2.641 1.885a6.662 6.662 0 0 1 6.66 6.66 6.662 6.662 0 0 1-6.66 6.662 6.662 6.662 0 0 1-6.662-6.662 6.662 6.662 0 0 1 6.662-6.66z" fill="#ffffff" stroke="#000000" stroke-width=".8"/>
   <path d="m451.9 692.1a12.13 12.13 0 0 0-12.13 12.13 12.13 12.13 0 0 0 12.13 12.13 12.13 12.13 0 0 0 12.13-12.13 12.13 12.13 0 0 0-12.13-12.13zm0 2.312a9.818 9.818 0 0 1 9.816 9.816 9.818 9.818 0 0 1-9.816 9.818 9.818 9.818 0 0 1-9.818-9.818 9.818 9.818 0 0 1 9.818-9.816z" fill="#ffffff" stroke="#000000" stroke-width=".8"/>
   <path d="m451.9 697.4c-3.748 1e-5 -6.786 3.038-6.787 6.786 0 3.748 3.038 6.787 6.787 6.787 3.748-6e-4 6.786-3.039 6.786-6.787-5e-4 -3.747-3.038-6.785-6.786-6.786zm0 1.602c2.862 5.6e-4 5.183 2.321 5.184 5.184 0 2.863-2.321 5.184-5.184 5.185-2.864 0-5.185-2.321-5.185-5.185 6e-4 -2.863 2.322-5.184 5.185-5.184z" fill="#ffffff" stroke="#000000" stroke-width=".8"/>
   <path d="m447.9 716.2c1.899 0.0227 11.59-1.78 12.22-2.32 0.6775-0.5757 4.424-11.09 4.264-11.96-0.1658-0.8736-7.393-9.378-8.23-9.676-0.8379-0.298-11.82 1.715-12.49 2.291-0.6775 0.5758-4.424 11.09-4.264 11.96 0.1648 0.8738 7.393 9.378 8.23 9.676 0.054 0.0147 0.1438 0.0274 0.2698 0.0299zm3.166-2.55c-5.216-0.4567-9.074-5.055-8.618-10.27 0.4558-5.216 5.054-9.076 10.27-8.62 5.217 0.456 9.077 5.056 8.62 10.27-0.4568 5.216-5.056 9.075-10.27 8.618z" fill="#ffffff" stroke="#000000" stroke-width=".8"/>
   <path d="m449.3 695.7c-3.272 0-5.906 2.634-5.906 5.906v5.279c0 3.272 2.634 5.906 5.906 5.906h5.279c3.272 0 5.906-2.634 5.906-5.906v-5.279c0-3.272-2.634-5.906-5.906-5.906zm2.641 1.885a6.662 6.662 0 0 1 6.66 6.66 6.662 6.662 0 0 1-6.66 6.662 6.662 6.662 0 0 1-6.662-6.662 6.662 6.662 0 0 1 6.662-6.66z" fill="#ffffff" stroke="#000000" stroke-width=".8"/>
  </g>
 </g>
</svg>
