<?xml version="1.0" encoding="UTF-8" standalone="no"?>
<!-- Created with Inkscape (http://www.inkscape.org/) -->

<svg
   xmlns:dc="http://purl.org/dc/elements/1.1/"
   xmlns:cc="http://creativecommons.org/ns#"
   xmlns:rdf="http://www.w3.org/1999/02/22-rdf-syntax-ns#"
   xmlns:svg="http://www.w3.org/2000/svg"
   xmlns="http://www.w3.org/2000/svg"
   xmlns:xlink="http://www.w3.org/1999/xlink"
   xmlns:sodipodi="http://sodipodi.sourceforge.net/DTD/sodipodi-0.dtd"
   xmlns:inkscape="http://www.inkscape.org/namespaces/inkscape"
   width="640"
   height="170"
   viewBox="0 0 640 170"
   version="1.1"
   id="svg8"
   inkscape:version="0.92.3 (2405546, 2018-03-11)"
   sodipodi:docname="phaseque-pattern-transformation.svg">
  <defs
     id="defs2" />
  <sodipodi:namedview
     id="base"
     pagecolor="#f5f5f5"
     bordercolor="#000000"
     borderopacity="0.16470588"
     inkscape:pageopacity="0"
     inkscape:pageshadow="2"
     inkscape:zoom="1.4142136"
     inkscape:cx="356.91798"
     inkscape:cy="89.183834"
     inkscape:document-units="px"
     inkscape:current-layer="layer1"
     showgrid="false"
     units="px"
     guidecolor="#00d1ae"
     guideopacity="0.49803922"
     inkscape:window-width="2727"
     inkscape:window-height="918"
     inkscape:window-x="606"
     inkscape:window-y="1005"
     inkscape:window-maximized="0">
    <inkscape:grid
       type="xygrid"
       id="grid815"
       color="#3fb6ff"
       opacity="0.1254902"
       empcolor="#3f96ff"
       empopacity="0.29019608" />
  </sodipodi:namedview>
  <metadata
     id="metadata5">
    <rdf:RDF>
      <cc:Work
         rdf:about="">
        <dc:format>image/svg+xml</dc:format>
        <dc:type
           rdf:resource="http://purl.org/dc/dcmitype/StillImage" />
        <dc:title></dc:title>
      </cc:Work>
    </rdf:RDF>
  </metadata>
  <g
     inkscape:label="Layer 1"
     inkscape:groupmode="layer"
     id="layer1"
     transform="translate(0,-656.5)">
    <g
       id="g1465"
       transform="matrix(2,0,0,2,-514.38598,-477.33644)">
      <g
         id="g396"
         style="fill:none;stroke:#000000;stroke-width:1px;stroke-linecap:round"
         transform="translate(251.71762,303.88442)">
        <path
           d="m 129,269.5 h 5"
           id="path388"
           inkscape:connector-curvature="0" />
        <path
           d="m 131.6,267.2 -2.602,2.286 2.602,2.286"
           id="path390"
           inkscape:connector-curvature="0"
           style="stroke-linejoin:round" />
        <path
           d="m 204,269.5 h -5"
           id="path392"
           inkscape:connector-curvature="0" />
        <path
           d="m 201.4,267.2 2.602,2.286 -2.602,2.286"
           id="path394"
           inkscape:connector-curvature="0"
           style="stroke-linejoin:round" />
      </g>
      <path
         d="m 388.71762,593.38442 h 14.5"
         id="path398"
         inkscape:connector-curvature="0"
         style="fill:none;stroke:#000000;stroke-width:0.69999999" />
      <path
         d="m 433.21762,593.38442 h 13.5"
         id="path400"
         inkscape:connector-curvature="0"
         style="fill:none;stroke:#000000;stroke-width:0.69999999" />
      <g
         id="g414"
         aria-label="SHIFT"
         transform="translate(251.71762,303.88442)">
        <path
           id="path404"
           d="m 158.4,271 q -0.5639,0 -1.093,-0.1601 -0.5221,-0.1601 -0.8284,-0.4247 l 0.3133,-0.7031 q 0.2994,0.2367 0.731,0.3898 0.4386,0.1462 0.8772,0.1462 0.543,0 0.8076,-0.174 0.2715,-0.174 0.2715,-0.4595 0,-0.2088 -0.1532,-0.3411 -0.1462,-0.1392 -0.3759,-0.2158 -0.2297,-0.0766 -0.6266,-0.174 -0.5569,-0.1323 -0.905,-0.2646 -0.3411,-0.1323 -0.5917,-0.4107 -0.2437,-0.2854 -0.2437,-0.7658 0,-0.4038 0.2158,-0.731 0.2228,-0.3342 0.6614,-0.5291 0.4455,-0.1949 1.086,-0.1949 0.4455,0 0.8772,0.1114 0.4316,0.1114 0.7449,0.3202 l -0.2854,0.7031 q -0.3202,-0.188 -0.6683,-0.2854 -0.3481,-0.0975 -0.6753,-0.0975 -0.536,0 -0.8006,0.181 -0.2576,0.181 -0.2576,0.4804 0,0.2088 0.1462,0.3411 0.1532,0.1323 0.3829,0.2088 0.2297,0.0766 0.6266,0.174 0.543,0.1253 0.8911,0.2645 0.3481,0.1323 0.5917,0.4107 0.2506,0.2785 0.2506,0.7518 0,0.4038 -0.2228,0.731 -0.2158,0.3272 -0.6614,0.5221 -0.4456,0.1949 -1.086,0.1949 z"
           inkscape:connector-curvature="0" />
        <path
           id="path406"
           d="m 165.6,266.1 v 4.873 h -0.905 v -2.088 h -2.52 v 2.088 H 161.27 V 266.1 h 0.905 v 2.012 h 2.52 V 266.1 Z"
           inkscape:connector-curvature="0" />
        <path
           id="path408"
           d="m 166.9,266.1 h 0.905 v 4.873 H 166.9 Z"
           inkscape:connector-curvature="0" />
        <path
           id="path410"
           d="m 170,266.8 v 1.483 h 2.353 v 0.7658 H 170 v 1.866 h -0.905 v -4.873 h 3.557 v 0.7588 z"
           inkscape:connector-curvature="0" />
        <path
           id="path412"
           d="m 174.6,266.8 h -1.615 v -0.7658 h 4.135 V 266.8 h -1.615 v 4.107 H 174.6 Z"
           inkscape:connector-curvature="0" />
      </g>
      <g
         id="g872"
         aria-label="QNT"
         transform="translate(251.71762,303.88442)">
        <path
           id="path866"
           d="m 94.38,272.4 q -0.2437,0.2854 -0.5709,0.4316 -0.3202,0.1462 -0.7031,0.1462 -0.5012,0 -0.9189,-0.2297 -0.4177,-0.2228 -0.9537,-0.7797 -0.6753,-0.0557 -1.211,-0.3899 -0.536,-0.3411 -0.8354,-0.8841 -0.2994,-0.55 -0.2994,-1.218 0,-0.7101 0.3411,-1.281 0.3411,-0.5778 0.9398,-0.898 0.5987,-0.3272 1.344,-0.3272 0.7453,0 1.344,0.3272 0.5987,0.3202 0.9398,0.8911 0.3411,0.5709 0.3411,1.288 0,0.5778 -0.2297,1.072 -0.2297,0.4873 -0.6405,0.8354 -0.4107,0.3411 -0.9537,0.4943 0.2019,0.2158 0.3968,0.3133 0.1949,0.0975 0.4177,0.0975 0.4804,0 0.8354,-0.3898 z m -4.581,-2.924 q 0,0.4873 0.2228,0.8841 0.2228,0.3898 0.6126,0.6126 0.3899,0.2158 0.8772,0.2158 0.4873,0 0.8772,-0.2158 0.3899,-0.2228 0.6126,-0.6126 0.2228,-0.3968 0.2228,-0.8841 0,-0.4873 -0.2228,-0.8772 -0.2228,-0.3968 -0.6126,-0.6126 -0.3899,-0.2228 -0.8772,-0.2228 -0.4873,0 -0.8772,0.2228 -0.3899,0.2158 -0.6126,0.6126 -0.2228,0.3898 -0.2228,0.8772 z"
           inkscape:connector-curvature="0" />
        <path
           id="path868"
           d="m 99.42,267.1 v 4.873 h -0.7449 l -2.687,-3.3 v 3.3 H 95.09 V 267.1 h 0.7449 l 2.687,3.3 v -3.3 z"
           inkscape:connector-curvature="0" />
        <path
           id="path870"
           d="m 101.7,267.8 h -1.615 v -0.7658 h 4.135 V 267.8 h -1.615 v 4.107 H 101.7 Z"
           inkscape:connector-curvature="0" />
      </g>
      <g
         id="g928"
         aria-label="LEN"
         transform="translate(251.71762,303.88442)">
        <path
           id="path922"
           d="m 229.8,267.1 h 0.905 v 4.107 h 2.548 v 0.7658 H 229.8 Z"
           inkscape:connector-curvature="0" />
        <path
           id="path924"
           d="m 237.7,271.2 v 0.7588 h -3.655 v -4.873 h 3.557 v 0.7588 h -2.652 v 1.267 h 2.353 v 0.7449 h -2.353 v 1.344 z"
           inkscape:connector-curvature="0" />
        <path
           id="path926"
           d="m 243,267.1 v 4.873 h -0.7449 l -2.687,-3.3 v 3.3 H 238.67 V 267.1 h 0.7449 l 2.687,3.3 v -3.3 z"
           inkscape:connector-curvature="0" />
      </g>
      <g
         id="g958"
         transform="translate(251.71762,303.88442)">
        <g
           id="g936"
           aria-label="REV">
          <path
             id="path930"
             d="m 92.89,313.9 -0.9955,-1.427 q -0.06265,0.007 -0.188,0.007 h -1.1 v 1.42 h -0.905 v -4.873 h 2.005 q 0.6335,0 1.1,0.2088 0.4734,0.2088 0.724,0.5987 0.2506,0.3898 0.2506,0.9259 0,0.55 -0.2715,0.9468 -0.2645,0.3968 -0.7658,0.5917 l 1.121,1.601 z m -0.02088,-3.14 q 0,-0.4664 -0.3063,-0.717 -0.3063,-0.2506 -0.8981,-0.2506 h -1.058 v 1.942 h 1.058 q 0.5917,0 0.8981,-0.2506 0.3063,-0.2576 0.3063,-0.724 z"
             inkscape:connector-curvature="0" />
          <path
             id="path932"
             d="m 98.44,313.2 v 0.7588 h -3.655 v -4.873 h 3.557 v 0.7588 H 95.69 v 1.267 h 2.353 v 0.7449 H 95.69 v 1.344 z"
             inkscape:connector-curvature="0" />
          <path
             id="path934"
             d="m 103.8,309.1 -2.123,4.873 h -0.8911 l -2.13,-4.873 h 0.9816 l 1.622,3.759 1.636,-3.759 z"
             inkscape:connector-curvature="0" />
        </g>
        <g
           id="g946"
           aria-label="MUTA">
          <path
             id="path938"
             d="m 161,312.9 -0.007,-3.23 -1.601,2.673 h -0.4038 l -1.601,-2.632 v 3.188 h -0.8632 v -4.873 h 0.7449 l 1.935,3.23 1.901,-3.23 h 0.7449 l 0.007,4.873 z"
             inkscape:connector-curvature="0" />
          <path
             id="path940"
             d="m 165.2,313 q -1.009,0 -1.573,-0.5639 -0.5639,-0.5709 -0.5639,-1.629 v -2.75 h 0.905 v 2.715 q 0,1.434 1.239,1.434 1.232,0 1.232,-1.434 v -2.715 h 0.8911 v 2.75 q 0,1.058 -0.5639,1.629 Q 166.2094,313 165.2003,313 Z"
             inkscape:connector-curvature="0" />
          <path
             id="path942"
             d="m 169.5,308.8 h -1.615 v -0.7658 h 4.135 V 308.8 h -1.615 v 4.107 H 169.5 Z"
             inkscape:connector-curvature="0" />
          <path
             id="path944"
             d="m 175.6,311.8 h -2.437 l -0.4804,1.128 h -0.9329 l 2.193,-4.873 h 0.8911 l 2.2,4.873 h -0.9468 z m -0.2994,-0.7101 -0.9189,-2.13 -0.912,2.13 z"
             inkscape:connector-curvature="0" />
        </g>
        <g
           id="g956"
           aria-label="FLIP">
          <path
             id="path948"
             d="m 230,309.8 v 1.483 h 2.353 v 0.7658 H 230 v 1.866 h -0.905 v -4.873 h 3.557 v 0.7588 z"
             inkscape:connector-curvature="0" />
          <path
             id="path950"
             d="m 233.6,309.1 h 0.905 v 4.107 h 2.548 v 0.7658 H 233.6 Z"
             inkscape:connector-curvature="0" />
          <path
             id="path952"
             d="m 237.7,309.1 h 0.905 v 4.873 H 237.7 Z"
             inkscape:connector-curvature="0" />
          <path
             id="path954"
             d="m 242,309.1 q 0.6335,0 1.1,0.2088 0.4734,0.2088 0.724,0.5987 0.2506,0.3899 0.2506,0.9259 0,0.5291 -0.2506,0.9259 -0.2506,0.3898 -0.724,0.5987 -0.4664,0.2088 -1.1,0.2088 h -1.1 v 1.406 h -0.905 v -4.873 z m -0.0418,2.701 q 0.5917,0 0.898,-0.2506 0.3063,-0.2506 0.3063,-0.717 0,-0.4664 -0.3063,-0.717 -0.3063,-0.2506 -0.898,-0.2506 h -1.058 v 1.935 z"
             inkscape:connector-curvature="0" />
        </g>
      </g>
      <g
         id="g1042"
         transform="translate(251.71762,303.88442)">
        <g
           id="g972"
           aria-label="SHIFT">
          <path
             id="path962"
             d="m 18.14,314 q -0.5639,0 -1.093,-0.1601 -0.5221,-0.1601 -0.8284,-0.4247 l 0.3133,-0.7031 q 0.2994,0.2367 0.731,0.3898 0.4386,0.1462 0.8772,0.1462 0.543,0 0.8076,-0.174 0.2715,-0.174 0.2715,-0.4595 0,-0.2088 -0.1532,-0.3411 -0.1462,-0.1392 -0.3759,-0.2158 -0.2297,-0.0766 -0.6265,-0.174 -0.5569,-0.1323 -0.905,-0.2646 -0.3411,-0.1323 -0.5917,-0.4107 -0.2437,-0.2854 -0.2437,-0.7658 0,-0.4038 0.2158,-0.731 0.2228,-0.3342 0.6614,-0.5291 0.4455,-0.1949 1.086,-0.1949 0.4455,0 0.8772,0.1114 0.4316,0.1114 0.7449,0.3202 l -0.2854,0.7031 q -0.3202,-0.188 -0.6683,-0.2854 -0.3481,-0.0975 -0.6753,-0.0975 -0.536,0 -0.8006,0.181 -0.2576,0.181 -0.2576,0.4804 0,0.2088 0.1462,0.3411 0.1532,0.1323 0.3829,0.2088 0.2297,0.0766 0.6265,0.174 0.543,0.1253 0.8911,0.2645 0.3481,0.1323 0.5917,0.4107 0.2506,0.2785 0.2506,0.7518 0,0.4038 -0.2228,0.731 -0.2158,0.3272 -0.6614,0.5221 -0.4455,0.1949 -1.086,0.1949 z"
             inkscape:connector-curvature="0" />
          <path
             id="path964"
             d="m 25.34,309.1 v 4.873 h -0.905 v -2.088 h -2.52 v 2.088 H 21.01 V 309.1 h 0.905 v 2.012 h 2.52 V 309.1 Z"
             inkscape:connector-curvature="0" />
          <path
             id="path966"
             d="m 26.65,309.1 h 0.905 v 4.873 H 26.65 Z"
             inkscape:connector-curvature="0" />
          <path
             id="path968"
             d="m 29.77,309.8 v 1.483 h 2.353 v 0.7658 H 29.77 v 1.866 h -0.905 v -4.873 h 3.557 v 0.7588 z"
             inkscape:connector-curvature="0" />
          <path
             id="path970"
             d="m 34.33,309.8 h -1.615 v -0.7658 H 36.85 V 309.8 h -1.615 v 4.107 H 34.33 Z"
             inkscape:connector-curvature="0" />
        </g>
        <g
           id="g980"
           aria-label="LEN">
          <path
             id="path974"
             d="m 54.84,309.1 h 0.905 v 4.107 h 2.548 v 0.7658 H 54.84 Z"
             inkscape:connector-curvature="0" />
          <path
             id="path976"
             d="m 62.67,313.2 v 0.7588 h -3.655 v -4.873 h 3.557 v 0.7588 H 59.92 v 1.267 h 2.353 v 0.7449 H 59.92 v 1.344 z"
             inkscape:connector-curvature="0" />
          <path
             id="path978"
             d="m 68,309.1 v 4.873 h -0.7449 l -2.687,-3.3 v 3.3 H 63.67 V 309.1 h 0.7449 l 2.687,3.3 v -3.3 z"
             inkscape:connector-curvature="0" />
        </g>
        <g
           id="g988"
           aria-label="LEN">
          <path
             id="path982"
             d="m 54.84,267.1 h 0.905 v 4.107 h 2.548 v 0.7658 H 54.84 Z"
             inkscape:connector-curvature="0" />
          <path
             id="path984"
             d="m 62.67,271.2 v 0.7588 h -3.655 v -4.873 h 3.557 v 0.7588 H 59.92 v 1.267 h 2.353 v 0.7449 H 59.92 v 1.344 z"
             inkscape:connector-curvature="0" />
          <path
             id="path986"
             d="m 68,267.1 v 4.873 h -0.7449 l -2.687,-3.3 v 3.3 H 63.67 V 267.1 h 0.7449 l 2.687,3.3 v -3.3 z"
             inkscape:connector-curvature="0" />
        </g>
        <g
           id="g1000"
           aria-label="SHIFT">
          <path
             id="path990"
             d="m 18.14,272 q -0.5639,0 -1.093,-0.1601 -0.5221,-0.1601 -0.8284,-0.4247 l 0.3133,-0.7031 q 0.2994,0.2367 0.731,0.3898 0.4386,0.1462 0.8772,0.1462 0.543,0 0.8076,-0.174 0.2715,-0.174 0.2715,-0.4595 0,-0.2088 -0.1532,-0.3411 -0.1462,-0.1392 -0.3759,-0.2158 -0.2297,-0.0766 -0.6265,-0.174 -0.5569,-0.1323 -0.905,-0.2645 -0.3411,-0.1323 -0.5917,-0.4107 -0.2437,-0.2854 -0.2437,-0.7658 0,-0.4038 0.2158,-0.731 0.2228,-0.3342 0.6614,-0.5291 0.4455,-0.1949 1.086,-0.1949 0.4455,0 0.8772,0.1114 0.4316,0.1114 0.7449,0.3202 l -0.2854,0.7031 q -0.3202,-0.188 -0.6683,-0.2854 -0.3481,-0.0975 -0.6753,-0.0975 -0.536,0 -0.8006,0.181 -0.2576,0.181 -0.2576,0.4804 0,0.2088 0.1462,0.3411 0.1532,0.1323 0.3829,0.2088 0.2297,0.0766 0.6265,0.174 0.543,0.1253 0.8911,0.2646 0.3481,0.1323 0.5917,0.4107 0.2506,0.2785 0.2506,0.7519 0,0.4038 -0.2228,0.731 -0.2158,0.3272 -0.6614,0.5221 Q 18.7806,272 18.1401,272 Z"
             inkscape:connector-curvature="0" />
          <path
             id="path992"
             d="m 25.34,267.1 v 4.873 h -0.905 v -2.088 h -2.52 v 2.088 H 21.01 V 267.1 h 0.905 v 2.012 h 2.52 V 267.1 Z"
             inkscape:connector-curvature="0" />
          <path
             id="path994"
             d="m 26.65,267.1 h 0.905 v 4.873 H 26.65 Z"
             inkscape:connector-curvature="0" />
          <path
             id="path996"
             d="m 29.77,267.8 v 1.483 h 2.353 v 0.7658 H 29.77 v 1.866 h -0.905 v -4.873 h 3.557 v 0.7588 z"
             inkscape:connector-curvature="0" />
          <path
             id="path998"
             d="m 34.33,267.8 h -1.615 v -0.7658 H 36.85 V 267.8 h -1.615 v 4.107 H 34.33 Z"
             inkscape:connector-curvature="0" />
        </g>
        <g
           id="g1010"
           aria-label="GATE">
          <path
             id="path1002"
             d="m 265.8,269.5 h 0.8563 v 1.942 q -0.3759,0.2994 -0.8772,0.4595 -0.5012,0.1601 -1.03,0.1601 -0.7449,0 -1.344,-0.3202 -0.5987,-0.3272 -0.9398,-0.898 -0.3411,-0.5708 -0.3411,-1.288 0,-0.7172 0.3411,-1.288 0.3411,-0.5708 0.9398,-0.8911 0.6057,-0.3272 1.358,-0.3272 0.6126,0 1.114,0.2019 0.5014,0.2019 0.8424,0.5917 l -0.5709,0.5569 q -0.5569,-0.5569 -1.344,-0.5569 -0.5152,0 -0.9189,0.2158 -0.3968,0.2158 -0.6266,0.6057 -0.2228,0.3899 -0.2228,0.8911 0,0.4873 0.2228,0.8772 0.2297,0.3899 0.6266,0.6126 0.4038,0.2228 0.912,0.2228 0.5709,0 1.002,-0.2506 z"
             inkscape:connector-curvature="0" />
          <path
             id="path1004"
             d="m 271,270.8 h -2.437 l -0.4804,1.128 h -0.9329 l 2.193,-4.873 h 0.8911 l 2.2,4.873 h -0.9468 z m -0.2994,-0.7101 -0.9189,-2.13 -0.912,2.13 z"
             inkscape:connector-curvature="0" />
          <path
             id="path1006"
             d="m 273.8,267.8 h -1.615 v -0.7658 h 4.135 V 267.8 h -1.615 v 4.107 H 273.8 Z"
             inkscape:connector-curvature="0" />
          <path
             id="path1008"
             d="m 280.7,271.2 v 0.7588 h -3.655 v -4.873 h 3.557 v 0.7588 h -2.652 v 1.267 h 2.353 v 0.7449 h -2.353 v 1.344 z"
             inkscape:connector-curvature="0" />
        </g>
        <g
           id="g1020"
           aria-label="GATE">
          <path
             id="path1012"
             d="m 265.8,311.5 h 0.8563 v 1.942 q -0.3759,0.2994 -0.8772,0.4595 -0.5012,0.1601 -1.03,0.1601 -0.7449,0 -1.344,-0.3202 -0.5987,-0.3272 -0.9398,-0.898 -0.3411,-0.5709 -0.3411,-1.288 0,-0.7171 0.3411,-1.288 0.3411,-0.5709 0.9398,-0.8911 0.6057,-0.3272 1.358,-0.3272 0.6126,0 1.114,0.2019 0.5014,0.2019 0.8424,0.5917 l -0.5709,0.5569 q -0.5569,-0.5569 -1.344,-0.5569 -0.5152,0 -0.9189,0.2158 -0.3968,0.2158 -0.6266,0.6057 -0.2228,0.3899 -0.2228,0.8911 0,0.4873 0.2228,0.8772 0.2297,0.3898 0.6266,0.6126 0.4038,0.2228 0.912,0.2228 0.5709,0 1.002,-0.2506 z"
             inkscape:connector-curvature="0" />
          <path
             id="path1014"
             d="m 271,312.8 h -2.437 l -0.4804,1.128 h -0.9329 l 2.193,-4.873 h 0.8911 l 2.2,4.873 h -0.9468 z m -0.2994,-0.7101 -0.9189,-2.13 -0.912,2.13 z"
             inkscape:connector-curvature="0" />
          <path
             id="path1016"
             d="m 273.8,309.8 h -1.615 v -0.7658 h 4.135 V 309.8 h -1.615 v 4.107 H 273.8 Z"
             inkscape:connector-curvature="0" />
          <path
             id="path1018"
             d="m 280.7,313.2 v 0.7588 h -3.655 v -4.873 h 3.557 v 0.7588 h -2.652 v 1.267 h 2.353 v 0.7449 h -2.353 v 1.344 z"
             inkscape:connector-curvature="0" />
        </g>
        <g
           id="g1030"
           aria-label="X PWR">
          <path
             id="path1022"
             d="m 297.8,313.9 -1.323,-1.852 -1.309,1.852 h -1.03 l 1.81,-2.485 -1.713,-2.388 h 1.023 l 1.246,1.733 1.232,-1.733 h 0.9816 l -1.706,2.353 1.831,2.52 z"
             inkscape:connector-curvature="0" />
          <path
             id="path1024"
             d="m 303.5,309.1 q 0.6335,0 1.1,0.2088 0.4734,0.2088 0.724,0.5987 0.2506,0.3899 0.2506,0.9259 0,0.5291 -0.2506,0.9259 -0.2506,0.3898 -0.724,0.5987 -0.4664,0.2088 -1.1,0.2088 h -1.1 v 1.406 h -0.905 v -4.873 z m -0.0418,2.701 q 0.5917,0 0.898,-0.2506 0.3063,-0.2506 0.3063,-0.717 0,-0.4664 -0.3063,-0.717 -0.3063,-0.2506 -0.898,-0.2506 h -1.058 v 1.935 z"
             inkscape:connector-curvature="0" />
          <path
             id="path1026"
             d="m 313.6,309.1 -1.615,4.873 h -0.9607 l -1.204,-3.606 -1.225,3.606 h -0.9677 l -1.615,-4.873 h 0.9398 l 1.211,3.704 1.26,-3.704 h 0.8354 l 1.232,3.724 1.246,-3.724 z"
             inkscape:connector-curvature="0" />
          <path
             id="path1028"
             d="m 317.5,313.9 -0.9955,-1.427 q -0.0627,0.007 -0.188,0.007 h -1.1 v 1.42 h -0.905 v -4.873 h 2.005 q 0.6335,0 1.1,0.2088 0.4734,0.2088 0.724,0.5987 0.2506,0.3899 0.2506,0.9259 0,0.55 -0.2715,0.9468 -0.2645,0.3968 -0.7658,0.5917 l 1.121,1.601 z m -0.0209,-3.14 q 0,-0.4664 -0.3063,-0.717 -0.3063,-0.2506 -0.898,-0.2506 h -1.058 v 1.942 h 1.058 q 0.5917,0 0.898,-0.2506 0.3063,-0.2576 0.3063,-0.724 z"
             inkscape:connector-curvature="0" />
        </g>
        <g
           id="g1040"
           aria-label="X CRV">
          <path
             id="path1032"
             d="m 299.2,271.9 -1.323,-1.852 -1.309,1.852 h -1.03 l 1.81,-2.485 -1.713,-2.388 h 1.023 l 1.246,1.733 1.232,-1.733 h 0.9816 l -1.706,2.353 1.831,2.52 z"
             inkscape:connector-curvature="0" />
          <path
             id="path1034"
             d="m 305.1,272 q -0.7379,0 -1.337,-0.3202 -0.5917,-0.3272 -0.9329,-0.898 -0.3342,-0.5709 -0.3342,-1.288 0,-0.7171 0.3411,-1.288 0.3411,-0.5709 0.9329,-0.8911 0.5987,-0.3272 1.337,-0.3272 0.5987,0 1.093,0.2088 0.4943,0.2088 0.8354,0.6057 l -0.5848,0.55 q -0.5291,-0.5708 -1.302,-0.5708 -0.5012,0 -0.898,0.2228 -0.3968,0.2158 -0.6196,0.6057 -0.2228,0.3898 -0.2228,0.8841 0,0.4943 0.2228,0.8841 0.2228,0.3898 0.6196,0.6126 0.3968,0.2158 0.898,0.2158 0.7727,0 1.302,-0.5778 l 0.5848,0.5569 q -0.3411,0.3968 -0.8424,0.6057 -0.4943,0.2088 -1.093,0.2088 z"
             inkscape:connector-curvature="0" />
          <path
             id="path1036"
             d="m 311.1,271.9 -0.9955,-1.427 q -0.0627,0.007 -0.188,0.007 h -1.1 v 1.42 h -0.905 v -4.873 h 2.005 q 0.6335,0 1.1,0.2088 0.4734,0.2088 0.724,0.5987 0.2506,0.3898 0.2506,0.9259 0,0.55 -0.2715,0.9468 -0.2645,0.3968 -0.7658,0.5917 l 1.121,1.601 z m -0.0209,-3.14 q 0,-0.4664 -0.3063,-0.717 -0.3063,-0.2506 -0.8981,-0.2506 h -1.058 v 1.942 h 1.058 q 0.5917,0 0.8981,-0.2506 0.3063,-0.2576 0.3063,-0.724 z"
             inkscape:connector-curvature="0" />
          <path
             id="path1038"
             d="m 317.4,267.1 -2.123,4.873 h -0.8911 l -2.13,-4.873 h 0.9816 l 1.622,3.759 1.636,-3.759 z"
             inkscape:connector-curvature="0" />
        </g>
      </g>
      <g
         id="g1056"
         style="fill:none;stroke:#000000"
         transform="translate(251.71762,303.88442)">
        <path
           id="path1044"
           d="m 138,331.5 h 21"
           inkscape:connector-curvature="0"
           style="stroke-width:0.69999999" />
        <path
           id="path1046"
           d="m 174,331.5 h 21"
           inkscape:connector-curvature="0"
           style="stroke-width:0.69999999" />
        <g
           id="g1054"
           style="stroke-width:1px;stroke-linecap:round">
          <path
             id="path1048"
             d="m 129,311.5 h 5"
             inkscape:connector-curvature="0" />
          <path
             id="path1050"
             d="m 199,311.5 h 5"
             inkscape:connector-curvature="0" />
          <path
             id="path1052"
             d="m 201.5,309 v 5"
             inkscape:connector-curvature="0" />
        </g>
      </g>
      <g
         id="g1062"
         transform="matrix(3.78,0,0,3.78,102.21762,-200.11558)">
        <circle
           id="circle1058"
           r="2.9100001"
           cy="221.10001"
           cx="65.089996"
           style="fill:#151715" />
        <circle
           id="circle1060"
           r="2.381"
           cy="221.10001"
           cx="65.089996"
           style="fill:#ffffff" />
      </g>
      <g
         id="g1068"
         transform="matrix(3.78,0,0,3.78,242.25862,-200.11558)">
        <circle
           id="circle1064"
           r="2.9100001"
           cy="221.10001"
           cx="65.089996"
           style="fill:#151715" />
        <circle
           id="circle1066"
           r="2.381"
           cy="221.10001"
           cx="65.089996"
           style="fill:#ffffff" />
      </g>
      <g
         id="g1078"
         transform="translate(250.76192,683.88442)">
        <g
           id="g1076"
           transform="translate(140.5,-248)"
           style="fill:#ffffff;stroke:#000000;stroke-width:0.80000001;stroke-linecap:round;stroke-linejoin:round">
          <circle
             id="circle1070"
             r="13.38"
             cy="199.3"
             cx="27" />
          <path
             id="path1072"
             d="m 29.71,186.5 c -0.5638,-0.1194 -1.134,-0.1878 -1.706,-0.2322 -0.2947,0.3991 -0.8037,0.577 -1.283,0.4483 -0.2652,-0.0719 -0.4979,-0.2321 -0.6596,-0.4542 -0.5717,0.0406 -1.143,0.1048 -1.707,0.2203 -1.99,1.858 -4.302,3.29 -7.1,4.075 -0.392,0.4351 -0.7411,0.9025 -1.07,1.384 0.1102,0.2517 0.1311,0.5334 0.05937,0.7986 -0.1312,0.4779 -0.5412,0.8269 -1.034,0.8799 -0.2549,0.5252 -0.4875,1.061 -0.671,1.618 0.4292,2.734 0.5182,5.462 -0.02229,8.177 0.1804,0.5506 0.409,1.081 0.6591,1.601 0.06176,0.006 0.1229,0.0173 0.183,0.0331 0.6427,0.1745 1.022,0.837 0.8478,1.48 -0.01594,0.0577 -0.03621,0.1142 -0.06051,0.169 0.3245,0.4776 0.6685,0.9422 1.055,1.375 2.629,0.8068 5.019,2.117 7.082,4.113 0.5632,0.1194 1.133,0.1873 1.704,0.2317 0.295,-0.3984 0.8038,-0.5756 1.282,-0.4468 0.2645,0.072 0.4967,0.2321 0.658,0.4538 0.5713,-0.0403 1.141,-0.1041 1.705,-0.2192 2.114,-1.892 4.523,-3.165 7.103,-4.078 0.392,-0.4351 0.7411,-0.9025 1.07,-1.384 -0.1102,-0.2517 -0.1311,-0.5334 -0.05937,-0.7986 0.1312,-0.4779 0.5412,-0.8269 1.034,-0.8799 0.2549,-0.5252 0.4875,-1.061 0.671,-1.618 -0.5799,-2.751 -0.4825,-5.472 0.02145,-8.174 -0.1806,-0.552 -0.4092,-1.083 -0.6598,-1.604 -0.06073,-0.006 -0.1209,-0.017 -0.1799,-0.0323 -0.6423,-0.1735 -1.023,-0.8344 -0.8502,-1.477 0.01653,-0.0582 0.03737,-0.1151 0.06246,-0.1701 -0.3246,-0.4782 -0.6694,-0.9437 -1.056,-1.377 -2.612,-0.8905 -4.973,-2.26 -7.081,-4.112 z"
             inkscape:connector-curvature="0" />
          <ellipse
             id="ellipse1074"
             ry="9.0600004"
             rx="9.0539999"
             cy="-199.3"
             cx="27"
             transform="scale(1,-1)" />
        </g>
      </g>
      <g
         id="g1084"
         transform="matrix(3.78,0,0,3.78,102.21762,-242.11558)">
        <circle
           id="circle1080"
           r="2.9100001"
           cy="221.10001"
           cx="65.089996"
           style="fill:#151715" />
        <circle
           id="circle1082"
           r="2.381"
           cy="221.10001"
           cx="65.089996"
           style="fill:#ffffff" />
      </g>
      <g
         id="g1090"
         transform="matrix(3.78,0,0,3.78,242.25862,-242.11558)">
        <circle
           id="circle1086"
           r="2.9100001"
           cy="221.10001"
           cx="65.089996"
           style="fill:#151715" />
        <circle
           id="circle1088"
           r="2.381"
           cy="221.10001"
           cx="65.089996"
           style="fill:#ffffff" />
      </g>
      <g
         id="g1096"
         transform="matrix(3.78,0,0,3.78,277.25762,-242.11558)">
        <circle
           id="circle1092"
           r="2.9100001"
           cy="221.10001"
           cx="65.089996"
           style="fill:#151715" />
        <circle
           id="circle1094"
           r="2.381"
           cy="221.10001"
           cx="65.089996"
           style="fill:#ffffff" />
      </g>
      <g
         id="g1102"
         transform="matrix(3.78,0,0,3.78,207.25762,-242.11558)">
        <circle
           id="circle1098"
           r="2.9100001"
           cy="221.10001"
           cx="65.089996"
           style="fill:#151715" />
        <circle
           id="circle1100"
           r="2.381"
           cy="221.10001"
           cx="65.089996"
           style="fill:#ffffff" />
      </g>
      <g
         id="g1108"
         transform="matrix(3.78,0,0,3.78,137.21762,-242.11558)">
        <circle
           id="circle1104"
           r="2.9100001"
           cy="221.10001"
           cx="65.089996"
           style="fill:#151715" />
        <circle
           id="circle1106"
           r="2.381"
           cy="221.10001"
           cx="65.089996"
           style="fill:#ffffff" />
      </g>
      <g
         transform="translate(251.40512,683.88442)"
         id="g12214"
         style="stroke:#000000">
        <g
           id="g1116"
           transform="matrix(0.4021,0,0,0.4017,-3.286,-135.3)"
           style="fill:none">
          <path
             id="path1110"
             d="m 19.07,-103.3 c -1.059,0.6205 -2.036,1.371 -2.908,2.234 -5.741,5.74 -5.741,15.05 0,20.79 m 20.79,0 c 5.741,-5.74 5.741,-15.05 0,-20.79 -0.8681,-0.8623 -1.84,-1.613 -2.895,-2.234"
             transform="matrix(2.487,0,0,2.49,8.95,336.8)"
             inkscape:connector-curvature="0"
             style="stroke-width:0.60000002;stroke-linecap:round;stroke-linejoin:round" />
          <path
             id="path1112"
             d="M 75,111 45.73,140.27"
             inkscape:connector-curvature="0"
             style="stroke-width:1.74199998" />
          <path
             id="path1114"
             d="m 75,111 29.27,29.27"
             inkscape:connector-curvature="0"
             style="stroke-width:1.74199998" />
        </g>
        <g
           id="g1130"
           stroke-miterlimit="3.2"
           transform="translate(-175.6,-263)"
           style="fill:#ffffff;stroke-width:0.80000001;stroke-miterlimit:3.20000005">
          <circle
             id="circle1118"
             r="11.83"
             cy="172.3"
             cx="202.5"
             style="stroke-linecap:round;stroke-linejoin:round" />
          <path
             id="path1120"
             d="m 202.5,160.5 a 11.83,11.83 0 0 0 -1.01,0.05 c -0.2409,0.3388 -0.3902,0.7602 -0.4888,1.073 l 1.499,10.71 1.494,-10.7 c -0.0751,-0.321 -0.2192,-0.7399 -0.4664,-1.076 a 11.83,11.83 0 0 0 -1.028,-0.0518 z m 0,11.83 6.647,-8.523 c 0.0955,-0.3156 0.1793,-0.7512 0.133,-1.166 a 11.83,11.83 0 0 0 -1.774,-1.016 c -0.3744,0.1735 -0.7102,0.461 -0.95,0.6806 z m 0,0 10.02,-4.057 c 0.2384,-0.2236 0.5279,-0.5547 0.6961,-0.9328 a 11.83,11.83 0 0 0 -1.024,-1.777 c -0.4113,-0.0377 -0.8466,0.0437 -1.164,0.114 z m 0,0 10.7,1.496 c 0.3207,-0.075 0.7384,-0.2196 1.074,-0.4664 a 11.83,11.83 0 0 0 0.0536,-1.029 11.83,11.83 0 0 0 -0.0518,-1.01 c -0.3384,-0.2405 -0.7591,-0.3904 -1.071,-0.4888 z m 0,0 8.523,6.647 c 0.316,0.0956 0.7524,0.1793 1.168,0.133 a 11.83,11.83 0 0 0 1.014,-1.772 c -0.1735,-0.3744 -0.461,-0.7102 -0.6806,-0.95 z m 0,0 4.056,10.02 c 0.2236,0.2384 0.5543,0.5279 0.9328,0.6961 a 11.83,11.83 0 0 0 1.779,-1.026 c 0.0369,-0.4108 -0.0455,-0.8453 -0.1157,-1.162 z m 0,0 -1.496,10.7 c 0.0751,0.321 0.2192,0.74 0.4664,1.076 a 11.83,11.83 0 0 0 1.029,0.0518 11.83,11.83 0 0 0 1.009,-0.0501 c 0.2413,-0.3388 0.3919,-0.7602 0.4906,-1.073 z m 0,0 -6.648,8.523 c -0.0956,0.316 -0.1797,0.7524 -0.133,1.168 a 11.83,11.83 0 0 0 1.774,1.016 c 0.3744,-0.1731 0.7102,-0.461 0.95,-0.6806 z m 0,0 -10.02,4.057 c -0.2384,0.2236 -0.5279,0.5543 -0.6961,0.9327 a 11.83,11.83 0 0 0 1.028,1.779 c 0.4103,0.0364 0.844,-0.0456 1.161,-0.1157 z m 0,0 -10.7,-1.494 c -0.321,0.0751 -0.74,0.2192 -1.076,0.4664 a 11.83,11.83 0 0 0 -0.0518,1.028 11.83,11.83 0 0 0 0.05,1.01 c 0.3383,0.2409 0.7584,0.3902 1.071,0.4888 z m 0,0 -8.523,-6.647 c -0.3164,-0.0957 -0.7536,-0.1797 -1.169,-0.133 a 11.83,11.83 0 0 0 -1.014,1.772 c 0.1731,0.3749 0.461,0.712 0.6806,0.9518 z m 0,0 -4.057,-10.02 c -0.224,-0.2388 -0.5554,-0.528 -0.9345,-0.6961 a 11.83,11.83 0 0 0 -1.777,1.024 c -0.0372,0.4113 0.0455,0.8466 0.1157,1.164 z"
             inkscape:connector-curvature="0" />
          <g
             id="g1128"
             style="stroke-linecap:round;stroke-linejoin:round">
            <path
               id="path1122"
               d="m 201,161.6 a 10.8,10.8 0 0 0 -2.553,0.6754 2.332,2.332 0 0 1 0,0.002 2.332,2.332 0 0 1 -1.028,1.225 2.332,2.332 0 0 1 -1.574,0.2729 10.8,10.8 0 0 0 -1.86,1.874 2.332,2.332 0 0 1 -0.2781,1.567 2.332,2.332 0 0 1 -1.223,1.023 10.8,10.8 0 0 0 -0.6788,2.553 2.332,2.332 0 0 1 0.5441,1.496 2.332,2.332 0 0 1 -0.5441,1.494 10.8,10.8 0 0 0 0.6771,2.551 2.332,2.332 0 0 1 1.225,1.028 2.332,2.332 0 0 1 0.2729,1.574 10.8,10.8 0 0 0 1.878,1.862 2.332,2.332 0 0 1 0.285,-0.0345 2.332,2.332 0 0 1 1.276,0.3109 2.332,2.332 0 0 1 1.024,1.223 10.8,10.8 0 0 0 2.555,0.6771 2.332,2.332 0 0 1 1.494,-0.5424 2.332,2.332 0 0 1 1.492,0.5441 10.8,10.8 0 0 0 2.551,-0.6754 2.332,2.332 0 0 1 0,-0.002 2.332,2.332 0 0 1 1.028,-1.225 2.332,2.332 0 0 1 1.111,-0.3126 2.332,2.332 0 0 1 0.4629,0.0396 10.8,10.8 0 0 0 1.86,-1.874 2.332,2.332 0 0 1 0.2781,-1.565 2.332,2.332 0 0 1 1.225,-1.028 10.8,10.8 0 0 0 0.6771,-2.551 2.332,2.332 0 0 1 -0.5424,-1.494 2.332,2.332 0 0 1 0.5441,-1.494 10.8,10.8 0 0 0 -0.6771,-2.55 2.332,2.332 0 0 1 -0.002,0 2.332,2.332 0 0 1 -1.225,-1.028 2.332,2.332 0 0 1 -0.2746,-1.574 10.8,10.8 0 0 0 -1.874,-1.862 2.332,2.332 0 0 1 -1.563,-0.2781 2.332,2.332 0 0 1 -1.023,-1.221 10.8,10.8 0 0 0 -2.555,-0.6788 2.332,2.332 0 0 1 -1.494,0.5424 2.332,2.332 0 0 1 -1.492,-0.5441 z"
               inkscape:connector-curvature="0" />
            <ellipse
               id="ellipse1124"
               ry="7.4590001"
               rx="7.454"
               cy="-172.3"
               cx="202.5"
               transform="scale(1,-1)" />
            <path
               id="path1126"
               d="m 201.8,160.5 c -0.1815,0.007 -0.345,0.0378 -0.5185,0.0553 v 5.149 c 0,0.477 0.3841,0.8613 0.8607,0.8613 h 0.7224 c 0.4766,0 0.8607,-0.3843 0.8607,-0.8613 v -5.164 c -0.3882,-0.0388 -0.7922,-0.0564 -1.222,-0.0398 -0.2412,-0.009 -0.4756,-0.009 -0.7034,1e-5 z"
               inkscape:connector-curvature="0" />
          </g>
        </g>
      </g>
      <use
         id="use1133"
         xlink:href="#g12214"
         height="100%"
         width="100%"
         transform="translate(35.000001)"
         style="stroke:#000000"
         x="0"
         y="0" />
      <g
         id="g1137"
         transform="matrix(0.4021,0,0,0.4017,388.11762,548.68442)"
         style="stroke:#000000;stroke-width:3.73300004">
        <path
           id="path1135"
           d="m 49.14,136.9 a 36.57,36.59 0 0 1 0,-51.75 36.57,36.59 0 0 1 51.71,10e-7 36.57,36.59 0 0 1 0,51.749999"
           inkscape:connector-curvature="0"
           style="fill:none;stroke:#000000;stroke-width:3.73300004;stroke-linecap:round;stroke-linejoin:round" />
      </g>
      <g
         id="g1147"
         stroke-miterlimit="3"
         transform="translate(215.75762,420.98442)"
         style="fill:#ffffff;stroke:#000000;stroke-width:0.80000001;stroke-miterlimit:3">
        <circle
           id="circle1139"
           r="11.83"
           cy="172.3"
           cx="202.5"
           style="stroke-linecap:round;stroke-linejoin:round" />
        <path
           id="path1141"
           d="m 202.5,160.5 a 11.83,11.83 0 0 0 -1.01,0.05 c -0.2409,0.3388 -0.3902,0.7602 -0.4888,1.073 l 1.499,10.71 1.494,-10.7 c -0.0751,-0.321 -0.2192,-0.7399 -0.4664,-1.076 a 11.83,11.83 0 0 0 -1.028,-0.0518 z m 0,11.83 6.647,-8.523 c 0.0955,-0.3156 0.1793,-0.7512 0.133,-1.166 a 11.83,11.83 0 0 0 -1.774,-1.016 c -0.3744,0.1735 -0.7102,0.461 -0.95,0.6806 z m 0,0 10.02,-4.057 c 0.2384,-0.2236 0.5279,-0.5547 0.6961,-0.9328 a 11.83,11.83 0 0 0 -1.024,-1.777 c -0.4113,-0.0377 -0.8466,0.0437 -1.164,0.114 z m 0,0 10.7,1.496 c 0.3207,-0.075 0.7384,-0.2196 1.074,-0.4664 a 11.83,11.83 0 0 0 0.0536,-1.029 11.83,11.83 0 0 0 -0.0518,-1.01 c -0.3384,-0.2405 -0.7591,-0.3904 -1.071,-0.4888 z m 0,0 8.523,6.647 c 0.316,0.0956 0.7524,0.1793 1.168,0.133 a 11.83,11.83 0 0 0 1.014,-1.772 c -0.1735,-0.3744 -0.461,-0.7102 -0.6806,-0.95 z m 0,0 4.056,10.02 c 0.2236,0.2384 0.5543,0.5279 0.9328,0.6961 a 11.83,11.83 0 0 0 1.779,-1.026 c 0.0369,-0.4108 -0.0455,-0.8453 -0.1157,-1.162 z m 0,0 -1.496,10.7 c 0.0751,0.321 0.2192,0.74 0.4664,1.076 a 11.83,11.83 0 0 0 1.029,0.0518 11.83,11.83 0 0 0 1.009,-0.0501 c 0.2413,-0.3388 0.3919,-0.7602 0.4906,-1.073 z m 0,0 -6.648,8.523 c -0.0956,0.316 -0.1797,0.7524 -0.133,1.168 a 11.83,11.83 0 0 0 1.774,1.016 c 0.3744,-0.1731 0.7102,-0.461 0.95,-0.6806 z m 0,0 -10.02,4.057 c -0.2384,0.2236 -0.5279,0.5543 -0.6961,0.9327 a 11.83,11.83 0 0 0 1.028,1.779 c 0.4103,0.0364 0.844,-0.0456 1.161,-0.1157 z m 0,0 -10.7,-1.494 c -0.321,0.0751 -0.74,0.2192 -1.076,0.4664 a 11.83,11.83 0 0 0 -0.0518,1.028 11.83,11.83 0 0 0 0.05,1.01 c 0.3383,0.2409 0.7584,0.3902 1.071,0.4888 z m 0,0 -8.523,-6.647 c -0.3164,-0.0957 -0.7536,-0.1797 -1.169,-0.133 a 11.83,11.83 0 0 0 -1.014,1.772 c 0.1731,0.3749 0.461,0.712 0.6806,0.9518 z m 0,0 -4.057,-10.02 c -0.224,-0.2388 -0.5554,-0.528 -0.9345,-0.6961 a 11.83,11.83 0 0 0 -1.777,1.024 c -0.0372,0.4113 0.0455,0.8466 0.1157,1.164 z"
           inkscape:connector-curvature="0" />
        <path
           id="path1143"
           d="m 201,161.6 a 10.8,10.8 0 0 0 -2.553,0.6754 2.332,2.332 0 0 1 0,0.002 2.332,2.332 0 0 1 -1.028,1.225 2.332,2.332 0 0 1 -1.574,0.2729 10.8,10.8 0 0 0 -1.86,1.874 2.332,2.332 0 0 1 -0.2781,1.567 2.332,2.332 0 0 1 -1.223,1.023 10.8,10.8 0 0 0 -0.6788,2.553 2.332,2.332 0 0 1 0.5441,1.496 2.332,2.332 0 0 1 -0.5441,1.494 10.8,10.8 0 0 0 0.6771,2.551 2.332,2.332 0 0 1 1.225,1.028 2.332,2.332 0 0 1 0.2729,1.574 10.8,10.8 0 0 0 1.878,1.862 2.332,2.332 0 0 1 0.285,-0.0345 2.332,2.332 0 0 1 1.276,0.3109 2.332,2.332 0 0 1 1.024,1.223 10.8,10.8 0 0 0 2.555,0.6771 2.332,2.332 0 0 1 1.494,-0.5424 2.332,2.332 0 0 1 1.492,0.5441 10.8,10.8 0 0 0 2.551,-0.6754 2.332,2.332 0 0 1 0,-0.002 2.332,2.332 0 0 1 1.028,-1.225 2.332,2.332 0 0 1 1.111,-0.3126 2.332,2.332 0 0 1 0.4629,0.0396 10.8,10.8 0 0 0 1.86,-1.874 2.332,2.332 0 0 1 0.2781,-1.565 2.332,2.332 0 0 1 1.225,-1.028 10.8,10.8 0 0 0 0.6771,-2.551 2.332,2.332 0 0 1 -0.5424,-1.494 2.332,2.332 0 0 1 0.5441,-1.494 10.8,10.8 0 0 0 -0.6771,-2.55 2.332,2.332 0 0 1 -0.002,0 2.332,2.332 0 0 1 -1.225,-1.028 2.332,2.332 0 0 1 -0.2746,-1.574 10.8,10.8 0 0 0 -1.874,-1.862 2.332,2.332 0 0 1 -1.563,-0.2781 2.332,2.332 0 0 1 -1.023,-1.221 10.8,10.8 0 0 0 -2.555,-0.6788 2.332,2.332 0 0 1 -1.494,0.5424 2.332,2.332 0 0 1 -1.492,-0.5441 z"
           inkscape:connector-curvature="0"
           style="stroke-linecap:round;stroke-linejoin:round" />
        <ellipse
           id="ellipse1145"
           ry="7.4590001"
           rx="7.454"
           cy="-172.3"
           cx="202.5"
           transform="scale(1,-1)"
           style="stroke-linecap:round;stroke-linejoin:round" />
      </g>
      <g
         id="g1712"
         transform="translate(-69.982379,225.11442)"
         style="fill:#ffffff;stroke:#000000;stroke-width:0.80000001">
        <path
           id="path1704"
           d="m 628.2,398 a 12.13,12.13 0 0 0 -12.13,12.13 12.13,12.13 0 0 0 12.13,12.13 12.13,12.13 0 0 0 12.13,-12.13 A 12.13,12.13 0 0 0 628.2,398 Z m 0,2.312 a 9.818,9.818 0 0 1 9.816,9.816 9.818,9.818 0 0 1 -9.816,9.818 9.818,9.818 0 0 1 -9.818,-9.818 9.818,9.818 0 0 1 9.818,-9.816 z"
           inkscape:connector-curvature="0" />
        <path
           id="path1706"
           d="m 628.2,403.3 c -3.748,10e-6 -6.786,3.038 -6.787,6.786 0,3.748 3.038,6.787 6.787,6.787 3.748,-6e-4 6.786,-3.039 6.786,-6.787 -5e-4,-3.747 -3.038,-6.785 -6.786,-6.786 z m 0,1.602 c 2.862,5.6e-4 5.183,2.321 5.184,5.184 0,2.863 -2.321,5.184 -5.184,5.185 -2.864,0 -5.185,-2.321 -5.185,-5.185 6e-4,-2.863 2.322,-5.184 5.185,-5.184 z"
           inkscape:connector-curvature="0" />
        <path
           id="path1708"
           d="m 624.2,422.1 c 1.899,0.0227 11.59,-1.78 12.22,-2.32 0.6775,-0.5757 4.424,-11.09 4.264,-11.96 -0.1658,-0.8736 -7.393,-9.378 -8.23,-9.676 -0.8379,-0.298 -11.82,1.715 -12.49,2.291 -0.6775,0.5758 -4.424,11.09 -4.264,11.96 0.1648,0.8738 7.393,9.378 8.23,9.676 0.054,0.0147 0.1438,0.0274 0.2698,0.0299 z m 3.166,-2.55 c -5.216,-0.4567 -9.074,-5.055 -8.618,-10.27 0.4558,-5.216 5.054,-9.076 10.27,-8.62 5.217,0.456 9.077,5.056 8.62,10.27 -0.4568,5.216 -5.056,9.075 -10.27,8.618 z"
           inkscape:connector-curvature="0" />
        <path
           id="path1710"
           d="m 625.6,401.6 c -3.272,0 -5.906,2.634 -5.906,5.906 v 5.279 c 0,3.272 2.634,5.906 5.906,5.906 h 5.279 c 3.272,0 5.906,-2.634 5.906,-5.906 v -5.279 c 0,-3.272 -2.634,-5.906 -5.906,-5.906 z m 2.641,1.885 a 6.662,6.662 0 0 1 6.66,6.66 6.662,6.662 0 0 1 -6.66,6.662 6.662,6.662 0 0 1 -6.662,-6.662 6.662,6.662 0 0 1 6.662,-6.66 z"
           inkscape:connector-curvature="0" />
      </g>
      <g
         id="g1722"
         transform="translate(-104.98238,225.11442)"
         style="fill:#ffffff;stroke:#000000;stroke-width:0.80000001">
        <path
           id="path1714"
           d="m 628.2,398 a 12.13,12.13 0 0 0 -12.13,12.13 12.13,12.13 0 0 0 12.13,12.13 12.13,12.13 0 0 0 12.13,-12.13 A 12.13,12.13 0 0 0 628.2,398 Z m 0,2.312 a 9.818,9.818 0 0 1 9.816,9.816 9.818,9.818 0 0 1 -9.816,9.818 9.818,9.818 0 0 1 -9.818,-9.818 9.818,9.818 0 0 1 9.818,-9.816 z"
           inkscape:connector-curvature="0" />
        <path
           id="path1716"
           d="m 628.2,403.3 c -3.748,10e-6 -6.786,3.038 -6.787,6.786 0,3.748 3.038,6.787 6.787,6.787 3.748,-6e-4 6.786,-3.039 6.786,-6.787 -5e-4,-3.747 -3.038,-6.785 -6.786,-6.786 z m 0,1.602 c 2.862,5.6e-4 5.183,2.321 5.184,5.184 0,2.863 -2.321,5.184 -5.184,5.185 -2.864,0 -5.185,-2.321 -5.185,-5.185 6e-4,-2.863 2.322,-5.184 5.185,-5.184 z"
           inkscape:connector-curvature="0" />
        <path
           id="path1718"
           d="m 624.2,422.1 c 1.899,0.0227 11.59,-1.78 12.22,-2.32 0.6775,-0.5757 4.424,-11.09 4.264,-11.96 -0.1658,-0.8736 -7.393,-9.378 -8.23,-9.676 -0.8379,-0.298 -11.82,1.715 -12.49,2.291 -0.6775,0.5758 -4.424,11.09 -4.264,11.96 0.1648,0.8738 7.393,9.378 8.23,9.676 0.054,0.0147 0.1438,0.0274 0.2698,0.0299 z m 3.166,-2.55 c -5.216,-0.4567 -9.074,-5.055 -8.618,-10.27 0.4558,-5.216 5.054,-9.076 10.27,-8.62 5.217,0.456 9.077,5.056 8.62,10.27 -0.4568,5.216 -5.056,9.075 -10.27,8.618 z"
           inkscape:connector-curvature="0" />
        <path
           id="path1720"
           d="m 625.6,401.6 c -3.272,0 -5.906,2.634 -5.906,5.906 v 5.279 c 0,3.272 2.634,5.906 5.906,5.906 h 5.279 c 3.272,0 5.906,-2.634 5.906,-5.906 v -5.279 c 0,-3.272 -2.634,-5.906 -5.906,-5.906 z m 2.641,1.885 a 6.662,6.662 0 0 1 6.66,6.66 6.662,6.662 0 0 1 -6.66,6.662 6.662,6.662 0 0 1 -6.662,-6.662 6.662,6.662 0 0 1 6.662,-6.66 z"
           inkscape:connector-curvature="0" />
      </g>
      <g
         id="g1732"
         transform="translate(-174.98238,225.11442)"
         style="fill:#ffffff;stroke:#000000;stroke-width:0.80000001">
        <path
           id="path1724"
           d="m 628.2,398 a 12.13,12.13 0 0 0 -12.13,12.13 12.13,12.13 0 0 0 12.13,12.13 12.13,12.13 0 0 0 12.13,-12.13 A 12.13,12.13 0 0 0 628.2,398 Z m 0,2.312 a 9.818,9.818 0 0 1 9.816,9.816 9.818,9.818 0 0 1 -9.816,9.818 9.818,9.818 0 0 1 -9.818,-9.818 9.818,9.818 0 0 1 9.818,-9.816 z"
           inkscape:connector-curvature="0" />
        <path
           id="path1726"
           d="m 628.2,403.3 c -3.748,10e-6 -6.786,3.038 -6.787,6.786 0,3.748 3.038,6.787 6.787,6.787 3.748,-6e-4 6.786,-3.039 6.786,-6.787 -5e-4,-3.747 -3.038,-6.785 -6.786,-6.786 z m 0,1.602 c 2.862,5.6e-4 5.183,2.321 5.184,5.184 0,2.863 -2.321,5.184 -5.184,5.185 -2.864,0 -5.185,-2.321 -5.185,-5.185 6e-4,-2.863 2.322,-5.184 5.185,-5.184 z"
           inkscape:connector-curvature="0" />
        <path
           id="path1728"
           d="m 624.2,422.1 c 1.899,0.0227 11.59,-1.78 12.22,-2.32 0.6775,-0.5757 4.424,-11.09 4.264,-11.96 -0.1658,-0.8736 -7.393,-9.378 -8.23,-9.676 -0.8379,-0.298 -11.82,1.715 -12.49,2.291 -0.6775,0.5758 -4.424,11.09 -4.264,11.96 0.1648,0.8738 7.393,9.378 8.23,9.676 0.054,0.0147 0.1438,0.0274 0.2698,0.0299 z m 3.166,-2.55 c -5.216,-0.4567 -9.074,-5.055 -8.618,-10.27 0.4558,-5.216 5.054,-9.076 10.27,-8.62 5.217,0.456 9.077,5.056 8.62,10.27 -0.4568,5.216 -5.056,9.075 -10.27,8.618 z"
           inkscape:connector-curvature="0" />
        <path
           id="path1730"
           d="m 625.6,401.6 c -3.272,0 -5.906,2.634 -5.906,5.906 v 5.279 c 0,3.272 2.634,5.906 5.906,5.906 h 5.279 c 3.272,0 5.906,-2.634 5.906,-5.906 v -5.279 c 0,-3.272 -2.634,-5.906 -5.906,-5.906 z m 2.641,1.885 a 6.662,6.662 0 0 1 6.66,6.66 6.662,6.662 0 0 1 -6.66,6.662 6.662,6.662 0 0 1 -6.662,-6.662 6.662,6.662 0 0 1 6.662,-6.66 z"
           inkscape:connector-curvature="0" />
      </g>
      <g
         id="g1742"
         transform="translate(-244.98238,225.11442)"
         style="fill:#ffffff;stroke:#000000;stroke-width:0.80000001">
        <path
           id="path1734"
           d="m 628.2,398 a 12.13,12.13 0 0 0 -12.13,12.13 12.13,12.13 0 0 0 12.13,12.13 12.13,12.13 0 0 0 12.13,-12.13 A 12.13,12.13 0 0 0 628.2,398 Z m 0,2.312 a 9.818,9.818 0 0 1 9.816,9.816 9.818,9.818 0 0 1 -9.816,9.818 9.818,9.818 0 0 1 -9.818,-9.818 9.818,9.818 0 0 1 9.818,-9.816 z"
           inkscape:connector-curvature="0" />
        <path
           id="path1736"
           d="m 628.2,403.3 c -3.748,10e-6 -6.786,3.038 -6.787,6.786 0,3.748 3.038,6.787 6.787,6.787 3.748,-6e-4 6.786,-3.039 6.786,-6.787 -5e-4,-3.747 -3.038,-6.785 -6.786,-6.786 z m 0,1.602 c 2.862,5.6e-4 5.183,2.321 5.184,5.184 0,2.863 -2.321,5.184 -5.184,5.185 -2.864,0 -5.185,-2.321 -5.185,-5.185 6e-4,-2.863 2.322,-5.184 5.185,-5.184 z"
           inkscape:connector-curvature="0" />
        <path
           id="path1738"
           d="m 624.2,422.1 c 1.899,0.0227 11.59,-1.78 12.22,-2.32 0.6775,-0.5757 4.424,-11.09 4.264,-11.96 -0.1658,-0.8736 -7.393,-9.378 -8.23,-9.676 -0.8379,-0.298 -11.82,1.715 -12.49,2.291 -0.6775,0.5758 -4.424,11.09 -4.264,11.96 0.1648,0.8738 7.393,9.378 8.23,9.676 0.054,0.0147 0.1438,0.0274 0.2698,0.0299 z m 3.166,-2.55 c -5.216,-0.4567 -9.074,-5.055 -8.618,-10.27 0.4558,-5.216 5.054,-9.076 10.27,-8.62 5.217,0.456 9.077,5.056 8.62,10.27 -0.4568,5.216 -5.056,9.075 -10.27,8.618 z"
           inkscape:connector-curvature="0" />
        <path
           id="path1740"
           d="m 625.6,401.6 c -3.272,0 -5.906,2.634 -5.906,5.906 v 5.279 c 0,3.272 2.634,5.906 5.906,5.906 h 5.279 c 3.272,0 5.906,-2.634 5.906,-5.906 v -5.279 c 0,-3.272 -2.634,-5.906 -5.906,-5.906 z m 2.641,1.885 a 6.662,6.662 0 0 1 6.66,6.66 6.662,6.662 0 0 1 -6.66,6.662 6.662,6.662 0 0 1 -6.662,-6.662 6.662,6.662 0 0 1 6.662,-6.66 z"
           inkscape:connector-curvature="0" />
      </g>
      <g
         id="g1752"
         transform="translate(-314.98238,225.11442)"
         style="fill:#ffffff;stroke:#000000;stroke-width:0.80000001">
        <path
           id="path1744"
           d="m 628.2,398 a 12.13,12.13 0 0 0 -12.13,12.13 12.13,12.13 0 0 0 12.13,12.13 12.13,12.13 0 0 0 12.13,-12.13 A 12.13,12.13 0 0 0 628.2,398 Z m 0,2.312 a 9.818,9.818 0 0 1 9.816,9.816 9.818,9.818 0 0 1 -9.816,9.818 9.818,9.818 0 0 1 -9.818,-9.818 9.818,9.818 0 0 1 9.818,-9.816 z"
           inkscape:connector-curvature="0" />
        <path
           id="path1746"
           d="m 628.2,403.3 c -3.748,10e-6 -6.786,3.038 -6.787,6.786 0,3.748 3.038,6.787 6.787,6.787 3.748,-6e-4 6.786,-3.039 6.786,-6.787 -5e-4,-3.747 -3.038,-6.785 -6.786,-6.786 z m 0,1.602 c 2.862,5.6e-4 5.183,2.321 5.184,5.184 0,2.863 -2.321,5.184 -5.184,5.185 -2.864,0 -5.185,-2.321 -5.185,-5.185 6e-4,-2.863 2.322,-5.184 5.185,-5.184 z"
           inkscape:connector-curvature="0" />
        <path
           id="path1748"
           d="m 624.2,422.1 c 1.899,0.0227 11.59,-1.78 12.22,-2.32 0.6775,-0.5757 4.424,-11.09 4.264,-11.96 -0.1658,-0.8736 -7.393,-9.378 -8.23,-9.676 -0.8379,-0.298 -11.82,1.715 -12.49,2.291 -0.6775,0.5758 -4.424,11.09 -4.264,11.96 0.1648,0.8738 7.393,9.378 8.23,9.676 0.054,0.0147 0.1438,0.0274 0.2698,0.0299 z m 3.166,-2.55 c -5.216,-0.4567 -9.074,-5.055 -8.618,-10.27 0.4558,-5.216 5.054,-9.076 10.27,-8.62 5.217,0.456 9.077,5.056 8.62,10.27 -0.4568,5.216 -5.056,9.075 -10.27,8.618 z"
           inkscape:connector-curvature="0" />
        <path
           id="path1750"
           d="m 625.6,401.6 c -3.272,0 -5.906,2.634 -5.906,5.906 v 5.279 c 0,3.272 2.634,5.906 5.906,5.906 h 5.279 c 3.272,0 5.906,-2.634 5.906,-5.906 v -5.279 c 0,-3.272 -2.634,-5.906 -5.906,-5.906 z m 2.641,1.885 a 6.662,6.662 0 0 1 6.66,6.66 6.662,6.662 0 0 1 -6.66,6.662 6.662,6.662 0 0 1 -6.662,-6.662 6.662,6.662 0 0 1 6.662,-6.66 z"
           inkscape:connector-curvature="0" />
      </g>
      <g
         id="g1762"
         transform="translate(-349.98238,225.05442)"
         style="fill:#ffffff;stroke:#000000;stroke-width:0.80000001">
        <path
           id="path1754"
           d="m 628.2,398 a 12.13,12.13 0 0 0 -12.13,12.13 12.13,12.13 0 0 0 12.13,12.13 12.13,12.13 0 0 0 12.13,-12.13 A 12.13,12.13 0 0 0 628.2,398 Z m 0,2.312 a 9.818,9.818 0 0 1 9.816,9.816 9.818,9.818 0 0 1 -9.816,9.818 9.818,9.818 0 0 1 -9.818,-9.818 9.818,9.818 0 0 1 9.818,-9.816 z"
           inkscape:connector-curvature="0" />
        <path
           id="path1756"
           d="m 628.2,403.3 c -3.748,10e-6 -6.786,3.038 -6.787,6.786 0,3.748 3.038,6.787 6.787,6.787 3.748,-6e-4 6.786,-3.039 6.786,-6.787 -5e-4,-3.747 -3.038,-6.785 -6.786,-6.786 z m 0,1.602 c 2.862,5.6e-4 5.183,2.321 5.184,5.184 0,2.863 -2.321,5.184 -5.184,5.185 -2.864,0 -5.185,-2.321 -5.185,-5.185 6e-4,-2.863 2.322,-5.184 5.185,-5.184 z"
           inkscape:connector-curvature="0" />
        <path
           id="path1758"
           d="m 624.2,422.1 c 1.899,0.0227 11.59,-1.78 12.22,-2.32 0.6775,-0.5757 4.424,-11.09 4.264,-11.96 -0.1658,-0.8736 -7.393,-9.378 -8.23,-9.676 -0.8379,-0.298 -11.82,1.715 -12.49,2.291 -0.6775,0.5758 -4.424,11.09 -4.264,11.96 0.1648,0.8738 7.393,9.378 8.23,9.676 0.054,0.0147 0.1438,0.0274 0.2698,0.0299 z m 3.166,-2.55 c -5.216,-0.4567 -9.074,-5.055 -8.618,-10.27 0.4558,-5.216 5.054,-9.076 10.27,-8.62 5.217,0.456 9.077,5.056 8.62,10.27 -0.4568,5.216 -5.056,9.075 -10.27,8.618 z"
           inkscape:connector-curvature="0" />
        <path
           id="path1760"
           d="m 625.6,401.6 c -3.272,0 -5.906,2.634 -5.906,5.906 v 5.279 c 0,3.272 2.634,5.906 5.906,5.906 h 5.279 c 3.272,0 5.906,-2.634 5.906,-5.906 v -5.279 c 0,-3.272 -2.634,-5.906 -5.906,-5.906 z m 2.641,1.885 a 6.662,6.662 0 0 1 6.66,6.66 6.662,6.662 0 0 1 -6.66,6.662 6.662,6.662 0 0 1 -6.662,-6.662 6.662,6.662 0 0 1 6.662,-6.66 z"
           inkscape:connector-curvature="0" />
      </g>
      <g
         id="g1986"
         transform="translate(-69.982379,183.08442)"
         style="fill:#ffffff;stroke:#000000;stroke-width:0.80000001">
        <path
           id="path1978"
           d="m 628.2,398 a 12.13,12.13 0 0 0 -12.13,12.13 12.13,12.13 0 0 0 12.13,12.13 12.13,12.13 0 0 0 12.13,-12.13 A 12.13,12.13 0 0 0 628.2,398 Z m 0,2.312 a 9.818,9.818 0 0 1 9.816,9.816 9.818,9.818 0 0 1 -9.816,9.818 9.818,9.818 0 0 1 -9.818,-9.818 9.818,9.818 0 0 1 9.818,-9.816 z"
           inkscape:connector-curvature="0" />
        <path
           id="path1980"
           d="m 628.2,403.3 c -3.748,10e-6 -6.786,3.038 -6.787,6.786 0,3.748 3.038,6.787 6.787,6.787 3.748,-6e-4 6.786,-3.039 6.786,-6.787 -5e-4,-3.747 -3.038,-6.785 -6.786,-6.786 z m 0,1.602 c 2.862,5.6e-4 5.183,2.321 5.184,5.184 0,2.863 -2.321,5.184 -5.184,5.185 -2.864,0 -5.185,-2.321 -5.185,-5.185 6e-4,-2.863 2.322,-5.184 5.185,-5.184 z"
           inkscape:connector-curvature="0" />
        <path
           id="path1982"
           d="m 624.2,422.1 c 1.899,0.0227 11.59,-1.78 12.22,-2.32 0.6775,-0.5757 4.424,-11.09 4.264,-11.96 -0.1658,-0.8736 -7.393,-9.378 -8.23,-9.676 -0.8379,-0.298 -11.82,1.715 -12.49,2.291 -0.6775,0.5758 -4.424,11.09 -4.264,11.96 0.1648,0.8738 7.393,9.378 8.23,9.676 0.054,0.0147 0.1438,0.0274 0.2698,0.0299 z m 3.166,-2.55 c -5.216,-0.4567 -9.074,-5.055 -8.618,-10.27 0.4558,-5.216 5.054,-9.076 10.27,-8.62 5.217,0.456 9.077,5.056 8.62,10.27 -0.4568,5.216 -5.056,9.075 -10.27,8.618 z"
           inkscape:connector-curvature="0" />
        <path
           id="path1984"
           d="m 625.6,401.6 c -3.272,0 -5.906,2.634 -5.906,5.906 v 5.279 c 0,3.272 2.634,5.906 5.906,5.906 h 5.279 c 3.272,0 5.906,-2.634 5.906,-5.906 v -5.279 c 0,-3.272 -2.634,-5.906 -5.906,-5.906 z m 2.641,1.885 a 6.662,6.662 0 0 1 6.66,6.66 6.662,6.662 0 0 1 -6.66,6.662 6.662,6.662 0 0 1 -6.662,-6.662 6.662,6.662 0 0 1 6.662,-6.66 z"
           inkscape:connector-curvature="0" />
      </g>
    </g>
  </g>
</svg>
