<?xml version="1.0" encoding="UTF-8" standalone="no"?>
<!-- Created with Inkscape (http://www.inkscape.org/) -->

<svg
   xmlns:dc="http://purl.org/dc/elements/1.1/"
   xmlns:cc="http://creativecommons.org/ns#"
   xmlns:rdf="http://www.w3.org/1999/02/22-rdf-syntax-ns#"
   xmlns:svg="http://www.w3.org/2000/svg"
   xmlns="http://www.w3.org/2000/svg"
   xmlns:sodipodi="http://sodipodi.sourceforge.net/DTD/sodipodi-0.dtd"
   xmlns:inkscape="http://www.inkscape.org/namespaces/inkscape"
   width="145"
   height="200"
   viewBox="0 0 145 200"
   version="1.1"
   id="svg8"
   inkscape:version="0.92.3 (2405546, 2018-03-11)"
   sodipodi:docname="phaseque-pattern-grid-navigation-info.svg">
  <defs
     id="defs2" />
  <sodipodi:namedview
     id="base"
     pagecolor="#f5f5f5"
     bordercolor="#000000"
     borderopacity="0.16470588"
     inkscape:pageopacity="0"
     inkscape:pageshadow="2"
     inkscape:zoom="1"
     inkscape:cx="27.40831"
     inkscape:cy="56.656923"
     inkscape:document-units="px"
     inkscape:current-layer="layer1"
     showgrid="false"
     units="px"
     guidecolor="#00d1ae"
     guideopacity="0.49803922"
     inkscape:window-width="2727"
     inkscape:window-height="1324"
     inkscape:window-x="849"
     inkscape:window-y="811"
     inkscape:window-maximized="0">
    <inkscape:grid
       type="xygrid"
       id="grid815"
       color="#3fb6ff"
       opacity="0.1254902"
       empcolor="#3f96ff"
       empopacity="0.29019608" />
  </sodipodi:namedview>
  <metadata
     id="metadata5">
    <rdf:RDF>
      <cc:Work
         rdf:about="">
        <dc:format>image/svg+xml</dc:format>
        <dc:type
           rdf:resource="http://purl.org/dc/dcmitype/StillImage" />
        <dc:title></dc:title>
      </cc:Work>
    </rdf:RDF>
  </metadata>
  <g
     inkscape:label="Layer 1"
     inkscape:groupmode="layer"
     id="layer1"
     transform="translate(0,-626.5)">
    <g
       id="g1004"
       transform="matrix(2,0,0,2,-507.49998,-594.50003)">
      <rect
         x="292.95999"
         y="662.89001"
         width="29.08"
         height="43.220001"
         rx="2.652"
         ry="2.652"
         stroke-miterlimit="1.333"
         id="rect1155"
         style="fill:#ffffff;stroke:#000000;stroke-width:0.80000001;stroke-linecap:round;stroke-linejoin:round;stroke-miterlimit:1.33299994" />
      <rect
         x="257.95999"
         y="662.89001"
         width="29.08"
         height="43.220001"
         rx="2.652"
         ry="2.652"
         stroke-miterlimit="1.333"
         id="rect1157"
         style="fill:#ffffff;stroke:#000000;stroke-width:0.80000001;stroke-linecap:round;stroke-linejoin:round;stroke-miterlimit:1.33299994" />
      <g
         aria-label="START"
         id="g1169"
         style="stroke-width:0.1"
         transform="translate(0.95999927,504.18997)">
        <path
           d="m 262.8,168.8 q -0.5307,0 -1.029,-0.1507 -0.4914,-0.1507 -0.7797,-0.3997 l 0.2948,-0.6618 q 0.2817,0.2228 0.688,0.3669 0.4128,0.1376 0.8256,0.1376 0.5111,0 0.7601,-0.1638 0.2555,-0.1638 0.2555,-0.4324 0,-0.1966 -0.1441,-0.3211 -0.1376,-0.131 -0.3538,-0.2031 -0.2162,-0.0721 -0.5897,-0.1638 -0.5242,-0.1245 -0.8518,-0.249 -0.3211,-0.1245 -0.5569,-0.3866 -0.2293,-0.2686 -0.2293,-0.7208 0,-0.38 0.2031,-0.688 0.2097,-0.3145 0.6225,-0.498 0.4194,-0.1835 1.022,-0.1835 0.4194,0 0.8256,0.1048 0.4062,0.1048 0.7011,0.3014 l -0.2686,0.6618 q -0.3014,-0.1769 -0.629,-0.2686 -0.3276,-0.0917 -0.6356,-0.0917 -0.5045,0 -0.7535,0.1704 -0.2424,0.1704 -0.2424,0.4521 0,0.1966 0.1376,0.3211 0.1442,0.1245 0.3604,0.1966 0.2162,0.0721 0.5897,0.1638 0.5111,0.1179 0.8387,0.249 0.3276,0.1245 0.5569,0.3866 0.2359,0.2621 0.2359,0.7076 0,0.38 -0.2097,0.688 -0.2031,0.308 -0.6225,0.4914 -0.4194,0.1835 -1.022,0.1835 z"
           id="path1159"
           inkscape:connector-curvature="0" />
        <path
           d="m 266.3,164.9 h -1.52 v -0.7208 h 3.892 V 164.9 h -1.52 v 3.866 h -0.8518 z"
           id="path1161"
           inkscape:connector-curvature="0" />
        <path
           d="m 272.1,167.7 h -2.293 l -0.4521,1.061 h -0.878 l 2.064,-4.587 h 0.8387 l 2.071,4.587 h -0.8911 z m -0.2817,-0.6683 -0.8649,-2.005 -0.8583,2.005 z"
           id="path1163"
           inkscape:connector-curvature="0" />
        <path
           d="m 277,168.8 -0.937,-1.343 q -0.059,0.007 -0.1769,0.007 h -1.035 v 1.337 h -0.8518 v -4.587 h 1.887 q 0.5962,0 1.035,0.1966 0.4456,0.1966 0.6814,0.5635 0.2359,0.3669 0.2359,0.8714 0,0.5176 -0.2555,0.8911 -0.249,0.3735 -0.7208,0.5569 l 1.055,1.507 z m -0.0197,-2.955 q 0,-0.439 -0.2883,-0.6749 -0.2883,-0.2359 -0.8452,-0.2359 h -0.996 v 1.828 h 0.996 q 0.5569,0 0.8452,-0.2359 0.2883,-0.2424 0.2883,-0.6814 z"
           id="path1165"
           inkscape:connector-curvature="0" />
        <path
           d="m 279.7,164.9 h -1.52 v -0.7208 h 3.892 V 164.9 h -1.52 v 3.866 h -0.8518 z"
           id="path1167"
           inkscape:connector-curvature="0" />
      </g>
      <rect
         x="292.95999"
         y="614.89001"
         width="29.08"
         height="43.220001"
         rx="2.652"
         ry="2.652"
         stroke-miterlimit="1.333"
         id="rect1171"
         style="fill:#ffffff;stroke:#000000;stroke-width:0.80000001;stroke-linecap:round;stroke-linejoin:round;stroke-miterlimit:1.33299994" />
      <rect
         x="257.95999"
         y="614.89001"
         width="29.08"
         height="43.220001"
         rx="2.652"
         ry="2.652"
         stroke-miterlimit="1.333"
         id="rect1173"
         style="fill:#ffffff;stroke:#000000;stroke-width:0.80000001;stroke-linecap:round;stroke-linejoin:round;stroke-miterlimit:1.33299994" />
      <g
         id="g1205"
         style="stroke-width:0.1"
         transform="translate(0.95999927,504.18997)">
        <g
           aria-label="END"
           id="g1181">
          <path
             d="m 302.9,168.1 v 0.7142 h -3.44 v -4.587 h 3.348 v 0.7142 h -2.496 v 1.193 h 2.215 v 0.7011 h -2.215 v 1.265 z"
             id="path1175"
             inkscape:connector-curvature="0" />
          <path
             d="m 307.9,164.2 v 4.587 h -0.7011 l -2.529,-3.106 v 3.106 h -0.8452 V 164.2 h 0.7011 l 2.529,3.106 V 164.2 Z"
             id="path1177"
             inkscape:connector-curvature="0" />
          <path
             d="m 309.2,164.2 h 2.005 q 0.7338,0 1.304,0.2883 0.57,0.2818 0.8846,0.8059 0.3145,0.5176 0.3145,1.199 0,0.6814 -0.3145,1.206 -0.3145,0.5176 -0.8846,0.8059 -0.57,0.2818 -1.304,0.2818 H 309.2 Z m 1.966,3.866 q 0.5045,0 0.8846,-0.19 0.3866,-0.1966 0.5897,-0.5504 0.2097,-0.3604 0.2097,-0.8321 0,-0.4717 -0.2097,-0.8256 -0.2031,-0.3604 -0.5897,-0.5504 -0.38,-0.1966 -0.8846,-0.1966 h -1.114 v 3.145 z"
             id="path1179"
             inkscape:connector-curvature="0" />
        </g>
        <g
           aria-label="PHASE"
           id="g1193">
          <path
             d="m 262.2,116.2 q 0.5963,0 1.035,0.1966 0.4456,0.1966 0.6814,0.5635 0.2359,0.3669 0.2359,0.8714 0,0.498 -0.2359,0.8714 -0.2359,0.3669 -0.6814,0.5635 -0.439,0.1966 -1.035,0.1966 h -1.035 v 1.324 h -0.8518 V 116.2 Z m -0.0393,2.542 q 0.5569,0 0.8452,-0.2359 0.2883,-0.2359 0.2883,-0.6749 0,-0.439 -0.2883,-0.6749 -0.2883,-0.2359 -0.8452,-0.2359 h -0.9959 v 1.822 z"
             id="path1183"
             inkscape:connector-curvature="0" />
          <path
             d="m 269.1,116.2 v 4.587 h -0.8518 v -1.966 h -2.372 v 1.966 h -0.8518 V 116.2 h 0.8518 v 1.894 h 2.372 V 116.2 Z"
             id="path1185"
             inkscape:connector-curvature="0" />
          <path
             d="m 273.3,119.7 h -2.293 l -0.4521,1.061 h -0.878 l 2.064,-4.587 h 0.8387 l 2.071,4.587 h -0.8911 z m -0.2818,-0.6683 -0.8649,-2.005 -0.8583,2.005 z"
             id="path1187"
             inkscape:connector-curvature="0" />
          <path
             d="m 276.6,120.8 q -0.5307,0 -1.029,-0.1507 -0.4914,-0.1507 -0.7797,-0.3997 l 0.2948,-0.6618 q 0.2818,0.2228 0.688,0.3669 0.4128,0.1376 0.8256,0.1376 0.5111,0 0.7601,-0.1638 0.2555,-0.1638 0.2555,-0.4324 0,-0.1966 -0.1442,-0.3211 -0.1376,-0.131 -0.3538,-0.2031 -0.2162,-0.0721 -0.5897,-0.1638 -0.5242,-0.1245 -0.8518,-0.249 -0.3211,-0.1245 -0.557,-0.3866 -0.2293,-0.2686 -0.2293,-0.7208 0,-0.38 0.2031,-0.688 0.2097,-0.3145 0.6225,-0.498 0.4193,-0.1835 1.022,-0.1835 0.4193,0 0.8256,0.1048 0.4062,0.1048 0.7011,0.3014 l -0.2686,0.6618 q -0.3014,-0.1769 -0.629,-0.2686 -0.3276,-0.0917 -0.6356,-0.0917 -0.5045,0 -0.7535,0.1704 -0.2424,0.1704 -0.2424,0.4521 0,0.1966 0.1376,0.3211 0.1442,0.1245 0.3604,0.1966 0.2162,0.0721 0.5897,0.1638 0.5111,0.1179 0.8387,0.249 0.3276,0.1245 0.5569,0.3866 0.2359,0.2621 0.2359,0.7076 0,0.38 -0.2097,0.688 -0.2031,0.308 -0.6225,0.4914 -0.4193,0.1835 -1.022,0.1835 z"
             id="path1189"
             inkscape:connector-curvature="0" />
          <path
             d="m 282.8,120.1 v 0.7142 h -3.44 v -4.587 h 3.348 v 0.7142 h -2.496 v 1.192 h 2.215 v 0.7011 h -2.215 v 1.265 z"
             id="path1191"
             inkscape:connector-curvature="0" />
        </g>
        <g
           aria-label="WRAP"
           id="g1203">
          <path
             d="m 302.8,116.2 -1.52,4.587 h -0.9042 l -1.134,-3.394 -1.153,3.394 h -0.9108 l -1.52,-4.587 h 0.8846 l 1.14,3.486 1.186,-3.486 h 0.7863 l 1.16,3.505 1.173,-3.505 z"
             id="path1195"
             inkscape:connector-curvature="0" />
          <path
             d="m 306.5,120.8 -0.937,-1.343 q -0.059,0.007 -0.1769,0.007 h -1.035 v 1.337 h -0.8518 v -4.587 h 1.887 q 0.5963,0 1.035,0.1966 0.4456,0.1966 0.6814,0.5635 0.2359,0.3669 0.2359,0.8714 0,0.5176 -0.2555,0.8911 -0.249,0.3735 -0.7208,0.5569 l 1.055,1.507 z m -0.0197,-2.955 q 0,-0.439 -0.2883,-0.6749 -0.2883,-0.2359 -0.8452,-0.2359 h -0.9959 v 1.828 h 0.9959 q 0.5569,0 0.8452,-0.2359 0.2883,-0.2424 0.2883,-0.6814 z"
             id="path1197"
             inkscape:connector-curvature="0" />
          <path
             d="m 311.2,119.7 h -2.293 l -0.4521,1.061 h -0.878 l 2.064,-4.587 h 0.8387 l 2.071,4.587 h -0.8911 z m -0.2818,-0.6683 -0.8649,-2.005 -0.8584,2.005 z"
             id="path1199"
             inkscape:connector-curvature="0" />
          <path
             d="m 315.1,116.2 q 0.5963,0 1.035,0.1966 0.4456,0.1966 0.6814,0.5635 0.2359,0.3669 0.2359,0.8714 0,0.498 -0.2359,0.8714 -0.2359,0.3669 -0.6814,0.5635 -0.439,0.1966 -1.035,0.1966 h -1.035 v 1.324 h -0.8518 V 116.2 Z m -0.0393,2.542 q 0.5569,0 0.8452,-0.2359 0.2883,-0.2359 0.2883,-0.6749 0,-0.439 -0.2883,-0.6749 -0.2883,-0.2359 -0.8452,-0.2359 h -0.9959 v 1.822 z"
             id="path1201"
             inkscape:connector-curvature="0" />
        </g>
      </g>
      <g
         id="g1876"
         transform="translate(-355.74,280.38997)"
         style="fill:#ffffff;stroke:#000000;stroke-width:0.80000001">
        <path
           id="path1868"
           d="m 628.2,398 a 12.13,12.13 0 0 0 -12.13,12.13 12.13,12.13 0 0 0 12.13,12.13 12.13,12.13 0 0 0 12.13,-12.13 A 12.13,12.13 0 0 0 628.2,398 Z m 0,2.312 a 9.818,9.818 0 0 1 9.816,9.816 9.818,9.818 0 0 1 -9.816,9.818 9.818,9.818 0 0 1 -9.818,-9.818 9.818,9.818 0 0 1 9.818,-9.816 z"
           inkscape:connector-curvature="0" />
        <path
           id="path1870"
           d="m 628.2,403.3 c -3.748,10e-6 -6.786,3.038 -6.787,6.786 0,3.748 3.038,6.787 6.787,6.787 3.748,-6e-4 6.786,-3.039 6.786,-6.787 -5e-4,-3.747 -3.038,-6.785 -6.786,-6.786 z m 0,1.602 c 2.862,5.6e-4 5.183,2.321 5.184,5.184 0,2.863 -2.321,5.184 -5.184,5.185 -2.864,0 -5.185,-2.321 -5.185,-5.185 6e-4,-2.863 2.322,-5.184 5.185,-5.184 z"
           inkscape:connector-curvature="0" />
        <path
           id="path1872"
           d="m 624.2,422.1 c 1.899,0.0227 11.59,-1.78 12.22,-2.32 0.6775,-0.5757 4.424,-11.09 4.264,-11.96 -0.1658,-0.8736 -7.393,-9.378 -8.23,-9.676 -0.8379,-0.298 -11.82,1.715 -12.49,2.291 -0.6775,0.5758 -4.424,11.09 -4.264,11.96 0.1648,0.8738 7.393,9.378 8.23,9.676 0.054,0.0147 0.1438,0.0274 0.2698,0.0299 z m 3.166,-2.55 c -5.216,-0.4567 -9.074,-5.055 -8.618,-10.27 0.4558,-5.216 5.054,-9.076 10.27,-8.62 5.217,0.456 9.077,5.056 8.62,10.27 -0.4568,5.216 -5.056,9.075 -10.27,8.618 z"
           inkscape:connector-curvature="0" />
        <path
           id="path1874"
           d="m 625.6,401.6 c -3.272,0 -5.906,2.634 -5.906,5.906 v 5.279 c 0,3.272 2.634,5.906 5.906,5.906 h 5.279 c 3.272,0 5.906,-2.634 5.906,-5.906 v -5.279 c 0,-3.272 -2.634,-5.906 -5.906,-5.906 z m 2.641,1.885 a 6.662,6.662 0 0 1 6.66,6.66 6.662,6.662 0 0 1 -6.66,6.662 6.662,6.662 0 0 1 -6.662,-6.662 6.662,6.662 0 0 1 6.662,-6.66 z"
           inkscape:connector-curvature="0" />
      </g>
      <g
         id="g1886"
         transform="translate(-320.74,280.38997)"
         style="fill:#ffffff;stroke:#000000;stroke-width:0.80000001">
        <path
           id="path1878"
           d="m 628.2,398 a 12.13,12.13 0 0 0 -12.13,12.13 12.13,12.13 0 0 0 12.13,12.13 12.13,12.13 0 0 0 12.13,-12.13 A 12.13,12.13 0 0 0 628.2,398 Z m 0,2.312 a 9.818,9.818 0 0 1 9.816,9.816 9.818,9.818 0 0 1 -9.816,9.818 9.818,9.818 0 0 1 -9.818,-9.818 9.818,9.818 0 0 1 9.818,-9.816 z"
           inkscape:connector-curvature="0" />
        <path
           id="path1880"
           d="m 628.2,403.3 c -3.748,10e-6 -6.786,3.038 -6.787,6.786 0,3.748 3.038,6.787 6.787,6.787 3.748,-6e-4 6.786,-3.039 6.786,-6.787 -5e-4,-3.747 -3.038,-6.785 -6.786,-6.786 z m 0,1.602 c 2.862,5.6e-4 5.183,2.321 5.184,5.184 0,2.863 -2.321,5.184 -5.184,5.185 -2.864,0 -5.185,-2.321 -5.185,-5.185 6e-4,-2.863 2.322,-5.184 5.185,-5.184 z"
           inkscape:connector-curvature="0" />
        <path
           id="path1882"
           d="m 624.2,422.1 c 1.899,0.0227 11.59,-1.78 12.22,-2.32 0.6775,-0.5757 4.424,-11.09 4.264,-11.96 -0.1658,-0.8736 -7.393,-9.378 -8.23,-9.676 -0.8379,-0.298 -11.82,1.715 -12.49,2.291 -0.6775,0.5758 -4.424,11.09 -4.264,11.96 0.1648,0.8738 7.393,9.378 8.23,9.676 0.054,0.0147 0.1438,0.0274 0.2698,0.0299 z m 3.166,-2.55 c -5.216,-0.4567 -9.074,-5.055 -8.618,-10.27 0.4558,-5.216 5.054,-9.076 10.27,-8.62 5.217,0.456 9.077,5.056 8.62,10.27 -0.4568,5.216 -5.056,9.075 -10.27,8.618 z"
           inkscape:connector-curvature="0" />
        <path
           id="path1884"
           d="m 625.6,401.6 c -3.272,0 -5.906,2.634 -5.906,5.906 v 5.279 c 0,3.272 2.634,5.906 5.906,5.906 h 5.279 c 3.272,0 5.906,-2.634 5.906,-5.906 v -5.279 c 0,-3.272 -2.634,-5.906 -5.906,-5.906 z m 2.641,1.885 a 6.662,6.662 0 0 1 6.66,6.66 6.662,6.662 0 0 1 -6.66,6.662 6.662,6.662 0 0 1 -6.662,-6.662 6.662,6.662 0 0 1 6.662,-6.66 z"
           inkscape:connector-curvature="0" />
      </g>
      <g
         id="g1916"
         transform="translate(-355.74,232.28997)"
         style="fill:#ffffff;stroke:#000000;stroke-width:0.80000001">
        <path
           id="path1908"
           d="m 628.2,398 a 12.13,12.13 0 0 0 -12.13,12.13 12.13,12.13 0 0 0 12.13,12.13 12.13,12.13 0 0 0 12.13,-12.13 A 12.13,12.13 0 0 0 628.2,398 Z m 0,2.312 a 9.818,9.818 0 0 1 9.816,9.816 9.818,9.818 0 0 1 -9.816,9.818 9.818,9.818 0 0 1 -9.818,-9.818 9.818,9.818 0 0 1 9.818,-9.816 z"
           inkscape:connector-curvature="0" />
        <path
           id="path1910"
           d="m 628.2,403.3 c -3.748,10e-6 -6.786,3.038 -6.787,6.786 0,3.748 3.038,6.787 6.787,6.787 3.748,-6e-4 6.786,-3.039 6.786,-6.787 -5e-4,-3.747 -3.038,-6.785 -6.786,-6.786 z m 0,1.602 c 2.862,5.6e-4 5.183,2.321 5.184,5.184 0,2.863 -2.321,5.184 -5.184,5.185 -2.864,0 -5.185,-2.321 -5.185,-5.185 6e-4,-2.863 2.322,-5.184 5.185,-5.184 z"
           inkscape:connector-curvature="0" />
        <path
           id="path1912"
           d="m 624.2,422.1 c 1.899,0.0227 11.59,-1.78 12.22,-2.32 0.6775,-0.5757 4.424,-11.09 4.264,-11.96 -0.1658,-0.8736 -7.393,-9.378 -8.23,-9.676 -0.8379,-0.298 -11.82,1.715 -12.49,2.291 -0.6775,0.5758 -4.424,11.09 -4.264,11.96 0.1648,0.8738 7.393,9.378 8.23,9.676 0.054,0.0147 0.1438,0.0274 0.2698,0.0299 z m 3.166,-2.55 c -5.216,-0.4567 -9.074,-5.055 -8.618,-10.27 0.4558,-5.216 5.054,-9.076 10.27,-8.62 5.217,0.456 9.077,5.056 8.62,10.27 -0.4568,5.216 -5.056,9.075 -10.27,8.618 z"
           inkscape:connector-curvature="0" />
        <path
           id="path1914"
           d="m 625.6,401.6 c -3.272,0 -5.906,2.634 -5.906,5.906 v 5.279 c 0,3.272 2.634,5.906 5.906,5.906 h 5.279 c 3.272,0 5.906,-2.634 5.906,-5.906 v -5.279 c 0,-3.272 -2.634,-5.906 -5.906,-5.906 z m 2.641,1.885 a 6.662,6.662 0 0 1 6.66,6.66 6.662,6.662 0 0 1 -6.66,6.662 6.662,6.662 0 0 1 -6.662,-6.662 6.662,6.662 0 0 1 6.662,-6.66 z"
           inkscape:connector-curvature="0" />
      </g>
      <g
         id="g1926"
         transform="translate(-320.74,232.28997)"
         style="fill:#ffffff;stroke:#000000;stroke-width:0.80000001">
        <path
           id="path1918"
           d="m 628.2,398 a 12.13,12.13 0 0 0 -12.13,12.13 12.13,12.13 0 0 0 12.13,12.13 12.13,12.13 0 0 0 12.13,-12.13 A 12.13,12.13 0 0 0 628.2,398 Z m 0,2.312 a 9.818,9.818 0 0 1 9.816,9.816 9.818,9.818 0 0 1 -9.816,9.818 9.818,9.818 0 0 1 -9.818,-9.818 9.818,9.818 0 0 1 9.818,-9.816 z"
           inkscape:connector-curvature="0" />
        <path
           id="path1920"
           d="m 628.2,403.3 c -3.748,10e-6 -6.786,3.038 -6.787,6.786 0,3.748 3.038,6.787 6.787,6.787 3.748,-6e-4 6.786,-3.039 6.786,-6.787 -5e-4,-3.747 -3.038,-6.785 -6.786,-6.786 z m 0,1.602 c 2.862,5.6e-4 5.183,2.321 5.184,5.184 0,2.863 -2.321,5.184 -5.184,5.185 -2.864,0 -5.185,-2.321 -5.185,-5.185 6e-4,-2.863 2.322,-5.184 5.185,-5.184 z"
           inkscape:connector-curvature="0" />
        <path
           id="path1922"
           d="m 624.2,422.1 c 1.899,0.0227 11.59,-1.78 12.22,-2.32 0.6775,-0.5757 4.424,-11.09 4.264,-11.96 -0.1658,-0.8736 -7.393,-9.378 -8.23,-9.676 -0.8379,-0.298 -11.82,1.715 -12.49,2.291 -0.6775,0.5758 -4.424,11.09 -4.264,11.96 0.1648,0.8738 7.393,9.378 8.23,9.676 0.054,0.0147 0.1438,0.0274 0.2698,0.0299 z m 3.166,-2.55 c -5.216,-0.4567 -9.074,-5.055 -8.618,-10.27 0.4558,-5.216 5.054,-9.076 10.27,-8.62 5.217,0.456 9.077,5.056 8.62,10.27 -0.4568,5.216 -5.056,9.075 -10.27,8.618 z"
           inkscape:connector-curvature="0" />
        <path
           id="path1924"
           d="m 625.6,401.6 c -3.272,0 -5.906,2.634 -5.906,5.906 v 5.279 c 0,3.272 2.634,5.906 5.906,5.906 h 5.279 c 3.272,0 5.906,-2.634 5.906,-5.906 v -5.279 c 0,-3.272 -2.634,-5.906 -5.906,-5.906 z m 2.641,1.885 a 6.662,6.662 0 0 1 6.66,6.66 6.662,6.662 0 0 1 -6.66,6.662 6.662,6.662 0 0 1 -6.662,-6.662 6.662,6.662 0 0 1 6.662,-6.66 z"
           inkscape:connector-curvature="0" />
      </g>
    </g>
  </g>
</svg>
