<?xml version="1.0" encoding="UTF-8" standalone="no"?>
<!-- Created with Inkscape (http://www.inkscape.org/) -->

<svg
   xmlns:dc="http://purl.org/dc/elements/1.1/"
   xmlns:cc="http://creativecommons.org/ns#"
   xmlns:rdf="http://www.w3.org/1999/02/22-rdf-syntax-ns#"
   xmlns:svg="http://www.w3.org/2000/svg"
   xmlns="http://www.w3.org/2000/svg"
   xmlns:sodipodi="http://sodipodi.sourceforge.net/DTD/sodipodi-0.dtd"
   xmlns:inkscape="http://www.inkscape.org/namespaces/inkscape"
   width="630"
   height="90"
   viewBox="0 0 630 90"
   version="1.1"
   id="svg8"
   inkscape:version="0.92.3 (2405546, 2018-03-11)"
   sodipodi:docname="phaseque-pattern-grid-relative-navigation.svg">
  <defs
     id="defs2" />
  <sodipodi:namedview
     id="base"
     pagecolor="#f5f5f5"
     bordercolor="#000000"
     borderopacity="0.16470588"
     inkscape:pageopacity="0"
     inkscape:pageshadow="2"
     inkscape:zoom="1"
     inkscape:cx="94.855737"
     inkscape:cy="103.10367"
     inkscape:document-units="px"
     inkscape:current-layer="g1216"
     showgrid="true"
     units="px"
     guidecolor="#00d1ae"
     guideopacity="0.49803922"
     inkscape:window-width="2502"
     inkscape:window-height="1303"
     inkscape:window-x="750"
     inkscape:window-y="630"
     inkscape:window-maximized="0"
     inkscape:snap-global="false">
    <inkscape:grid
       type="xygrid"
       id="grid815"
       color="#3fb6ff"
       opacity="0.1254902"
       empcolor="#3f96ff"
       empopacity="0.29019608" />
  </sodipodi:namedview>
  <metadata
     id="metadata5">
    <rdf:RDF>
      <cc:Work
         rdf:about="">
        <dc:format>image/svg+xml</dc:format>
        <dc:type
           rdf:resource="http://purl.org/dc/dcmitype/StillImage" />
        <dc:title />
      </cc:Work>
    </rdf:RDF>
  </metadata>
  <g
     inkscape:label="Layer 1"
     inkscape:groupmode="layer"
     id="layer1"
     transform="translate(0,-736.5)">
    <g
       transform="matrix(7.978,0,0,7.978,-223.85331,-948)"
       id="g266"
       style="stroke-width:0.94760001">
      <g
         id="g1216"
         transform="matrix(2,0,0,2,-52.699833,-187.19522)">
        <g
           id="g1136"
           transform="matrix(2,0,0,2,-34.174767,-205.24839)">
          <g
             aria-label="SEQ"
             id="g844"
             transform="matrix(0.06267235,0,0,0.06267235,36.770282,189.39583)">
            <path
               d="m 231.2,215 q -0.5639,0 -1.093,-0.1601 -0.5221,-0.1601 -0.8284,-0.4247 l 0.3133,-0.7031 q 0.2994,0.2367 0.731,0.3898 0.4386,0.1462 0.8772,0.1462 0.543,0 0.8076,-0.174 0.2715,-0.174 0.2715,-0.4595 0,-0.2088 -0.1532,-0.3411 -0.1462,-0.1392 -0.3759,-0.2158 -0.2297,-0.0766 -0.6265,-0.174 -0.5569,-0.1323 -0.905,-0.2645 -0.3411,-0.1323 -0.5917,-0.4107 -0.2437,-0.2854 -0.2437,-0.7658 0,-0.4038 0.2158,-0.731 0.2228,-0.3342 0.6614,-0.5291 0.4456,-0.1949 1.086,-0.1949 0.4455,0 0.8772,0.1114 0.4316,0.1114 0.7449,0.3202 l -0.2854,0.7031 q -0.3202,-0.188 -0.6683,-0.2854 -0.3481,-0.0975 -0.6753,-0.0975 -0.536,0 -0.8006,0.181 -0.2576,0.181 -0.2576,0.4804 0,0.2088 0.1462,0.3411 0.1532,0.1323 0.3829,0.2088 0.2297,0.0766 0.6266,0.174 0.543,0.1253 0.8911,0.2645 0.3481,0.1323 0.5917,0.4107 0.2506,0.2785 0.2506,0.7519 0,0.4038 -0.2228,0.731 -0.2158,0.3272 -0.6614,0.5221 -0.4455,0.1949 -1.086,0.1949 z"
               id="path838"
               inkscape:connector-curvature="0" />
            <path
               d="m 237.7,214.2 v 0.7588 h -3.655 v -4.873 h 3.557 v 0.7588 h -2.652 v 1.267 h 2.353 v 0.7449 h -2.353 v 1.344 z"
               id="path840"
               inkscape:connector-curvature="0" />
            <path
               d="m 243.8,215.4 q -0.2436,0.2854 -0.5708,0.4316 -0.3202,0.1462 -0.7031,0.1462 -0.5012,0 -0.9189,-0.2297 -0.4177,-0.2228 -0.9537,-0.7797 -0.6753,-0.0557 -1.211,-0.3898 -0.536,-0.3411 -0.8354,-0.8841 -0.2994,-0.55 -0.2994,-1.218 0,-0.7101 0.3411,-1.281 0.3411,-0.5778 0.9398,-0.898 0.5987,-0.3272 1.344,-0.3272 0.7449,0 1.344,0.3272 0.5987,0.3202 0.9398,0.8911 0.3411,0.5708 0.3411,1.288 0,0.5778 -0.2297,1.072 -0.2297,0.4873 -0.6405,0.8354 -0.4107,0.3411 -0.9538,0.4943 0.2019,0.2158 0.3968,0.3133 0.1949,0.0975 0.4177,0.0975 0.4804,0 0.8354,-0.3898 z m -4.581,-2.924 q 0,0.4873 0.2228,0.8841 0.2228,0.3898 0.6126,0.6126 0.3898,0.2158 0.8772,0.2158 0.4873,0 0.8772,-0.2158 0.3898,-0.2228 0.6126,-0.6126 0.2228,-0.3968 0.2228,-0.8841 0,-0.4873 -0.2228,-0.8772 -0.2228,-0.3968 -0.6126,-0.6126 -0.3898,-0.2228 -0.8772,-0.2228 -0.4873,0 -0.8772,0.2228 -0.3898,0.2158 -0.6126,0.6126 -0.2228,0.3899 -0.2228,0.8772 z"
               id="path842"
               inkscape:connector-curvature="0" />
          </g>
          <g
             id="g864"
             style="fill:none;stroke:#000000;stroke-width:1px;stroke-linecap:round"
             transform="matrix(0.06267235,0,0,0.06267235,36.770282,189.39583)">
            <path
               id="path848"
               d="m 94,212.5 h 5"
               inkscape:connector-curvature="0" />
            <path
               id="path850"
               d="m 96.6,210.2 -2.602,2.286 2.602,2.286"
               inkscape:connector-curvature="0"
               style="stroke-linejoin:round" />
            <path
               id="path852"
               d="m 204,212.5 h -5"
               inkscape:connector-curvature="0" />
            <path
               id="path854"
               d="m 201.4,210.2 2.602,2.286 -2.602,2.286"
               inkscape:connector-curvature="0"
               style="stroke-linejoin:round" />
            <path
               id="path856"
               d="m 166.5,210 v 5"
               inkscape:connector-curvature="0" />
            <path
               id="path858"
               d="m 168.8,212.6 -2.286,-2.602 -2.286,2.602"
               inkscape:connector-curvature="0"
               style="stroke-linejoin:round" />
            <path
               id="path860"
               d="m 131.5,215 v -5"
               inkscape:connector-curvature="0" />
            <path
               id="path862"
               d="m 133.8,212.4 -2.286,2.602 -2.286,-2.602"
               inkscape:connector-curvature="0"
               style="stroke-linejoin:round" />
          </g>
          <path
             d="M 44.353636,203.96715 H 43.476223"
             id="path876"
             inkscape:connector-curvature="0"
             style="fill:none;stroke:#000000;stroke-width:0.04387064" />
          <g
             id="g920"
             transform="matrix(0.06267235,0,0,0.06267235,36.770282,189.39583)">
            <g
               id="g890"
               aria-label="PREV">
              <path
                 id="path882"
                 d="m 19.21,210.1 q 0.6335,0 1.1,0.2088 0.4734,0.2088 0.724,0.5987 0.2506,0.3898 0.2506,0.9259 0,0.5291 -0.2506,0.9259 -0.2506,0.3898 -0.724,0.5987 -0.4664,0.2088 -1.1,0.2088 h -1.1 v 1.406 h -0.905 v -4.873 z m -0.04177,2.701 q 0.5917,0 0.8981,-0.2506 0.3063,-0.2506 0.3063,-0.717 0,-0.4664 -0.3063,-0.717 -0.3063,-0.2506 -0.8981,-0.2506 h -1.058 v 1.935 z"
                 inkscape:connector-curvature="0" />
              <path
                 id="path884"
                 d="m 25.38,214.9 -0.9955,-1.427 q -0.06265,0.007 -0.188,0.007 h -1.1 v 1.42 h -0.905 v -4.873 h 2.005 q 0.6335,0 1.1,0.2088 0.4734,0.2088 0.724,0.5987 0.2506,0.3898 0.2506,0.9259 0,0.55 -0.2715,0.9468 -0.2645,0.3968 -0.7658,0.5917 l 1.121,1.601 z m -0.02088,-3.14 q 0,-0.4664 -0.3063,-0.717 -0.3063,-0.2506 -0.8981,-0.2506 h -1.058 v 1.942 h 1.058 q 0.5917,0 0.8981,-0.2506 0.3063,-0.2576 0.3063,-0.724 z"
                 inkscape:connector-curvature="0" />
              <path
                 id="path886"
                 d="m 30.93,214.2 v 0.7588 h -3.655 v -4.873 h 3.557 v 0.7588 H 28.18 v 1.267 h 2.353 v 0.7449 H 28.18 v 1.344 z"
                 inkscape:connector-curvature="0" />
              <path
                 id="path888"
                 d="m 36.33,210.1 -2.123,4.873 h -0.8911 l -2.13,-4.873 h 0.9816 l 1.622,3.759 1.636,-3.759 z"
                 inkscape:connector-curvature="0" />
            </g>
            <g
               id="g900"
               aria-label="NEXT">
              <path
                 id="path892"
                 d="m 56.88,209.1 v 4.873 h -0.7449 l -2.687,-3.3 v 3.3 H 52.55 V 209.1 h 0.7449 l 2.687,3.3 v -3.3 z"
                 inkscape:connector-curvature="0" />
              <path
                 id="path894"
                 d="m 61.84,213.2 v 0.7588 h -3.655 v -4.873 h 3.557 v 0.7588 H 59.09 v 1.267 h 2.353 v 0.7449 H 59.09 v 1.344 z"
                 inkscape:connector-curvature="0" />
              <path
                 id="path896"
                 d="m 65.87,213.9 -1.323,-1.852 -1.309,1.852 h -1.03 l 1.81,-2.485 -1.713,-2.388 h 1.023 l 1.246,1.733 1.232,-1.733 h 0.9816 l -1.706,2.353 1.831,2.52 z"
                 inkscape:connector-curvature="0" />
              <path
                 id="path898"
                 d="m 68.41,209.8 h -1.615 v -0.7658 H 70.93 V 209.8 h -1.615 v 4.107 H 68.41 Z"
                 inkscape:connector-curvature="0" />
            </g>
            <g
               id="g908"
               aria-label="RND">
              <path
                 id="path902"
                 d="m 267,214.9 -0.9955,-1.427 q -0.0627,0.007 -0.188,0.007 h -1.1 v 1.42 h -0.905 v -4.873 h 2.005 q 0.6335,0 1.1,0.2088 0.4734,0.2088 0.724,0.5987 0.2506,0.3898 0.2506,0.9259 0,0.55 -0.2715,0.9468 -0.2645,0.3968 -0.7658,0.5917 l 1.121,1.601 z m -0.0209,-3.14 q 0,-0.4664 -0.3063,-0.717 -0.3063,-0.2506 -0.898,-0.2506 h -1.058 v 1.942 h 1.058 q 0.5917,0 0.898,-0.2506 0.3063,-0.2576 0.3063,-0.724 z"
                 inkscape:connector-curvature="0" />
              <path
                 id="path904"
                 d="m 273.3,210.1 v 4.873 h -0.7449 l -2.687,-3.3 v 3.3 H 268.97 V 210.1 h 0.7449 l 2.687,3.3 v -3.3 z"
                 inkscape:connector-curvature="0" />
              <path
                 id="path906"
                 d="m 274.6,210.1 h 2.13 q 0.7797,0 1.385,0.3063 0.6057,0.2994 0.9398,0.8563 0.3342,0.55 0.3342,1.274 0,0.724 -0.3342,1.281 -0.3342,0.55 -0.9398,0.8563 -0.6057,0.2994 -1.385,0.2994 h -2.13 z m 2.088,4.107 q 0.536,0 0.9398,-0.2019 0.4107,-0.2088 0.6266,-0.5848 0.2228,-0.3829 0.2228,-0.8841 0,-0.5012 -0.2228,-0.8772 -0.2158,-0.3829 -0.6266,-0.5848 -0.4038,-0.2088 -0.9398,-0.2088 h -1.183 v 3.342 z"
                 inkscape:connector-curvature="0" />
            </g>
            <g
               id="g918"
               aria-label="WAIT">
              <path
                 id="path910"
                 d="m 304.5,210.1 -1.615,4.873 h -0.9607 l -1.204,-3.606 -1.225,3.606 h -0.9677 l -1.615,-4.873 h 0.9398 l 1.211,3.704 1.26,-3.704 h 0.8354 l 1.232,3.724 1.246,-3.724 z"
                 inkscape:connector-curvature="0" />
              <path
                 id="path912"
                 d="m 308.3,213.8 h -2.437 l -0.4804,1.128 h -0.9329 l 2.193,-4.873 h 0.8911 l 2.2,4.873 h -0.9468 z m -0.2994,-0.7101 -0.9189,-2.13 -0.912,2.13 z"
                 inkscape:connector-curvature="0" />
              <path
                 id="path914"
                 d="m 310.3,210.1 h 0.905 v 4.873 H 310.3 Z"
                 inkscape:connector-curvature="0" />
              <path
                 id="path916"
                 d="m 313.5,210.8 h -1.615 v -0.7658 h 4.135 V 210.8 h -1.615 v 4.107 H 313.5 Z"
                 inkscape:connector-curvature="0" />
            </g>
          </g>
          <path
             id="path960"
             d="M 40.091916,203.96715 H 38.963814"
             style="fill:none;stroke:#000000;stroke-width:0.04387064"
             inkscape:connector-curvature="0" />
          <g
             id="g1153"
             transform="matrix(0.23690148,0,0,0.23690148,40.564466,151.6044)">
            <circle
               id="circle1149"
               r="2.9100001"
               cy="221.10001"
               cx="65.089996"
               style="fill:#151715" />
            <circle
               id="circle1151"
               r="2.381"
               cy="221.10001"
               cx="65.089996"
               style="fill:#ffffff" />
          </g>
          <g
             id="g1772"
             transform="matrix(0.06267235,0,0,0.06267235,-0.93967076,178.25269)"
             style="fill:#ffffff;stroke:#000000;stroke-width:0.80000001">
            <path
               id="path1764"
               d="m 628.2,398 a 12.13,12.13 0 0 0 -12.13,12.13 12.13,12.13 0 0 0 12.13,12.13 12.13,12.13 0 0 0 12.13,-12.13 A 12.13,12.13 0 0 0 628.2,398 Z m 0,2.312 a 9.818,9.818 0 0 1 9.816,9.816 9.818,9.818 0 0 1 -9.816,9.818 9.818,9.818 0 0 1 -9.818,-9.818 9.818,9.818 0 0 1 9.818,-9.816 z"
               inkscape:connector-curvature="0" />
            <path
               id="path1766"
               d="m 628.2,403.3 c -3.748,10e-6 -6.786,3.038 -6.787,6.786 0,3.748 3.038,6.787 6.787,6.787 3.748,-6e-4 6.786,-3.039 6.786,-6.787 -5e-4,-3.747 -3.038,-6.785 -6.786,-6.786 z m 0,1.602 c 2.862,5.6e-4 5.183,2.321 5.184,5.184 0,2.863 -2.321,5.184 -5.184,5.185 -2.864,0 -5.185,-2.321 -5.185,-5.185 6e-4,-2.863 2.322,-5.184 5.185,-5.184 z"
               inkscape:connector-curvature="0" />
            <path
               id="path1768"
               d="m 624.2,422.1 c 1.899,0.0227 11.59,-1.78 12.22,-2.32 0.6775,-0.5757 4.424,-11.09 4.264,-11.96 -0.1658,-0.8736 -7.393,-9.378 -8.23,-9.676 -0.8379,-0.298 -11.82,1.715 -12.49,2.291 -0.6775,0.5758 -4.424,11.09 -4.264,11.96 0.1648,0.8738 7.393,9.378 8.23,9.676 0.054,0.0147 0.1438,0.0274 0.2698,0.0299 z m 3.166,-2.55 c -5.216,-0.4567 -9.074,-5.055 -8.618,-10.27 0.4558,-5.216 5.054,-9.076 10.27,-8.62 5.217,0.456 9.077,5.056 8.62,10.27 -0.4568,5.216 -5.056,9.075 -10.27,8.618 z"
               inkscape:connector-curvature="0" />
            <path
               id="path1770"
               d="m 625.6,401.6 c -3.272,0 -5.906,2.634 -5.906,5.906 v 5.279 c 0,3.272 2.634,5.906 5.906,5.906 h 5.279 c 3.272,0 5.906,-2.634 5.906,-5.906 v -5.279 c 0,-3.272 -2.634,-5.906 -5.906,-5.906 z m 2.641,1.885 a 6.662,6.662 0 0 1 6.66,6.66 6.662,6.662 0 0 1 -6.66,6.662 6.662,6.662 0 0 1 -6.662,-6.662 6.662,6.662 0 0 1 6.662,-6.66 z"
               inkscape:connector-curvature="0" />
          </g>
          <g
             id="g1782"
             transform="matrix(0.06267235,0,0,0.06267235,1.2538614,178.25269)"
             style="fill:#ffffff;stroke:#000000;stroke-width:0.80000001">
            <path
               id="path1774"
               d="m 628.2,398 a 12.13,12.13 0 0 0 -12.13,12.13 12.13,12.13 0 0 0 12.13,12.13 12.13,12.13 0 0 0 12.13,-12.13 A 12.13,12.13 0 0 0 628.2,398 Z m 0,2.312 a 9.818,9.818 0 0 1 9.816,9.816 9.818,9.818 0 0 1 -9.816,9.818 9.818,9.818 0 0 1 -9.818,-9.818 9.818,9.818 0 0 1 9.818,-9.816 z"
               inkscape:connector-curvature="0" />
            <path
               id="path1776"
               d="m 628.2,403.3 c -3.748,10e-6 -6.786,3.038 -6.787,6.786 0,3.748 3.038,6.787 6.787,6.787 3.748,-6e-4 6.786,-3.039 6.786,-6.787 -5e-4,-3.747 -3.038,-6.785 -6.786,-6.786 z m 0,1.602 c 2.862,5.6e-4 5.183,2.321 5.184,5.184 0,2.863 -2.321,5.184 -5.184,5.185 -2.864,0 -5.185,-2.321 -5.185,-5.185 6e-4,-2.863 2.322,-5.184 5.185,-5.184 z"
               inkscape:connector-curvature="0" />
            <path
               id="path1778"
               d="m 624.2,422.1 c 1.899,0.0227 11.59,-1.78 12.22,-2.32 0.6775,-0.5757 4.424,-11.09 4.264,-11.96 -0.1658,-0.8736 -7.393,-9.378 -8.23,-9.676 -0.8379,-0.298 -11.82,1.715 -12.49,2.291 -0.6775,0.5758 -4.424,11.09 -4.264,11.96 0.1648,0.8738 7.393,9.378 8.23,9.676 0.054,0.0147 0.1438,0.0274 0.2698,0.0299 z m 3.166,-2.55 c -5.216,-0.4567 -9.074,-5.055 -8.618,-10.27 0.4558,-5.216 5.054,-9.076 10.27,-8.62 5.217,0.456 9.077,5.056 8.62,10.27 -0.4568,5.216 -5.056,9.075 -10.27,8.618 z"
               inkscape:connector-curvature="0" />
            <path
               id="path1780"
               d="m 625.6,401.6 c -3.272,0 -5.906,2.634 -5.906,5.906 v 5.279 c 0,3.272 2.634,5.906 5.906,5.906 h 5.279 c 3.272,0 5.906,-2.634 5.906,-5.906 v -5.279 c 0,-3.272 -2.634,-5.906 -5.906,-5.906 z m 2.641,1.885 a 6.662,6.662 0 0 1 6.66,6.66 6.662,6.662 0 0 1 -6.66,6.662 6.662,6.662 0 0 1 -6.662,-6.662 6.662,6.662 0 0 1 6.662,-6.66 z"
               inkscape:connector-curvature="0" />
          </g>
          <g
             id="g1792"
             transform="matrix(0.06267235,0,0,0.06267235,3.4473936,178.25269)"
             style="fill:#ffffff;stroke:#000000;stroke-width:0.80000001">
            <path
               id="path1784"
               d="m 628.2,398 a 12.13,12.13 0 0 0 -12.13,12.13 12.13,12.13 0 0 0 12.13,12.13 12.13,12.13 0 0 0 12.13,-12.13 A 12.13,12.13 0 0 0 628.2,398 Z m 0,2.312 a 9.818,9.818 0 0 1 9.816,9.816 9.818,9.818 0 0 1 -9.816,9.818 9.818,9.818 0 0 1 -9.818,-9.818 9.818,9.818 0 0 1 9.818,-9.816 z"
               inkscape:connector-curvature="0" />
            <path
               id="path1786"
               d="m 628.2,403.3 c -3.748,10e-6 -6.786,3.038 -6.787,6.786 0,3.748 3.038,6.787 6.787,6.787 3.748,-6e-4 6.786,-3.039 6.786,-6.787 -5e-4,-3.747 -3.038,-6.785 -6.786,-6.786 z m 0,1.602 c 2.862,5.6e-4 5.183,2.321 5.184,5.184 0,2.863 -2.321,5.184 -5.184,5.185 -2.864,0 -5.185,-2.321 -5.185,-5.185 6e-4,-2.863 2.322,-5.184 5.185,-5.184 z"
               inkscape:connector-curvature="0" />
            <path
               id="path1788"
               d="m 624.2,422.1 c 1.899,0.0227 11.59,-1.78 12.22,-2.32 0.6775,-0.5757 4.424,-11.09 4.264,-11.96 -0.1658,-0.8736 -7.393,-9.378 -8.23,-9.676 -0.8379,-0.298 -11.82,1.715 -12.49,2.291 -0.6775,0.5758 -4.424,11.09 -4.264,11.96 0.1648,0.8738 7.393,9.378 8.23,9.676 0.054,0.0147 0.1438,0.0274 0.2698,0.0299 z m 3.166,-2.55 c -5.216,-0.4567 -9.074,-5.055 -8.618,-10.27 0.4558,-5.216 5.054,-9.076 10.27,-8.62 5.217,0.456 9.077,5.056 8.62,10.27 -0.4568,5.216 -5.056,9.075 -10.27,8.618 z"
               inkscape:connector-curvature="0" />
            <path
               id="path1790"
               d="m 625.6,401.6 c -3.272,0 -5.906,2.634 -5.906,5.906 v 5.279 c 0,3.272 2.634,5.906 5.906,5.906 h 5.279 c 3.272,0 5.906,-2.634 5.906,-5.906 v -5.279 c 0,-3.272 -2.634,-5.906 -5.906,-5.906 z m 2.641,1.885 a 6.662,6.662 0 0 1 6.66,6.66 6.662,6.662 0 0 1 -6.66,6.662 6.662,6.662 0 0 1 -6.662,-6.662 6.662,6.662 0 0 1 6.662,-6.66 z"
               inkscape:connector-curvature="0" />
          </g>
          <path
             id="path1794"
             d="M 46.547169,203.96715 H 45.669756"
             style="fill:none;stroke:#000000;stroke-width:0.04387064"
             inkscape:connector-curvature="0" />
          <g
             id="g1804"
             transform="matrix(0.06267235,0,0,0.06267235,5.6409259,178.25269)"
             style="fill:#ffffff;stroke:#000000;stroke-width:0.80000001">
            <path
               id="path1796"
               d="m 628.2,398 a 12.13,12.13 0 0 0 -12.13,12.13 12.13,12.13 0 0 0 12.13,12.13 12.13,12.13 0 0 0 12.13,-12.13 A 12.13,12.13 0 0 0 628.2,398 Z m 0,2.312 a 9.818,9.818 0 0 1 9.816,9.816 9.818,9.818 0 0 1 -9.816,9.818 9.818,9.818 0 0 1 -9.818,-9.818 9.818,9.818 0 0 1 9.818,-9.816 z"
               inkscape:connector-curvature="0" />
            <path
               id="path1798"
               d="m 628.2,403.3 c -3.748,10e-6 -6.786,3.038 -6.787,6.786 0,3.748 3.038,6.787 6.787,6.787 3.748,-6e-4 6.786,-3.039 6.786,-6.787 -5e-4,-3.747 -3.038,-6.785 -6.786,-6.786 z m 0,1.602 c 2.862,5.6e-4 5.183,2.321 5.184,5.184 0,2.863 -2.321,5.184 -5.184,5.185 -2.864,0 -5.185,-2.321 -5.185,-5.185 6e-4,-2.863 2.322,-5.184 5.185,-5.184 z"
               inkscape:connector-curvature="0" />
            <path
               id="path1800"
               d="m 624.2,422.1 c 1.899,0.0227 11.59,-1.78 12.22,-2.32 0.6775,-0.5757 4.424,-11.09 4.264,-11.96 -0.1658,-0.8736 -7.393,-9.378 -8.23,-9.676 -0.8379,-0.298 -11.82,1.715 -12.49,2.291 -0.6775,0.5758 -4.424,11.09 -4.264,11.96 0.1648,0.8738 7.393,9.378 8.23,9.676 0.054,0.0147 0.1438,0.0274 0.2698,0.0299 z m 3.166,-2.55 c -5.216,-0.4567 -9.074,-5.055 -8.618,-10.27 0.4558,-5.216 5.054,-9.076 10.27,-8.62 5.217,0.456 9.077,5.056 8.62,10.27 -0.4568,5.216 -5.056,9.075 -10.27,8.618 z"
               inkscape:connector-curvature="0" />
            <path
               id="path1802"
               d="m 625.6,401.6 c -3.272,0 -5.906,2.634 -5.906,5.906 v 5.279 c 0,3.272 2.634,5.906 5.906,5.906 h 5.279 c 3.272,0 5.906,-2.634 5.906,-5.906 v -5.279 c 0,-3.272 -2.634,-5.906 -5.906,-5.906 z m 2.641,1.885 a 6.662,6.662 0 0 1 6.66,6.66 6.662,6.662 0 0 1 -6.66,6.662 6.662,6.662 0 0 1 -6.662,-6.662 6.662,6.662 0 0 1 6.662,-6.66 z"
               inkscape:connector-curvature="0" />
          </g>
          <path
             id="path1806"
             d="M 48.740701,203.96715 H 47.863288"
             style="fill:none;stroke:#000000;stroke-width:0.04387064"
             inkscape:connector-curvature="0" />
          <g
             id="g1816"
             transform="matrix(0.06267235,0,0,0.06267235,7.8344585,178.25269)"
             style="fill:#ffffff;stroke:#000000;stroke-width:0.80000001">
            <path
               id="path1808"
               d="m 628.2,398 a 12.13,12.13 0 0 0 -12.13,12.13 12.13,12.13 0 0 0 12.13,12.13 12.13,12.13 0 0 0 12.13,-12.13 A 12.13,12.13 0 0 0 628.2,398 Z m 0,2.312 a 9.818,9.818 0 0 1 9.816,9.816 9.818,9.818 0 0 1 -9.816,9.818 9.818,9.818 0 0 1 -9.818,-9.818 9.818,9.818 0 0 1 9.818,-9.816 z"
               inkscape:connector-curvature="0" />
            <path
               id="path1810"
               d="m 628.2,403.3 c -3.748,10e-6 -6.786,3.038 -6.787,6.786 0,3.748 3.038,6.787 6.787,6.787 3.748,-6e-4 6.786,-3.039 6.786,-6.787 -5e-4,-3.747 -3.038,-6.785 -6.786,-6.786 z m 0,1.602 c 2.862,5.6e-4 5.183,2.321 5.184,5.184 0,2.863 -2.321,5.184 -5.184,5.185 -2.864,0 -5.185,-2.321 -5.185,-5.185 6e-4,-2.863 2.322,-5.184 5.185,-5.184 z"
               inkscape:connector-curvature="0" />
            <path
               id="path1812"
               d="m 624.2,422.1 c 1.899,0.0227 11.59,-1.78 12.22,-2.32 0.6775,-0.5757 4.424,-11.09 4.264,-11.96 -0.1658,-0.8736 -7.393,-9.378 -8.23,-9.676 -0.8379,-0.298 -11.82,1.715 -12.49,2.291 -0.6775,0.5758 -4.424,11.09 -4.264,11.96 0.1648,0.8738 7.393,9.378 8.23,9.676 0.054,0.0147 0.1438,0.0274 0.2698,0.0299 z m 3.166,-2.55 c -5.216,-0.4567 -9.074,-5.055 -8.618,-10.27 0.4558,-5.216 5.054,-9.076 10.27,-8.62 5.217,0.456 9.077,5.056 8.62,10.27 -0.4568,5.216 -5.056,9.075 -10.27,8.618 z"
               inkscape:connector-curvature="0" />
            <path
               id="path1814"
               d="m 625.6,401.6 c -3.272,0 -5.906,2.634 -5.906,5.906 v 5.279 c 0,3.272 2.634,5.906 5.906,5.906 h 5.279 c 3.272,0 5.906,-2.634 5.906,-5.906 v -5.279 c 0,-3.272 -2.634,-5.906 -5.906,-5.906 z m 2.641,1.885 a 6.662,6.662 0 0 1 6.66,6.66 6.662,6.662 0 0 1 -6.66,6.662 6.662,6.662 0 0 1 -6.662,-6.662 6.662,6.662 0 0 1 6.662,-6.66 z"
               inkscape:connector-curvature="0" />
          </g>
          <g
             id="g1826"
             transform="matrix(0.06267235,0,0,0.06267235,10.027991,178.25269)"
             style="fill:#ffffff;stroke:#000000;stroke-width:0.80000001">
            <path
               id="path1818"
               d="m 628.2,398 a 12.13,12.13 0 0 0 -12.13,12.13 12.13,12.13 0 0 0 12.13,12.13 12.13,12.13 0 0 0 12.13,-12.13 A 12.13,12.13 0 0 0 628.2,398 Z m 0,2.312 a 9.818,9.818 0 0 1 9.816,9.816 9.818,9.818 0 0 1 -9.816,9.818 9.818,9.818 0 0 1 -9.818,-9.818 9.818,9.818 0 0 1 9.818,-9.816 z"
               inkscape:connector-curvature="0" />
            <path
               id="path1820"
               d="m 628.2,403.3 c -3.748,10e-6 -6.786,3.038 -6.787,6.786 0,3.748 3.038,6.787 6.787,6.787 3.748,-6e-4 6.786,-3.039 6.786,-6.787 -5e-4,-3.747 -3.038,-6.785 -6.786,-6.786 z m 0,1.602 c 2.862,5.6e-4 5.183,2.321 5.184,5.184 0,2.863 -2.321,5.184 -5.184,5.185 -2.864,0 -5.185,-2.321 -5.185,-5.185 6e-4,-2.863 2.322,-5.184 5.185,-5.184 z"
               inkscape:connector-curvature="0" />
            <path
               id="path1822"
               d="m 624.2,422.1 c 1.899,0.0227 11.59,-1.78 12.22,-2.32 0.6775,-0.5757 4.424,-11.09 4.264,-11.96 -0.1658,-0.8736 -7.393,-9.378 -8.23,-9.676 -0.8379,-0.298 -11.82,1.715 -12.49,2.291 -0.6775,0.5758 -4.424,11.09 -4.264,11.96 0.1648,0.8738 7.393,9.378 8.23,9.676 0.054,0.0147 0.1438,0.0274 0.2698,0.0299 z m 3.166,-2.55 c -5.216,-0.4567 -9.074,-5.055 -8.618,-10.27 0.4558,-5.216 5.054,-9.076 10.27,-8.62 5.217,0.456 9.077,5.056 8.62,10.27 -0.4568,5.216 -5.056,9.075 -10.27,8.618 z"
               inkscape:connector-curvature="0" />
            <path
               id="path1824"
               d="m 625.6,401.6 c -3.272,0 -5.906,2.634 -5.906,5.906 v 5.279 c 0,3.272 2.634,5.906 5.906,5.906 h 5.279 c 3.272,0 5.906,-2.634 5.906,-5.906 v -5.279 c 0,-3.272 -2.634,-5.906 -5.906,-5.906 z m 2.641,1.885 a 6.662,6.662 0 0 1 6.66,6.66 6.662,6.662 0 0 1 -6.66,6.662 6.662,6.662 0 0 1 -6.662,-6.662 6.662,6.662 0 0 1 6.662,-6.66 z"
               inkscape:connector-curvature="0" />
          </g>
          <g
             id="g1836"
             transform="matrix(0.06267235,0,0,0.06267235,12.221523,178.25269)"
             style="fill:#ffffff;stroke:#000000;stroke-width:0.80000001">
            <path
               id="path1828"
               d="m 628.2,398 a 12.13,12.13 0 0 0 -12.13,12.13 12.13,12.13 0 0 0 12.13,12.13 12.13,12.13 0 0 0 12.13,-12.13 A 12.13,12.13 0 0 0 628.2,398 Z m 0,2.312 a 9.818,9.818 0 0 1 9.816,9.816 9.818,9.818 0 0 1 -9.816,9.818 9.818,9.818 0 0 1 -9.818,-9.818 9.818,9.818 0 0 1 9.818,-9.816 z"
               inkscape:connector-curvature="0" />
            <path
               id="path1830"
               d="m 628.2,403.3 c -3.748,10e-6 -6.786,3.038 -6.787,6.786 0,3.748 3.038,6.787 6.787,6.787 3.748,-6e-4 6.786,-3.039 6.786,-6.787 -5e-4,-3.747 -3.038,-6.785 -6.786,-6.786 z m 0,1.602 c 2.862,5.6e-4 5.183,2.321 5.184,5.184 0,2.863 -2.321,5.184 -5.184,5.185 -2.864,0 -5.185,-2.321 -5.185,-5.185 6e-4,-2.863 2.322,-5.184 5.185,-5.184 z"
               inkscape:connector-curvature="0" />
            <path
               id="path1832"
               d="m 624.2,422.1 c 1.899,0.0227 11.59,-1.78 12.22,-2.32 0.6775,-0.5757 4.424,-11.09 4.264,-11.96 -0.1658,-0.8736 -7.393,-9.378 -8.23,-9.676 -0.8379,-0.298 -11.82,1.715 -12.49,2.291 -0.6775,0.5758 -4.424,11.09 -4.264,11.96 0.1648,0.8738 7.393,9.378 8.23,9.676 0.054,0.0147 0.1438,0.0274 0.2698,0.0299 z m 3.166,-2.55 c -5.216,-0.4567 -9.074,-5.055 -8.618,-10.27 0.4558,-5.216 5.054,-9.076 10.27,-8.62 5.217,0.456 9.077,5.056 8.62,10.27 -0.4568,5.216 -5.056,9.075 -10.27,8.618 z"
               inkscape:connector-curvature="0" />
            <path
               id="path1834"
               d="m 625.6,401.6 c -3.272,0 -5.906,2.634 -5.906,5.906 v 5.279 c 0,3.272 2.634,5.906 5.906,5.906 h 5.279 c 3.272,0 5.906,-2.634 5.906,-5.906 v -5.279 c 0,-3.272 -2.634,-5.906 -5.906,-5.906 z m 2.641,1.885 a 6.662,6.662 0 0 1 6.66,6.66 6.662,6.662 0 0 1 -6.66,6.662 6.662,6.662 0 0 1 -6.662,-6.662 6.662,6.662 0 0 1 6.662,-6.66 z"
               inkscape:connector-curvature="0" />
          </g>
          <g
             id="g1846"
             transform="matrix(0.06267235,0,0,0.06267235,14.415055,178.25269)"
             style="fill:#ffffff;stroke:#000000;stroke-width:0.80000001">
            <path
               id="path1838"
               d="m 628.2,398 a 12.13,12.13 0 0 0 -12.13,12.13 12.13,12.13 0 0 0 12.13,12.13 12.13,12.13 0 0 0 12.13,-12.13 A 12.13,12.13 0 0 0 628.2,398 Z m 0,2.312 a 9.818,9.818 0 0 1 9.816,9.816 9.818,9.818 0 0 1 -9.816,9.818 9.818,9.818 0 0 1 -9.818,-9.818 9.818,9.818 0 0 1 9.818,-9.816 z"
               inkscape:connector-curvature="0" />
            <path
               id="path1840"
               d="m 628.2,403.3 c -3.748,10e-6 -6.786,3.038 -6.787,6.786 0,3.748 3.038,6.787 6.787,6.787 3.748,-6e-4 6.786,-3.039 6.786,-6.787 -5e-4,-3.747 -3.038,-6.785 -6.786,-6.786 z m 0,1.602 c 2.862,5.6e-4 5.183,2.321 5.184,5.184 0,2.863 -2.321,5.184 -5.184,5.185 -2.864,0 -5.185,-2.321 -5.185,-5.185 6e-4,-2.863 2.322,-5.184 5.185,-5.184 z"
               inkscape:connector-curvature="0" />
            <path
               id="path1842"
               d="m 624.2,422.1 c 1.899,0.0227 11.59,-1.78 12.22,-2.32 0.6775,-0.5757 4.424,-11.09 4.264,-11.96 -0.1658,-0.8736 -7.393,-9.378 -8.23,-9.676 -0.8379,-0.298 -11.82,1.715 -12.49,2.291 -0.6775,0.5758 -4.424,11.09 -4.264,11.96 0.1648,0.8738 7.393,9.378 8.23,9.676 0.054,0.0147 0.1438,0.0274 0.2698,0.0299 z m 3.166,-2.55 c -5.216,-0.4567 -9.074,-5.055 -8.618,-10.27 0.4558,-5.216 5.054,-9.076 10.27,-8.62 5.217,0.456 9.077,5.056 8.62,10.27 -0.4568,5.216 -5.056,9.075 -10.27,8.618 z"
               inkscape:connector-curvature="0" />
            <path
               id="path1844"
               d="m 625.6,401.6 c -3.272,0 -5.906,2.634 -5.906,5.906 v 5.279 c 0,3.272 2.634,5.906 5.906,5.906 h 5.279 c 3.272,0 5.906,-2.634 5.906,-5.906 v -5.279 c 0,-3.272 -2.634,-5.906 -5.906,-5.906 z m 2.641,1.885 a 6.662,6.662 0 0 1 6.66,6.66 6.662,6.662 0 0 1 -6.66,6.662 6.662,6.662 0 0 1 -6.662,-6.662 6.662,6.662 0 0 1 6.662,-6.66 z"
               inkscape:connector-curvature="0" />
          </g>
        </g>
      </g>
    </g>
  </g>
</svg>
