<?xml version="1.0" encoding="UTF-8" standalone="no"?>
<!-- Created with Inkscape (http://www.inkscape.org/) -->

<svg
   xmlns:dc="http://purl.org/dc/elements/1.1/"
   xmlns:cc="http://creativecommons.org/ns#"
   xmlns:rdf="http://www.w3.org/1999/02/22-rdf-syntax-ns#"
   xmlns:svg="http://www.w3.org/2000/svg"
   xmlns="http://www.w3.org/2000/svg"
   xmlns:sodipodi="http://sodipodi.sourceforge.net/DTD/sodipodi-0.dtd"
   xmlns:inkscape="http://www.inkscape.org/namespaces/inkscape"
   width="210"
   height="90"
   viewBox="0 0 210 90"
   version="1.1"
   id="svg8"
   inkscape:version="0.92.3 (2405546, 2018-03-11)"
   sodipodi:docname="phaseque-pattern-mutation.svg">
  <defs
     id="defs2" />
  <sodipodi:namedview
     id="base"
     pagecolor="#f5f5f5"
     bordercolor="#000000"
     borderopacity="0.16470588"
     inkscape:pageopacity="0"
     inkscape:pageshadow="2"
     inkscape:zoom="1.4142136"
     inkscape:cx="187.21236"
     inkscape:cy="89.183834"
     inkscape:document-units="px"
     inkscape:current-layer="layer1"
     showgrid="false"
     units="px"
     guidecolor="#00d1ae"
     guideopacity="0.49803922"
     inkscape:window-width="2727"
     inkscape:window-height="918"
     inkscape:window-x="606"
     inkscape:window-y="1005"
     inkscape:window-maximized="0">
    <inkscape:grid
       type="xygrid"
       id="grid815"
       color="#3fb6ff"
       opacity="0.1254902"
       empcolor="#3f96ff"
       empopacity="0.29019608" />
  </sodipodi:namedview>
  <metadata
     id="metadata5">
    <rdf:RDF>
      <cc:Work
         rdf:about="">
        <dc:format>image/svg+xml</dc:format>
        <dc:type
           rdf:resource="http://purl.org/dc/dcmitype/StillImage" />
        <dc:title></dc:title>
      </cc:Work>
    </rdf:RDF>
  </metadata>
  <g
     inkscape:label="Layer 1"
     inkscape:groupmode="layer"
     id="layer1"
     transform="translate(0,-736.5)">
    <g
       id="g1225"
       transform="translate(-217.03328,-2.0384032)">
      <g
         transform="matrix(2,0,0,2,-10.95074,130.4324)"
         aria-label="MUTA"
         id="g946">
        <path
           inkscape:connector-curvature="0"
           d="m 161,312.9 -0.007,-3.23 -1.601,2.673 h -0.4038 l -1.601,-2.632 v 3.188 h -0.8632 v -4.873 h 0.7449 l 1.935,3.23 1.901,-3.23 h 0.7449 l 0.007,4.873 z"
           id="path938" />
        <path
           inkscape:connector-curvature="0"
           d="m 165.2,313 q -1.009,0 -1.573,-0.5639 -0.5639,-0.5709 -0.5639,-1.629 v -2.75 h 0.905 v 2.715 q 0,1.434 1.239,1.434 1.232,0 1.232,-1.434 v -2.715 h 0.8911 v 2.75 q 0,1.058 -0.5639,1.629 Q 166.2094,313 165.2003,313 Z"
           id="path940" />
        <path
           inkscape:connector-curvature="0"
           d="m 169.5,308.8 h -1.615 v -0.7658 h 4.135 V 308.8 h -1.615 v 4.107 H 169.5 Z"
           id="path942" />
        <path
           inkscape:connector-curvature="0"
           d="m 175.6,311.8 h -2.437 l -0.4804,1.128 h -0.9329 l 2.193,-4.873 h 0.8911 l 2.2,4.873 h -0.9468 z m -0.2994,-0.7101 -0.9189,-2.13 -0.912,2.13 z"
           id="path944" />
      </g>
      <g
         id="g1056"
         style="fill:none;stroke:#000000"
         transform="matrix(2,0,0,2,-10.95074,130.4324)">
        <path
           id="path1044"
           d="m 138,331.5 h 21"
           inkscape:connector-curvature="0"
           style="stroke-width:0.69999999" />
        <path
           id="path1046"
           d="m 174,331.5 h 21"
           inkscape:connector-curvature="0"
           style="stroke-width:0.69999999" />
        <g
           id="g1054"
           style="stroke-width:1px;stroke-linecap:round">
          <path
             id="path1048"
             d="m 129,311.5 h 5"
             inkscape:connector-curvature="0" />
          <path
             id="path1050"
             d="m 199,311.5 h 5"
             inkscape:connector-curvature="0" />
          <path
             id="path1052"
             d="m 201.5,309 v 5"
             inkscape:connector-curvature="0" />
        </g>
      </g>
      <g
         id="g1078"
         transform="matrix(2,0,0,2,-12.86214,890.4324)">
        <g
           id="g1076"
           transform="translate(140.5,-248)"
           style="fill:#ffffff;stroke:#000000;stroke-width:0.80000001;stroke-linecap:round;stroke-linejoin:round">
          <circle
             id="circle1070"
             r="13.38"
             cy="199.3"
             cx="27" />
          <path
             id="path1072"
             d="m 29.71,186.5 c -0.5638,-0.1194 -1.134,-0.1878 -1.706,-0.2322 -0.2947,0.3991 -0.8037,0.577 -1.283,0.4483 -0.2652,-0.0719 -0.4979,-0.2321 -0.6596,-0.4542 -0.5717,0.0406 -1.143,0.1048 -1.707,0.2203 -1.99,1.858 -4.302,3.29 -7.1,4.075 -0.392,0.4351 -0.7411,0.9025 -1.07,1.384 0.1102,0.2517 0.1311,0.5334 0.05937,0.7986 -0.1312,0.4779 -0.5412,0.8269 -1.034,0.8799 -0.2549,0.5252 -0.4875,1.061 -0.671,1.618 0.4292,2.734 0.5182,5.462 -0.02229,8.177 0.1804,0.5506 0.409,1.081 0.6591,1.601 0.06176,0.006 0.1229,0.0173 0.183,0.0331 0.6427,0.1745 1.022,0.837 0.8478,1.48 -0.01594,0.0577 -0.03621,0.1142 -0.06051,0.169 0.3245,0.4776 0.6685,0.9422 1.055,1.375 2.629,0.8068 5.019,2.117 7.082,4.113 0.5632,0.1194 1.133,0.1873 1.704,0.2317 0.295,-0.3984 0.8038,-0.5756 1.282,-0.4468 0.2645,0.072 0.4967,0.2321 0.658,0.4538 0.5713,-0.0403 1.141,-0.1041 1.705,-0.2192 2.114,-1.892 4.523,-3.165 7.103,-4.078 0.392,-0.4351 0.7411,-0.9025 1.07,-1.384 -0.1102,-0.2517 -0.1311,-0.5334 -0.05937,-0.7986 0.1312,-0.4779 0.5412,-0.8269 1.034,-0.8799 0.2549,-0.5252 0.4875,-1.061 0.671,-1.618 -0.5799,-2.751 -0.4825,-5.472 0.02145,-8.174 -0.1806,-0.552 -0.4092,-1.083 -0.6598,-1.604 -0.06073,-0.006 -0.1209,-0.017 -0.1799,-0.0323 -0.6423,-0.1735 -1.023,-0.8344 -0.8502,-1.477 0.01653,-0.0582 0.03737,-0.1151 0.06246,-0.1701 -0.3246,-0.4782 -0.6694,-0.9437 -1.056,-1.377 -2.612,-0.8905 -4.973,-2.26 -7.081,-4.112 z"
             inkscape:connector-curvature="0" />
          <ellipse
             id="ellipse1074"
             ry="9.0600004"
             rx="9.0539999"
             cy="-199.3"
             cx="27"
             transform="scale(1,-1)" />
        </g>
      </g>
      <g
         id="g1732"
         transform="matrix(2,0,0,2,-864.35074,-27.1076)"
         style="fill:#ffffff;stroke:#000000;stroke-width:0.80000001">
        <path
           id="path1724"
           d="m 628.2,398 a 12.13,12.13 0 0 0 -12.13,12.13 12.13,12.13 0 0 0 12.13,12.13 12.13,12.13 0 0 0 12.13,-12.13 A 12.13,12.13 0 0 0 628.2,398 Z m 0,2.312 a 9.818,9.818 0 0 1 9.816,9.816 9.818,9.818 0 0 1 -9.816,9.818 9.818,9.818 0 0 1 -9.818,-9.818 9.818,9.818 0 0 1 9.818,-9.816 z"
           inkscape:connector-curvature="0" />
        <path
           id="path1726"
           d="m 628.2,403.3 c -3.748,10e-6 -6.786,3.038 -6.787,6.786 0,3.748 3.038,6.787 6.787,6.787 3.748,-6e-4 6.786,-3.039 6.786,-6.787 -5e-4,-3.747 -3.038,-6.785 -6.786,-6.786 z m 0,1.602 c 2.862,5.6e-4 5.183,2.321 5.184,5.184 0,2.863 -2.321,5.184 -5.184,5.185 -2.864,0 -5.185,-2.321 -5.185,-5.185 6e-4,-2.863 2.322,-5.184 5.185,-5.184 z"
           inkscape:connector-curvature="0" />
        <path
           id="path1728"
           d="m 624.2,422.1 c 1.899,0.0227 11.59,-1.78 12.22,-2.32 0.6775,-0.5757 4.424,-11.09 4.264,-11.96 -0.1658,-0.8736 -7.393,-9.378 -8.23,-9.676 -0.8379,-0.298 -11.82,1.715 -12.49,2.291 -0.6775,0.5758 -4.424,11.09 -4.264,11.96 0.1648,0.8738 7.393,9.378 8.23,9.676 0.054,0.0147 0.1438,0.0274 0.2698,0.0299 z m 3.166,-2.55 c -5.216,-0.4567 -9.074,-5.055 -8.618,-10.27 0.4558,-5.216 5.054,-9.076 10.27,-8.62 5.217,0.456 9.077,5.056 8.62,10.27 -0.4568,5.216 -5.056,9.075 -10.27,8.618 z"
           inkscape:connector-curvature="0" />
        <path
           id="path1730"
           d="m 625.6,401.6 c -3.272,0 -5.906,2.634 -5.906,5.906 v 5.279 c 0,3.272 2.634,5.906 5.906,5.906 h 5.279 c 3.272,0 5.906,-2.634 5.906,-5.906 v -5.279 c 0,-3.272 -2.634,-5.906 -5.906,-5.906 z m 2.641,1.885 a 6.662,6.662 0 0 1 6.66,6.66 6.662,6.662 0 0 1 -6.66,6.662 6.662,6.662 0 0 1 -6.662,-6.662 6.662,6.662 0 0 1 6.662,-6.66 z"
           inkscape:connector-curvature="0" />
      </g>
      <g
         id="g1742"
         transform="matrix(2,0,0,2,-1004.3507,-27.1076)"
         style="fill:#ffffff;stroke:#000000;stroke-width:0.80000001">
        <path
           id="path1734"
           d="m 628.2,398 a 12.13,12.13 0 0 0 -12.13,12.13 12.13,12.13 0 0 0 12.13,12.13 12.13,12.13 0 0 0 12.13,-12.13 A 12.13,12.13 0 0 0 628.2,398 Z m 0,2.312 a 9.818,9.818 0 0 1 9.816,9.816 9.818,9.818 0 0 1 -9.816,9.818 9.818,9.818 0 0 1 -9.818,-9.818 9.818,9.818 0 0 1 9.818,-9.816 z"
           inkscape:connector-curvature="0" />
        <path
           id="path1736"
           d="m 628.2,403.3 c -3.748,10e-6 -6.786,3.038 -6.787,6.786 0,3.748 3.038,6.787 6.787,6.787 3.748,-6e-4 6.786,-3.039 6.786,-6.787 -5e-4,-3.747 -3.038,-6.785 -6.786,-6.786 z m 0,1.602 c 2.862,5.6e-4 5.183,2.321 5.184,5.184 0,2.863 -2.321,5.184 -5.184,5.185 -2.864,0 -5.185,-2.321 -5.185,-5.185 6e-4,-2.863 2.322,-5.184 5.185,-5.184 z"
           inkscape:connector-curvature="0" />
        <path
           id="path1738"
           d="m 624.2,422.1 c 1.899,0.0227 11.59,-1.78 12.22,-2.32 0.6775,-0.5757 4.424,-11.09 4.264,-11.96 -0.1658,-0.8736 -7.393,-9.378 -8.23,-9.676 -0.8379,-0.298 -11.82,1.715 -12.49,2.291 -0.6775,0.5758 -4.424,11.09 -4.264,11.96 0.1648,0.8738 7.393,9.378 8.23,9.676 0.054,0.0147 0.1438,0.0274 0.2698,0.0299 z m 3.166,-2.55 c -5.216,-0.4567 -9.074,-5.055 -8.618,-10.27 0.4558,-5.216 5.054,-9.076 10.27,-8.62 5.217,0.456 9.077,5.056 8.62,10.27 -0.4568,5.216 -5.056,9.075 -10.27,8.618 z"
           inkscape:connector-curvature="0" />
        <path
           id="path1740"
           d="m 625.6,401.6 c -3.272,0 -5.906,2.634 -5.906,5.906 v 5.279 c 0,3.272 2.634,5.906 5.906,5.906 h 5.279 c 3.272,0 5.906,-2.634 5.906,-5.906 v -5.279 c 0,-3.272 -2.634,-5.906 -5.906,-5.906 z m 2.641,1.885 a 6.662,6.662 0 0 1 6.66,6.66 6.662,6.662 0 0 1 -6.66,6.662 6.662,6.662 0 0 1 -6.662,-6.662 6.662,6.662 0 0 1 6.662,-6.66 z"
           inkscape:connector-curvature="0" />
      </g>
    </g>
  </g>
</svg>
