<?xml version="1.0" encoding="UTF-8" standalone="no"?>
<!-- Created with Inkscape (http://www.inkscape.org/) -->

<svg
   xmlns:dc="http://purl.org/dc/elements/1.1/"
   xmlns:cc="http://creativecommons.org/ns#"
   xmlns:rdf="http://www.w3.org/1999/02/22-rdf-syntax-ns#"
   xmlns:svg="http://www.w3.org/2000/svg"
   xmlns="http://www.w3.org/2000/svg"
   xmlns:sodipodi="http://sodipodi.sourceforge.net/DTD/sodipodi-0.dtd"
   xmlns:inkscape="http://www.inkscape.org/namespaces/inkscape"
   width="640"
   height="170"
   viewBox="0 0 640 170"
   version="1.1"
   id="svg8"
   inkscape:version="0.92.3 (2405546, 2018-03-11)"
   sodipodi:docname="phaseque-transmission.svg">
  <defs
     id="defs2" />
  <sodipodi:namedview
     id="base"
     pagecolor="#f5f5f5"
     bordercolor="#000000"
     borderopacity="0.16470588"
     inkscape:pageopacity="0"
     inkscape:pageshadow="2"
     inkscape:zoom="1.4142136"
     inkscape:cx="594.50585"
     inkscape:cy="81.40566"
     inkscape:document-units="px"
     inkscape:current-layer="layer1"
     showgrid="false"
     units="px"
     guidecolor="#00d1ae"
     guideopacity="0.49803922"
     inkscape:window-width="2727"
     inkscape:window-height="1324"
     inkscape:window-x="988"
     inkscape:window-y="461"
     inkscape:window-maximized="0">
    <inkscape:grid
       type="xygrid"
       id="grid815"
       color="#3fb6ff"
       opacity="0.1254902"
       empcolor="#3f96ff"
       empopacity="0.29019608" />
  </sodipodi:namedview>
  <metadata
     id="metadata5">
    <rdf:RDF>
      <cc:Work
         rdf:about="">
        <dc:format>image/svg+xml</dc:format>
        <dc:type
           rdf:resource="http://purl.org/dc/dcmitype/StillImage" />
        <dc:title></dc:title>
      </cc:Work>
    </rdf:RDF>
  </metadata>
  <g
     inkscape:label="Layer 1"
     inkscape:groupmode="layer"
     id="layer1"
     transform="translate(0,-656.5)">
    <path
       style="fill:none;stroke:#000000;stroke-width:1.39999998"
       inkscape:connector-curvature="0"
       id="path386"
       d="m 464.89853,723.4 h -260" />
    <g
       transform="matrix(2,0,0,2,-9.101471,598.38)"
       aria-label="MANUAL"
       id="g428">
      <path
         d="m 273.5,44.04 -0.01,-4.623 -2.292,3.826 h -0.5778 l -2.292,-3.766 v 4.563 h -1.235 v -6.974 h 1.066 l 2.77,4.623 2.72,-4.623 h 1.066 l 0.01,6.974 z"
         id="path416"
         inkscape:connector-curvature="0" />
      <path
         d="m 281.1,42.42 h -3.487 l -0.6874,1.614 h -1.335 l 3.138,-6.974 h 1.275 l 3.148,6.974 h -1.355 z m -0.4284,-1.016 -1.315,-3.049 -1.305,3.049 z"
         id="path418"
         inkscape:connector-curvature="0" />
      <path
         d="m 290.2,37.06 v 6.974 h -1.066 l -3.846,-4.722 v 4.722 h -1.285 V 37.06 h 1.066 l 3.846,4.722 V 37.06 Z"
         id="path420"
         inkscape:connector-curvature="0" />
      <path
         d="m 295.1,44.14 q -1.445,0 -2.252,-0.807 -0.807,-0.817 -0.807,-2.331 v -3.935 h 1.295 v 3.886 q 0,2.052 1.773,2.052 1.763,0 1.763,-2.052 v -3.886 h 1.275 v 3.935 q 0,1.514 -0.807,2.331 -0.797,0.807 -2.242,0.807 z"
         id="path422"
         inkscape:connector-curvature="0" />
      <path
         d="m 304.3,42.42 h -3.487 l -0.6874,1.614 h -1.335 l 3.138,-6.974 h 1.275 l 3.148,6.974 h -1.355 z m -0.4284,-1.016 -1.315,-3.049 -1.305,3.049 z"
         id="path424"
         inkscape:connector-curvature="0" />
      <path
         d="m 307.3,37.06 h 1.295 v 5.878 h 3.646 v 1.096 h -4.942 z"
         id="path426"
         inkscape:connector-curvature="0" />
    </g>
    <g
       transform="matrix(2,0,0,2,-9.101471,598.38)"
       id="g436"
       style="fill:none;stroke:#000000;stroke-width:0.69999999">
      <path
         d="M 47,93.51 H 34"
         id="path430"
         inkscape:connector-curvature="0" />
      <path
         d="M 281,72.48 C 265.03,63.514 255.85,62.34 244.72,62.511"
         id="path432"
         inkscape:connector-curvature="0" />
      <path
         d="m 166.5,86.01 v -15"
         id="path434"
         inkscape:connector-curvature="0" />
    </g>
    <g
       transform="matrix(2,0,0,2,-9.101471,598.38)"
       aria-label="RESO"
       id="g446">
      <path
         d="m 160.3,42.94 -0.9955,-1.427 q -0.0627,0.007 -0.188,0.007 h -1.1 v 1.42 h -0.905 v -4.873 h 2.005 q 0.6335,0 1.1,0.2088 0.4734,0.2088 0.724,0.5987 0.2506,0.3899 0.2506,0.9259 0,0.55 -0.2715,0.9468 -0.2645,0.3968 -0.7658,0.5917 l 1.121,1.601 z m -0.0209,-3.14 q 0,-0.4664 -0.3063,-0.717 -0.3063,-0.2506 -0.898,-0.2506 h -1.058 v 1.942 h 1.058 q 0.5917,0 0.898,-0.2506 0.3063,-0.2576 0.3063,-0.724 z"
         id="path438"
         inkscape:connector-curvature="0" />
      <path
         d="m 165.9,42.18 v 0.7588 h -3.655 v -4.873 h 3.557 v 0.7588 h -2.652 v 1.267 h 2.353 v 0.7449 h -2.353 v 1.344 z"
         id="path440"
         inkscape:connector-curvature="0" />
      <path
         d="m 168.4,43.01 q -0.5639,0 -1.093,-0.1601 -0.5221,-0.1601 -0.8284,-0.4247 l 0.3133,-0.7031 q 0.2994,0.2367 0.731,0.3899 0.4386,0.1462 0.8772,0.1462 0.543,0 0.8076,-0.174 0.2715,-0.174 0.2715,-0.4595 0,-0.2088 -0.1532,-0.3411 -0.1462,-0.1392 -0.3759,-0.2158 -0.2297,-0.07658 -0.6266,-0.174 -0.5569,-0.1323 -0.905,-0.2645 -0.3411,-0.1323 -0.5917,-0.4107 -0.2437,-0.2854 -0.2437,-0.7658 0,-0.4038 0.2158,-0.731 0.2228,-0.3342 0.6614,-0.5291 0.4455,-0.1949 1.086,-0.1949 0.4455,0 0.8772,0.1114 0.4317,0.1114 0.7449,0.3202 l -0.2854,0.7031 q -0.3202,-0.188 -0.6683,-0.2854 -0.3481,-0.09746 -0.6753,-0.09746 -0.536,0 -0.8006,0.181 -0.2576,0.181 -0.2576,0.4804 0,0.2088 0.1462,0.3411 0.1532,0.1323 0.3829,0.2088 0.2297,0.07658 0.6266,0.174 0.543,0.1253 0.8911,0.2645 0.3481,0.1323 0.5917,0.4107 0.2506,0.2785 0.2506,0.7519 0,0.4038 -0.2228,0.731 -0.2158,0.3272 -0.6614,0.5221 -0.4456,0.1949 -1.086,0.1949 z"
         id="path442"
         inkscape:connector-curvature="0" />
      <path
         d="m 173.5,43.01 q -0.7449,0 -1.344,-0.3202 -0.5987,-0.3272 -0.9398,-0.8981 -0.3411,-0.5778 -0.3411,-1.288 0,-0.7102 0.3411,-1.281 0.3411,-0.5778 0.9398,-0.8981 0.5987,-0.3272 1.344,-0.3272 0.7449,0 1.344,0.3272 0.5987,0.3202 0.9398,0.8911 0.3411,0.5709 0.3411,1.288 0,0.717 -0.3411,1.288 -0.3411,0.5709 -0.9398,0.8981 -0.5987,0.3202 -1.344,0.3202 z m 0,-0.7936 q 0.4873,0 0.8772,-0.2158 0.3898,-0.2228 0.6126,-0.6126 0.2228,-0.3968 0.2228,-0.8841 0,-0.4873 -0.2228,-0.8772 -0.2228,-0.3968 -0.6126,-0.6126 -0.3898,-0.2228 -0.8772,-0.2228 -0.4873,0 -0.8772,0.2228 -0.3898,0.2158 -0.6126,0.6126 -0.2228,0.3899 -0.2228,0.8772 0,0.4873 0.2228,0.8841 0.2228,0.3899 0.6126,0.6126 0.3898,0.2158 0.8772,0.2158 z"
         id="path444"
         inkscape:connector-curvature="0" />
    </g>
    <g
       transform="matrix(2,0,0,2,-9.101471,598.38)"
       aria-label="RESET"
       id="g458">
      <path
         d="m 228.8,42.94 -0.9955,-1.427 q -0.0626,0.007 -0.188,0.007 h -1.1 v 1.42 h -0.905 v -4.873 h 2.005 q 0.6335,0 1.1,0.2088 0.4734,0.2088 0.724,0.5987 0.2506,0.3899 0.2506,0.9259 0,0.55 -0.2715,0.9468 -0.2646,0.3968 -0.7658,0.5917 l 1.121,1.601 z m -0.0209,-3.14 q 0,-0.4664 -0.3063,-0.717 -0.3063,-0.2506 -0.898,-0.2506 h -1.058 v 1.942 h 1.058 q 0.5917,0 0.898,-0.2506 0.3063,-0.2576 0.3063,-0.724 z"
         id="path448"
         inkscape:connector-curvature="0" />
      <path
         d="m 234.4,42.18 v 0.7588 h -3.655 v -4.873 h 3.557 v 0.7588 h -2.652 v 1.267 h 2.353 v 0.7449 h -2.353 v 1.344 z"
         id="path450"
         inkscape:connector-curvature="0" />
      <path
         d="m 236.9,43.01 q -0.5639,0 -1.093,-0.1601 -0.5221,-0.1601 -0.8284,-0.4247 l 0.3133,-0.7031 q 0.2994,0.2367 0.731,0.3899 0.4386,0.1462 0.8772,0.1462 0.543,0 0.8076,-0.174 0.2715,-0.174 0.2715,-0.4595 0,-0.2088 -0.1532,-0.3411 -0.1462,-0.1392 -0.3759,-0.2158 -0.2297,-0.07658 -0.6266,-0.174 -0.5569,-0.1323 -0.905,-0.2645 -0.3411,-0.1323 -0.5917,-0.4107 -0.2437,-0.2854 -0.2437,-0.7658 0,-0.4038 0.2158,-0.731 0.2228,-0.3342 0.6614,-0.5291 0.4455,-0.1949 1.086,-0.1949 0.4456,0 0.8772,0.1114 0.4316,0.1114 0.7449,0.3202 l -0.2854,0.7031 q -0.3202,-0.188 -0.6683,-0.2854 -0.3481,-0.09746 -0.6753,-0.09746 -0.536,0 -0.8006,0.181 -0.2576,0.181 -0.2576,0.4804 0,0.2088 0.1462,0.3411 0.1532,0.1323 0.3829,0.2088 0.2297,0.07658 0.6266,0.174 0.543,0.1253 0.8911,0.2645 0.3481,0.1323 0.5917,0.4107 0.2506,0.2785 0.2506,0.7519 0,0.4038 -0.2228,0.731 -0.2158,0.3272 -0.6614,0.5221 -0.4456,0.1949 -1.086,0.1949 z"
         id="path452"
         inkscape:connector-curvature="0" />
      <path
         d="m 243.4,42.18 v 0.7588 h -3.655 v -4.873 h 3.557 v 0.7588 h -2.652 v 1.267 h 2.353 v 0.7449 h -2.353 v 1.344 z"
         id="path454"
         inkscape:connector-curvature="0" />
      <path
         d="m 245.4,38.83 h -1.615 v -0.7658 h 4.135 V 38.83 h -1.615 v 4.107 H 245.4 Z"
         id="path456"
         inkscape:connector-curvature="0" />
    </g>
    <path
       d="m 463.89853,764.4 v -24"
       id="path460"
       inkscape:connector-curvature="0"
       style="fill:none;stroke:#000000;stroke-width:1.39999998" />
    <g
       transform="matrix(2,0,0,2,-9.101471,598.38)"
       aria-label="ABS"
       id="g482">
      <path
         d="m 127.8,41.81 h -2.437 l -0.4804,1.128 h -0.9329 l 2.193,-4.873 h 0.8911 l 2.2,4.873 h -0.9468 z m -0.2994,-0.7101 -0.9189,-2.13 -0.912,2.13 z"
         id="path476"
         inkscape:connector-curvature="0" />
      <path
         d="m 133.3,40.41 q 0.4038,0.1323 0.6405,0.4455 0.2367,0.3063 0.2367,0.7658 0,0.6335 -0.4873,0.9816 -0.4873,0.3411 -1.42,0.3411 h -2.423 v -4.873 h 2.283 q 0.8632,0 1.33,0.3411 0.4664,0.3342 0.4664,0.9259 0,0.362 -0.1671,0.6405 -0.1671,0.2785 -0.4595,0.4316 z m -2.548,-1.629 v 1.344 h 1.281 q 0.4734,0 0.724,-0.1671 0.2576,-0.174 0.2576,-0.5012 0,-0.3342 -0.2576,-0.5012 -0.2506,-0.174 -0.724,-0.174 z m 1.462,3.453 q 1.051,0 1.051,-0.7031 0,-0.7031 -1.051,-0.7031 h -1.462 v 1.406 z"
         id="path478"
         inkscape:connector-curvature="0" />
      <path
         d="m 136.7,43.01 q -0.5639,0 -1.093,-0.1601 -0.5221,-0.1601 -0.8284,-0.4247 l 0.3133,-0.7031 q 0.2994,0.2367 0.731,0.3899 0.4386,0.1462 0.8772,0.1462 0.543,0 0.8076,-0.174 0.2715,-0.174 0.2715,-0.4595 0,-0.2088 -0.1532,-0.3411 -0.1462,-0.1392 -0.3759,-0.2158 -0.2297,-0.07658 -0.6266,-0.174 -0.5569,-0.1323 -0.905,-0.2645 -0.3411,-0.1323 -0.5917,-0.4107 -0.2437,-0.2854 -0.2437,-0.7658 0,-0.4038 0.2158,-0.731 0.2228,-0.3342 0.6614,-0.5291 0.4456,-0.1949 1.086,-0.1949 0.4456,0 0.8772,0.1114 0.4316,0.1114 0.7449,0.3202 l -0.2854,0.7031 q -0.3202,-0.188 -0.6683,-0.2854 -0.3481,-0.09746 -0.6753,-0.09746 -0.536,0 -0.8006,0.181 -0.2576,0.181 -0.2576,0.4804 0,0.2088 0.1462,0.3411 0.1532,0.1323 0.3829,0.2088 0.2297,0.07658 0.6266,0.174 0.543,0.1253 0.8911,0.2645 0.3481,0.1323 0.5917,0.4107 0.2506,0.2785 0.2506,0.7519 0,0.4038 -0.2228,0.731 -0.2158,0.3272 -0.6614,0.5221 -0.4455,0.1949 -1.086,0.1949 z"
         id="path480"
         inkscape:connector-curvature="0" />
    </g>
    <g
       transform="matrix(2,0,0,2,-9.101471,598.38)"
       aria-label="/"
       id="g486"
       style="fill:#eaeae3">
      <path
         d="m 148.4,37.08 h 0.7797 l -2.297,6.558 h -0.7797 z"
         id="path484"
         inkscape:connector-curvature="0"
         style="fill:#000000" />
    </g>
    <g
       transform="matrix(2,0,0,2,-9.101471,598.38)"
       id="g494"
       style="fill:none;stroke:#000000;stroke-width:0.69999999">
      <path
         d="M 87,93.51 H 76"
         id="path488"
         inkscape:connector-curvature="0" />
      <path
         d="m 96.5,86.01 v -15"
         id="path490"
         inkscape:connector-curvature="0" />
      <path
         d="m 94.21,80.39 2.286,-2.602 2.286,2.602"
         id="path492"
         inkscape:connector-curvature="0"
         style="stroke-linecap:round;stroke-linejoin:round" />
    </g>
    <g
       transform="matrix(2,0,0,2,-9.101471,598.38)"
       id="g526"
       style="fill:none;stroke:#000000;stroke-width:0.69999999">
      <path
         d="m 26.5,86.01 v -15"
         id="path520"
         inkscape:connector-curvature="0" />
      <path
         d="m 79.43,91.22 2.602,2.286 -2.602,2.286"
         id="path522"
         inkscape:connector-curvature="0"
         style="stroke-linecap:round;stroke-linejoin:round" />
      <path
         d="m 41.26,91.22 2.602,2.286 -2.602,2.286"
         id="path524"
         inkscape:connector-curvature="0"
         style="stroke-linecap:round;stroke-linejoin:round" />
    </g>
    <path
       style="fill:none;stroke:#000000;stroke-width:1.39999998"
       inkscape:connector-curvature="0"
       id="path540"
       d="m 113.89853,770.4 v -30" />
    <g
       transform="matrix(2,0,0,2,-9.101471,598.38)"
       style="fill:none;stroke:#000000;stroke-width:0.69999999;stroke-linecap:round;stroke-linejoin:round"
       id="g552">
      <path
         inkscape:connector-curvature="0"
         id="path542"
         d="m 113.8,60.22 2.602,2.286 -2.602,2.286" />
      <path
         inkscape:connector-curvature="0"
         id="path544"
         d="m 145.9,60.22 2.602,2.286 -2.602,2.286" />
      <path
         inkscape:connector-curvature="0"
         id="path546"
         d="m 184.9,60.22 2.602,2.286 -2.602,2.286" />
      <path
         inkscape:connector-curvature="0"
         id="path548"
         d="m 217.9,60.22 2.602,2.286 -2.602,2.286" />
      <path
         inkscape:connector-curvature="0"
         id="path550"
         d="m 251.1,60.32 2.48,2.419 -2.717,2.148" />
    </g>
    <g
       transform="matrix(2,0,0,2,60.273529,966.38)"
       id="use1235"
       style="stroke:#000000">
      <g
         style="fill:none"
         id="g1901"
         transform="matrix(0.4021,0,0,0.4017,-3.286,-135.3)">
        <path
           style="stroke-width:0.60000002;stroke-linecap:round;stroke-linejoin:round"
           inkscape:connector-curvature="0"
           id="path1895"
           d="m 19.07,-103.3 c -1.059,0.6205 -2.036,1.371 -2.908,2.234 -5.741,5.74 -5.741,15.05 0,20.79 m 20.79,0 c 5.741,-5.74 5.741,-15.05 0,-20.79 -0.8681,-0.8623 -1.84,-1.613 -2.895,-2.234"
           transform="matrix(2.487,0,0,2.49,8.95,336.8)" />
        <path
           style="stroke-width:1.74199998"
           inkscape:connector-curvature="0"
           id="path1897"
           d="M 75,111 45.73,140.27" />
        <path
           style="stroke-width:1.74199998"
           inkscape:connector-curvature="0"
           id="path1899"
           d="m 75,111 29.27,29.27" />
      </g>
      <g
         style="fill:#ffffff;stroke-width:0.80000001;stroke-miterlimit:3.20000005"
         id="g1915"
         stroke-miterlimit="3.2"
         transform="translate(-175.6,-263)">
        <circle
           style="stroke-linecap:round;stroke-linejoin:round"
           id="circle1903"
           r="11.83"
           cy="172.3"
           cx="202.5" />
        <path
           inkscape:connector-curvature="0"
           id="path1905"
           d="m 202.5,160.5 a 11.83,11.83 0 0 0 -1.01,0.05 c -0.2409,0.3388 -0.3902,0.7602 -0.4888,1.073 l 1.499,10.71 1.494,-10.7 c -0.0751,-0.321 -0.2192,-0.7399 -0.4664,-1.076 a 11.83,11.83 0 0 0 -1.028,-0.0518 z m 0,11.83 6.647,-8.523 c 0.0955,-0.3156 0.1793,-0.7512 0.133,-1.166 a 11.83,11.83 0 0 0 -1.774,-1.016 c -0.3744,0.1735 -0.7102,0.461 -0.95,0.6806 z m 0,0 10.02,-4.057 c 0.2384,-0.2236 0.5279,-0.5547 0.6961,-0.9328 a 11.83,11.83 0 0 0 -1.024,-1.777 c -0.4113,-0.0377 -0.8466,0.0437 -1.164,0.114 z m 0,0 10.7,1.496 c 0.3207,-0.075 0.7384,-0.2196 1.074,-0.4664 a 11.83,11.83 0 0 0 0.0536,-1.029 11.83,11.83 0 0 0 -0.0518,-1.01 c -0.3384,-0.2405 -0.7591,-0.3904 -1.071,-0.4888 z m 0,0 8.523,6.647 c 0.316,0.0956 0.7524,0.1793 1.168,0.133 a 11.83,11.83 0 0 0 1.014,-1.772 c -0.1735,-0.3744 -0.461,-0.7102 -0.6806,-0.95 z m 0,0 4.056,10.02 c 0.2236,0.2384 0.5543,0.5279 0.9328,0.6961 a 11.83,11.83 0 0 0 1.779,-1.026 c 0.0369,-0.4108 -0.0455,-0.8453 -0.1157,-1.162 z m 0,0 -1.496,10.7 c 0.0751,0.321 0.2192,0.74 0.4664,1.076 a 11.83,11.83 0 0 0 1.029,0.0518 11.83,11.83 0 0 0 1.009,-0.0501 c 0.2413,-0.3388 0.3919,-0.7602 0.4906,-1.073 z m 0,0 -6.648,8.523 c -0.0956,0.316 -0.1797,0.7524 -0.133,1.168 a 11.83,11.83 0 0 0 1.774,1.016 c 0.3744,-0.1731 0.7102,-0.461 0.95,-0.6806 z m 0,0 -10.02,4.057 c -0.2384,0.2236 -0.5279,0.5543 -0.6961,0.9327 a 11.83,11.83 0 0 0 1.028,1.779 c 0.4103,0.0364 0.844,-0.0456 1.161,-0.1157 z m 0,0 -10.7,-1.494 c -0.321,0.0751 -0.74,0.2192 -1.076,0.4664 a 11.83,11.83 0 0 0 -0.0518,1.028 11.83,11.83 0 0 0 0.05,1.01 c 0.3383,0.2409 0.7584,0.3902 1.071,0.4888 z m 0,0 -8.523,-6.647 c -0.3164,-0.0957 -0.7536,-0.1797 -1.169,-0.133 a 11.83,11.83 0 0 0 -1.014,1.772 c 0.1731,0.3749 0.461,0.712 0.6806,0.9518 z m 0,0 -4.057,-10.02 c -0.224,-0.2388 -0.5554,-0.528 -0.9345,-0.6961 a 11.83,11.83 0 0 0 -1.777,1.024 c -0.0372,0.4113 0.0455,0.8466 0.1157,1.164 z" />
        <g
           style="stroke-linecap:round;stroke-linejoin:round"
           id="g1913">
          <path
             inkscape:connector-curvature="0"
             id="path1907"
             d="m 201,161.6 a 10.8,10.8 0 0 0 -2.553,0.6754 2.332,2.332 0 0 1 0,0.002 2.332,2.332 0 0 1 -1.028,1.225 2.332,2.332 0 0 1 -1.574,0.2729 10.8,10.8 0 0 0 -1.86,1.874 2.332,2.332 0 0 1 -0.2781,1.567 2.332,2.332 0 0 1 -1.223,1.023 10.8,10.8 0 0 0 -0.6788,2.553 2.332,2.332 0 0 1 0.5441,1.496 2.332,2.332 0 0 1 -0.5441,1.494 10.8,10.8 0 0 0 0.6771,2.551 2.332,2.332 0 0 1 1.225,1.028 2.332,2.332 0 0 1 0.2729,1.574 10.8,10.8 0 0 0 1.878,1.862 2.332,2.332 0 0 1 0.285,-0.0345 2.332,2.332 0 0 1 1.276,0.3109 2.332,2.332 0 0 1 1.024,1.223 10.8,10.8 0 0 0 2.555,0.6771 2.332,2.332 0 0 1 1.494,-0.5424 2.332,2.332 0 0 1 1.492,0.5441 10.8,10.8 0 0 0 2.551,-0.6754 2.332,2.332 0 0 1 0,-0.002 2.332,2.332 0 0 1 1.028,-1.225 2.332,2.332 0 0 1 1.111,-0.3126 2.332,2.332 0 0 1 0.4629,0.0396 10.8,10.8 0 0 0 1.86,-1.874 2.332,2.332 0 0 1 0.2781,-1.565 2.332,2.332 0 0 1 1.225,-1.028 10.8,10.8 0 0 0 0.6771,-2.551 2.332,2.332 0 0 1 -0.5424,-1.494 2.332,2.332 0 0 1 0.5441,-1.494 10.8,10.8 0 0 0 -0.6771,-2.55 2.332,2.332 0 0 1 -0.002,0 2.332,2.332 0 0 1 -1.225,-1.028 2.332,2.332 0 0 1 -0.2746,-1.574 10.8,10.8 0 0 0 -1.874,-1.862 2.332,2.332 0 0 1 -1.563,-0.2781 2.332,2.332 0 0 1 -1.023,-1.221 10.8,10.8 0 0 0 -2.555,-0.6788 2.332,2.332 0 0 1 -1.494,0.5424 2.332,2.332 0 0 1 -1.492,-0.5441 z" />
          <ellipse
             id="ellipse1909"
             ry="7.4590001"
             rx="7.454"
             cy="-172.3"
             cx="202.5"
             transform="scale(1,-1)" />
          <path
             inkscape:connector-curvature="0"
             id="path1911"
             d="m 201.8,160.5 c -0.1815,0.007 -0.345,0.0378 -0.5185,0.0553 v 5.149 c 0,0.477 0.3841,0.8613 0.8607,0.8613 h 0.7224 c 0.4766,0 0.8607,-0.3843 0.8607,-0.8613 v -5.164 c -0.3882,-0.0388 -0.7922,-0.0564 -1.222,-0.0398 -0.2412,-0.009 -0.4756,-0.009 -0.7034,1e-5 z" />
        </g>
      </g>
    </g>
    <g
       transform="matrix(2,0,0,2,-81.021471,440.5)"
       id="g1245"
       style="fill:#ffffff;stroke:#000000;stroke-width:0.80000001;stroke-opacity:0.99659998">
      <circle
         cx="202.5"
         cy="172.3"
         r="11.83"
         id="circle1237"
         style="stroke-linecap:round;stroke-linejoin:round" />
      <path
         d="m 202.5,160.5 a 11.83,11.83 0 0 0 -1.01,0.05 c -0.2409,0.3388 -0.3902,0.7602 -0.4888,1.073 l 1.499,10.71 1.494,-10.7 c -0.0751,-0.321 -0.2192,-0.7399 -0.4664,-1.076 a 11.83,11.83 0 0 0 -1.028,-0.0518 z m 0,11.83 6.647,-8.523 c 0.0955,-0.3156 0.1793,-0.7512 0.133,-1.166 a 11.83,11.83 0 0 0 -1.774,-1.016 c -0.3744,0.1735 -0.7102,0.461 -0.95,0.6806 z m 0,0 10.02,-4.057 c 0.2384,-0.2236 0.5279,-0.5547 0.6961,-0.9328 a 11.83,11.83 0 0 0 -1.024,-1.777 c -0.4113,-0.0377 -0.8466,0.0437 -1.164,0.114 z m 0,0 10.7,1.496 c 0.3207,-0.075 0.7384,-0.2196 1.074,-0.4664 a 11.83,11.83 0 0 0 0.0536,-1.029 11.83,11.83 0 0 0 -0.0518,-1.01 c -0.3384,-0.2405 -0.7591,-0.3904 -1.071,-0.4888 z m 0,0 8.523,6.647 c 0.316,0.0956 0.7524,0.1793 1.168,0.133 a 11.83,11.83 0 0 0 1.014,-1.772 c -0.1735,-0.3744 -0.461,-0.7102 -0.6806,-0.95 z m 0,0 4.056,10.02 c 0.2236,0.2384 0.5543,0.5279 0.9328,0.6961 a 11.83,11.83 0 0 0 1.779,-1.026 c 0.0369,-0.4108 -0.0455,-0.8453 -0.1157,-1.162 z m 0,0 -1.496,10.7 c 0.0751,0.321 0.2192,0.74 0.4664,1.076 a 11.83,11.83 0 0 0 1.029,0.0518 11.83,11.83 0 0 0 1.009,-0.0501 c 0.2413,-0.3388 0.3919,-0.7602 0.4906,-1.073 z m 0,0 -6.648,8.523 c -0.0956,0.316 -0.1797,0.7524 -0.133,1.168 a 11.83,11.83 0 0 0 1.774,1.016 c 0.3744,-0.1731 0.7102,-0.461 0.95,-0.6806 z m 0,0 -10.02,4.057 c -0.2384,0.2236 -0.5279,0.5543 -0.6961,0.9327 a 11.83,11.83 0 0 0 1.028,1.779 c 0.4103,0.0364 0.844,-0.0456 1.161,-0.1157 z m 0,0 -10.7,-1.494 c -0.321,0.0751 -0.74,0.2192 -1.076,0.4664 a 11.83,11.83 0 0 0 -0.0518,1.028 11.83,11.83 0 0 0 0.05,1.01 c 0.3383,0.2409 0.7584,0.3902 1.071,0.4888 z m 0,0 -8.523,-6.647 c -0.3164,-0.0957 -0.7536,-0.1797 -1.169,-0.133 a 11.83,11.83 0 0 0 -1.014,1.772 c 0.1731,0.3749 0.461,0.712 0.6806,0.9518 z m 0,0 -4.057,-10.02 c -0.224,-0.2388 -0.5554,-0.528 -0.9345,-0.6961 a 11.83,11.83 0 0 0 -1.777,1.024 c -0.0372,0.4113 0.0455,0.8466 0.1157,1.164 z"
         id="path1239"
         inkscape:connector-curvature="0" />
      <path
         d="m 201,161.6 a 10.8,10.8 0 0 0 -2.553,0.6754 2.332,2.332 0 0 1 0,0.002 2.332,2.332 0 0 1 -1.028,1.225 2.332,2.332 0 0 1 -1.574,0.2729 10.8,10.8 0 0 0 -1.86,1.874 2.332,2.332 0 0 1 -0.2781,1.567 2.332,2.332 0 0 1 -1.223,1.023 10.8,10.8 0 0 0 -0.6788,2.553 2.332,2.332 0 0 1 0.5441,1.496 2.332,2.332 0 0 1 -0.5441,1.494 10.8,10.8 0 0 0 0.6771,2.551 2.332,2.332 0 0 1 1.225,1.028 2.332,2.332 0 0 1 0.2729,1.574 10.8,10.8 0 0 0 1.878,1.862 2.332,2.332 0 0 1 0.285,-0.0345 2.332,2.332 0 0 1 1.276,0.3109 2.332,2.332 0 0 1 1.024,1.223 10.8,10.8 0 0 0 2.555,0.6771 2.332,2.332 0 0 1 1.494,-0.5424 2.332,2.332 0 0 1 1.492,0.5441 10.8,10.8 0 0 0 2.551,-0.6754 2.332,2.332 0 0 1 0,-0.002 2.332,2.332 0 0 1 1.028,-1.225 2.332,2.332 0 0 1 1.111,-0.3126 2.332,2.332 0 0 1 0.4629,0.0396 10.8,10.8 0 0 0 1.86,-1.874 2.332,2.332 0 0 1 0.2781,-1.565 2.332,2.332 0 0 1 1.225,-1.028 10.8,10.8 0 0 0 0.6771,-2.551 2.332,2.332 0 0 1 -0.5424,-1.494 2.332,2.332 0 0 1 0.5441,-1.494 10.8,10.8 0 0 0 -0.6771,-2.55 2.332,2.332 0 0 1 -0.002,0 2.332,2.332 0 0 1 -1.225,-1.028 2.332,2.332 0 0 1 -0.2746,-1.574 10.8,10.8 0 0 0 -1.874,-1.862 2.332,2.332 0 0 1 -1.563,-0.2781 2.332,2.332 0 0 1 -1.023,-1.221 10.8,10.8 0 0 0 -2.555,-0.6788 2.332,2.332 0 0 1 -1.494,0.5424 2.332,2.332 0 0 1 -1.492,-0.5441 z"
         id="path1241"
         inkscape:connector-curvature="0"
         style="stroke-linecap:round;stroke-linejoin:round" />
      <ellipse
         transform="scale(1,-1)"
         cx="202.5"
         cy="-172.3"
         rx="7.454"
         ry="7.4590001"
         id="ellipse1243"
         style="stroke-linecap:round;stroke-linejoin:round" />
    </g>
    <g
       transform="matrix(7.56,0,0,7.56,458.89853,-1306.62)"
       id="g1255">
      <rect
         x="-21.700001"
         y="265.79999"
         width="7.6729999"
         height="5.5560002"
         rx="0.79369998"
         ry="0.79369998"
         id="rect1247"
         style="fill-opacity:0.98229998" />
      <rect
         x="-21.17"
         y="266.29999"
         width="6.6149998"
         height="4.4980001"
         rx="0.26460001"
         ry="0.26460001"
         id="rect1249"
         style="fill:#ffffff;fill-opacity:0.98229998" />
      <g
         aria-label="8"
         id="g1253"
         style="fill:#ffd42a">
        <path
           d="m -17.46,269.8 -0.08516,-0.0881 0.09397,-1.069 h 0.05286 l 0.03524,0.0382 0.1645,0.1791 -0.06461,0.7606 z m 0.1204,-1.377 -0.04111,0.0382 h -0.05286 l 0.09104,-1.066 0.09985,-0.091 0.1644,0.1791 -0.06461,0.7606 z m 0.2379,-1.248 0.09691,-0.091 h 1.195 l 0.08223,0.091 -0.1968,0.1821 h -1.013 z m 1.131,1.242 0.1233,0.1351 -0.1468,0.1351 h -1.104 l -0.1233,-0.1351 0.1468,-0.1351 z m 0.3612,-1.113 0.08516,0.0881 -0.09397,1.069 h -0.05286 l -0.03524,-0.0382 -0.1645,-0.1791 0.06461,-0.7606 z m -0.3583,2.625 -0.09691,0.091 h -1.195 l -0.08223,-0.091 0.1968,-0.1821 h 1.013 z m 0.2379,-1.248 0.04111,-0.0382 h 0.05286 l -0.09103,1.069 -0.09985,0.0881 -0.1644,-0.1791 0.06461,-0.7576 z"
           id="path1251"
           inkscape:connector-curvature="0"
           style="fill:#000000;stroke-width:0.26460001" />
      </g>
    </g>
    <g
       transform="matrix(7.56,0,0,7.56,246.89853,-962.62)"
       id="g1277">
      <rect
         x="-11.64"
         y="228.5"
         width="15.35"
         height="5.5560002"
         rx="0.79369998"
         ry="0.79369998"
         id="rect1257"
         style="fill-opacity:0.98229998" />
      <rect
         x="-11.11"
         y="229"
         width="14.29"
         height="4.4980001"
         rx="0.26460001"
         ry="0.26460001"
         id="rect1259"
         style="fill:#ffffff;fill-opacity:0.98229998" />
      <g
         aria-label="120."
         id="g1269"
         style="stroke-width:0.26460001">
        <path
           d="m -7.983,230 0.08516,0.0881 -0.09397,1.069 h -0.05286 l -0.03524,-0.0382 -0.1645,-0.1791 0.06461,-0.7606 z m -0.1204,1.377 0.04111,-0.0382 h 0.05286 l -0.09104,1.069 -0.09984,0.0881 -0.1645,-0.1791 0.06461,-0.7576 z"
           id="path1261"
           inkscape:connector-curvature="0" />
        <path
           d="m -7.195,232.5 -0.08516,-0.0881 0.09397,-1.069 h 0.05286 l 0.03524,0.0382 0.1645,0.1791 -0.06461,0.7606 z m 0.3583,-2.625 0.09691,-0.091 h 1.195 l 0.08222,0.091 -0.1968,0.1821 h -1.013 z m 1.131,1.242 0.1233,0.1351 -0.1468,0.1351 h -1.104 l -0.1233,-0.1351 0.1468,-0.1351 z m 0.3612,-1.113 0.08516,0.0881 -0.09397,1.069 h -0.05286 l -0.03524,-0.0382 -0.1645,-0.1791 0.06461,-0.7606 z m -0.3583,2.625 -0.09691,0.091 h -1.195 l -0.08222,-0.091 0.1968,-0.1821 h 1.013 z"
           id="path1263"
           inkscape:connector-curvature="0" />
        <path
           d="m -4.556,232.5 -0.08516,-0.0881 0.09397,-1.069 h 0.05286 l 0.03524,0.0382 0.1645,0.1791 -0.06461,0.7606 z m 0.1204,-1.377 -0.04111,0.0382 h -0.05286 l 0.09104,-1.066 0.09984,-0.091 0.1645,0.1791 -0.06461,0.7606 z m 0.2379,-1.248 0.09691,-0.091 h 1.195 l 0.08222,0.091 -0.1968,0.1821 h -1.013 z m 1.492,0.1292 0.08516,0.0881 -0.09397,1.069 h -0.05286 l -0.03524,-0.0382 -0.1645,-0.1791 0.06461,-0.7606 z m -0.3583,2.625 -0.09691,0.091 h -1.195 l -0.08222,-0.091 0.1968,-0.1821 h 1.013 z m 0.2379,-1.248 0.04111,-0.0382 h 0.05286 l -0.09104,1.069 -0.09984,0.0881 -0.1645,-0.1791 0.06461,-0.7576 z"
           id="path1265"
           inkscape:connector-curvature="0" />
        <path
           d="m -2.152,232.5 q 0.01468,0.0352 0.01468,0.0705 0,0.0352 -0.01468,0.0705 -0.01468,0.0352 -0.03818,0.0587 -0.0235,0.0235 -0.05873,0.0382 -0.03523,0.0147 -0.07048,0.0147 -0.03525,0 -0.07048,-0.0147 -0.03523,-0.0147 -0.05873,-0.0382 -0.0235,-0.0235 -0.03818,-0.0587 -0.01468,-0.0352 -0.01468,-0.0705 0,-0.0352 0.01468,-0.0705 0.01468,-0.0352 0.03818,-0.0587 0.0235,-0.0235 0.05873,-0.0382 0.03523,-0.0147 0.07048,-0.0147 0.03524,0 0.07048,0.0147 0.03524,0.0147 0.05873,0.0382 0.02349,0.0235 0.03818,0.0587 z"
           id="path1267"
           inkscape:connector-curvature="0" />
      </g>
      <g
         aria-label="00"
         id="g1275"
         style="stroke-width:0.26460001">
        <path
           d="m -1.635,232.5 -0.06919,-0.0716 0.07634,-0.8684 h 0.04294 l 0.02863,0.031 0.1336,0.1455 -0.05249,0.6179 z m 0.09782,-1.119 -0.0334,0.031 h -0.04294 l 0.07396,-0.866 0.08112,-0.074 0.1336,0.1455 -0.05249,0.6179 z m 0.1932,-1.014 0.07873,-0.074 h 0.971 l 0.0668,0.074 -0.1598,0.1479 h -0.8231 z m 1.212,0.105 0.06919,0.0716 -0.07634,0.8684 h -0.04294 l -0.02863,-0.031 -0.1336,-0.1455 0.05249,-0.6179 z m -0.2911,2.133 -0.07873,0.074 h -0.971 l -0.0668,-0.074 0.1598,-0.1479 h 0.8231 z m 0.1932,-1.014 0.0334,-0.031 h 0.04294 l -0.07396,0.8684 -0.08112,0.0716 -0.1336,-0.1455 0.05249,-0.6155 z"
           id="path1271"
           inkscape:connector-curvature="0" />
        <path
           d="M 0.3132,232.5 0.24401,232.4284 0.32035,231.56 h 0.04294 l 0.02863,0.031 0.1336,0.1455 -0.05249,0.6179 z m 0.09782,-1.119 -0.0334,0.031 H 0.33468 l 0.07396,-0.866 0.08112,-0.074 0.1336,0.1455 -0.05249,0.6179 z m 0.1932,-1.014 0.07873,-0.074 h 0.971 l 0.0668,0.074 -0.1598,0.1479 h -0.8231 z m 1.212,0.105 0.06919,0.0716 -0.07634,0.8684 H 1.76613 l -0.02863,-0.031 -0.1336,-0.1455 0.05249,-0.6179 z m -0.2911,2.133 -0.07873,0.074 h -0.971 l -0.0668,-0.074 0.1598,-0.1479 h 0.8231 z m 0.1932,-1.014 0.0334,-0.031 H 1.79466 L 1.7207,232.4284 1.63958,232.5 1.50598,232.3545 1.55847,231.739 Z"
           id="path1273"
           inkscape:connector-curvature="0" />
      </g>
    </g>
    <g
       transform="matrix(7.56,0,0,7.56,-28.019471,-947.62)"
       id="g1283">
      <circle
         cx="65.089996"
         cy="221.10001"
         r="2.9100001"
         id="circle1279"
         style="fill:#151715" />
      <circle
         cx="65.089996"
         cy="221.10001"
         r="2.381"
         id="circle1281"
         style="fill:#ffffff" />
    </g>
    <g
       transform="matrix(7.56,0,0,7.56,-238.10147,-947.62)"
       id="g1295">
      <circle
         cx="65.089996"
         cy="221.10001"
         r="2.9100001"
         id="circle1291"
         style="fill:#151715" />
      <circle
         cx="65.089996"
         cy="221.10001"
         r="2.381"
         id="circle1293"
         style="fill:#ffffff" />
    </g>
    <g
       transform="matrix(7.56,0,0,7.56,-448.10147,-885.62)"
       id="g1301">
      <circle
         cx="65.089996"
         cy="221.10001"
         r="2.9100001"
         id="circle1297"
         style="fill:#151715" />
      <circle
         cx="65.089996"
         cy="221.10001"
         r="2.381"
         id="circle1299"
         style="fill:#ffffff" />
    </g>
    <g
       transform="matrix(2,0,0,2,-9.101471,598.38)"
       id="g1323"
       style="fill:#ffffff;stroke:#000000;stroke-linecap:round;stroke-linejoin:round">
      <g
         id="g1319">
        <g
           id="g1309"
           style="stroke-width:0.40000001">
          <circle
             cx="39.48"
             cy="51.52"
             r="1.688"
             id="circle1303" />
          <circle
             cx="74.480003"
             cy="51.52"
             r="1.688"
             id="circle1305" />
          <circle
             cx="109.5"
             cy="51.52"
             r="1.688"
             id="circle1307" />
        </g>
        <g
           stroke-miterlimit="0"
           id="g1317"
           style="stroke-width:0.80000001;stroke-miterlimit:0;stroke-opacity:0.99320003">
          <path
             d="m 289.1,49.66 c -8.289,0 -4.71,7.933 -9.04,10.42 -4.351,2.08 -7.845,5.593 -9.889,9.943 -0.8351,1.425 -2.252,1.015 -2.834,2.774 -0.6258,1.893 -0.9644,3.915 -0.9644,6.017 0,2.139 0.3504,4.197 0.9981,6.119 0.5749,1.706 1.944,1.375 2.849,2.791 2.102,4.403 5.691,7.932 10.14,9.972 1.318,0.837 0.9661,2.194 2.695,2.76 1.903,0.6224 3.937,0.9591 6.05,0.9591 2.151,0 4.22,-0.3484 6.153,-0.9926 1.705,-0.5683 1.387,-1.916 2.781,-2.816 4.43,-2.086 7.983,-5.653 10.04,-10.08 0.8402,-1.34 2.218,-0.9753 2.79,-2.705 0.6258,-1.893 0.9644,-3.915 0.9644,-6.017 0,-2.139 -0.3504,-4.197 -0.9981,-6.119 -0.581,-1.724 -1.972,-1.367 -2.876,-2.837 -2.085,-4.327 -5.61,-7.804 -9.977,-9.842 -4.15,-2.363 -0.5926,-10.35 -8.882,-10.35 z"
             id="path1311"
             inkscape:connector-curvature="0" />
          <path
             d="M 307.6,78.82 A 18.49,18.39 0 0 1 289.11,97.21 18.49,18.39 0 0 1 270.62,78.82 18.49,18.39 0 0 1 289.11,60.43 18.49,18.39 0 0 1 307.6,78.82 Z"
             id="path1313"
             inkscape:connector-curvature="0" />
          <ellipse
             cx="289.10001"
             cy="53.029999"
             rx="1.652"
             ry="1.642"
             id="ellipse1315" />
        </g>
      </g>
      <path
         d="m 301,78.82 a 11.87,11.8 0 0 1 -11.87,11.8 11.87,11.8 0 0 1 -11.87,-11.8 11.87,11.8 0 0 1 11.87,-11.8 11.87,11.8 0 0 1 11.87,11.8 z"
         stroke-miterlimit="0"
         id="path1321"
         inkscape:connector-curvature="0"
         style="fill-opacity:0.08772003;stroke-width:0.80000001;stroke-miterlimit:0;stroke-opacity:0.99320003" />
    </g>
    <circle
       cx="615.49854"
       cy="711.24005"
       r="5.1259999"
       id="circle1435"
       style="fill:none;stroke:#000000;stroke-width:1.39999998;stroke-linecap:round;stroke-linejoin:round" />
    <path
       d="m 609.89853,717 11.312,-11.312"
       id="path1437"
       inkscape:connector-curvature="0"
       style="fill:none;stroke:#000000;stroke-width:1.39999998;stroke-linecap:round" />
    <g
       transform="matrix(2,0,0,2,-792.50147,-34.82)"
       id="g1976"
       style="fill:#ffffff;stroke:#000000;stroke-width:0.80000001">
      <path
         d="m 628.2,398 a 12.13,12.13 0 0 0 -12.13,12.13 12.13,12.13 0 0 0 12.13,12.13 12.13,12.13 0 0 0 12.13,-12.13 A 12.13,12.13 0 0 0 628.2,398 Z m 0,2.312 a 9.818,9.818 0 0 1 9.816,9.816 9.818,9.818 0 0 1 -9.816,9.818 9.818,9.818 0 0 1 -9.818,-9.818 9.818,9.818 0 0 1 9.818,-9.816 z"
         id="path1968"
         inkscape:connector-curvature="0" />
      <path
         d="m 628.2,403.3 c -3.748,10e-6 -6.786,3.038 -6.787,6.786 0,3.748 3.038,6.787 6.787,6.787 3.748,-6e-4 6.786,-3.039 6.786,-6.787 -5e-4,-3.747 -3.038,-6.785 -6.786,-6.786 z m 0,1.602 c 2.862,5.6e-4 5.183,2.321 5.184,5.184 0,2.863 -2.321,5.184 -5.184,5.185 -2.864,0 -5.185,-2.321 -5.185,-5.185 6e-4,-2.863 2.322,-5.184 5.185,-5.184 z"
         id="path1970"
         inkscape:connector-curvature="0" />
      <path
         d="m 624.2,422.1 c 1.899,0.0227 11.59,-1.78 12.22,-2.32 0.6775,-0.5757 4.424,-11.09 4.264,-11.96 -0.1658,-0.8736 -7.393,-9.378 -8.23,-9.676 -0.8379,-0.298 -11.82,1.715 -12.49,2.291 -0.6775,0.5758 -4.424,11.09 -4.264,11.96 0.1648,0.8738 7.393,9.378 8.23,9.676 0.054,0.0147 0.1438,0.0274 0.2698,0.0299 z m 3.166,-2.55 c -5.216,-0.4567 -9.074,-5.055 -8.618,-10.27 0.4558,-5.216 5.054,-9.076 10.27,-8.62 5.217,0.456 9.077,5.056 8.62,10.27 -0.4568,5.216 -5.056,9.075 -10.27,8.618 z"
         id="path1972"
         inkscape:connector-curvature="0" />
      <path
         d="m 625.6,401.6 c -3.272,0 -5.906,2.634 -5.906,5.906 v 5.279 c 0,3.272 2.634,5.906 5.906,5.906 h 5.279 c 3.272,0 5.906,-2.634 5.906,-5.906 v -5.279 c 0,-3.272 -2.634,-5.906 -5.906,-5.906 z m 2.641,1.885 a 6.662,6.662 0 0 1 6.66,6.66 6.662,6.662 0 0 1 -6.66,6.662 6.662,6.662 0 0 1 -6.662,-6.662 6.662,6.662 0 0 1 6.662,-6.66 z"
         id="path1974"
         inkscape:connector-curvature="0" />
    </g>
    <g
       transform="matrix(2,0,0,2,-9.101471,598.38)"
       aria-label="CLTCH"
       id="g472">
      <path
         d="m 192.6,43.01 q -0.7379,0 -1.337,-0.3202 -0.5917,-0.3272 -0.9329,-0.8981 -0.3342,-0.5709 -0.3342,-1.288 0,-0.7171 0.3411,-1.288 0.3411,-0.5709 0.9329,-0.8911 0.5987,-0.3272 1.337,-0.3272 0.5987,0 1.093,0.2088 0.4943,0.2088 0.8354,0.6057 l -0.5848,0.55 q -0.5291,-0.5709 -1.302,-0.5709 -0.5012,0 -0.898,0.2228 -0.3968,0.2158 -0.6196,0.6057 -0.2228,0.3899 -0.2228,0.8841 0,0.4942 0.2228,0.8841 0.2228,0.3899 0.6196,0.6126 0.3968,0.2158 0.898,0.2158 0.7727,0 1.302,-0.5778 l 0.5848,0.5569 q -0.3411,0.3968 -0.8424,0.6057 -0.4943,0.2088 -1.093,0.2088 z"
         id="path462"
         inkscape:connector-curvature="0" />
      <path
         d="m 195.4,38.07 h 0.905 v 4.107 h 2.548 v 0.7658 H 195.4 Z"
         id="path464"
         inkscape:connector-curvature="0" />
      <path
         d="m 200.1,38.83 h -1.615 v -0.7658 h 4.135 V 38.83 h -1.615 v 4.107 H 200.1 Z"
         id="path466"
         inkscape:connector-curvature="0" />
      <path
         d="m 205.5,43.01 q -0.7379,0 -1.337,-0.3202 -0.5917,-0.3272 -0.9329,-0.8981 -0.3342,-0.5709 -0.3342,-1.288 0,-0.7171 0.3411,-1.288 0.3411,-0.5709 0.9329,-0.8911 0.5987,-0.3272 1.337,-0.3272 0.5987,0 1.093,0.2088 0.4943,0.2088 0.8354,0.6057 l -0.5848,0.55 q -0.5291,-0.5709 -1.302,-0.5709 -0.5012,0 -0.898,0.2228 -0.3968,0.2158 -0.6196,0.6057 -0.2228,0.3899 -0.2228,0.8841 0,0.4942 0.2228,0.8841 0.2228,0.3899 0.6196,0.6126 0.3968,0.2158 0.898,0.2158 0.7728,0 1.302,-0.5778 l 0.5848,0.5569 q -0.3411,0.3968 -0.8424,0.6057 -0.4943,0.2088 -1.093,0.2088 z"
         id="path468"
         inkscape:connector-curvature="0" />
      <path
         d="m 212.6,38.07 v 4.873 h -0.905 v -2.088 h -2.52 v 2.088 H 208.27 V 38.07 h 0.905 v 2.012 h 2.52 V 38.07 Z"
         id="path470"
         inkscape:connector-curvature="0" />
    </g>
    <path
       d="m 393.89853,764.4 v -24"
       id="path474"
       inkscape:connector-curvature="0"
       style="fill:none;stroke:#000000;stroke-width:1.39999998" />
    <g
       transform="matrix(2,0,0,2,-9.101471,598.38)"
       aria-label="PHASE"
       id="g506">
      <path
         d="m 86.67,38.07 q 0.6335,0 1.1,0.2088 0.4734,0.2088 0.724,0.5987 0.2506,0.3899 0.2506,0.9259 0,0.5291 -0.2506,0.9259 -0.2506,0.3899 -0.724,0.5987 -0.4664,0.2088 -1.1,0.2088 h -1.1 v 1.406 h -0.905 v -4.873 z m -0.04177,2.701 q 0.5917,0 0.8981,-0.2506 0.3063,-0.2506 0.3063,-0.717 0,-0.4664 -0.3063,-0.717 -0.3063,-0.2506 -0.8981,-0.2506 h -1.058 v 1.935 z"
         id="path496"
         inkscape:connector-curvature="0" />
      <path
         d="m 93.99,38.07 v 4.873 h -0.905 v -2.088 h -2.52 v 2.088 H 89.66 V 38.07 h 0.905 v 2.012 h 2.52 V 38.07 Z"
         id="path498"
         inkscape:connector-curvature="0" />
      <path
         d="m 98.46,41.81 h -2.437 l -0.4804,1.128 h -0.9329 l 2.193,-4.873 h 0.8911 l 2.2,4.873 H 98.947 Z m -0.2994,-0.7101 -0.9189,-2.13 -0.912,2.13 z"
         id="path500"
         inkscape:connector-curvature="0" />
      <path
         d="m 102,43.01 q -0.5639,0 -1.093,-0.1601 -0.5221,-0.1601 -0.8284,-0.4247 l 0.3133,-0.7031 q 0.2994,0.2367 0.731,0.3899 0.4386,0.1462 0.8772,0.1462 0.543,0 0.8076,-0.174 0.2715,-0.174 0.2715,-0.4595 0,-0.2088 -0.1532,-0.3411 -0.1462,-0.1392 -0.3759,-0.2158 -0.2297,-0.07658 -0.6266,-0.174 -0.5569,-0.1323 -0.905,-0.2645 -0.3411,-0.1323 -0.5917,-0.4107 -0.2437,-0.2854 -0.2437,-0.7658 0,-0.4038 0.2158,-0.731 0.2228,-0.3342 0.6614,-0.5291 0.4455,-0.1949 1.086,-0.1949 0.4455,0 0.8772,0.1114 0.4317,0.1114 0.7449,0.3202 l -0.2854,0.7031 q -0.3202,-0.188 -0.6683,-0.2854 -0.3481,-0.09746 -0.6753,-0.09746 -0.536,0 -0.8006,0.181 -0.2576,0.181 -0.2576,0.4804 0,0.2088 0.1462,0.3411 0.1532,0.1323 0.3829,0.2088 0.2297,0.07658 0.6266,0.174 0.543,0.1253 0.8911,0.2645 0.3481,0.1323 0.5917,0.4107 0.2506,0.2785 0.2506,0.7519 0,0.4038 -0.2228,0.731 -0.2158,0.3272 -0.6614,0.5221 -0.4456,0.1949 -1.086,0.1949 z"
         id="path502"
         inkscape:connector-curvature="0" />
      <path
         d="m 108.5,42.18 v 0.7588 h -3.655 v -4.873 h 3.557 v 0.7588 h -2.652 v 1.267 h 2.353 v 0.7449 h -2.353 v 1.344 z"
         id="path504"
         inkscape:connector-curvature="0" />
    </g>
    <g
       transform="matrix(2,0,0,2,-9.101471,598.38)"
       aria-label="CLOCK"
       id="g518">
      <path
         d="m 16.8,43.01 q -0.7379,0 -1.337,-0.3202 -0.5917,-0.3272 -0.9329,-0.8981 -0.3342,-0.5709 -0.3342,-1.288 0,-0.717 0.3411,-1.288 0.3411,-0.571 0.9329,-0.8911 0.5987,-0.3272 1.337,-0.3272 0.5987,0 1.093,0.2088 0.4943,0.2088 0.8354,0.6057 l -0.5848,0.55 q -0.5291,-0.5709 -1.302,-0.5709 -0.5012,0 -0.8981,0.2228 -0.3968,0.2158 -0.6196,0.6057 -0.2228,0.3899 -0.2228,0.8841 0,0.4942 0.2228,0.8841 0.2228,0.3899 0.6196,0.6126 0.3968,0.2158 0.8981,0.2158 0.7727,0 1.302,-0.5778 l 0.5848,0.5569 q -0.3411,0.3968 -0.8424,0.6057 -0.4943,0.2088 -1.093,0.2088 z"
         id="path508"
         inkscape:connector-curvature="0" />
      <path
         d="m 19.6,38.07 h 0.905 v 4.107 h 2.548 v 0.7658 H 19.6 Z"
         id="path510"
         inkscape:connector-curvature="0" />
      <path
         d="m 25.96,43.01 q -0.7449,0 -1.344,-0.3202 -0.5987,-0.3272 -0.9398,-0.8981 -0.3411,-0.5778 -0.3411,-1.288 0,-0.7102 0.3411,-1.281 0.3411,-0.5778 0.9398,-0.8981 0.5987,-0.3272 1.344,-0.3272 0.7449,0 1.344,0.3272 0.5987,0.3202 0.9398,0.8911 0.3411,0.5709 0.3411,1.288 0,0.717 -0.3411,1.288 -0.3411,0.5709 -0.9398,0.8981 Q 26.7053,43.01 25.96,43.01 Z m 0,-0.7936 q 0.4873,0 0.8772,-0.2158 0.3899,-0.2228 0.6126,-0.6126 0.2228,-0.3968 0.2228,-0.8841 0,-0.4873 -0.2228,-0.8772 -0.2228,-0.3968 -0.6126,-0.6126 -0.3899,-0.2228 -0.8772,-0.2228 -0.4873,0 -0.8772,0.2228 -0.3899,0.2158 -0.6126,0.6126 -0.2228,0.3899 -0.2228,0.8772 0,0.4873 0.2228,0.8841 0.2228,0.3899 0.6126,0.6126 0.3899,0.2158 0.8772,0.2158 z"
         id="path512"
         inkscape:connector-curvature="0" />
      <path
         d="m 31.8,43.01 q -0.7379,0 -1.337,-0.3202 -0.5917,-0.3272 -0.9329,-0.8981 -0.3342,-0.5709 -0.3342,-1.288 0,-0.717 0.3411,-1.288 0.3411,-0.5709 0.9329,-0.8911 0.5987,-0.3272 1.337,-0.3272 0.5987,0 1.093,0.2088 0.4943,0.2088 0.8354,0.6057 l -0.5848,0.55 q -0.5291,-0.5709 -1.302,-0.5709 -0.5012,0 -0.8981,0.2228 -0.3968,0.2158 -0.6196,0.6057 -0.2228,0.3899 -0.2228,0.8841 0,0.4942 0.2228,0.8841 0.2228,0.3899 0.6196,0.6126 0.3968,0.2158 0.8981,0.2158 0.7727,0 1.302,-0.5778 l 0.5848,0.5569 q -0.3411,0.3968 -0.8424,0.6057 -0.4943,0.2088 -1.093,0.2088 z"
         id="path514"
         inkscape:connector-curvature="0" />
      <path
         d="m 36.28,40.9 -0.7727,0.7936 v 1.246 h -0.905 v -4.873 h 0.905 v 2.499 l 2.409,-2.499 h 1.016 l -2.047,2.179 2.172,2.694 h -1.058 z"
         id="path516"
         inkscape:connector-curvature="0" />
    </g>
    <g
       transform="matrix(2,0,0,2,-9.101471,598.38)"
       aria-label="V/BPS"
       id="g538">
      <path
         d="m 55.5,38.07 -2.123,4.873 h -0.8911 l -2.13,-4.873 h 0.9816 l 1.622,3.759 1.636,-3.759 z"
         id="path528"
         inkscape:connector-curvature="0" />
      <path
         d="m 57.28,37.08 h 0.7797 l -2.297,6.558 H 54.983 Z"
         id="path530"
         inkscape:connector-curvature="0" />
      <path
         d="m 61.88,40.41 q 0.4038,0.1323 0.6405,0.4455 0.2367,0.3063 0.2367,0.7658 0,0.6335 -0.4873,0.9816 -0.4873,0.3411 -1.42,0.3411 h -2.423 v -4.873 h 2.283 q 0.8632,0 1.33,0.3411 0.4664,0.3342 0.4664,0.9259 0,0.362 -0.1671,0.6405 -0.1671,0.2785 -0.4595,0.4316 z m -2.548,-1.629 v 1.344 h 1.281 q 0.4734,0 0.724,-0.1671 0.2576,-0.174 0.2576,-0.5012 0,-0.3342 -0.2576,-0.5012 -0.2506,-0.174 -0.724,-0.174 z m 1.462,3.453 q 1.051,0 1.051,-0.7031 0,-0.7031 -1.051,-0.7031 h -1.462 v 1.406 z"
         id="path532"
         inkscape:connector-curvature="0" />
      <path
         d="m 65.74,38.07 q 0.6335,0 1.1,0.2088 0.4734,0.2088 0.724,0.5987 0.2506,0.3899 0.2506,0.9259 0,0.5291 -0.2506,0.9259 -0.2506,0.3899 -0.724,0.5987 -0.4664,0.2088 -1.1,0.2088 h -1.1 v 1.406 h -0.905 v -4.873 z m -0.04177,2.701 q 0.5917,0 0.8981,-0.2506 0.3063,-0.2506 0.3063,-0.717 0,-0.4664 -0.3063,-0.717 -0.3063,-0.2506 -0.8981,-0.2506 h -1.058 v 1.935 z"
         id="path534"
         inkscape:connector-curvature="0" />
      <path
         d="m 70.3,43.01 q -0.5639,0 -1.093,-0.1601 -0.5221,-0.1601 -0.8284,-0.4247 l 0.3133,-0.7031 q 0.2994,0.2367 0.731,0.3899 0.4386,0.1462 0.8772,0.1462 0.543,0 0.8076,-0.174 0.2715,-0.174 0.2715,-0.4595 0,-0.2088 -0.1532,-0.3411 -0.1462,-0.1392 -0.3759,-0.2158 -0.2297,-0.07658 -0.6265,-0.174 -0.5569,-0.1323 -0.905,-0.2645 -0.3411,-0.1323 -0.5917,-0.4107 -0.2437,-0.2854 -0.2437,-0.7658 0,-0.4038 0.2158,-0.731 0.2228,-0.3342 0.6614,-0.5291 0.4455,-0.1949 1.086,-0.1949 0.4455,0 0.8772,0.1114 0.4317,0.1114 0.7449,0.3202 l -0.2854,0.7031 q -0.3202,-0.188 -0.6683,-0.2854 -0.3481,-0.09746 -0.6753,-0.09746 -0.536,0 -0.8006,0.181 -0.2576,0.181 -0.2576,0.4804 0,0.2088 0.1462,0.3411 0.1532,0.1323 0.3829,0.2088 0.2297,0.07658 0.6265,0.174 0.543,0.1253 0.8911,0.2645 0.3481,0.1323 0.5917,0.4107 0.2506,0.2785 0.2506,0.7519 0,0.4038 -0.2228,0.731 -0.2158,0.3272 -0.6614,0.5221 -0.4455,0.1949 -1.086,0.1949 z"
         id="path536"
         inkscape:connector-curvature="0" />
    </g>
    <g
       transform="matrix(7.56,0,0,7.56,-98.021471,-947.62)"
       id="g1289">
      <circle
         cx="65.089996"
         cy="221.10001"
         r="2.9100001"
         id="circle1285"
         style="fill:#151715" />
      <circle
         cx="65.089996"
         cy="221.10001"
         r="2.381"
         id="circle1287"
         style="fill:#ffffff" />
    </g>
    <g
       transform="matrix(2,0,0,2,-1212.5015,-97.22)"
       id="g1936"
       style="fill:#ffffff;stroke:#000000;stroke-width:0.80000001">
      <path
         d="m 628.2,398 a 12.13,12.13 0 0 0 -12.13,12.13 12.13,12.13 0 0 0 12.13,12.13 12.13,12.13 0 0 0 12.13,-12.13 A 12.13,12.13 0 0 0 628.2,398 Z m 0,2.312 a 9.818,9.818 0 0 1 9.816,9.816 9.818,9.818 0 0 1 -9.816,9.818 9.818,9.818 0 0 1 -9.818,-9.818 9.818,9.818 0 0 1 9.818,-9.816 z"
         id="path1928"
         inkscape:connector-curvature="0" />
      <path
         d="m 628.2,403.3 c -3.748,10e-6 -6.786,3.038 -6.787,6.786 0,3.748 3.038,6.787 6.787,6.787 3.748,-6e-4 6.786,-3.039 6.786,-6.787 -5e-4,-3.747 -3.038,-6.785 -6.786,-6.786 z m 0,1.602 c 2.862,5.6e-4 5.183,2.321 5.184,5.184 0,2.863 -2.321,5.184 -5.184,5.185 -2.864,0 -5.185,-2.321 -5.185,-5.185 6e-4,-2.863 2.322,-5.184 5.185,-5.184 z"
         id="path1930"
         inkscape:connector-curvature="0" />
      <path
         d="m 624.2,422.1 c 1.899,0.0227 11.59,-1.78 12.22,-2.32 0.6775,-0.5757 4.424,-11.09 4.264,-11.96 -0.1658,-0.8736 -7.393,-9.378 -8.23,-9.676 -0.8379,-0.298 -11.82,1.715 -12.49,2.291 -0.6775,0.5758 -4.424,11.09 -4.264,11.96 0.1648,0.8738 7.393,9.378 8.23,9.676 0.054,0.0147 0.1438,0.0274 0.2698,0.0299 z m 3.166,-2.55 c -5.216,-0.4567 -9.074,-5.055 -8.618,-10.27 0.4558,-5.216 5.054,-9.076 10.27,-8.62 5.217,0.456 9.077,5.056 8.62,10.27 -0.4568,5.216 -5.056,9.075 -10.27,8.618 z"
         id="path1932"
         inkscape:connector-curvature="0" />
      <path
         d="m 625.6,401.6 c -3.272,0 -5.906,2.634 -5.906,5.906 v 5.279 c 0,3.272 2.634,5.906 5.906,5.906 h 5.279 c 3.272,0 5.906,-2.634 5.906,-5.906 v -5.279 c 0,-3.272 -2.634,-5.906 -5.906,-5.906 z m 2.641,1.885 a 6.662,6.662 0 0 1 6.66,6.66 6.662,6.662 0 0 1 -6.66,6.662 6.662,6.662 0 0 1 -6.662,-6.662 6.662,6.662 0 0 1 6.662,-6.66 z"
         id="path1934"
         inkscape:connector-curvature="0" />
    </g>
    <g
       transform="matrix(2,0,0,2,-1142.5015,-97.22)"
       id="g1946"
       style="fill:#ffffff;stroke:#000000;stroke-width:0.80000001">
      <path
         d="m 628.2,398 a 12.13,12.13 0 0 0 -12.13,12.13 12.13,12.13 0 0 0 12.13,12.13 12.13,12.13 0 0 0 12.13,-12.13 A 12.13,12.13 0 0 0 628.2,398 Z m 0,2.312 a 9.818,9.818 0 0 1 9.816,9.816 9.818,9.818 0 0 1 -9.816,9.818 9.818,9.818 0 0 1 -9.818,-9.818 9.818,9.818 0 0 1 9.818,-9.816 z"
         id="path1938"
         inkscape:connector-curvature="0" />
      <path
         d="m 628.2,403.3 c -3.748,10e-6 -6.786,3.038 -6.787,6.786 0,3.748 3.038,6.787 6.787,6.787 3.748,-6e-4 6.786,-3.039 6.786,-6.787 -5e-4,-3.747 -3.038,-6.785 -6.786,-6.786 z m 0,1.602 c 2.862,5.6e-4 5.183,2.321 5.184,5.184 0,2.863 -2.321,5.184 -5.184,5.185 -2.864,0 -5.185,-2.321 -5.185,-5.185 6e-4,-2.863 2.322,-5.184 5.185,-5.184 z"
         id="path1940"
         inkscape:connector-curvature="0" />
      <path
         d="m 624.2,422.1 c 1.899,0.0227 11.59,-1.78 12.22,-2.32 0.6775,-0.5757 4.424,-11.09 4.264,-11.96 -0.1658,-0.8736 -7.393,-9.378 -8.23,-9.676 -0.8379,-0.298 -11.82,1.715 -12.49,2.291 -0.6775,0.5758 -4.424,11.09 -4.264,11.96 0.1648,0.8738 7.393,9.378 8.23,9.676 0.054,0.0147 0.1438,0.0274 0.2698,0.0299 z m 3.166,-2.55 c -5.216,-0.4567 -9.074,-5.055 -8.618,-10.27 0.4558,-5.216 5.054,-9.076 10.27,-8.62 5.217,0.456 9.077,5.056 8.62,10.27 -0.4568,5.216 -5.056,9.075 -10.27,8.618 z"
         id="path1942"
         inkscape:connector-curvature="0" />
      <path
         d="m 625.6,401.6 c -3.272,0 -5.906,2.634 -5.906,5.906 v 5.279 c 0,3.272 2.634,5.906 5.906,5.906 h 5.279 c 3.272,0 5.906,-2.634 5.906,-5.906 v -5.279 c 0,-3.272 -2.634,-5.906 -5.906,-5.906 z m 2.641,1.885 a 6.662,6.662 0 0 1 6.66,6.66 6.662,6.662 0 0 1 -6.66,6.662 6.662,6.662 0 0 1 -6.662,-6.662 6.662,6.662 0 0 1 6.662,-6.66 z"
         id="path1944"
         inkscape:connector-curvature="0" />
    </g>
    <g
       transform="matrix(2,0,0,2,-1072.5015,-97.22)"
       id="g1956"
       style="fill:#ffffff;stroke:#000000;stroke-width:0.80000001">
      <path
         d="m 628.2,398 a 12.13,12.13 0 0 0 -12.13,12.13 12.13,12.13 0 0 0 12.13,12.13 12.13,12.13 0 0 0 12.13,-12.13 A 12.13,12.13 0 0 0 628.2,398 Z m 0,2.312 a 9.818,9.818 0 0 1 9.816,9.816 9.818,9.818 0 0 1 -9.816,9.818 9.818,9.818 0 0 1 -9.818,-9.818 9.818,9.818 0 0 1 9.818,-9.816 z"
         id="path1948"
         inkscape:connector-curvature="0" />
      <path
         d="m 628.2,403.3 c -3.748,10e-6 -6.786,3.038 -6.787,6.786 0,3.748 3.038,6.787 6.787,6.787 3.748,-6e-4 6.786,-3.039 6.786,-6.787 -5e-4,-3.747 -3.038,-6.785 -6.786,-6.786 z m 0,1.602 c 2.862,5.6e-4 5.183,2.321 5.184,5.184 0,2.863 -2.321,5.184 -5.184,5.185 -2.864,0 -5.185,-2.321 -5.185,-5.185 6e-4,-2.863 2.322,-5.184 5.185,-5.184 z"
         id="path1950"
         inkscape:connector-curvature="0" />
      <path
         d="m 624.2,422.1 c 1.899,0.0227 11.59,-1.78 12.22,-2.32 0.6775,-0.5757 4.424,-11.09 4.264,-11.96 -0.1658,-0.8736 -7.393,-9.378 -8.23,-9.676 -0.8379,-0.298 -11.82,1.715 -12.49,2.291 -0.6775,0.5758 -4.424,11.09 -4.264,11.96 0.1648,0.8738 7.393,9.378 8.23,9.676 0.054,0.0147 0.1438,0.0274 0.2698,0.0299 z m 3.166,-2.55 c -5.216,-0.4567 -9.074,-5.055 -8.618,-10.27 0.4558,-5.216 5.054,-9.076 10.27,-8.62 5.217,0.456 9.077,5.056 8.62,10.27 -0.4568,5.216 -5.056,9.075 -10.27,8.618 z"
         id="path1952"
         inkscape:connector-curvature="0" />
      <path
         d="m 625.6,401.6 c -3.272,0 -5.906,2.634 -5.906,5.906 v 5.279 c 0,3.272 2.634,5.906 5.906,5.906 h 5.279 c 3.272,0 5.906,-2.634 5.906,-5.906 v -5.279 c 0,-3.272 -2.634,-5.906 -5.906,-5.906 z m 2.641,1.885 a 6.662,6.662 0 0 1 6.66,6.66 6.662,6.662 0 0 1 -6.66,6.662 6.662,6.662 0 0 1 -6.662,-6.662 6.662,6.662 0 0 1 6.662,-6.66 z"
         id="path1954"
         inkscape:connector-curvature="0" />
    </g>
    <g
       transform="matrix(2,0,0,2,-862.50147,-34.82)"
       id="g1966"
       style="fill:#ffffff;stroke:#000000;stroke-width:0.80000001">
      <path
         d="m 628.2,398 a 12.13,12.13 0 0 0 -12.13,12.13 12.13,12.13 0 0 0 12.13,12.13 12.13,12.13 0 0 0 12.13,-12.13 A 12.13,12.13 0 0 0 628.2,398 Z m 0,2.312 a 9.818,9.818 0 0 1 9.816,9.816 9.818,9.818 0 0 1 -9.816,9.818 9.818,9.818 0 0 1 -9.818,-9.818 9.818,9.818 0 0 1 9.818,-9.816 z"
         id="path1958"
         inkscape:connector-curvature="0" />
      <path
         d="m 628.2,403.3 c -3.748,10e-6 -6.786,3.038 -6.787,6.786 0,3.748 3.038,6.787 6.787,6.787 3.748,-6e-4 6.786,-3.039 6.786,-6.787 -5e-4,-3.747 -3.038,-6.785 -6.786,-6.786 z m 0,1.602 c 2.862,5.6e-4 5.183,2.321 5.184,5.184 0,2.863 -2.321,5.184 -5.184,5.185 -2.864,0 -5.185,-2.321 -5.185,-5.185 6e-4,-2.863 2.322,-5.184 5.185,-5.184 z"
         id="path1960"
         inkscape:connector-curvature="0" />
      <path
         d="m 624.2,422.1 c 1.899,0.0227 11.59,-1.78 12.22,-2.32 0.6775,-0.5757 4.424,-11.09 4.264,-11.96 -0.1658,-0.8736 -7.393,-9.378 -8.23,-9.676 -0.8379,-0.298 -11.82,1.715 -12.49,2.291 -0.6775,0.5758 -4.424,11.09 -4.264,11.96 0.1648,0.8738 7.393,9.378 8.23,9.676 0.054,0.0147 0.1438,0.0274 0.2698,0.0299 z m 3.166,-2.55 c -5.216,-0.4567 -9.074,-5.055 -8.618,-10.27 0.4558,-5.216 5.054,-9.076 10.27,-8.62 5.217,0.456 9.077,5.056 8.62,10.27 -0.4568,5.216 -5.056,9.075 -10.27,8.618 z"
         id="path1962"
         inkscape:connector-curvature="0" />
      <path
         d="m 625.6,401.6 c -3.272,0 -5.906,2.634 -5.906,5.906 v 5.279 c 0,3.272 2.634,5.906 5.906,5.906 h 5.279 c 3.272,0 5.906,-2.634 5.906,-5.906 v -5.279 c 0,-3.272 -2.634,-5.906 -5.906,-5.906 z m 2.641,1.885 a 6.662,6.662 0 0 1 6.66,6.66 6.662,6.662 0 0 1 -6.66,6.662 6.662,6.662 0 0 1 -6.662,-6.662 6.662,6.662 0 0 1 6.662,-6.66 z"
         id="path1964"
         inkscape:connector-curvature="0" />
    </g>
  </g>
</svg>
