<?xml version="1.0" encoding="UTF-8"?>
<svg width="45" height="380" version="1.1" viewBox="0 0 45 380" xmlns="http://www.w3.org/2000/svg">
 <path d="m22.5 97v-20" fill="none" stroke="#000" stroke-width=".7"/>
 <path d="m0.5 0.5h44v379h-44z" fill="none" stroke="#000" stroke-linecap="square"/>
 <path d="m27.4 353.1c-1.479 1.661-4.45 4.734-9.057 5.604l-4e-3 -0.0137c-1.103 0.3262-2.181 0.545-2.996 0.6172-0.364 0.0322-0.6462 0.0252-0.8652 6e-3 0.3616-0.2997 1.078-0.7228 1.982-1.154 1.914-0.913 4.391-1.825 5.848-3.068l-0.0117-0.0137c0.019-0.0189 0.0596-0.0277 0.0781-0.0469l-1.275-1.357c-0.4742 0.4046-1.75 0.9328-2.76 1.422-0.8674 0.317-1.789 0.633-2.838 0.873-2.606 0.5964-5.53 0.8383-7.311 0.4727l-0.375 1.826c1.491 0.3063 3.301 0.2081 5.145-0.0234-0.2468 0.2574-0.506 0.5152-0.582 0.9414-0.0959 0.5376 0.1713 1.134 0.5469 1.484 0.3885 0.363 0.8012 0.4423 1.219 0.4941 0.4175 0.0519 0.8673 0.0439 1.363 0 0.8925-0.079 1.935-0.2973 3.008-0.5957v4e-3c0.9074-0.1602 1.678-0.4756 2.473-0.7637l0.5938 1.213c1.015-0.4012 2.382-0.7762 3.637-0.8711s2.344 0.1123 2.949 0.6113l1.188-1.438c-1.139-0.9399-2.641-1.113-4.098-1.025 1.344-1.195 2.546-2.504 3.488-3.916 0.01-0.0111 0.0371-0.032 0.0469-0.043l-6e-3 -4e-3c0.025-0.0378 0.0652-0.0696 0.0898-0.1074zm3.432 0.502c-1.733 2.152-1.388 4.673 0.0625 6.07 1.451 1.397 3.884 1.801 5.928 0.4922l-1.037-1.621c-1.316 0.8432-2.739 0.5293-3.557-0.2578-0.551-0.5305-0.6638-1.286-0.4375-2.154 0.5133 0.5723 1.086 1.064 1.762 1.389 1.194 0.5742 2.598 0.6971 4.104 0.3926l-0.3809-1.887c-1.189 0.2405-2.119 0.1279-2.889-0.2422-0.7698-0.3701-1.42-1.021-1.955-2.029z" color="#000000" color-rendering="auto" dominant-baseline="auto" image-rendering="auto" shape-rendering="auto" solid-color="#000000" style="font-feature-settings:normal;font-variant-alternates:normal;font-variant-caps:normal;font-variant-ligatures:normal;font-variant-numeric:normal;font-variant-position:normal;isolation:auto;mix-blend-mode:normal;shape-padding:0;text-decoration-color:#000000;text-decoration-line:none;text-decoration-style:solid;text-indent:0;text-orientation:mixed;text-transform:none;white-space:normal"/>
 <g stroke="#000" stroke-linecap="round" stroke-linejoin="round">
  <g fill="none">
   <rect x="13" y="3.005" width="19" height="9" rx="4.5" ry="4.5" stroke-width=".8"/>
   <rect x="13" y="368" width="19" height="9" rx="4.5" ry="4.5" stroke-width=".8"/>
   <rect x="7.939" y="304.7" width="29.08" height="43.22" rx="2.652" ry="2.652" stroke-miterlimit="0"/>
  </g>
  <rect x="7.995" y="126" width="29" height="49" rx="3" ry="3" fill="#fff" fill-opacity=".9823"/>
  <rect x="9.995" y="128" width="25" height="45" rx="1" ry="1" fill="#fff" fill-opacity=".9823" stroke-width=".8"/>
 </g>
 <g aria-label="UNI">
  <path d="m18.15 168c1.309 0 2.137-0.724 2.137-2.2v-2.256c0-0.2994-0.2367-0.536-0.536-0.536s-0.536 0.2367-0.536 0.536v2.297c0 0.7727-0.3968 1.17-1.051 1.17-0.6544 0-1.051-0.4107-1.051-1.204v-2.263c0-0.2994-0.2367-0.536-0.536-0.536s-0.536 0.2367-0.536 0.536v2.29c0 1.434 0.8006 2.165 2.109 2.165z"/>
  <path d="m21.38 167.5c0 0.2924 0.2367 0.5291 0.5291 0.5291s0.5291-0.2367 0.5291-0.5291v-2.611l2.144 2.813c0.1462 0.188 0.2994 0.3133 0.5569 0.3133h0.03481c0.2994 0 0.536-0.2367 0.536-0.536v-3.878c0-0.2924-0.2367-0.5291-0.5291-0.5291s-0.5291 0.2367-0.5291 0.5291v2.513l-2.068-2.715c-0.1462-0.188-0.2994-0.3133-0.5569-0.3133h-0.1114c-0.2994 0-0.536 0.2367-0.536 0.536z"/>
  <path d="m26.92 167.5c0 0.2994 0.2367 0.536 0.536 0.536s0.536-0.2367 0.536-0.536v-3.885c0-0.2994-0.2367-0.536-0.536-0.536s-0.536 0.2367-0.536 0.536z"/>
 </g>
 <g aria-label="SIN">
  <path d="m18.25 138c1.051 0 1.789-0.543 1.789-1.511v-0.0139c0-0.8493-0.5569-1.204-1.545-1.462-0.8424-0.2158-1.051-0.3202-1.051-0.6405v-0.0139c0-0.2367 0.2158-0.4247 0.6265-0.4247 0.3342 0 0.6683 0.1183 1.023 0.3272 0.08354 0.0487 0.1671 0.0766 0.2715 0.0766 0.2785 0 0.5012-0.2158 0.5012-0.4943 0-0.2088-0.1183-0.355-0.2367-0.4247-0.4386-0.2785-0.9537-0.4316-1.545-0.4316-0.9955 0-1.706 0.5848-1.706 1.469v0.0139c0 0.9677 0.6335 1.239 1.615 1.49 0.8145 0.2088 0.9816 0.3481 0.9816 0.6196v0.0139c0 0.2854-0.2645 0.4595-0.7031 0.4595-0.4734 0-0.8772-0.1671-1.246-0.4386-0.06962-0.0487-0.1671-0.0975-0.3063-0.0975-0.2785 0-0.5012 0.2158-0.5012 0.4943 0 0.1671 0.08354 0.3202 0.2019 0.4038 0.543 0.3898 1.19 0.5848 1.831 0.5848z"/>
  <path d="m21.02 137.5c0 0.2994 0.2367 0.536 0.536 0.536 0.2994 0 0.536-0.2367 0.536-0.536v-3.885c0-0.2994-0.2367-0.536-0.536-0.536-0.2994 0-0.536 0.2367-0.536 0.536z"/>
  <path d="m23.31 137.5c0 0.2924 0.2367 0.5291 0.5291 0.5291s0.5291-0.2367 0.5291-0.5291v-2.611l2.144 2.812c0.1462 0.188 0.2994 0.3133 0.5569 0.3133h0.03481c0.2994 0 0.536-0.2367 0.536-0.536v-3.878c0-0.2924-0.2367-0.5291-0.5291-0.5291s-0.5291 0.2367-0.5291 0.5291v2.513l-2.068-2.715c-0.1462-0.188-0.2994-0.3133-0.5569-0.3133h-0.1114c-0.2994 0-0.536 0.2367-0.536 0.536z"/>
 </g>
 <g fill="none" stroke="#000">
  <path d="m9.995 156.2c4.553 0 7.948-11.2 12.5-11.2 4.553 0 7.948 11.2 12.5 11.2" stroke-width="1.1"/>
  <g transform="matrix(.4086 0 0 .4082 -8.143 196)">
   <path d="m75 111v-36.74" stroke-width="1.714"/>
   <path d="m49.14 136.9a36.57 36.59 0 0 1 0-51.75 36.57 36.59 0 0 1 51.71 1e-6 36.57 36.59 0 0 1 0 51.75" stroke-linecap="round" stroke-linejoin="round" stroke-width="1.469"/>
   <g stroke-width="1.714">
    <path d="m75 111-29.27 29.27"/>
    <path d="m75 111 29.27 29.27"/>
    <path d="m75 111 25.95-25.98"/>
    <path d="m75.01 111h36.7"/>
    <path d="m95.4 80.42 2.828-4.235"/>
    <path d="m109 96.93 4.622-1.916"/>
    <path d="m111.1 118.3 4.971 0.9895"/>
    <path d="m75 111-25.95-25.98"/>
    <path d="m75 111h-36.7"/>
    <path d="m54.61 80.42-2.828-4.235"/>
    <path d="m40.96 96.93-4.622-1.916"/>
    <path d="m38.92 118.3-4.971 0.9895"/>
   </g>
  </g>
  <path d="m22.5 226.3v-13.31" stroke-width=".7"/>
  <g transform="translate(-100.5 -128)" stroke-miterlimit="1.579" stroke-width=".8">
   <path d="m123 199.3v-16.25"/>
   <path d="m111.6 210.8a16.19 16.19 0 0 1 0-22.89 16.19 16.19 0 0 1 22.89 0 16.19 16.19 0 0 1 0 22.89" stroke-linecap="round" stroke-linejoin="round"/>
   <path d="m123 199.3-12.96 12.95"/>
   <path d="m123 199.3 12.96 12.95"/>
   <path d="m123 199.3 11.49-11.49"/>
   <path d="m123 199.3 15.01-6.219"/>
   <path d="m123 199.3-11.49-11.49"/>
   <path d="m123 199.3-15.01-6.219"/>
  </g>
 </g>
 <g transform="translate(-100.5 -128)" stroke="#000" stroke-linecap="round" stroke-linejoin="round" stroke-miterlimit="1.579">
  <circle cx="123" cy="199.3" r="13.38" fill="#fff"/>
  <path d="m125.7 186.5c-0.5638-0.1194-1.134-0.1878-1.706-0.2322-0.2947 0.3991-0.8038 0.577-1.283 0.4483-0.2652-0.0719-0.4978-0.2321-0.6596-0.4542-0.5717 0.0406-1.143 0.1048-1.707 0.2203-1.99 1.858-4.302 3.29-7.1 4.075-0.392 0.4351-0.7412 0.9025-1.07 1.384 0.1102 0.2517 0.1311 0.5334 0.0594 0.7986-0.1312 0.4779-0.5412 0.8269-1.034 0.8799-0.2549 0.5252-0.4875 1.061-0.671 1.618 0.4292 2.734 0.5182 5.462-0.0223 8.177 0.1804 0.5506 0.409 1.081 0.6591 1.601 0.0618 6e-3 0.1229 0.0173 0.183 0.0331 0.6427 0.1745 1.022 0.837 0.8478 1.48-0.0159 0.0577-0.0362 0.1142-0.0605 0.169 0.3245 0.4776 0.6685 0.9422 1.055 1.375 2.629 0.8068 5.019 2.117 7.082 4.113 0.5632 0.1194 1.133 0.1873 1.704 0.2317 0.295-0.3984 0.8038-0.5756 1.282-0.4468 0.2646 0.072 0.4967 0.2321 0.658 0.4538 0.5713-0.0403 1.141-0.1041 1.705-0.2192 2.114-1.892 4.523-3.165 7.103-4.078 0.392-0.4351 0.7411-0.9025 1.07-1.384-0.1102-0.2517-0.1311-0.5334-0.0594-0.7986 0.1312-0.4779 0.5412-0.8269 1.034-0.8799 0.2549-0.5252 0.4875-1.061 0.671-1.618-0.5799-2.751-0.4825-5.472 0.0215-8.174-0.1806-0.552-0.4092-1.083-0.6598-1.604-0.0607-6e-3 -0.1208-0.017-0.1799-0.0323-0.6423-0.1735-1.023-0.8344-0.8502-1.477 0.0165-0.0582 0.0374-0.1151 0.0625-0.1701-0.3246-0.4782-0.6694-0.9437-1.056-1.377-2.612-0.8905-4.973-2.26-7.081-4.112z" fill="none" stroke-width=".8"/>
  <ellipse transform="scale(1,-1)" cx="123" cy="-199.3" rx="9.054" ry="9.06" fill="none" stroke-width=".8"/>
 </g>
 <g fill="#fff" stroke="#000" stroke-width=".8">
  <g stroke-linecap="round" stroke-linejoin="round" stroke-miterlimit="1.579">
   <path d="m22.81 98.51c-3.748 1e-5 -6.786 3.038-6.787 6.786 0 3.748 3.038 6.787 6.787 6.787 3.748-6e-4 6.786-3.039 6.786-6.787-5e-4 -3.747-3.038-6.785-6.786-6.786zm0 1.602c2.862 5.6e-4 5.183 2.321 5.184 5.184 0 2.863-2.321 5.184-5.184 5.185-2.864 0-5.185-2.321-5.185-5.185 6e-4 -2.863 2.322-5.184 5.185-5.184z"/>
   <path d="m22.81 93.21a12.13 12.13 0 0 0-12.13 12.13 12.13 12.13 0 0 0 12.13 12.13 12.13 12.13 0 0 0 12.13-12.13 12.13 12.13 0 0 0-12.13-12.13zm0 2.312a9.818 9.818 0 0 1 9.816 9.816 9.818 9.818 0 0 1-9.816 9.818 9.818 9.818 0 0 1-9.818-9.818 9.818 9.818 0 0 1 9.818-9.816z"/>
   <path d="m18.81 117.3c1.899 0.0227 11.59-1.78 12.22-2.32 0.6775-0.5757 4.424-11.09 4.264-11.96-0.1658-0.8736-7.393-9.378-8.23-9.676-0.8379-0.298-11.82 1.715-12.49 2.291-0.6775 0.5758-4.424 11.09-4.264 11.96 0.1648 0.8738 7.393 9.378 8.23 9.676 0.054 0.0147 0.1438 0.0274 0.2698 0.0299zm3.166-2.55c-5.216-0.4567-9.074-5.055-8.618-10.27 0.4558-5.216 5.054-9.076 10.27-8.62 5.217 0.456 9.077 5.056 8.62 10.27-0.4568 5.216-5.056 9.075-10.27 8.618z"/>
   <path d="m20.21 96.81c-3.272 0-5.906 2.634-5.906 5.906v5.279c0 3.272 2.634 5.906 5.906 5.906h5.279c3.272 0 5.906-2.634 5.906-5.906v-5.279c0-3.272-2.634-5.906-5.906-5.906zm2.641 1.885a6.662 6.662 0 0 1 6.66 6.66 6.662 6.662 0 0 1-6.66 6.662 6.662 6.662 0 0 1-6.662-6.662 6.662 6.662 0 0 1 6.662-6.66z"/>
   <g transform="translate(0 101)">
    <path d="m22.81 98.51c-3.748 1e-5 -6.786 3.038-6.787 6.786 0 3.748 3.038 6.787 6.787 6.787 3.748-6e-4 6.786-3.039 6.786-6.787-5e-4 -3.747-3.038-6.785-6.786-6.786zm0 1.602c2.862 5.6e-4 5.183 2.321 5.184 5.184 0 2.863-2.321 5.184-5.184 5.185-2.864 0-5.185-2.321-5.185-5.185 6e-4 -2.863 2.322-5.184 5.185-5.184z"/>
    <path d="m22.81 93.21a12.13 12.13 0 0 0-12.13 12.13 12.13 12.13 0 0 0 12.13 12.13 12.13 12.13 0 0 0 12.13-12.13 12.13 12.13 0 0 0-12.13-12.13zm0 2.312a9.818 9.818 0 0 1 9.816 9.816 9.818 9.818 0 0 1-9.816 9.818 9.818 9.818 0 0 1-9.818-9.818 9.818 9.818 0 0 1 9.818-9.816z"/>
    <path d="m18.81 117.3c1.899 0.0227 11.59-1.78 12.22-2.32 0.6775-0.5757 4.424-11.09 4.264-11.96-0.1658-0.8736-7.393-9.378-8.23-9.676-0.8379-0.298-11.82 1.715-12.49 2.291-0.6775 0.5758-4.424 11.09-4.264 11.96 0.1648 0.8738 7.393 9.378 8.23 9.676 0.054 0.0147 0.1438 0.0274 0.2698 0.0299zm3.166-2.55c-5.216-0.4567-9.074-5.055-8.618-10.27 0.4558-5.216 5.054-9.076 10.27-8.62 5.217 0.456 9.077 5.056 8.62 10.27-0.4568 5.216-5.056 9.075-10.27 8.618z"/>
    <path d="m20.21 96.81c-3.272 0-5.906 2.634-5.906 5.906v5.279c0 3.272 2.634 5.906 5.906 5.906h5.279c3.272 0 5.906-2.634 5.906-5.906v-5.279c0-3.272-2.634-5.906-5.906-5.906zm2.641 1.885a6.662 6.662 0 0 1 6.66 6.66 6.662 6.662 0 0 1-6.66 6.662 6.662 6.662 0 0 1-6.662-6.662 6.662 6.662 0 0 1 6.662-6.66z"/>
   </g>
   <g transform="translate(0 227)">
    <path d="m22.81 98.51c-3.748 1e-5 -6.786 3.038-6.787 6.786 0 3.748 3.038 6.787 6.787 6.787 3.748-6e-4 6.786-3.039 6.786-6.787-5e-4 -3.747-3.038-6.785-6.786-6.786zm0 1.602c2.862 5.6e-4 5.183 2.321 5.184 5.184 0 2.863-2.321 5.184-5.184 5.185-2.864 0-5.185-2.321-5.185-5.185 6e-4 -2.863 2.322-5.184 5.185-5.184z"/>
    <path d="m22.81 93.21a12.13 12.13 0 0 0-12.13 12.13 12.13 12.13 0 0 0 12.13 12.13 12.13 12.13 0 0 0 12.13-12.13 12.13 12.13 0 0 0-12.13-12.13zm0 2.312a9.818 9.818 0 0 1 9.816 9.816 9.818 9.818 0 0 1-9.816 9.818 9.818 9.818 0 0 1-9.818-9.818 9.818 9.818 0 0 1 9.818-9.816z"/>
    <path d="m18.81 117.3c1.899 0.0227 11.59-1.78 12.22-2.32 0.6775-0.5757 4.424-11.09 4.264-11.96-0.1658-0.8736-7.393-9.378-8.23-9.676-0.8379-0.298-11.82 1.715-12.49 2.291-0.6775 0.5758-4.424 11.09-4.264 11.96 0.1648 0.8738 7.393 9.378 8.23 9.676 0.054 0.0147 0.1438 0.0274 0.2698 0.0299zm3.166-2.55c-5.216-0.4567-9.074-5.055-8.618-10.27 0.4558-5.216 5.054-9.076 10.27-8.62 5.217 0.456 9.077 5.056 8.62 10.27-0.4568 5.216-5.056 9.075-10.27 8.618z"/>
    <path d="m20.21 96.81c-3.272 0-5.906 2.634-5.906 5.906v5.279c0 3.272 2.634 5.906 5.906 5.906h5.279c3.272 0 5.906-2.634 5.906-5.906v-5.279c0-3.272-2.634-5.906-5.906-5.906zm2.641 1.885a6.662 6.662 0 0 1 6.66 6.66 6.662 6.662 0 0 1-6.66 6.662 6.662 6.662 0 0 1-6.662-6.662 6.662 6.662 0 0 1 6.662-6.66z"/>
   </g>
   <g transform="translate(0 182)">
    <path d="m22.81 98.51c-3.748 1e-5 -6.786 3.038-6.787 6.786 0 3.748 3.038 6.787 6.787 6.787 3.748-6e-4 6.786-3.039 6.786-6.787-5e-4 -3.747-3.038-6.785-6.786-6.786zm0 1.602c2.862 5.6e-4 5.183 2.321 5.184 5.184 0 2.863-2.321 5.184-5.184 5.185-2.864 0-5.185-2.321-5.185-5.185 6e-4 -2.863 2.322-5.184 5.185-5.184z"/>
    <path d="m22.81 93.21a12.13 12.13 0 0 0-12.13 12.13 12.13 12.13 0 0 0 12.13 12.13 12.13 12.13 0 0 0 12.13-12.13 12.13 12.13 0 0 0-12.13-12.13zm0 2.312a9.818 9.818 0 0 1 9.816 9.816 9.818 9.818 0 0 1-9.816 9.818 9.818 9.818 0 0 1-9.818-9.818 9.818 9.818 0 0 1 9.818-9.816z"/>
    <path d="m18.81 117.3c1.899 0.0227 11.59-1.78 12.22-2.32 0.6775-0.5757 4.424-11.09 4.264-11.96-0.1658-0.8736-7.393-9.378-8.23-9.676-0.8379-0.298-11.82 1.715-12.49 2.291-0.6775 0.5758-4.424 11.09-4.264 11.96 0.1648 0.8738 7.393 9.378 8.23 9.676 0.054 0.0147 0.1438 0.0274 0.2698 0.0299zm3.166-2.55c-5.216-0.4567-9.074-5.055-8.618-10.27 0.4558-5.216 5.054-9.076 10.27-8.62 5.217 0.456 9.077 5.056 8.62 10.27-0.4568 5.216-5.056 9.075-10.27 8.618z"/>
    <path d="m20.21 96.81c-3.272 0-5.906 2.634-5.906 5.906v5.279c0 3.272 2.634 5.906 5.906 5.906h5.279c3.272 0 5.906-2.634 5.906-5.906v-5.279c0-3.272-2.634-5.906-5.906-5.906zm2.641 1.885a6.662 6.662 0 0 1 6.66 6.66 6.662 6.662 0 0 1-6.66 6.662 6.662 6.662 0 0 1-6.662-6.662 6.662 6.662 0 0 1 6.662-6.66z"/>
   </g>
  </g>
  <g transform="translate(-32.36 38.03)" stroke-miterlimit="3.2" stroke-opacity=".9761">
   <circle cx="54.87" cy="203.3" r="11.83" stroke-linecap="round" stroke-linejoin="round"/>
   <path d="m54.87 191.5a11.83 11.83 0 0 0-1.01 0.05c-0.2409 0.3388-0.3902 0.7602-0.4888 1.073l1.499 10.71 1.494-10.7c-0.0751-0.321-0.2192-0.7399-0.4664-1.076a11.83 11.83 0 0 0-1.028-0.0518zm0 11.83 6.647-8.523c0.0955-0.3156 0.1793-0.7512 0.133-1.166a11.83 11.83 0 0 0-1.774-1.016c-0.3744 0.1735-0.7102 0.461-0.95 0.6806zl10.02-4.057c0.2384-0.2236 0.5279-0.5547 0.6961-0.9328a11.83 11.83 0 0 0-1.024-1.777c-0.4113-0.0377-0.8466 0.0437-1.164 0.114zl10.7 1.496c0.3207-0.075 0.7384-0.2196 1.074-0.4664a11.83 11.83 0 0 0 0.0536-1.029 11.83 11.83 0 0 0-0.0518-1.01c-0.3384-0.2405-0.7591-0.3904-1.071-0.4888zl8.523 6.647c0.316 0.0956 0.7524 0.1793 1.168 0.133a11.83 11.83 0 0 0 1.014-1.772c-0.1735-0.3744-0.461-0.7102-0.6806-0.95zl4.056 10.02c0.2236 0.2384 0.5543 0.5279 0.9328 0.6961a11.83 11.83 0 0 0 1.779-1.026c0.0369-0.4108-0.0455-0.8453-0.1157-1.162zl-1.496 10.7c0.0751 0.321 0.2192 0.74 0.4664 1.076a11.83 11.83 0 0 0 1.029 0.0518 11.83 11.83 0 0 0 1.009-0.0501c0.2413-0.3388 0.3919-0.7602 0.4906-1.073zl-6.648 8.523c-0.0956 0.316-0.1797 0.7524-0.133 1.168a11.83 11.83 0 0 0 1.774 1.016c0.3744-0.1731 0.7102-0.461 0.95-0.6806zl-10.02 4.057c-0.2384 0.2236-0.5279 0.5543-0.6961 0.9327a11.83 11.83 0 0 0 1.028 1.779c0.4103 0.0364 0.844-0.0456 1.161-0.1157zl-10.7-1.494c-0.321 0.0751-0.74 0.2192-1.076 0.4664a11.83 11.83 0 0 0-0.0518 1.028 11.83 11.83 0 0 0 0.05 1.01c0.3383 0.2409 0.7584 0.3902 1.071 0.4888zl-8.523-6.647c-0.3164-0.0957-0.7536-0.1797-1.169-0.133a11.83 11.83 0 0 0-1.014 1.772c0.1731 0.3749 0.461 0.712 0.6806 0.9518zl-4.057-10.02c-0.224-0.2388-0.5554-0.528-0.9345-0.6961a11.83 11.83 0 0 0-1.777 1.024c-0.0372 0.4113 0.0455 0.8466 0.1157 1.164z"/>
   <g stroke-linecap="round" stroke-linejoin="round">
    <path d="m53.38 192.6a10.8 10.8 0 0 0-2.553 0.6754 2.332 2.332 0 0 1 0 2e-3 2.332 2.332 0 0 1-1.028 1.225 2.332 2.332 0 0 1-1.574 0.2729 10.8 10.8 0 0 0-1.86 1.874 2.332 2.332 0 0 1-0.2781 1.567 2.332 2.332 0 0 1-1.223 1.023 10.8 10.8 0 0 0-0.6788 2.553 2.332 2.332 0 0 1 0.5441 1.496 2.332 2.332 0 0 1-0.5441 1.494 10.8 10.8 0 0 0 0.6771 2.551 2.332 2.332 0 0 1 1.225 1.028 2.332 2.332 0 0 1 0.2729 1.574 10.8 10.8 0 0 0 1.878 1.862 2.332 2.332 0 0 1 0.285-0.0345 2.332 2.332 0 0 1 1.276 0.3109 2.332 2.332 0 0 1 1.024 1.223 10.8 10.8 0 0 0 2.555 0.6771 2.332 2.332 0 0 1 1.494-0.5424 2.332 2.332 0 0 1 1.492 0.5441 10.8 10.8 0 0 0 2.551-0.6754 2.332 2.332 0 0 1 0-2e-3 2.332 2.332 0 0 1 1.028-1.225 2.332 2.332 0 0 1 1.111-0.3126 2.332 2.332 0 0 1 0.4629 0.0396 10.8 10.8 0 0 0 1.86-1.874 2.332 2.332 0 0 1 0.2781-1.565 2.332 2.332 0 0 1 1.225-1.028 10.8 10.8 0 0 0 0.6771-2.551 2.332 2.332 0 0 1-0.5424-1.494 2.332 2.332 0 0 1 0.5441-1.494 10.8 10.8 0 0 0-0.6771-2.55 2.332 2.332 0 0 1-2e-3 0 2.332 2.332 0 0 1-1.225-1.028 2.332 2.332 0 0 1-0.2746-1.574 10.8 10.8 0 0 0-1.874-1.862 2.332 2.332 0 0 1-1.563-0.2781 2.332 2.332 0 0 1-1.023-1.221 10.8 10.8 0 0 0-2.555-0.6788 2.332 2.332 0 0 1-1.494 0.5424 2.332 2.332 0 0 1-1.492-0.5441z"/>
    <ellipse transform="scale(1,-1)" cx="54.87" cy="-203.3" rx="7.454" ry="7.459"/>
    <path d="m54.16 191.5c-0.1815 7e-3 -0.345 0.0378-0.5185 0.0553v5.149c0 0.477 0.3841 0.8613 0.8607 0.8613h0.7224c0.4766 0 0.8607-0.3843 0.8607-0.8613v-5.164c-0.3882-0.0388-0.7922-0.0564-1.222-0.0398-0.2412-9e-3 -0.4756-9e-3 -0.7034 1e-5z"/>
   </g>
  </g>
 </g>
 <g>
  <g stroke-width=".9482" aria-label="FN-3">
   <path d="m11.05 27.18c0.9922-0.4942 2.289-0.5266 3.203-0.8356-0.6211-0.2241-2.756 0.3441-1.323-0.3407 0.7127-0.4071 2.412 0.6483 1.063 0.9547-1.899 0.08661-3.992 1.138-4.426 3.141 0.08986 1.226-1.414 3.056-2.415 1.629 0.276-1.272 0.9817-2.509 1.44-3.761 0.5404-1.336 1.379-2.548 1.9-3.881-1.012-0.3101 0.7643-0.8511-0.177-0.6431-1.349-0.2279 0.4319-0.655 0.7865-0.9261 1.08-0.7324 2.452-0.6194 3.657-0.9933 1.559-0.1137 3.207-0.3682 4.718 0.1049-0.4567-0.1459-0.7873 0.07836-0.1044 0.1089-2.14-0.104-4.338-0.05085-6.393 0.5774 0.8811 0.4178 2.087-0.4018 3.112-0.3133 0.5339-0.07966 2.919-0.09513 1.374 0.1432-1.31 0.1904-2.784 0.09468-3.947 0.7271 1.831-0.4143 3.76-0.7389 5.655-0.4886 0.3815 0.5805-1.686 0.0766-2.255 0.2957-1.261 0.1112-2.522 0.3239-3.712 0.7663-0.3484 0.9322-1.97 2.179-1.458 2.979 0.4402 0.03151-1.044 0.4879-0.6981 0.7553zm0.05333-3.987c0.2657-0.3807-0.2107 0.1591 0 0zm-2.64 8.013c0.3287-0.7031-0.1236 0.09759 0 0zm1.453-3.64c0.497 0.2029 0.4665-0.8584 0.1452 0.03428-0.0484-0.01143-0.09679-0.02285-0.1452-0.03428zm-0.7733 0.92c-0.2507-0.07997-0.8166 1.476-1.02 2.032-0.2976 1.437 0.5539-1.238 1.02-2.032zm1.533-2.427c-0.5464 0.352-0.3248 1.247 0.113 0.411 0.2496-0.2354 0.6703-1.446 0.159-0.633 0.2466-0.94-0.05074 0.247-0.272 0.222zm-1.947 4.187c-0.08144 0.4359-0.538 2.187 0.0041 0.8718 0.1266-0.8716 1.407-2.471 0.822-2.875-0.3062 0.6578-0.4641 1.373-0.8261 2.004zm0.64-2.36c0.4246-0.2672 0.7828-1.914 0.2081-0.6932 0.01488 0.08681-0.5132 0.8168-0.2081 0.6932zm0.9733-1.973c-0.5645 0.264 0.05749 0.5553 0 0zm0.3067-0.7067c-0.4021 0.28 0.05262 0.593 0 0zm0.5867-0.1867c0.173-0.2635-0.3181 0.2819 0 0zm0.32-0.08c-0.4411 0.5488 0.1879-0.0761 0 0zm-3.387 6.64c0.0187 0.4046 0.1841-0.6526 0 0zm3.387-7c-0.2879 0.1637 0.02402 0.4096 0 0zm4.6-2.36c0.2454 0.1609 0.3103-0.3466 0 0zm-6.933 6.613c0.2635 0.07715-0.03099-0.3664 0 0zm6.92-6.773c-0.1509-0.2429-0.3363 0.3031 0 0zm-0.2933 0.48c-0.2669 0.1681 0.6026-0.1699 0 0zm-1.373-0.1733c-0.1569 0.3123 0.3085-0.09473 0 0zm-3.293 2.04c0.01559-0.2761-0.2301 0.2644 0 0zm-2.72 5.72c0.3636-0.1506-0.2167-0.164 0 0zm2.467-6.92c0.09304-0.1959-0.3585 0.2439 0 0zm-0.92 4.173 0.08004 0.0097zm1.6-2.827c0.1992-0.05363-0.1297-0.2141 0 0zm-3.24 6.6c0.2462-0.09423-0.1619-0.1868 0 0zm5.027-4.653c-0.1841-0.2002 0.1416 0.2225 0 0zm-4.533 1.56c0.1862 0.1385 0.05323-0.2962 0 0zm1.653-2.333c-0.2199-0.05317 0.01475 0.2661 0 0zm-0.1467-0.08c-0.2421 0.1004 0.1668 0.1908 0 0zm6.933-3.56c0.4195-0.0393-0.2821-0.02515 0 0zm0.48 0.3333c-0.171-0.1261-0.209 0.1022 0 0zm-9.387 8.48c-0.1448 0.258 0.2083-0.0021 0 0zm8.547-8.813c-0.1217-0.1296-0.1446 0.1571 0 0zm-2.733 0.52c-0.01048-0.2224-0.2972 0.08866 0 0zm-4.947 6.08c-0.06993-0.2063-0.102 0.1922 0 0zm6.907-6.68c0.1296 0.1564 0.1285-0.1967 0 0zm-0.8133 0.64c0.2174 0.1539 0.09648-0.1921 0 0zm1.76-0.2533c-0.2318-0.1448-0.05377 0.201 0 0zm-0.2133-0.2c-0.1226-0.1677-0.2085 0.1853 0 0zm-8.547 9.2c-0.1088 0.1645 0.1995-0.02101 0 0zm1.227-1.653c0.3233 0.0874-0.1698-0.2441 0 0zm-0.7733-1.467 0.06132-0.04153zm0.5467-1.107c0.1719 0.0058-0.0908-0.1845 0 0zm3.76-0.92c-0.1756 0.1596 0.3364-0.1123 0 0zm-4.533 3.933c-0.212 0.06756 0.06815 0.1564 0 0zm0.6133-1.92c-0.1267 0.09774 0.1231 0.06679 0 0zm0.7733-1.72c-0.2034-0.03638 0.02986 0.2935 0 0zm0.9467-0.9467c-0.2163-8e-3 0.0652 0.254 0 0zm4.6-4.013c0.1281 0.2118 0.1338-0.1548 0 0zm-5.413 7.013c0.1493 0.08633 0.0072-0.1835 0 0zm6.227-6.053c0.2247 0.04799-0.07174-0.1722 0 0zm-6.92 6.027c0.1571-0.05009-0.07757-0.1331 0 0zm0.5467-2.147c-0.1613 0.1397 0.2163 0.05384 0 0zm0.01333 0c0.1885-0.01743-0.08892-0.2113 0 0zm-1.867 4.52c0.1995 0.05874-0.01607-0.1758 0 0zm5.4-8.28c0.2028 0.1199 0.0054-0.2005 0 0zm1.333 0.06667c-0.1855-0.1016-0.05043 0.1808 0 0zm-6.627 7.067c0.1849-0.1591-0.2058-0.05107 0 0zm5.267-3.253c0.2009 0.05768 6e-3 -0.198 0 0zm-2.6-1.76c-0.1794 0.1195 0.1802 0.08987 0 0zm-1.053 4.573c0.04948-0.2047-0.1795 0.03607 0 0zm-1.8 1.84c0.1447 0.1149 0.01737-0.2294 0 0zm8.84-8.773c-0.4223-0.1273 0.1178 0.1601 0 0zm-7.333 5.867c-0.1737 0.01285 0.07622 0.1843 0 0zm3.76-5.16c0.1615 0.1223 0.07532-0.2382 0 0zm2.227-1.52c-0.02136-0.1875-0.2298 0.09988 0 0zm-7.133 7.613c0.02373 0.1677 0.09182-0.1687 0 0zm2.373-3.427c0.091-0.08514-0.1424-0.03725 0 0zm2.707-2.667c0.1918-0.04688-0.1581-0.1452 0 0zm-4.64 6.707c0.2169 0.03015-0.1131-0.2773 0 0zm0.28-0.88c-0.1521-0.02652 0.04423 0.1409 0 0zm3.827-2.813 0.03054 0.0625zm3.533-4.12c-0.04102-0.1653-0.1977 0.1327 0 0zm0.2667 0.1067c0.0093-0.1619-0.1493 0.08483 0 0zm-0.8667 0.04c-0.191-0.09822-0.07287 0.1429 0 0zm-6.813 5.68c0.1611-0.07021-0.16-0.06697 0 0zm7.573-6.36c0.1017 0.1069 0.06206-0.1415 0 0zm-2.347 1c0.1648 0.03722-0.1514-0.07034 0 0zm1.76-0.32c0.1603 0.07403-0.06116-0.2454 0 0zm-5.44 1.16c-0.06461-0.1337-0.1147 0.1454 0 0zm5.04-0.72c0.483 0.3114-0.0314-0.1774 0 0zm-6.92 7.613-0.0362-0.04354zm-0.3733-0.8133c0.1475-0.01311-0.1256-0.1105 0 0zm0.9333-1.2c-0.1223-0.114-0.02767 0.22 0 0zm-0.5333 1.92c0.2023 0.0653-0.02202-0.1601 0 0zm0.28-1.067c-0.1207 0.08307 0.1284 0.0732 0 0zm0.3467-0.64c0.00764-0.1877-0.1456 0.1187 0 0zm0.24 1.453c-0.02098-0.1651-0.1846 0.09532 0 0zm-1.133 0.6533c-0.2039 0.0185 0.05788 0.195 0 0zm0.1733-2.213c0.0546 0.1441 0.1257-0.119 0 0zm-0.4267 2.48c0.06437-0.2621-0.2129 0.07959 0 0zm0.9333-3.173-0.01511-0.07023zm-0.4667 1.427c-0.03504-0.1576-0.1144 0.09785 0 0zm0.8667 0.6933c-0.07218 0.1455 0.156-0.0313 0 0zm1.853-4.573c0.2686-0.07887-0.1614-0.1393 0 0zm4.84-2.653c-0.1238-0.1549-0.08296 0.191 0 0zm-7.547 5.987c0.02074 0.1346 0.1397-0.05953 0 0zm5.013-1.907c0.1501-0.04076-0.1035-0.07702 0 0zm-4.467 2.053c0.00166-0.1432-0.1191-0.03904 0 0zm1.973-3.387c0.1368-0.045-0.1254-0.1131 0 0zm-2.373 3.32c0.1036-0.06486-0.1101-0.08638 0 0zm7.64-6.133c-0.1237-2.87e-4 0.0029 0.1217 0 0zm-5.467 2.4c-0.1467-0.08902-0.03697 0.1936 0 0zm4.08-3.267c-0.06593 0.2017 0.1941-0.09352 0 0zm0.44 1.053c0.1392 0.05153-0.02528-0.1323 0 0zm-7.053 8.08c0.1177 0.06159 0.00714-0.1707 0 0zm9.827-8.24c0.1525-0.02844-0.1001-0.1196 0 0zm-9.92 7.68c0.08723 0.1337 0.1089-0.0852 0 0zm8.24-8.027c-0.01842-0.1725-0.166 0.121 0 0zm-8.067 6.747c-0.1864 0.06506 0.07615 0.1364 0 0zm5.533-2.813c0.1904 0.1241-0.038-0.1585 0 0zm-5.867 5.267c0.05873 0.1272 0.1121-0.1214 0 0zm2.08-5.533c-0.14 0.04772 0.08274 0.114 0 0zm2.6 0.4c-0.06015-0.1227-0.08713 0.07388 0 0zm3.573-4.013c0.06565 0.1268 0.1108-0.1129 0 0zm-7.507 6.187c-0.05077-0.1567-0.08983 0.1366 0 0zm0.01333 1.147c0.1185-0.09423-0.1442-0.02973 0 0zm-0.2667-0.6667c-0.1339-0.03831 0.09612 0.1493 0 0zm7.253-7.333c-0.0054 0.1553 0.1255-0.09692 0 0zm1.6 0.9067c-0.1299-0.07603 0.03642 0.1629 0 0zm0.92-0.3867c0.2382-0.136 0.7505 0.1593 0.2113 0.06437zm-6.907 4.707c-0.1507 0.692-0.4956-0.2667 0 0zm6.373-4.653c-0.09221 0.3457-0.4178-0.2057 0 0zm0.1733 0.12c-0.5428-0.08947 0.821 0.01691 0 0zm-2.627-0.2267c-0.702 0.1475 0.3403-0.1825 0 0zm-2.613 4.533c0.1687-0.1883 0.3389 0.1903 0 0zm4.44-4.653c0.5435 0.04162-0.5169 0.08924 0 0zm-5.533 4.507c-0.1774 0.1312 0.01228-0.229 0 0zm1.107 0.1867c-0.2698 0.132-0.3503-0.06526 0 0zm-0.8933-0.2533c-0.2543 0.3379-0.1107-0.257 0 0zm1.56-3.907c0.2704-0.2717 0.207 0.1211 0 0zm0.56-0.2533c0.1651-0.2294 0.2352 0.1596 0 0zm-1.813 4.067c0.1172-0.2503 0.03374 0.1089 0 0zm3.347-4.267c0.01719-0.2363 0.2031 0.1387 0 0zm-4.627 5.213c0.04875-0.21 0.19 0.1596 0 0zm6.88-5.387c0.153-0.1718 0.1145 0.129 0 0zm-0.5067-0.01333c0.143-0.1649 0.0709 0.1656 0 0zm1.027 0.44c0.1307-0.1356 0.06434 0.1887 0 0zm-5.907 4.027c-0.1423 0.09738-0.02987-0.1479 0 0zm4.24-4.293c-0.04019-0.1731 0.1644 0.1011 0 0zm-2.44 4.613-0.08895 0.0024zm0.1733-4.413c0.08337-0.1327 0.06745 0.1443 0 0zm-1.987 4.413c-0.1446 0.0083 0.06408-0.1923 0 0zm-0.9067 0.28c0.07751 0.1213-0.2188-0.03897 0 0zm0.9067-0.1733c-0.1366 0.0082 0.04012-0.1461 0 0zm5.96-4.747c0.1303-0.05742-0.01975 0.1426 0 0zm-6.32 4.347c0.1017-0.1254 0.07773 0.0923 0 0zm5.093-4.48c0.1613-0.01741-0.08419 0.2329 0 0zm-2.827 0.4933c-0.112 0.0139 0.04199-0.1076 0 0zm-0.8933 0.2c-0.08662-0.09318 0.1285-0.05579 0 0zm4.213-0.56c0.04965-0.1629 0.1079 0.1376 0 0zm-3.32 0.1733c0.05142 0.1626-0.1376-0.03874 0 0zm-5.147 7.12c-0.06946-0.2286 0.3373-0.2339 0 0zm-0.56 1.52-0.02635-0.07363zm0.56-1.52c0.3089 0.1549-0.2921 0.05816 0 0zm0.1867-0.48c-0.06249-0.2402 0.2034 0.07756 0 0zm0.2-0.2533c-0.04212 0.2529-0.1668-0.2177 0 0zm0.02667-0.2c0.423-0.1655-0.0871 0.2264 0 0zm-0.9867 2.24c0.1576 0.02749-0.07993 0.1607 0 0zm0.7067-1.627c-0.1196-0.1745 0.153-0.02649 0 0zm-0.3067 0.7733c-0.01098 0.1646-0.1346-0.09409 0 0zm1.56-3.36c0.1501 0.3932-0.2646 0.2173 0 0zm-0.2667 0.5733c-0.1757-0.06578 0.1479-0.1028 0 0zm-1.773 2.44c0.1603-0.2145 0.0364 0.311 0 0zm0.24-0.48c-0.02502-0.1857 0.1958 0.02794 0 0zm-0.2933 0.9467c-0.2032-0.0797 0.03034-0.1286 0 0zm0.12-0.64c0.1722 0.01625-0.08619 0.1636 0 0zm0.3867-0.7467c0.1018 0.1216-0.1334 0.05516 0 0zm0.64-1.307c-0.151-0.1865 0.2023-0.09227 0 0zm0.1067-0.28c0.1979 0.08894-0.1242 0.09847 0 0zm0.3067-0.5467c-0.1532-0.1161 0.1641-0.07343 0 0z"/>
   <path d="m20.51 27.28c0.1171 1.464 0.9833-0.6389 1.165-1.075 1.073-2.355 1.919-4.895 1.881-7.507 0.2309-0.4883 0.3073 1.24 0.2781 1.582-0.1695 1.188-0.1101 1.843-0.5509 2.981-0.2125 1.027-0.9233 2.693-0.8709 3.31 0.7013-1.283 0.8761-2.771 1.438-4.106-0.2487 1.41-0.7809 2.745-1.23 4.099 0.2047 0.147-0.1762 1.242 0.2151 0.2612 0.6788-1.883 1.418-3.771 1.594-5.781 0.04327-0.6284 0.3095-1.344 0.2156-0.2829-0.1605 0.5833-0.4445 2.44-0.0764 0.925 0.2326-1.052-0.1213 1.231-0.26 1.654-0.6175 2.631-1.533 5.216-2.933 7.538-0.1412 1.567-2.436 1.544-2.177-0.1564-0.4361-1.277-0.3224-2.846-0.9793-3.959-0.5068 0.6928-0.9682 1.591-1.384 2.412-0.4785 0.8309-0.5924 1.868-1.12 2.637-0.8137 0.288-0.4121-1.115-0.8324-0.1384-1.012-0.3628 0.1003-1.993 0.1333-2.847 0.7023-2.125 1.486-4.265 2.712-6.148 0.6985-1.073 2.552-0.6065 3.013 0.4359-0.3016 0.9924-0.9589 2.081-0.5838 3.214 0.0979 0.3641 0.161 0.6538 0.3515 0.9513zm2.2 0.5733c-0.1613 0.1117-0.1139 0.07889 0 0zm1.613-5.253c0.09137-0.1072-0.2643-0.0069 0 0zm-7.36 5.587c-0.2286 0.2266 0.09655-0.0464 0 0zm0.8-2.307c0.1099-0.1321-0.2373 0.1194 0 0zm6.587-3.12c-0.1421 0.5439-0.054-0.3094 0 0zm-7.747 5.093c-0.4817 0.5868-0.9306 2.393-0.8724 2.438 0.2206-0.9257 1.095-2.203 0.9801-2.897-0.08201 0.1407-0.07112 0.3059-0.1077 0.459zm0.5467-2.173c0.224-0.4081 0.06291 0.06782 0 0zm6.8-1.533c-0.3526 0.6185 0.2668 0.0036 0 0zm-2.573 4.747c0.3691-0.6264-0.2893 0.2791 0 0zm-0.2133 0.16c-0.08862 0.4514-0.2281 0.1599-0.02846-0.0558zm-1.56-0.05333c-0.1652 0.3268 0.2128 0.4041 0 0zm-2.467-3.72-0.0789 0.1199zm1.613 0.9467c-0.1356-0.3753-0.1378-0.2275-1e-3 0.02698zm-1.707-0.1067c-0.333 0.2473-0.2039 0.6554 0 0zm-1.227 2.707c-0.4199 0.6568-0.04541 0.8045 0 0zm1.52-2.133c0.324-1.139-0.8379 1.203-0.1756 0.254l0.077-0.1337zm5.107 1.2c0.2535-0.7297-0.1065-1.065-0.3802-0.264-0.3434 0.5387 0.2551 1.263 0.3802 0.264zm-2.6 0.1733c-0.4575 0.7233 0.7144 1.475 0.3032 0.3252-0.4091-1.001-0.5976-2.28-0.7719-3.188-0.1078 0.8974 0.07169 2.037 0.4687 2.863zm2.453-1.573c-0.2365 0.3472-1.018 2.041-0.6056 1.645 0.1433-0.5684 0.4022-1.097 0.6056-1.645zm-0.1467 1.987c-0.6142 0.05525-0.8328 1.69-0.319 0.4893 0.1013-0.1642 0.1104-0.4108 0.319-0.4893zm-4.16-4.373c-0.5712 0.6369-0.1848 0.9527 0 0zm-1.253 1.92c-0.3402 0.8414 0.4447-0.789 0 0zm-0.6 1.92c-0.5592 0.7242 0.0697 0.7181 0 0zm0.04-0.01333c0.5638-0.8283 0.04144-0.595 0 0zm1.253-2.667c0.4625-0.7695-0.506 0.6214 0 0zm-2.147 5.32c0.2625-0.5529 0.2169-1.039 0.02992-0.1694zm3.6-3.92c0.0079-0.456-0.4395-0.09982 0 0zm-2.253 0.2133 0.03402-0.0583zm7.467-3.133c0.2074-0.794-0.1649 0.4868 0 0zm-2.627 5.8c-0.4346 0.03246 0.1716 0.4558 0 0zm0.5733-2.227c0.3234-0.1359-0.01756-0.4473 0 0zm-1.96-3.16c-0.25 0.2405 0.173 0.5316 0 0zm1.867 3.52c0.3784-0.2767-0.0888-0.3589 0 0zm-0.1867 1.013c0.2936-0.2799 0.03134-0.5153 0 0zm-5.427-1.747c0.2972-0.1107-0.0432-0.5198 0 0zm1.76-1.613c0.1357-0.4856-0.2316 0.3186 0 0zm3.12 3.907c-0.3056 0.2715 0.02383 0.3319 0 0zm-4.16-3.213c0.3818-0.3424-0.1139-0.2789 0 0zm6.493-0.48c0.1149 0.2629 0.02777-0.563 0 0zm-2.187 3.107c0.3221-0.2983-0.303-0.04007 0 0zm2.48-3.867c0.1513-0.3316-0.3277-8.79e-4 0 0zm-2.573 5.307c0.5173-0.3877-0.3125-0.04628 0 0zm2.093-3.787c0.1515-0.2275-0.3011-0.04545 0 0zm0.3333-1.427c0.2341 0.1919 0.05892-0.2647 0 0zm-0.06667 0.24c-0.2326 0.2447 0.2719 0.06413 0 0zm-7.587 2.48c0.2805-0.03561-0.1699-0.4248 0 0zm7.16-0.8667c0.431-0.2605-0.2206-0.2058 0 0zm-4.707-3.133c-0.1263-0.2631-0.161 0.2589 0 0zm1.013-0.1867c0.277-0.04426-0.07594-0.2748 0 0zm-1.04 0.3867c0.08345-0.2613-0.3277 0.03671 0 0zm1.04 1.187c0.2055-0.2786-0.2696-0.03824 0 0zm-4.387 6.053c0.2351 0.01019-0.04443-0.2985 0 0zm7.267-5.293c0.4162-0.07268-0.202-0.1952 0 0zm0.6267 1.24c-0.03474 0.2395 0.2178-0.1443 0 0zm-3.8 0.7467c-0.05074 0.2636 0.2619-0.1781 0 0zm-3.147-0.4533c-0.06137 0.2571 0.2708-0.04478 0 0zm1.4-0.01333c-0.271-0.1209 0.028 0.2623 0 0zm3.827 1.827c-0.2929-0.08559 0.1808 0.3696 0 0zm-2.56-6.227c0.09702-0.1834-0.1921-0.0012 0 0zm3.333 5.867c0.2086-0.1618-0.3091-0.1476 0 0zm1.4-2.973c-0.2166 0.1179 0.2997 0.1259 0 0zm-3.827 0.1733c-0.1571-0.1783-0.09067 0.2239 0 0zm3.827 0.1067c-0.2035-0.08585 0.01482 0.2493 0 0zm-5.547 0.28c0.1909 0.1562 0.01888-0.2257 0 0zm-0.92 1.053c0.2386-0.2806-0.2726 0.01063 0 0zm5.36 1.387-0.09038 0.02479zm-4.747-2.88c-0.1444-0.1434-0.04011 0.2501 0 0zm0.2-2c-0.1786 0.09779 0.1865 0.07428 0 0zm-0.8533 1.813c0.1206-0.2038-0.3074 0.09068 0 0zm2.693 3.813c0.3521-0.04355-0.1719-0.1885 0 0zm0.8-1.627c0.1804-0.07629-0.1531-0.1161 0 0zm-1.547-0.8133c0.02595-0.1628-0.18 0.04317 0 0zm-0.1067-3.333c-0.2066 0.03633 0.07464 0.1861 0 0zm-2.253 4.667c-0.2129-0.06691 0.06868 0.2696 0 0zm-0.3867-1.267c0.03412 0.1717 0.1613-0.09886 0 0zm7.907-3.92c0.08532 0.2528 0.1763-0.168 0 0zm-6.173 4.053c0.2045-0.0913-0.2045-0.0913 0 0zm4.293-1c0.2355 0.08115-0.02627-0.2079 0 0zm0.1733-0.4533c-0.1622 0.1167 0.1829 0.1142 0 0zm1.387-6.56c0.05911-0.2123-0.1916-0.01417 0 0zm-5.88 6.493c-0.0696-0.1448-0.1709 0.07358 0 0zm-2.027 2.373c0.159-0.08614-0.07408-0.1603 0 0zm6.2-1.48c0.2266-0.0015-0.1617-0.1842 0 0zm-1.36 4.947c-0.175 0.09071 0.2311 0.1402 0 0zm1.173-2.44c-0.1821 0.07184 0.1363 0.1556 0 0zm-3.867-3c0.167 0.125-0.01188-0.209 0 0zm-0.6667 1.4c0.1603-0.0668-0.1384-0.1219 0 0zm2.413 2.267c0.1234-0.09587-0.1113-0.06628 0 0zm2-1.107c-0.1771 0.03372 0.1204 0.1843 0 0zm-6.507 2.133c0.1507-0.1057-0.08551-0.1648 0 0zm4.2-3c-0.1643 0.06767 0.1388 0.1514 0 0zm0.16 1.053c-0.157-0.03305 0.03083 0.1465 0 0zm-0.8533-5.707c0.114 0.1039 0.05293-0.1368 0 0zm1.613-0.6133c0.2437-0.05459-0.08799-0.189 0 0zm-2.413 2.92c0.02779 0.1684 0.1653-0.1307 0 0zm5.987-0.8933c-0.04771-0.1597-0.1316 0.1289 0 0zm-5.707 1.293c0.05471-0.2217-0.1681 0.06446 0 0zm-2.2 0.3067c-0.1133 0.09103 0.1325 0.08143 0 0zm3.933 0c0.1934 0.1193 0.0079-0.2114 0 0zm-3.64 2.653c-0.2297 0.0758 0.1173 0.1551 0 0zm3.067-0.84c0.08592 0.1573 0.1446-0.1469 0 0zm-2.533 0.36 0.05308-0.0502zm7.2-4.56c0.1358-0.1203-0.1453-0.03062 0 0zm-6.44 2.267c0.05155 0.1336 0.1848-0.08513 0 0zm2.8 4.36 0.0764-0.03024zm3.8-7.187c0.1798-0.0083-0.1273-0.1794 0 0zm-7.387 5.227c-0.1507 0.01305 0.06283 0.1523 0 0zm-0.5867-1.227c-0.1909-0.1002 0.03323 0.2154 0 0zm2.64-0.3467c-0.07859 0.1633 0.1543-0.02086 0 0zm-2.587 2.747-0.04077 0.07617zm2.093-3.187c0.02342-0.1616-0.1499 0.0853 0 0zm5.187-5.147c-0.02446 0.1886 0.2335-0.09908 0 0zm0 0.6533c0.1463 0.09375 0.0107-0.2169 0 0zm-1.627 7.067c0.1654-0.09236-0.1467-0.05917 0 0zm1.733-3.667c0.0764-0.1379-0.1644 0.03587 0 0zm-6.013 0.24c0.1256-0.09839-0.1462-0.1019 0 0zm5.107 2.053c-0.09629-0.1147-0.04596 0.1531 0 0zm-1.533 1.2c0.1018-0.1121-0.198-0.03619 0 0zm-1.907-1.52-0.04557-0.01268zm1.28 2.987c-0.02928 0.1175 0.1588-0.01559 0 0zm-2.893-4.373c6.54e-4 0.1216 0.1391-0.03983 0 0zm-2.413 4.667c-0.1669-0.1676 0.02202 0.3317 0 0zm2.32-4.64c-0.07836 0.1394 0.1682-0.04301 0 0zm4.773 2.627c-0.1043 0.06222 0.1352 0.05861 0 0zm-3.92-4.04c0.1093-0.06447-0.137-0.09025 0 0zm-2.48 4.493c-0.01145 0.1254 0.1359-0.05801 0 0zm4.36-1.84c0.0061 0.1225 0.1279-0.05821 0 0zm-0.05333-3.333c-0.1075 0.03753 0.09224 0.1068 0 0zm-3.773 3.293c0.1146-0.04466-0.1287-0.05584 0 0zm2.68-1.493 0.02662-0.03981zm-2.827 1.307c-0.1031-0.01718-0.08553-0.01424 0 0zm2.293-1.68c-0.1152-0.09376-0.02808 0.1694 0 0zm0.12-2.6c0.097 0.1236 0.0452-0.1662 0 0zm4.747-0.4667c-0.1127-0.0799 1.65e-4 0.2094 0 0zm-5.907 1.88h0.06667zm2.64 0.16c-0.04218-0.0904-0.04637 0.07663 0 0zm-0.6 5.067c-0.07883-0.1774-0.101 0.1093 0 0zm3.08-4.573c0.1081 0.07415-0.02004-0.1328 0 0zm0.16 2.573c-0.0039-0.1297-0.1191 0.0904 0 0zm-0.04 0.1733c0.09271-0.0719-0.104-0.03915 0 0zm-7.4 3.533c0.09554 0.04514-0.02706-0.142 0 0zm1.307-3.2c-0.04706 0.07625 0.1231-0.0057 0 0zm3.733 0.09333c-0.05642 0.08169 0.1674-0.0084 0 0zm2.933-2.24c0.07078 0.07964 0.05781-0.1028 0 0zm-0.6667 1.267c0.0061 0.109 0.08541-0.09186 0 0zm-1.133 1.68c0.1024-0.06023-0.1399-0.05083 0 0zm-2.12 0.1867c0.08023 0.05075 0.0047-0.08465 0 0zm-2.987-2.227c0.0068-0.1332-0.122 0.04995 0 0zm1.107 0.24c-0.09507-0.01528 0.04789 0.1046 0 0zm5.92-4.853c-0.07874 0.07975 0.1141 0.03333 0 0zm0.1333 1.653c0.06332 0.4675-0.6311 1.799-0.1854 0.5722 0.05805-0.1919 0.1174-0.3835 0.1854-0.5722zm0.2667-1.64c-0.2215-0.4761 0.3392-1.452 0.08337-0.4285l-0.03874 0.2148zm-1.04 4.107c0.0562-0.5144 0.412-0.8345 0.07523-0.1399zm1.653-6.413c-0.1196-0.3091 0.07514-0.9552 0.05212-0.2473zm-1.707 5.24c0.1541 0.4227-0.3624 0.5977 0.02677 0.06062zm0.8267-1.333c-0.06452-0.4062 0.415-0.5097 0 0zm0.4667-1.933c0.07842 0.4536-0.2183 0.34 0 0zm-0.3067-0.2667c-0.1009-0.4058 0.283-0.2527 0 0zm-0.4 1.28c0.2205 0.401-0.2333 0.2348 0 0zm0.4267 0.08c0.2273 0.1538-0.2816 0.3153 0 0zm0.16-2.267c-0.1847-0.2276 0.2951-0.4526 0 0zm-1.56 5.72c-0.1263-0.2495 0.3966-0.1788 0 0zm1.227-3.773c0.03765 0.6006-0.2381 0.117 0 0zm-0.7867 3.653c0.09573 0.4907-0.2691 0.1403 0 0zm0.4-2.307c-0.2329-0.1904 0.3867-0.3005 0 0zm-3.16 2.2c-0.257-0.05953 0.1535-0.2712 0 0zm0.32 0.56c-0.2086 0.3419-0.2155-0.1934 0 0zm0.1333-3.213c0.3025 0.0099-0.1537 0.2851 0 0zm3.173-1.373c0.1532 0.282-0.2277 0.15 0 0zm0.2133 0.56c0.04057 0.1444-0.2231 0.2401 0 0zm0.1333-1.88c-0.1834-0.211 0.1775-0.1451 0 0zm0.6667-0.4667c-0.2551-0.06268 0.2111-0.3213 0 0zm-1.24 2.76c0.185 0.2602-0.2017 0.06463 0 0zm1.213-3.173c0.2013 0.209-0.2925-0.0083 0 0zm-0.9867-1.387c0.1046 0.1948-0.2218-0.0054 0 0zm-3.28 6.12c-0.2228-0.1725 0.2255-0.08695 0 0zm2.16 1.227c0.201 0.3718-0.2396 0.03235 0 0zm1.507-5.76c0.1799 0.1461-0.2254 0.2824 0 0zm-1.147 4.64c0.1592 0.1434-0.1961 0.1484 0 0zm1.213-3.44c0.08646 0.1893-0.146 0.1459 0 0zm-1.093 3.027c-0.165-0.3207 0.2191-0.04397 0 0zm1.027-2.52c-0.1324-0.1775 0.1387-0.205 0 0zm-1.067 3.56c0.1309 0.1853-0.2114 0.1175 0 0zm1.093-3.8c-0.1202-0.1173 0.1533-0.07916 0 0zm-0.7333-3.68c-0.1934-0.08067 0.1088-0.1474 0 0zm0.05333 0.12c0.2064 0.147-0.2054 0.09214 0 0zm1.04 0.32c0.2968 0.2318-0.1712 0.1057 0 0zm-0.64 2.053c-0.1771-0.1302 0.1295-0.1282 0 0zm0.16-0.96c0.2305 0.03917-0.09704 0.1569 0 0zm-3.813 6.787c-0.2043-0.07743 0.1629-0.1063 0 0zm3.52-2.32c0.1103 0.1273-0.1659 0.08388 0 0zm-3.24 3.44 0.02653-0.03364zm-2.387-0.2667c0.05355 0.1585-0.1829-0.01348 0 0zm4.533 0.1733c0.03839 0.2077-0.1607-0.06663 0 0zm-2.573-2.173c0.1221-0.1485 0.08674 0.1734 0 0zm4.573-4.147c0.1599-0.01956-0.1835 0.344 0 0zm-0.6667 1.68c-0.1327-0.03612 0.07984-0.1696 0 0zm-3.24 4.493c-0.0067 0.2018-0.156-0.08398 0 0zm-0.48-2.107c-0.1751-0.03927 0.1628-0.1601 0 0zm2.8-0.44c-0.1186-0.1465 0.2128-0.01574 0 0zm0.9733-4.547-0.01225-0.07289zm-0.16 0.4c0.1629 0.07788-0.117 0.07948 0 0zm-0.4667 3.133c-0.2008-0.07535 0.215-0.1747 0 0zm0.5867-0.6-0.02043 0.07046zm-0.24-1.493c0.09595 0.1589-0.1586-0.02425 0 0zm0.3467-1.08c-0.04061-0.2064 0.151 0.02304 0 0zm0.5733-1.013c-0.1287-0.1144 0.1005-0.06753 0 0zm-4.333 6.267c0.0024-0.2476 0.1634 0.1612 0 0zm-0.1333 0.4267c-0.136-0.07779 0.1307-0.1234 0 0zm3.613-2.48c-0.04196-0.1479 0.2061-0.01066 0 0zm0.8933-3.72c-0.1323-0.06947 0.0842-0.1236 0 0zm-4.173 4.227c0.1235-0.1583 0.02525 0.1722 0 0zm0.1467 3.907c0.07606-0.1079 0.07265 0.1277 0 0zm3.613-7.907c0.1172 0.04642-0.07214 0.07449 0 0zm-0.1733 0.04c-0.1241-0.08649 0.0891-0.06955 0 0zm-5.787 7.187c-0.1312 0.02776 0.03553-0.09261 0 0zm2.573 0.2533c0.04805-0.1446 0.06249 0.09435 0 0zm0.8 2.707 0.02809 0.06372zm1.387-5.827c-0.09533-0.09975 0.08926-0.05213 0 0zm-0.4133 2.027c0.08365 0.0889-0.1226 0.08046 0 0zm-2.507-1.173c0.1252-0.01082-0.07296 0.1372 0 0zm3.547-3.213c-0.01572-0.1126 0.09618 0.02724 0 0zm-3.08 4.987c0.05071-0.1383 0.06378 0.08703 0 0zm3.6-5.493c-0.0842-0.1066 0.1326-0.01429 0 0zm-0.01333-0.6933c-0.137-0.09026 0.1094-0.06447 0 0zm0.04-0.1467c0.1629 0.116-0.1176 0.0563 0 0zm0.4667-0.6267c-0.07764-0.09477 0.09728 0.0036 0 0zm0-0.5067c0.05059 0.1038-0.09978 0.02394 0 0zm-0.9867 4.24c-0.05098-0.1578 0.1849 0.0035 0 0zm-3.253 3.507c0.05939 0.1135-0.1391 0.04491 0 0zm2.8-1.84c-0.1542-0.06288 0.1079-0.08518 0 0zm-2.933-1.24 0.01216 0.0393zm0.08 0.5867c-0.08991 0.113-0.04137-0.1013 0 0zm0.6 2.547c-0.02908 0.09833-0.0612-0.08892 0 0zm-2.84-0.5467c-0.127 0.06438 0.03873-0.1049 0 0zm5.12-9.52c0.1141 0.05267-0.07299 0.06763 0 0zm0.36 0.56 0.01381 0.06496zm0.9733 1.173c-0.0842-0.1066 0.1326-0.01429 0 0zm-0.8667 0.4933c-0.07942-0.07415 0.08399-0.02135 0 0zm0.4667 0.9867c-0.01082-0.09379 0.06106 0.06893 0 0zm-0.06667 0.5067c0.0368-0.09658 0.05438 0.06176 0 0zm-0.1467 1.28c-0.03681 0.1119-0.07552-0.06779 0 0zm-3.413 1.6c-0.1003 0.04917-0.0168-0.1129 0 0zm-4.08 4.04c0.08751 0.3269-0.2425 0.02302 0 0zm0.06667-0.24c0.1703-0.1413 0.01451 0.1767 0 0zm3.04-0.06667c0.2108 0.02625-0.06966 0.2071 0 0zm0.24 1.027c-0.2223 0.01347 0.1143-0.2312 0 0zm-0.2933-1.293 0.05123 0.05876zm0.3333 1.573c0.1708 0.0854-0.1545 0.1489 0 0zm-0.1467-0.9867c-0.1214 0.1767-0.06173-0.198 0 0zm0 0.2133c0.2073-0.04029-0.08962 0.1644 0 0zm-0.4267-2.653c0.1704 0.02931-0.09357 0.1405 0 0zm0.4533 2.907c0.118 0.04749-0.04204 0.09615 0 0zm-0.1067-0.5467c-0.108-0.06483 0.08939-0.07753 0 0zm0.2667 0.6133c-0.1191 0.1312-0.0442-0.1605 0 0zm-0.64-2.8c0.1429-0.09633 0.05107 0.1464 0 0zm0.6267 3.387c0.1399 0.08361-0.08404 0.09341 0 0zm-0.4133-2.067c-0.1718-0.09592 0.1371-0.05861 0 0zm0.09333 0.92c-0.06976 0.09564-0.03893-0.1029 0 0zm-3.413 0.88c-0.1917 0.1309 0.02926-0.2563 0 0zm0.2-0.4533c-0.06292 0.1688-0.1028-0.1458 0 0zm0.1733-0.2533c0.1218 0.1624-0.1889 0.0065 0 0zm-0.2267 0.1867c0.04922-0.1148 0.03102-0.07238 0 0zm-0.44 1.467c0.1569 0.1705-0.1853 0.03932 0 0zm0.8133-2.147c-0.02722 0.1614-0.1411-0.0757 0 0zm-0.8533 1.973-0.02226-0.08905zm0.4667-1.147c-0.08991 0.113-0.04136-0.1013 0 0zm5.853-0.8533c0.08494 0.585-0.3806 0.6636 0 0zm-0.3333 0.6133c-0.08168-0.3479 0.2326 0.09105 0 0zm0.1067-0.2267c0.09719 0.0757-0.08233 0.05046 0 0zm-4.72-1.373c0.1393 0.2142-0.2249 0.06618 0 0zm0.1467-0.04c0.05405 0.1289-0.1186 0.01203 0 0zm3.973 2.88c0.2005-0.1371 0.02271 0.2277 0 0zm0.06667 0c-0.1225-0.2277 0.2644 0.04178 0 0zm-4.027-4.173c-0.1015-0.08714 0.08789-0.04223 0 0z"/>
   <path d="m27.19 26.36c0.7842-0.1196 3.1-0.4748 2.478 0.7472 0.02651 0.2073 0.07598 1.232-0.806 0.8853-1.264-0.2416-2.734 0.7473-3.795 0.2519-0.2391-1.248 0.9069-2.422 2.122-1.884zm0.8667 1.467c-0.5564-0.2459-0.9502 0.2262-0.1397 0.0486zm-0.2-0.5333c0.713 0.236 0.2477-0.7273 0 0zm-0.09333 0.3867c0.6671-0.1566-0.8894-0.01791 0 0zm0.6667 0.04c0.623 0.07118 0.7097-0.2918 0 0zm0.3467-0.2c0.8853-0.0403-0.6465-0.1018 0 0zm-1.787 0.2c-0.02366-0.2998-0.3741 0.1022 0 0zm1.573-0.2533c-0.4466-0.09048-0.2598 0.2832 0 0zm-0.8-0.1733c0.1746-0.5315-0.3661 0.3108 0 0zm0.3333 0.6c0.4539-0.0028 0.05915-0.3902 0 0zm1.147-0.4133c-0.3745 0.1088 0.7686 0.1036 0 0zm-2.547 0.12c-0.2632-0.2874-0.1324 0.2691 0 0zm2.493-0.4933c0.0068 0.2393 0.1544-0.2186 0 0zm-2.413 0.68c-0.2983 0.1528 0.4301 0.03551 0 0zm0.1467 0.02667c-0.07524 0.3045 0.3096-0.1642 0 0zm0.1733-0.2267c-0.04591 0.2784 0.3419-0.1343 0 0zm2.307 0.24c0.3646 0.1948-0.0076-0.2903 0 0zm-0.7467-0.8133c-0.1664 0.2615 0.2604 0.05831 0 0zm0.4267 0.01333c-0.2542 0.1057 0.2323 0.1811 0 0zm-1.04 0.56c-0.03712 0.2474 0.2568-0.1803 0 0zm1.147 0.06667c-0.04141 0.2419 0.2444-0.06316 0 0zm-1.36-0.1333c0.245-0.01663-0.1381-0.2231 0 0zm0.84-1.293c0.05761 0.2057 0.3058-0.248 0 0zm-2.347 1.467c0.2306 0.04084-0.07676-0.2138 0 0zm0.8667 0.1067c-0.1899-0.1153 0.03831 0.2976 0 0zm1.907-0.05333c0.1871-0.1216-0.2353-0.1128 0 0zm-1.44-0.2933c0.1215 0.1866 0.03251-0.2004 0 0zm-0.16 0.04c0.1804 0.0467-0.0349-0.2257 0 0zm1.08-1.293c-0.01039 0.1779 0.2014-0.1076 0 0zm-0.2667 0.9333c-0.1183 0.1392 0.159 0.06044 0 0zm-1.08 0.3067c-0.1265 0.08786 0.1054 0.01695 0 0zm2.16 0.32c0.05219-0.1998-0.1603 0.1034 0 0zm-0.5733-1.573c-0.05973 0.1895 0.2291-0.02428 0 0zm-1.427 1.053c-0.07472 0.1074 0.1498 0.05297 0 0zm-0.4933-0.1867c-0.1225 0.07119 0.1279 0.1086 0 0zm0.6 0.02667c-0.05262 0.1526 0.1225 0.06155 0 0zm0.01333-0.6933c0.04223-0.1063-0.1247-0.05916 0 0zm0.3067 0.8267v0.07355zm1.187-0.9467c0.1078-0.06494-0.1388-0.09169 0 0zm0.6133 0.04c-0.1577 0.1734-0.1729-0.2948 0 0zm-2.427 0.05333c-0.1282-0.1493 0.2152-0.06972 0 0z"/>
   <path d="m31.39 30.59c-0.5795 0.339-2.684-0.5379-1.133-0.5722 1.706 0.123 3.471-0.3883 4.792-1.487 0.4099-1.714-2.283-0.9-3.138-1.715-0.7299-1.475 1.804-1.505 2.614-2.212 0.5297-0.2196 1.792-0.9825 0.5387-0.9963-0.949 0.2185-3.264 1.24-2.74-0.67 0.8321-1.065 2.361-0.9046 3.576-0.973 1.328-0.1488 2.842 1.496 1.599 2.587-0.5398 0.5367-2.134 1.186-0.785 1.818 1.049 0.9778 1.003 2.715-0.08466 3.634-1.186 1.167-2.859 1.759-4.478 1.979-0.9566 0.106-2.604 0.0047-2.662-0.5938-0.241-0.2782 1.259 0.3978 1.72 0.1921 1.447-0.04509 2.971-0.3929 4.119-1.313 1.218-0.4135 2.187-1.989 1.341-3.248-0.3485-0.8786-2.436-0.7555-1.16-0.4145 1.739 0.7556 0.9636 3.06-0.6182 3.464-0.8278 0.6854-2.006 0.9295-2.88 0.4423-0.2044 0.04287-0.4121 0.07616-0.6214 0.07933zm5.813-7.44c-0.7185-0.476 0.6507 0.2975-0.2117-0.3623-0.7412-0.5646-2.239-0.602-2.694-0.01728 1.02-0.1384 2.027-0.2418 2.905 0.3796zm-3.907 8.173c0.2407-0.35-0.09348 0.2897 0 0zm-3.573-1.053c0.3987 0.2478-0.03794-0.1136 0 0zm4.347-7.12c-0.118 0.3545 0.259-0.2117 0 0zm1.693 4.027c0.2901 0.3905 0.3666-0.4846 0 0zm-1.08-1.907c-0.322-0.3145-0.7019 0.5722 0 0zm-2.04 6.373c0.4786 0.3972 1.051-0.4356 0 0zm1.933-8.56c1.111 0.2659 0.2104-0.4452-0.07868 0.08094zm0.8667 6.213c0.2948 0.6224 0.7338-1.246 0.07611-0.2975-0.1806-0.08058-0.07039 0.2552-0.07611 0.2975zm-0.1067-4.36c0.4363-0.08658 1.372-1.132 0.4411-0.4145-0.1683 0.02614-1.197 0.8225-0.4411 0.4145zm-2.72 5.653c0.5762-0.03285 2.373-0.4927 1.868-0.8881-0.5212 0.4312-1.519 0.609-1.868 0.8881zm3.973-7.387c-0.6446-0.348-1.086-0.0099-0.1991 0.05918 0.06638-0.01973 0.1328-0.03945 0.1991-0.05918zm-0.16 5.013c0.05021-1.033-0.471 0.4299-0.1539 0.3499l0.06625-0.1312zm-4.96 3.64c0.6859-0.2973-0.8533 0.1083 0 0zm4.427-6.92c0.5612-0.2533 0.671-0.662 0.04397-0.08281zm0.12 2.587c-0.1259-0.01036 0.4521-0.02944 0.0057-0.0428zm-1.947-4.853c0.1862-0.2786-0.6534 0.2858 0 0zm1.16 6.547c-0.4856-0.1234-0.08721 0.4127 0 0zm0.5733-4.253c-0.3511 0.02848-0.2676 0.3767 0 0zm-0.6933 0.28c-0.2823 0.3568 0.3215-0.01462 0.1501-0.06866zm0.7067 3.253c0.2875 0.04384-0.01668-0.4382 0 0zm0.05333-0.92c0.01669-0.4153-0.4663 0.04786 0 0zm-2.613 2.613c-0.2742-0.06637-0.1897 0.4582 0 0zm2.107-0.7467c-0.2091-0.1675-0.2251 0.2791 0 0zm-2 1.2c0.4202 0.1163 0.09923-0.3061 0 0zm1.173-1.227c-0.4167 0.1038-0.01976 0.2777 0 0zm1.56-0.5733c-0.398 0.1329 0.2063 0.1718 0 0zm-3.547 2.88c-0.1328-0.2485-0.3895 0.2535 0 0zm1.173-8.88c-0.3269 0.06845 0.2302 0.2862 0 0zm1.773 4.16c-0.1018-0.2969-0.3407 0.1624 0 0zm0.6133 1.307c-0.2197 0.2999 0.3349 0.0253 0 0zm-0.4533 0.5467c0.3001-0.01824-0.2141-0.2327 0 0zm-1.933-6.173c-0.4614-0.1588-0.1964 0.2789 0 0zm2.333 5.427c-0.3406-0.02647 0.1778 0.2967 0 0zm-1.12 1.413c-0.07151-0.2616-0.285 0.1789 0 0zm-0.7333-2.907c0.2589 0.2829 0.1211-0.277 0 0zm-2.08 5.12c0.2064 0.1957 0.1517-0.236 0 0zm1.613-1.933c0.1527 0.1773 0.1506-0.2764 0 0zm-0.7467 0.92c-0.212-0.1328-0.1728 0.381 0 0zm2.68-2.28c-0.2909 3.33e-4 0.06996 0.2549 0 0zm-5.333 3.347c0.07645 0.2289 0.2407-0.0936 0 0zm5.213-4.813c-0.167 0.1872 0.2812 0.05823 0 0zm0.2667 1.627c-0.1641-0.1401-0.1337 0.3832 0 0zm-0.9467 1.173c0.0225-0.2042-0.1985 0.06215 0 0zm1-0.5333c3e-3 -0.2467-0.2053 0.1413 0 0zm0.06667-1.227c0.248 0.0353-0.01383-0.2966 0 0zm0.9067 1.493c0.227 0.01912-0.06334-0.2571 0 0zm-1.987-4.013c0.233 0.03033-0.07079-0.2187 0 0zm0.32 1.253c-0.16-0.1954-0.1482 0.2121 0 0zm-1.747-3.813c0.1501 0.1558 0.1365-0.2118 0 0zm-3.213 8.813c-0.1947-0.1368-0.196 0.1176 0 0zm2.12 0.06667c0.07724 0.2256 0.2004-0.1902 0 0zm1.653-0.5067c-0.1795-0.1307-0.0908 0.1634 0 0zm0.2-5.28c-0.152-0.07722-0.06388 0.1756 0 0zm-0.8 5.48c0.2888 0.04055-0.1042-0.1979 0 0zm3.653-8.293c0.01695-0.208-0.2257 0.04862 0 0zm-2.947 6.427c-0.2338-0.04681 0.07479 0.1907 0 0zm-0.4267 1.76c0.1442 0.1697 0.09329-0.1852 0 0zm1.147-5.893c-0.04568-0.1827-0.134 0.1488 0 0zm-2.827 6.267c-0.03113-0.2009-0.1837 0.1491 0 0zm1.733-1.28c0.2013 0.09062-0.04132-0.2359 0 0zm-3.467-0.06667c0.2259 0.0013-0.1734-0.2114 0 0zm6.387-0.6133c-0.1275-0.1741-0.03932 0.2567 0 0zm-4.533 1.947c-0.07484-0.1967-0.1495 0.1902 0 0zm3.28-6.347c-0.1839-0.1215-0.07844 0.1323 0 0zm1.2-2.467c0.08714 0.2259 0.1463-0.1107 0 0zm-1.307 7.893c0.1147 0.1226 0.04829-0.1729 0 0zm0.8933-2.92-0.06955 1.83e-4zm-4.347 3.8c-0.1656 0.08516 0.1889 0.067 0 0zm3.973-4.107c-0.1015-0.1654-0.09808 0.1535 0 0zm-1.04 1.667c0.1662 0.1275 0.0155-0.201 0 0zm1.493-7.107c0.2813 0.304 0.05838-0.2103 0 0zm0.01333 7.493c-0.2169-0.1361-9.47e-4 0.2126 0 0zm-0.8533-6.72c-0.02876 0.1823 0.1957-0.06749 0 0zm-1.8 8.24c0.1098 0.07285 0.06013-0.1544 0 0zm2.493-3.52c-0.1289-0.08442-0.06228 0.1601 0 0zm-3.653 2.933c0.01747 0.2665 0.1784-0.1083 0 0zm1.893-0.4267c0.07328 0.1521 0.1021-0.07979 0 0zm1.24-1.813c-0.2144 0.0375 0.1383 0.1179 0 0zm-1.427 3.04c-0.04273-0.1492-0.1411 0.1326 0 0zm-1.693-5.827c0.1105 0.1476 0.09741-0.2039 0 0zm-1.813 5.973c-0.04141 0.1755 0.1753-0.01495 0 0zm4.613-4.533c-0.1063-0.1211-0.06363 0.1321 0 0zm-2.973 3.24c-0.1444 0.06756 0.1377 0.1001 0 0zm0.8 0.44c0.1243 0.1488 0.0668-0.2108 0 0zm1.253 0.44c0.1445 0.1352 0.01531-0.185 0 0zm1.48-9.027c0.1763 0.02474 0.01451-0.1898 0 0zm-3.853 9.787c-0.08891-0.1496-0.08353 0.1331 0 0zm3.787-7.173c-0.1697-0.06977-0.01952 0.2391 0 0zm-4.147 5.667c0.1484 0.1498 0.02268-0.2222 0 0zm3.133-7.267c-0.1411-0.1356-0.03393 0.1833 0 0zm2.067 6.24c0.1143-0.0701-0.1273-0.1049 0 0zm-1.693 0.2267c-0.01978-0.1108-0.08957 0.1077 0 0zm-1.853 0.4667c0.1906-0.1626-0.2445-0.02447 0 0zm-2.16 1.707c0.06954 0.2245 0.1348-0.1286 0 0zm2.747-0.6c0.1291 0.0497 0.03075-0.1184 0 0zm-0.2267-1.093c0.1655 0.03231-0.05767-0.1771 0 0zm1.44-7.347 0.07283-0.02632zm-1.467 0.6667c-0.07293-0.1427-0.134 0.1462 0 0zm0.7067 6.173c-0.1399-0.07312-0.0138 0.1675 0 0zm2.933-6.147c-0.02056-0.1226-0.1543 0.06355 0 0zm-2.387 5.933c-0.07418 0.2465 0.199-0.03803 0 0zm-0.96 2.12c-0.1092-0.07904-0.05563 0.1458 0 0zm1.76-1.227c-0.07246-0.1627-0.05852 0.1807 0 0zm-4.893 0.2267c0.08181-0.09621-0.119-0.07373 0 0zm-0.56-0.06667c0.1146-0.06933-0.1204-0.1032 0 0zm4.347-5.467c0.03916-0.206-0.1882 0.09465 0 0zm1.693-0.5733c-0.0964 0.08033-0.0621 0.05175 0 0zm-0.6533-1.053c-0.1192 0.05371 0.1246 0.09976 0 0zm0.2 4.8c-0.1239 0.06535 0.1184 0.06091 0 0zm-0.2133-5.12c0.08203 0.1075 0.06995-0.1654 0 0zm-2.213 0.02667c0.1459-0.05547-0.1137-0.1062 0 0zm1 6.333c0.0041 0.1604 0.1264-0.1198 0 0zm0.5333-4.147c-0.09636-0.1035-0.08395 0.1338 0 0zm-4.88 5.08c-0.07908 0.149 0.22 0.04765 0 0zm3.36-0.28c0.05599-0.1348-0.114-0.03526 0 0zm0.05333-0.04c0.06802 0.1038 0.06446-0.1343 0 0zm-3.187 1.787c0.0043 0.1614 0.1861-0.08791 0 0zm4.067-8.52c-0.0094-0.1571-0.1196 0.1158 0 0zm1.067 1.52c-0.1044-0.07339-0.04338 0.1647 0 0zm-1.8 6.693c-0.05546-0.1033-0.06961 0.1374 0 0zm-0.01333-6.093c0.06871 0.1005 0.08426-0.1297 0 0zm-2.2 6.267c-0.1247-0.08658 0.02189 0.21 0 0zm3.4-4.867c0.1297-0.0039-0.0904-0.1191 0 0zm1.4 1.507c0.08771 0.1187 0.04243-0.1514 0 0zm-4.253 2.12c-0.09367-0.08376-0.02392 0.1535 0 0zm3.64-8.36c-0.09355-0.06541 0.0043 0.1166 0 0zm0.92 7.413c0.1125 0.03524-0.0083-0.1533 0 0zm-1-6.733c0.04137 0.1013 0.08991-0.113 0 0zm-0.1867 0.02667c0.1199-0.06168-0.1842-0.07111 0 0zm1.267 5.6c-0.124-0.01038 0.05961 0.161 0 0zm-0.8267-0.4c0.0307 0.1062 0.06699-0.09976 0 0zm-0.5067-1.053c-0.0034 0.07421 0.09189-0.03704 0 0zm1.2 3.107c0.03913 0.07458 0.04841-0.08714 0 0zm-3.213 0.6933 0.06667-0.01333zm0.76-1.333c-0.05974 0.1073 0.1343-0.01899 0 0zm-2.96 0.7067c0.07212 0.08851 0.0091-0.1715 0 0zm3.947-3.28c0.02097 0.1218 0.09708-0.1054 0 0zm1.387 3.36c0.06696-0.05406-0.08038-0.04744 0 0zm-0.6533-1.2c-0.09163-0.05799-0.02487 0.1447 0 0zm-5.68 2.8c-0.03982-0.1193-0.0765 0.08558 0 0zm4.253-6.427c0.07903 0.03124-0.0063-0.1095 0 0zm1.733 2.56c0.1306-0.04668-0.1016-0.06649 0 0zm-5.6 2.533c-0.02523-0.1183-0.09588 0.1003 0 0zm4.747-7.067c-0.03027-0.09949-0.06223 0.08998 0 0zm-3.68 7.12c0.06923-0.094-0.1184 0.0021 0 0zm4.36-7.627c-0.1125 0.01 0.09297 0.1204 0 0zm-0.12 5.027c0.01375 0.1049 0.0847-0.1039 0 0zm0.4533-5.067c-0.09394-0.04955-0.01646 0.1358 0 0zm-5.6 7.987c0.5255-0.2358 2.172 0.2277 0.7425 0.3299-0.2281 0.03311-1.683-4.7e-5 -0.7425-0.3299zm0.2267 0.1867c0.1721 0.2396 0.4433-0.2128 0 0zm0.4 0.08c0.3816 0.09534-0.1248-0.175 0 0zm0.1733-0.08c0.08578 0.1961 0.1833-0.0998 0 0zm-1.053-0.05333c-0.09565 0.1633 0.2466 0.01211 0 0zm5.613-4.347c0.6635 0.2754-0.01513 0.5527 0 0zm0.5733 0.7867c0.6005 0.1218 0.05225 0.9843 0 0zm-4.36 3.64c0.4856-0.351 0.6935 0.193 0 0zm-2.467-0.2933c-0.382 0.1315-0.3925-0.2557 0 0zm5.827-4.173c0.2627-0.2135 0.2071 0.445 0 0zm0.96 2.627c-0.2449-0.3552 0.4148-0.2206 0 0zm-6.32 1.747c-0.4102 0.1057-0.1614-0.3956 0 0zm6.56-2.547c-0.1752-0.3545 0.2989-0.2623 0 0zm-4.667 2.32c-0.3279 0.3356-0.2528-0.1228 0 0zm4.587-2.053c-0.0119-0.3225 0.2527 0.07026 0 0zm-3.267 2.293c0.2234-0.2323 0.0474 0.2739 0 0zm-0.5467 0.52c-0.2238 0.2579-0.1223-0.2307 0 0zm-2.253 0.08c-0.1563 0.2227-0.1047-0.261 0 0zm-1.36-0.84c0.2162-0.08585 0.1662 0.3103 0 0zm5.6-0.2533c-0.05905 0.2603-0.1796-0.1451 0 0zm-3.76 0.2933c-0.0175 0.2473-0.2742-0.1455 0 0zm1.253-0.06667c-0.1667 0.1935-0.1462-0.2344 0 0zm4.08-1.307c-0.2674-0.02029-0.0037-0.2272 0 0zm-6.493 1.253c-0.1911 0.1768-0.2232-0.3738 0 0zm6.64-3.24c-0.2798-0.0014 0.1185-0.1762 0 0zm-4.92 3.947c-0.1213 0.2089-0.1177-0.207 0 0zm2.293-0.5733c0.1438-0.1733 0.09275 0.2563 0 0zm-3.933 0.68c-0.1406 0.09314-0.08128-0.1419 0 0zm6.293-1.96c0.1269-0.185 0.0511 0.1465 0 0zm-4.92 1.813c0.2498 0.01393-0.09061 0.1816 0 0zm2.227-0.1867c-0.06918 0.1854-0.1844-0.1244 0 0zm-3.307-0.36c-0.1412 0.04221-0.1203-0.1378 0 0zm2.747-5.333c-0.7686 0.2621 0.5899-0.3595 0 0zm-3.507 5.08c0.1887-0.04534-0.05377 0.1701 0 0zm3.56 0.7867c-0.0845 0.1052-0.1157-0.09316 0 0zm-0.64-1.373c-0.1911 0.04186 0.06958-0.1667 0 0zm1.427 0.9467c-0.2494 0.0072 0.1652-0.1716 0 0zm1.147-0.5733c0.1628-0.05991 0.02673 0.231 0 0zm-0.3867 0.4267c-0.4275 0.2212 0.06696-0.2076 0 0zm0.2267-1.92c-0.05363 0.1242-0.1387-0.05412 0 0zm-4.24 2.04c-0.1818-0.02763 0.1064-0.1307 0 0zm3.867-0.4c0.1102-0.08666 0.07015 0.1023 0 0zm1.16-0.56c0.1177-0.06026 0.05187 0.1498 0 0zm-3.52 0.09333c-0.1356 0.09137-0.03219-0.1202 0 0zm3.827-0.08c-0.01579 0.1703-0.1442-0.09432 0 0zm-0.8133 0.5733c-0.09595-0.1398 0.125-0.02929 0 0zm-3.787 1.013c0.145-0.1616 0.07729 0.1477 0 0zm-1.373-0.84c0.1817-0.02547-0.07555 0.1566 0 0zm5.973-0.7467c-0.04745-0.148 0.1452 0.04535 0 0zm-1.533 1.08c-0.1613 0.09172 0.04565-0.1545 0 0zm-3.427 0.52c0.1186-0.09441 0.1297 0.1145 0 0zm0.4933-0.7067c0.08058-0.1153 0.05088 0.141 0 0zm2.107 0.3333c0.01455-0.1087 0.08931 0.07166 0 0zm2.6-1.493c0.01576-0.163 0.09038 0.1023 0 0zm-0.2267 0.36c0.0314-0.1176 0.07584 0.07468 0 0zm-4.48 1.4c-0.1059-0.08366 0.159-0.06606 0 0zm0.09333 0.12c-0.04726-0.1395 0.09393 0.02385 0 0zm3.387-1c0.1151 0.05733-0.09547 0.07888 0 0zm-5.253 0.08c-0.05385 0.07451-0.05663-0.0777 0 0zm0.06667 0.3333c0.08991-0.113 0.04136 0.1013 0 0zm4.133 0.05333c0.09893 0.04693-0.07845 0.06962 0 0zm-0.72-5.627c-0.04833-0.1299 0.09305 0.03398 0 0zm0.96-0.52-0.07335-0.0037zm-4.96 6.4c-0.1089 0.116-0.02218-0.1139 0 0zm3.187-1.36c-0.01515 0.1487-0.1418-0.07068 0 0zm4.027-7.067c-0.01566-0.3361 0.5855 0.5131 0 0zm-0.2667-0.1067c-0.5873 0.3037-0.04159-0.3011 0 0zm-0.7467-0.06667c-0.1249 0.1553-0.1056-0.1301 0 0zm0.4133 0.04c-0.2807 0.1257 0.07088-0.2094 0 0zm-0.9333 0c-0.1358 0.09977-0.1155-0.07895 0 0zm0.7067-0.1067c0.1123 0.1277-0.1284 0.03621 0 0zm0.08 0.01333c0.1178 0.04256-0.09109 0.09545 0 0zm-1.107 7.307c-0.0967 0.3449-0.2886-0.1141 0 0zm-0.3067 0.12c0.05442 0.2585-0.3243 0.01683 0 0zm0.36-0.12c-0.1237-0.01403 0.06704-0.09385 0 0zm-1.933 0.7733c-0.1018-0.113 0.1704-0.03559 0 0zm2.72-5.653c-0.1747-0.04003 0.3051-0.1387 0 0zm0.6533-0.5067c0.1725 0.09862-0.2183 0.1127 0 0zm0.2267-1.32c0.01819 0.1412-0.1477-0.0046 0 0zm0.06667 0.05333c0.1421-0.1451 0.08103 0.1286 0 0zm-0.68 6.08c-0.03735 0.1489-0.1055-0.0936 0 0zm-0.1467 0.1333c-0.1061-0.085 0.1201-0.03356 0 0zm-0.4133-6.333c-0.0903 0.1847-0.1727-0.1508 0 0zm-0.16 0.02667c-0.06494 0.1325-0.1113-0.1366 0 0zm-1.867 8.573c0.1386 0.2067-0.2383-0.03101 0 0zm1.667-6.373c-0.1645 0.2662-0.1013-0.2177 0 0z"/>
  </g>
  <g aria-label="WAVE">
   <path d="m19.03 310.3-1.52 4.587h-0.9042l-1.134-3.394-1.153 3.394h-0.9108l-1.52-4.587h0.8846l1.14 3.486 1.186-3.486h0.7863l1.16 3.505 1.173-3.505z"/>
   <path d="m22.56 313.8h-2.293l-0.4521 1.061h-0.878l2.064-4.587h0.8387l2.071 4.587h-0.8911zm-0.2817-0.6683-0.8649-2.005-0.8583 2.005z"/>
   <path d="m28.43 310.3-1.998 4.587h-0.8387l-2.005-4.587h0.9239l1.527 3.538 1.54-3.538z"/>
   <path d="m32.35 314.2v0.7142h-3.44v-4.587h3.348v0.7142h-2.496v1.193h2.215v0.7011h-2.215v1.265z"/>
  </g>
  <g>
   <g aria-label="PHASE">
    <path d="m12.71 265q0.6335 0 1.1 0.2088 0.4734 0.2088 0.724 0.5987 0.2506 0.3898 0.2506 0.9259 0 0.5291-0.2506 0.9259-0.2506 0.3899-0.724 0.5987-0.4664 0.2088-1.1 0.2088h-1.1v1.406h-0.905v-4.873zm-0.04177 2.701q0.5917 0 0.8981-0.2506 0.3063-0.2506 0.3063-0.717 0-0.4664-0.3063-0.717-0.3063-0.2506-0.8981-0.2506h-1.058v1.935z"/>
    <path d="m20.02 265v4.873h-0.905v-2.088h-2.52v2.088h-0.905v-4.873h0.905v2.012h2.52v-2.012z"/>
    <path d="m24.5 268.8h-2.437l-0.4804 1.128h-0.9329l2.193-4.873h0.8911l2.2 4.873h-0.9468zm-0.2994-0.7101-0.9189-2.13-0.912 2.13z"/>
    <path d="m28.05 270q-0.5639 0-1.093-0.1601-0.5221-0.1601-0.8284-0.4247l0.3133-0.7031q0.2994 0.2367 0.731 0.3898 0.4386 0.1462 0.8772 0.1462 0.543 0 0.8076-0.174 0.2715-0.174 0.2715-0.4595 0-0.2088-0.1532-0.3411-0.1462-0.1392-0.3759-0.2158-0.2297-0.0766-0.6265-0.174-0.5569-0.1323-0.905-0.2645-0.3411-0.1323-0.5917-0.4107-0.2437-0.2854-0.2437-0.7658 0-0.4038 0.2158-0.731 0.2228-0.3342 0.6614-0.5291 0.4455-0.1949 1.086-0.1949 0.4455 0 0.8772 0.1114 0.4316 0.1114 0.7449 0.3202l-0.2854 0.7031q-0.3202-0.188-0.6683-0.2854-0.3481-0.0975-0.6753-0.0975-0.536 0-0.8006 0.181-0.2576 0.181-0.2576 0.4804 0 0.2088 0.1462 0.3411 0.1532 0.1323 0.3829 0.2088 0.2297 0.0766 0.6265 0.174 0.543 0.1253 0.8911 0.2646 0.3481 0.1323 0.5917 0.4107 0.2506 0.2785 0.2506 0.7519 0 0.4038-0.2228 0.731-0.2158 0.3272-0.6614 0.5221-0.4455 0.1949-1.086 0.1949z"/>
    <path d="m34.58 269.2v0.7588h-3.655v-4.873h3.557v0.7588h-2.652v1.267h2.353v0.7449h-2.353v1.344z"/>
   </g>
   <g aria-label="SHIFT">
    <path d="m14.2 189q-0.5639 0-1.093-0.1601-0.5221-0.1601-0.8284-0.4247l0.3133-0.7031q0.2994 0.2367 0.731 0.3898 0.4386 0.1462 0.8772 0.1462 0.543 0 0.8076-0.174 0.2715-0.174 0.2715-0.4595 0-0.2088-0.1532-0.3411-0.1462-0.1392-0.3759-0.2158-0.2297-0.0766-0.6265-0.174-0.5569-0.1323-0.905-0.2645-0.3411-0.1323-0.5917-0.4107-0.2437-0.2854-0.2437-0.7658 0-0.4038 0.2158-0.731 0.2228-0.3342 0.6614-0.5291 0.4455-0.1949 1.086-0.1949 0.4455 0 0.8772 0.1114 0.4316 0.1114 0.7449 0.3202l-0.2854 0.7031q-0.3202-0.188-0.6683-0.2854-0.3481-0.0975-0.6753-0.0975-0.536 0-0.8006 0.181-0.2576 0.181-0.2576 0.4804 0 0.2088 0.1462 0.3411 0.1532 0.1323 0.3829 0.2088 0.2297 0.0766 0.6265 0.174 0.543 0.1253 0.8911 0.2646 0.3481 0.1323 0.5917 0.4107 0.2506 0.2785 0.2506 0.7519 0 0.4038-0.2228 0.731-0.2158 0.3272-0.6614 0.5221-0.4455 0.1949-1.086 0.1949z"/>
    <path d="m21.4 184v4.873h-0.905v-2.088h-2.52v2.088h-0.905v-4.873h0.905v2.012h2.52v-2.012z"/>
    <path d="m22.71 184h0.905v4.873h-0.905z"/>
    <path d="m25.84 184.8v1.483h2.353v0.7658h-2.353v1.866h-0.905v-4.873h3.557v0.7588z"/>
    <path d="m30.39 184.8h-1.615v-0.7658h4.135v0.7658h-1.615v4.107h-0.905z"/>
   </g>
   <g aria-label="PWM">
    <path d="m13.74 41.06q0.7762 0 1.348 0.2559 0.58 0.2559 0.8871 0.7335t0.3071 1.134q0 0.6482-0.3071 1.134-0.3071 0.4776-0.8871 0.7335-0.5715 0.2559-1.348 0.2559h-1.348v1.723h-1.109v-5.971zm-0.05118 3.309q0.725 0 1.1-0.3071t0.3753-0.8785-0.3753-0.8785q-0.3753-0.3071-1.1-0.3071h-1.296v2.371z"/>
    <path d="m26.06 41.06-1.979 5.971h-1.177l-1.476-4.418-1.501 4.418h-1.186l-1.979-5.971h1.151l1.484 4.538 1.544-4.538h1.024l1.51 4.563 1.527-4.563z"/>
    <path d="m32.45 47.03-0.0085-3.958-1.962 3.275h-0.4947l-1.962-3.224v3.906h-1.058v-5.971h0.9126l2.371 3.958 2.329-3.958h0.9126l0.0085 5.971z"/>
   </g>
  </g>
 </g>
</svg>
