<?xml version="1.0" encoding="UTF-8"?>
<svg width="150" height="380" version="1.1" viewBox="0 0 150 380" xmlns="http://www.w3.org/2000/svg">
 <rect x=".5" y=".5" width="149" height="379" fill="none" stroke="#000" stroke-linecap="square" stroke-miterlimit="1.579" stroke-width=".8"/>
 <path d="m79.4 359.1c-1.479 1.661-4.45 4.734-9.057 5.604l-0.0039-0.0137c-1.103 0.3262-2.181 0.545-2.996 0.6172-0.364 0.0322-0.6462 0.0252-0.8652 6e-3 0.3616-0.2997 1.078-0.7228 1.982-1.154 1.914-0.913 4.391-1.825 5.848-3.068l-0.01172-0.0137c0.01904-0.0189 0.05956-0.0277 0.07813-0.0469l-1.275-1.357c-0.4742 0.4046-1.75 0.9328-2.76 1.422-0.8674 0.317-1.789 0.633-2.838 0.873-2.606 0.5964-5.53 0.8383-7.311 0.4727l-0.375 1.826c1.491 0.3063 3.301 0.2081 5.145-0.0234-0.2468 0.2574-0.506 0.5152-0.582 0.9414-0.09586 0.5376 0.1713 1.134 0.5469 1.484 0.3885 0.363 0.8012 0.4423 1.219 0.4941 0.4175 0.0519 0.8673 0.0439 1.363 0 0.8925-0.079 1.935-0.2973 3.008-0.5957v4e-3c0.9074-0.1602 1.678-0.4756 2.473-0.7637l0.5938 1.213c1.015-0.4012 2.382-0.7762 3.637-0.8711s2.344 0.1123 2.949 0.6113l1.188-1.438c-1.139-0.9399-2.641-1.113-4.098-1.025 1.344-1.195 2.546-2.504 3.488-3.916 0.0099-0.0111 0.03708-0.032 0.04687-0.043l-0.0059-4e-3c0.025-0.0378 0.06521-0.0696 0.08984-0.1074zm3.432 0.502c-1.733 2.152-1.388 4.673 0.0625 6.07s3.884 1.801 5.928 0.4922l-1.037-1.621c-1.316 0.8432-2.739 0.5293-3.557-0.2578-0.551-0.5305-0.6638-1.286-0.4375-2.154 0.5133 0.5723 1.087 1.064 1.762 1.389 1.194 0.5742 2.598 0.6971 4.104 0.3926l-0.3809-1.887c-1.189 0.2405-2.119 0.1279-2.889-0.2422-0.7698-0.3701-1.42-1.021-1.955-2.029z" color="#000000" color-rendering="auto" dominant-baseline="auto" image-rendering="auto" shape-rendering="auto" solid-color="#000000" style="font-feature-settings:normal;font-variant-alternates:normal;font-variant-caps:normal;font-variant-ligatures:normal;font-variant-numeric:normal;font-variant-position:normal;isolation:auto;mix-blend-mode:normal;shape-padding:0;text-decoration-color:#000000;text-decoration-line:none;text-decoration-style:solid;text-indent:0;text-orientation:mixed;text-transform:none;white-space:normal"/>
 <g fill="none" stroke="#000" stroke-miterlimit="1.579">
  <rect x="118" y="3.005" width="19" height="9" rx="4.5" ry="4.5" stroke-linecap="round" stroke-linejoin="round" stroke-width=".8"/>
  <g stroke-width=".8">
   <path d="m75 116v-36.74"/>
   <path d="m75 116-38.25-15.84"/>
   <path d="m75 116 38.25-15.84"/>
   <path d="m49.14 141.9a36.57 36.59 0 0 1 0-51.75 36.57 36.59 0 0 1 51.71 1e-6 36.57 36.59 0 0 1 0 51.75" stroke-linecap="round" stroke-linejoin="round"/>
   <path d="m75 116-29.27 29.27"/>
   <path d="m75 116 29.27 29.27"/>
   <path d="m75 116-23-34.42"/>
   <path d="m75 116-40.61 8.077"/>
   <path d="m75 116 23-34.42"/>
   <path d="m75 116 40.61 8.077"/>
   <path d="m68.45 83.08-0.614-3.087"/>
   <path d="m62.15 84.99-1.204-2.908"/>
   <path d="m51.25 92.27-2.226-2.226"/>
   <path d="m47.07 97.36-2.617-1.749"/>
   <path d="m42.06 109.5-3.087-0.614"/>
   <path d="m41.41 116h-3.147"/>
   <path d="m43.97 128.9-2.908 1.204"/>
   <path d="m47.07 134.7-2.617 1.749"/>
   <path d="m81.55 83.08 0.614-3.087"/>
   <path d="m87.86 84.99 1.204-2.908"/>
   <path d="m98.75 92.27 2.226-2.226"/>
   <path d="m102.9 97.36 2.617-1.749"/>
   <path d="m107.9 109.5 3.087-0.614"/>
   <path d="m108.6 116h3.147"/>
   <path d="m106 128.9 2.908 1.204"/>
   <path d="m102.9 134.7 2.617 1.749"/>
  </g>
 </g>
 <g stroke="#000" stroke-miterlimit="1.579">
  <g stroke-linecap="round" stroke-linejoin="round">
   <ellipse cx="75" cy="116" rx="29.2" ry="29.22" fill="#fff" stroke-opacity=".9825"/>
   <path d="m74.38 83.08c-1.403 0.0305-2.526 0.2756-3.502 0.6335l-2.02 13.28c-0.1493 1.278-0.4722 2.084-1.059 2.391-6.632 2.871-10.93 9.407-10.94 16.64 0.0079 6.426 3.41 12.37 8.946 15.63 1.005 0.7 1.797 1.656 1.973 3.351l0.7643 11.05c1.906 0.8742 4.042 1.37 6.455 1.41 2.413-0.0395 4.549-0.5354 6.455-1.41l0.7638-11.04c0.1653-1.702 0.8931-2.738 1.974-3.358 5.536-3.256 8.94-9.198 8.949-15.62-0.0035-7.239-4.305-13.78-10.95-16.66-0.7722-0.4235-0.9401-1.338-1.057-2.294l-2.018-13.36c-1.116-0.409-2.423-0.6712-4.121-0.6335-0.2123-5e-3 -0.4185-4e-3 -0.6189 0z" fill="#fff" stroke-opacity=".9789"/>
   <ellipse cx="75" cy="116" rx="14.93" ry="14.94" fill="none" stroke-opacity=".9965" stroke-width=".8"/>
   <ellipse cx="75" cy="116" rx="12.66" ry="12.67" fill="none" stroke-opacity=".9965" stroke-width=".8"/>
   <path d="m74.3 82.96c-0.1815 7e-3 -0.345 0.0378-0.5185 0.0554v11.17c0 0.477 0.3841 0.8613 0.8607 0.8613h0.7224c0.4766 0 0.8607-0.3843 0.8607-0.8613v-11.18c-0.3882-0.0388-0.7922-0.0564-1.222-0.0398-0.2413-9e-3 -0.4756-9e-3 -0.7034 0z" fill="#fff"/>
  </g>
  <path d="m75 80v-20" fill="none" stroke-width=".8"/>
  <circle cx="74.96" cy="69.71" r="3.094" fill="#fff" stroke-linecap="round" stroke-linejoin="round"/>
  <circle cx="126.9" cy="64.5" r="11" fill="none" stroke-linecap="square" stroke-width=".8"/>
  <circle cx="126.9" cy="64.5" r="9" fill="none" stroke-linecap="square" stroke-width=".8"/>
  <path d="m23 259c-0.0089-4.782-0.01185-9.872 0.05494-15.04m0.4618-15.27c0.3262-6.234 0.8514-12.24 1.693-17.57" fill="none" stroke-width=".8"/>
 </g>
 <g fill="#fff" stroke="#000" stroke-linecap="round" stroke-linejoin="round" stroke-miterlimit="1.579">
  <rect x="8.593" y="256.7" width="29.08" height="43.22" rx="2.652" ry="2.652"/>
  <g stroke-width=".8">
   <rect x="43.18" y="304.7" width="29.08" height="43.22" rx="2.652" ry="2.652"/>
   <rect x="77.77" y="304.7" width="29.08" height="43.22" rx="2.652" ry="2.652"/>
   <rect x="112.4" y="304.7" width="29.08" height="43.22" rx="2.652" ry="2.652"/>
   <rect x="8.593" y="304.7" width="29.08" height="43.22" rx="2.652" ry="2.652"/>
  </g>
  <rect x="45.99" y="40.01" width="58" height="21" rx="3" ry="3" fill-opacity=".9823"/>
 </g>
 <rect x="47.99" y="42.01" width="54" height="17" rx="1" ry="1" fill="none" stroke="#000" stroke-linecap="round" stroke-linejoin="round" stroke-miterlimit="1.579" stroke-width=".8"/>
 <path d="m59.82 45.8 0.3219 0.333-0.3552 4.04h-0.1998l-0.1332-0.1443-0.6216-0.677 0.2442-2.875zm-0.4551 5.206 0.1554-0.1443h0.1998l-0.3441 4.04-0.3774 0.333-0.6216-0.677 0.2442-2.864z"/>
 <path d="m62.8 55.24-0.3219-0.333 0.3552-4.04h0.1998l0.1332 0.1443 0.6216 0.677-0.2442 2.875zm1.354-9.923 0.3663-0.3441h4.517l0.3108 0.3441-0.7436 0.6882h-3.829zm4.273 4.695 0.4662 0.5106-0.555 0.5106h-4.173l-0.4662-0.5106 0.555-0.5106zm1.365-4.207 0.3219 0.333-0.3552 4.04h-0.1998l-0.1332-0.1443-0.6216-0.677 0.2442-2.875zm-1.354 9.923-0.3663 0.3441h-4.517l-0.3108-0.3441 0.7436-0.6881h3.829z"/>
 <path d="m72.77 55.24-0.3219-0.333 0.3552-4.04h0.1998l0.1332 0.1443 0.6216 0.677-0.2442 2.875zm0.4551-5.206-0.1554 0.1443h-0.1998l0.3441-4.029 0.3774-0.3441 0.6216 0.6771-0.2442 2.875zm0.899-4.717 0.3663-0.3441h4.517l0.3108 0.3441-0.7436 0.6882h-3.829zm5.638 0.4884 0.3219 0.333-0.3552 4.04h-0.1998l-0.1332-0.1443-0.6216-0.677 0.2442-2.875zm-1.354 9.923-0.3663 0.3441h-4.517l-0.3108-0.3441 0.7436-0.6881h3.829zm0.899-4.717 0.1554-0.1443h0.1998l-0.3441 4.04-0.3774 0.333-0.6216-0.677 0.2442-2.864z"/>
 <path d="m81.86 55.11q0.0555 0.1332 0.0555 0.2664t-0.0555 0.2664-0.1443 0.222q-0.08879 0.08879-0.222 0.1443-0.1332 0.0555-0.2664 0.0555t-0.2664-0.0555-0.222-0.1443q-0.08879-0.08879-0.1443-0.222-0.0555-0.1332-0.0555-0.2664t0.0555-0.2664 0.1443-0.222q0.08879-0.08879 0.222-0.1443 0.1332-0.0555 0.2664-0.0555t0.2664 0.0555 0.222 0.1443q0.08879 0.08879 0.1443 0.222z"/>
 <path d="m83.82 55.39-0.2615-0.2705 0.2886-3.282h0.1623l0.1082 0.1172 0.505 0.55-0.1984 2.335zm0.3697-4.229-0.1262 0.1172h-0.1623l0.2795-3.273 0.3066-0.2795 0.505 0.55-0.1984 2.335zm0.7304-3.832 0.2976-0.2795h3.67l0.2525 0.2795-0.6042 0.5591h-3.111zm4.581 0.3968 0.2615 0.2705-0.2886 3.282h-0.1623l-0.1082-0.1172-0.505-0.55 0.1984-2.335zm-1.1 8.061-0.2976 0.2795h-3.67l-0.2525-0.2795 0.6042-0.5591h3.111zm0.7304-3.832 0.1262-0.1172h0.1623l-0.2795 3.282-0.3066 0.2705-0.505-0.55 0.1984-2.326z"/>
 <path d="m91.18 55.39-0.2615-0.2705 0.2886-3.282h0.1623l0.1082 0.1172 0.505 0.55-0.1984 2.335zm0.3697-4.229-0.1262 0.1172h-0.1623l0.2795-3.273 0.3066-0.2795 0.505 0.55-0.1984 2.335zm0.7304-3.832 0.2976-0.2795h3.67l0.2525 0.2795-0.6042 0.5591h-3.111zm4.581 0.3968 0.2615 0.2705-0.2886 3.282h-0.1623l-0.1082-0.1172-0.505-0.55 0.1984-2.335zm-1.1 8.061-0.2976 0.2795h-3.67l-0.2525-0.2795 0.6042-0.5591h3.111zm0.7304-3.832 0.1262-0.1172h0.1623l-0.2795 3.282-0.3066 0.2705-0.505-0.55 0.1984-2.326z"/>
 <path d="m120.8 163.5c-7.768 7.487-17.37 13.09-28.06 16.06m-34.48 0.2644c-11.11-2.908-21.08-8.64-29.1-16.38" fill="none" stroke="#000" stroke-linecap="round" stroke-linejoin="round" stroke-miterlimit="1.579" stroke-width=".8"/>
 <g stroke="#000" stroke-linecap="square" stroke-miterlimit="1.579">
  <circle cx="58.14" cy="179.5" r="11" fill="#fff"/>
  <circle cx="58.14" cy="179.5" r="9" fill="none" stroke-width=".8"/>
  <circle cx="92.24" cy="179.5" r="11" fill="#fff"/>
 </g>
 <g fill="none" stroke="#000" stroke-miterlimit="1.579" stroke-width=".8">
  <circle cx="92.24" cy="179.5" r="9" stroke-linecap="square"/>
  <path d="m51.5 217.5v-6h2v6h5v-6h2v6h6" stroke-linecap="round" stroke-linejoin="round"/>
  <path d="m85.5 217.5 6-6v6l6-6v6" stroke-linecap="round" stroke-linejoin="round"/>
  <path d="m57.67 259v-16"/>
  <path d="m92.33 259v-16"/>
 </g>
 <g stroke="#000" stroke-miterlimit="1.579">
  <g stroke-linecap="round" stroke-linejoin="round">
   <rect x="43.18" y="256.7" width="29.08" height="43.22" rx="2.652" ry="2.652" fill="#fff"/>
   <rect x="77.77" y="256.7" width="29.08" height="43.22" rx="2.652" ry="2.652" fill="#fff"/>
   <g fill="none" stroke-width=".8">
    <circle cx="69.48" cy="225.5" r="1.688"/>
    <circle cx="104.5" cy="225.5" r="1.688"/>
    <circle cx="113.5" cy="86.52" r="1.688"/>
    <circle cx="34.73" cy="52.52" r="1.688"/>
   </g>
  </g>
  <path d="m127.2 259c9e-3 -4.797 0.0118-9.904-0.0556-15.09m-0.4618-15.23c-0.3262-6.23-0.8513-12.23-1.692-17.56" fill="none" stroke-width=".8"/>
  <rect x="112.4" y="256.7" width="29.08" height="43.22" rx="2.652" ry="2.652" fill="#fff" stroke-linecap="round" stroke-linejoin="round"/>
 </g>
 <g fill="none" stroke="#000" stroke-miterlimit="1.579" stroke-width=".8">
  <path d="m27 199.3v-16.25"/>
  <path d="m15.55 210.8a16.19 16.19 0 0 1 1e-6 -22.89 16.19 16.19 0 0 1 22.89 0 16.19 16.19 0 0 1 0 22.89" stroke-linecap="round" stroke-linejoin="round"/>
  <path d="m27 199.3-12.96 12.95"/>
  <path d="m27 199.3 12.96 12.95"/>
  <path d="m27 199.3 11.49-11.49"/>
  <path d="m27 199.3 15.01-6.219"/>
  <path d="m27 199.3-11.49-11.49"/>
  <path d="m27 199.3-15.01-6.219"/>
 </g>
 <g stroke="#000" stroke-linecap="round" stroke-linejoin="round" stroke-miterlimit="1.579">
  <circle cx="27" cy="199.3" r="13.38" fill="#fff"/>
  <path d="m29.71 186.5c-0.5638-0.1194-1.134-0.1878-1.706-0.2322-0.2947 0.3991-0.8037 0.577-1.283 0.4483-0.2652-0.0719-0.4979-0.2321-0.6596-0.4542-0.5717 0.0406-1.143 0.1048-1.707 0.2203-1.99 1.858-4.302 3.29-7.1 4.075-0.392 0.4351-0.7411 0.9025-1.07 1.384 0.1102 0.2517 0.1311 0.5334 0.05937 0.7986-0.1312 0.4779-0.5412 0.8269-1.034 0.8799-0.2549 0.5252-0.4875 1.061-0.671 1.618 0.4292 2.734 0.5182 5.462-0.02229 8.177 0.1804 0.5506 0.409 1.081 0.6591 1.601 0.06176 6e-3 0.1229 0.0173 0.183 0.0331 0.6427 0.1745 1.022 0.837 0.8478 1.48-0.01594 0.0577-0.03621 0.1142-0.06051 0.169 0.3245 0.4776 0.6685 0.9422 1.055 1.375 2.629 0.8068 5.019 2.117 7.082 4.113 0.5632 0.1194 1.133 0.1873 1.704 0.2317 0.295-0.3984 0.8038-0.5756 1.282-0.4468 0.2645 0.072 0.4967 0.2321 0.658 0.4538 0.5713-0.0403 1.141-0.1041 1.705-0.2192 2.114-1.892 4.523-3.165 7.103-4.078 0.392-0.4351 0.7411-0.9025 1.07-1.384-0.1102-0.2517-0.1311-0.5334-0.05937-0.7986 0.1312-0.4779 0.5412-0.8269 1.034-0.8799 0.2549-0.5252 0.4875-1.061 0.671-1.618-0.5799-2.751-0.4825-5.472 0.02145-8.174-0.1806-0.552-0.4092-1.083-0.6598-1.604-0.06073-6e-3 -0.1209-0.017-0.1799-0.0323-0.6423-0.1735-1.023-0.8344-0.8502-1.477 0.01653-0.0582 0.03737-0.1151 0.06246-0.1701-0.3246-0.4782-0.6694-0.9437-1.056-1.377-2.612-0.8905-4.973-2.26-7.081-4.112z" fill="none" stroke-width=".8"/>
  <ellipse transform="scale(1,-1)" cx="27" cy="-199.3" rx="9.054" ry="9.06" fill="none" stroke-width=".8"/>
  <path d="m26.3 186.1c-0.1815 7e-3 -0.345 0.0378-0.5185 0.0553v5.149c0 0.477 0.3841 0.8613 0.8607 0.8613h0.7224c0.4766 0 0.8607-0.3843 0.8607-0.8613v-5.164c-0.3882-0.0388-0.7922-0.0564-1.222-0.0398-0.2413-9e-3 -0.4756-9e-3 -0.7034 1e-5z" fill="#fff"/>
 </g>
 <g fill="none" stroke="#000" stroke-miterlimit="1.579" stroke-width=".8">
  <path d="m123 199.3v-16.25"/>
  <path d="m111.6 210.8a16.19 16.19 0 0 1 0-22.89 16.19 16.19 0 0 1 22.89 0 16.19 16.19 0 0 1 0 22.89" stroke-linecap="round" stroke-linejoin="round"/>
  <path d="m123 199.3-12.96 12.95"/>
  <path d="m123 199.3 12.96 12.95"/>
  <path d="m123 199.3 11.49-11.49"/>
  <path d="m123 199.3 15.01-6.219"/>
  <path d="m123 199.3-11.49-11.49"/>
  <path d="m123 199.3-15.01-6.219"/>
 </g>
 <g stroke="#000" stroke-linecap="round" stroke-linejoin="round" stroke-miterlimit="1.579">
  <circle cx="123" cy="199.3" r="13.38" fill="#fff"/>
  <path d="m125.7 186.5c-0.5638-0.1194-1.134-0.1878-1.706-0.2322-0.2947 0.3991-0.8038 0.577-1.283 0.4483-0.2652-0.0719-0.4978-0.2321-0.6596-0.4542-0.5717 0.0406-1.143 0.1048-1.707 0.2203-1.99 1.858-4.302 3.29-7.1 4.075-0.392 0.4351-0.7412 0.9025-1.07 1.384 0.1102 0.2517 0.1311 0.5334 0.0594 0.7986-0.1312 0.4779-0.5412 0.8269-1.034 0.8799-0.2549 0.5252-0.4875 1.061-0.671 1.618 0.4292 2.734 0.5182 5.462-0.0223 8.177 0.1804 0.5506 0.409 1.081 0.6591 1.601 0.0618 6e-3 0.1229 0.0173 0.183 0.0331 0.6427 0.1745 1.022 0.837 0.8478 1.48-0.0159 0.0577-0.0362 0.1142-0.0605 0.169 0.3245 0.4776 0.6685 0.9422 1.055 1.375 2.629 0.8068 5.019 2.117 7.082 4.113 0.5632 0.1194 1.133 0.1873 1.704 0.2317 0.295-0.3984 0.8038-0.5756 1.282-0.4468 0.2646 0.072 0.4967 0.2321 0.658 0.4538 0.5713-0.0403 1.141-0.1041 1.705-0.2192 2.114-1.892 4.523-3.165 7.103-4.078 0.392-0.4351 0.7411-0.9025 1.07-1.384-0.1102-0.2517-0.1311-0.5334-0.0594-0.7986 0.1312-0.4779 0.5412-0.8269 1.034-0.8799 0.2549-0.5252 0.4875-1.061 0.671-1.618-0.5799-2.751-0.4825-5.472 0.0215-8.174-0.1806-0.552-0.4092-1.083-0.6598-1.604-0.0607-6e-3 -0.1208-0.017-0.1799-0.0323-0.6423-0.1735-1.023-0.8344-0.8502-1.477 0.0165-0.0582 0.0374-0.1151 0.0625-0.1701-0.3246-0.4782-0.6694-0.9437-1.056-1.377-2.612-0.8905-4.973-2.26-7.081-4.112z" fill="none" stroke-width=".8"/>
  <ellipse transform="scale(1,-1)" cx="123" cy="-199.3" rx="9.054" ry="9.06" fill="none" stroke-width=".8"/>
  <path d="m122.3 186.1c-0.1815 7e-3 -0.345 0.0378-0.5185 0.0553v5.149c0 0.477 0.3841 0.8613 0.8607 0.8613h0.7224c0.4766 0 0.8607-0.3843 0.8607-0.8613v-5.164c-0.3882-0.0388-0.7922-0.0564-1.222-0.0398-0.2412-9e-3 -0.4756-9e-3 -0.7034 1e-5z" fill="#fff"/>
  <g fill="#fff" stroke-width=".8">
   <path d="m126.9 277.5c-3.748 1e-5 -6.786 3.038-6.787 6.786 0 3.748 3.038 6.787 6.787 6.787 3.748-6e-4 6.786-3.039 6.786-6.787-5e-4 -3.747-3.038-6.785-6.786-6.786zm0 1.602c2.862 5.6e-4 5.183 2.321 5.184 5.184 0 2.863-2.321 5.184-5.184 5.185-2.864 0-5.185-2.321-5.185-5.185 6e-4 -2.863 2.322-5.184 5.185-5.184z"/>
   <path d="m126.9 325.5c-3.748 1e-5 -6.786 3.038-6.787 6.786 0 3.748 3.038 6.787 6.787 6.787 3.748-6e-4 6.786-3.039 6.786-6.787-5e-4 -3.747-3.038-6.785-6.786-6.786zm0 1.602c2.862 5.6e-4 5.183 2.321 5.184 5.184 0 2.863-2.321 5.184-5.184 5.185-2.864 0-5.185-2.321-5.185-5.185 6e-4 -2.863 2.322-5.184 5.185-5.184z"/>
   <path d="m23.15 277.5c-3.748 1e-5 -6.786 3.038-6.787 6.786 0 3.748 3.038 6.787 6.787 6.787 3.748-6e-4 6.786-3.039 6.786-6.787-5e-4 -3.747-3.038-6.785-6.786-6.786zm0 1.602c2.862 5.6e-4 5.183 2.321 5.184 5.184 0 2.863-2.321 5.184-5.184 5.185-2.864 0-5.185-2.321-5.185-5.185 6e-4 -2.863 2.322-5.184 5.185-5.184z"/>
   <path d="m23.15 327.1c2.862 5.6e-4 5.183 2.321 5.184 5.184 0 2.863-2.321 5.184-5.184 5.185-2.864 0-5.185-2.321-5.185-5.185 6e-4 -2.863 2.322-5.184 5.185-5.184z"/>
   <path d="m57.74 277.5c-3.748 1e-5 -6.786 3.038-6.787 6.786 0 3.748 3.038 6.787 6.787 6.787 3.748-6e-4 6.786-3.039 6.786-6.787-5e-4 -3.747-3.038-6.785-6.786-6.786zm0 1.602c2.862 5.6e-4 5.183 2.321 5.184 5.184 0 2.863-2.321 5.184-5.184 5.185-2.864 0-5.185-2.321-5.185-5.185 6e-4 -2.863 2.322-5.184 5.185-5.184z"/>
   <path d="m57.74 325.5c-3.748 1e-5 -6.786 3.038-6.787 6.786 0 3.748 3.038 6.787 6.787 6.787 3.748-6e-4 6.786-3.039 6.786-6.787-5e-4 -3.747-3.038-6.785-6.786-6.786zm0 1.602c2.862 5.6e-4 5.183 2.321 5.184 5.184 0 2.863-2.321 5.184-5.184 5.185-2.864 0-5.185-2.321-5.185-5.185 6e-4 -2.863 2.322-5.184 5.185-5.184z"/>
   <path d="m92.33 277.5c-3.748 1e-5 -6.786 3.038-6.787 6.786 0 3.748 3.038 6.787 6.787 6.787 3.748-6e-4 6.786-3.039 6.786-6.787-5e-4 -3.747-3.038-6.785-6.786-6.786zm0 1.602c2.862 5.6e-4 5.183 2.321 5.184 5.184 0 2.863-2.321 5.184-5.184 5.185-2.864 0-5.185-2.321-5.185-5.185 6e-4 -2.863 2.322-5.184 5.185-5.184z"/>
   <path d="m92.33 325.5c-3.748 1e-5 -6.786 3.038-6.787 6.786 0 3.748 3.038 6.787 6.787 6.787 3.748-6e-4 6.786-3.039 6.786-6.787-5e-4 -3.747-3.038-6.785-6.786-6.786zm0 1.602c2.862 5.6e-4 5.183 2.321 5.184 5.184 0 2.863-2.321 5.184-5.184 5.185-2.864 0-5.185-2.321-5.185-5.185 6e-4 -2.863 2.322-5.184 5.185-5.184z"/>
   <path d="m126.9 229.5c-3.748 1e-5 -6.786 3.038-6.787 6.786 0 3.748 3.038 6.787 6.787 6.787 3.748-6e-4 6.786-3.039 6.786-6.787-5e-4 -3.747-3.038-6.785-6.786-6.786zm0 1.602c2.862 5.6e-4 5.183 2.321 5.184 5.184 0 2.863-2.321 5.184-5.184 5.185-2.864 0-5.185-2.321-5.185-5.185 6e-4 -2.863 2.322-5.184 5.185-5.184z"/>
   <path d="m23.15 229.5c-3.748 1e-5 -6.786 3.038-6.787 6.786 0 3.748 3.038 6.787 6.787 6.787 3.748-6e-4 6.786-3.039 6.786-6.787-5e-4 -3.747-3.038-6.785-6.786-6.786zm0 1.602c2.862 5.6e-4 5.183 2.321 5.184 5.184 0 2.863-2.321 5.184-5.184 5.185-2.864 0-5.185-2.321-5.185-5.185 6e-4 -2.863 2.322-5.184 5.185-5.184z"/>
   <path d="m57.74 229.5c-3.748 1e-5 -6.786 3.038-6.787 6.786 0 3.748 3.038 6.787 6.787 6.787 3.748-6e-4 6.786-3.039 6.786-6.787-5e-4 -3.747-3.038-6.785-6.786-6.786zm0 1.602c2.862 5.6e-4 5.183 2.321 5.184 5.184 0 2.863-2.321 5.184-5.184 5.185-2.864 0-5.185-2.321-5.185-5.185 6e-4 -2.863 2.322-5.184 5.185-5.184z"/>
   <path d="m92.33 229.5c-3.748 1e-5 -6.786 3.038-6.787 6.786 0 3.748 3.038 6.787 6.787 6.787 3.748-6e-4 6.786-3.039 6.786-6.787-5e-4 -3.747-3.038-6.785-6.786-6.786zm0 1.602c2.862 5.6e-4 5.183 2.321 5.184 5.184 0 2.863-2.321 5.184-5.184 5.185-2.864 0-5.185-2.321-5.185-5.185 6e-4 -2.863 2.322-5.184 5.185-5.184z"/>
   <path d="m126.9 145.2a12.13 12.13 0 0 0-12.13 12.13 12.13 12.13 0 0 0 12.13 12.13 12.13 12.13 0 0 0 12.13-12.13 12.13 12.13 0 0 0-12.13-12.13zm0 2.312a9.818 9.818 0 0 1 9.816 9.816 9.818 9.818 0 0 1-9.816 9.818 9.818 9.818 0 0 1-9.818-9.818 9.818 9.818 0 0 1 9.818-9.816z"/>
   <path d="m126.9 150.5c-3.748 1e-5 -6.786 3.038-6.787 6.786 0 3.748 3.038 6.787 6.787 6.787 3.748-6e-4 6.786-3.039 6.786-6.787-5e-4 -3.747-3.038-6.785-6.786-6.786zm0 1.602c2.862 5.6e-4 5.183 2.321 5.184 5.184 0 2.863-2.321 5.184-5.184 5.185-2.864 0-5.185-2.321-5.185-5.185 6e-4 -2.863 2.322-5.184 5.185-5.184z"/>
   <path d="m23.15 145.2a12.13 12.13 0 0 0-12.13 12.13 12.13 12.13 0 0 0 12.13 12.13 12.13 12.13 0 0 0 12.13-12.13 12.13 12.13 0 0 0-12.13-12.13zm0 2.312a9.818 9.818 0 0 1 9.816 9.816 9.818 9.818 0 0 1-9.816 9.818 9.818 9.818 0 0 1-9.818-9.818 9.818 9.818 0 0 1 9.818-9.816z"/>
   <path d="m23.15 150.5c-3.748 1e-5 -6.786 3.038-6.787 6.786 0 3.748 3.038 6.787 6.787 6.787 3.748-6e-4 6.786-3.039 6.786-6.787-5e-4 -3.747-3.038-6.785-6.786-6.786zm0 1.602c2.862 5.6e-4 5.183 2.321 5.184 5.184 0 2.863-2.321 5.184-5.184 5.185-2.864 0-5.185-2.321-5.185-5.185 6e-4 -2.863 2.322-5.184 5.185-5.184z"/>
   <path d="m23.15 52.19a12.13 12.13 0 0 0-12.13 12.13 12.13 12.13 0 0 0 12.13 12.13 12.13 12.13 0 0 0 12.13-12.13 12.13 12.13 0 0 0-12.13-12.13zm0 2.312a9.818 9.818 0 0 1 9.816 9.816 9.818 9.818 0 0 1-9.816 9.818 9.818 9.818 0 0 1-9.818-9.818 9.818 9.818 0 0 1 9.818-9.816z"/>
   <path d="m23.15 57.53c-3.748 1e-5 -6.786 3.038-6.787 6.786 0 3.748 3.038 6.787 6.787 6.787 3.748-6e-4 6.786-3.039 6.786-6.787-5e-4 -3.747-3.038-6.785-6.786-6.786zm0 1.602c2.862 5.6e-4 5.183 2.321 5.184 5.184 0 2.863-2.321 5.184-5.184 5.185-2.864 0-5.185-2.321-5.185-5.185 6e-4 -2.863 2.322-5.184 5.185-5.184z"/>
   <path d="m126.9 224.2a12.13 12.13 0 0 0-12.13 12.13 12.13 12.13 0 0 0 12.13 12.13 12.13 12.13 0 0 0 12.13-12.13 12.13 12.13 0 0 0-12.13-12.13zm0 2.312a9.818 9.818 0 0 1 9.816 9.816 9.818 9.818 0 0 1-9.816 9.818 9.818 9.818 0 0 1-9.818-9.818 9.818 9.818 0 0 1 9.818-9.816z"/>
   <path d="m23.13 224.2a12.13 12.13 0 0 0-12.13 12.13 12.13 12.13 0 0 0 12.13 12.13 12.13 12.13 0 0 0 12.13-12.13 12.13 12.13 0 0 0-12.13-12.13zm0 2.312a9.818 9.818 0 0 1 9.816 9.816 9.818 9.818 0 0 1-9.816 9.818 9.818 9.818 0 0 1-9.818-9.818 9.818 9.818 0 0 1 9.818-9.816z"/>
   <path d="m57.73 224.2a12.13 12.13 0 0 0-12.13 12.13 12.13 12.13 0 0 0 12.13 12.13 12.13 12.13 0 0 0 12.13-12.13 12.13 12.13 0 0 0-12.13-12.13zm0 2.312a9.818 9.818 0 0 1 9.816 9.816 9.818 9.818 0 0 1-9.816 9.818 9.818 9.818 0 0 1-9.818-9.818 9.818 9.818 0 0 1 9.818-9.816z"/>
   <path d="m92.32 224.2a12.13 12.13 0 0 0-12.13 12.13 12.13 12.13 0 0 0 12.13 12.13 12.13 12.13 0 0 0 12.13-12.13 12.13 12.13 0 0 0-12.13-12.13zm0 2.312a9.818 9.818 0 0 1 9.816 9.816 9.818 9.818 0 0 1-9.816 9.818 9.818 9.818 0 0 1-9.818-9.818 9.818 9.818 0 0 1 9.818-9.816z"/>
   <path d="m126.9 272.2a12.13 12.13 0 0 0-12.13 12.13 12.13 12.13 0 0 0 12.13 12.13 12.13 12.13 0 0 0 12.13-12.13 12.13 12.13 0 0 0-12.13-12.13zm0 2.312a9.818 9.818 0 0 1 9.816 9.816 9.818 9.818 0 0 1-9.816 9.818 9.818 9.818 0 0 1-9.818-9.818 9.818 9.818 0 0 1 9.818-9.816z"/>
   <path d="m23.13 272.2a12.13 12.13 0 0 0-12.13 12.13 12.13 12.13 0 0 0 12.13 12.13 12.13 12.13 0 0 0 12.13-12.13 12.13 12.13 0 0 0-12.13-12.13zm0 2.312a9.818 9.818 0 0 1 9.816 9.816 9.818 9.818 0 0 1-9.816 9.818 9.818 9.818 0 0 1-9.818-9.818 9.818 9.818 0 0 1 9.818-9.816z"/>
   <path d="m57.73 272.2a12.13 12.13 0 0 0-12.13 12.13 12.13 12.13 0 0 0 12.13 12.13 12.13 12.13 0 0 0 12.13-12.13 12.13 12.13 0 0 0-12.13-12.13zm0 2.312a9.818 9.818 0 0 1 9.816 9.816 9.818 9.818 0 0 1-9.816 9.818 9.818 9.818 0 0 1-9.818-9.818 9.818 9.818 0 0 1 9.818-9.816z"/>
   <path d="m92.32 272.2a12.13 12.13 0 0 0-12.13 12.13 12.13 12.13 0 0 0 12.13 12.13 12.13 12.13 0 0 0 12.13-12.13 12.13 12.13 0 0 0-12.13-12.13zm0 2.312a9.818 9.818 0 0 1 9.816 9.816 9.818 9.818 0 0 1-9.816 9.818 9.818 9.818 0 0 1-9.818-9.818 9.818 9.818 0 0 1 9.818-9.816z"/>
   <path d="m126.9 320.2a12.13 12.13 0 0 0-12.13 12.13 12.13 12.13 0 0 0 12.13 12.13 12.13 12.13 0 0 0 12.13-12.13 12.13 12.13 0 0 0-12.13-12.13zm0 2.312a9.818 9.818 0 0 1 9.816 9.816 9.818 9.818 0 0 1-9.816 9.818 9.818 9.818 0 0 1-9.818-9.818 9.818 9.818 0 0 1 9.818-9.816z"/>
   <path d="m23.13 320.2a12.13 12.13 0 0 0-12.13 12.13 12.13 12.13 0 0 0 12.13 12.13 12.13 12.13 0 0 0 12.13-12.13 12.13 12.13 0 0 0-12.13-12.13zm0 2.312a9.818 9.818 0 0 1 9.816 9.816 9.818 9.818 0 0 1-9.816 9.818 9.818 9.818 0 0 1-9.818-9.818 9.818 9.818 0 0 1 9.818-9.816z"/>
   <path d="m57.73 320.2a12.13 12.13 0 0 0-12.13 12.13 12.13 12.13 0 0 0 12.13 12.13 12.13 12.13 0 0 0 12.13-12.13 12.13 12.13 0 0 0-12.13-12.13zm0 2.312a9.818 9.818 0 0 1 9.816 9.816 9.818 9.818 0 0 1-9.816 9.818 9.818 9.818 0 0 1-9.818-9.818 9.818 9.818 0 0 1 9.818-9.816z"/>
   <path d="m92.32 320.2a12.13 12.13 0 0 0-12.13 12.13 12.13 12.13 0 0 0 12.13 12.13 12.13 12.13 0 0 0 12.13-12.13 12.13 12.13 0 0 0-12.13-12.13zm0 2.312a9.818 9.818 0 0 1 9.816 9.816 9.818 9.818 0 0 1-9.816 9.818 9.818 9.818 0 0 1-9.818-9.818 9.818 9.818 0 0 1 9.818-9.816z"/>
  </g>
 </g>
 <g fill="none" stroke="#000" stroke-linecap="round" stroke-linejoin="round" stroke-miterlimit="1.579" stroke-width=".8">
  <rect x="13" y="3.005" width="19" height="9" rx="4.5" ry="4.5"/>
  <rect x="118" y="368" width="19" height="9" rx="4.5" ry="4.5"/>
  <rect x="13" y="368" width="19" height="9" rx="4.5" ry="4.5"/>
 </g>
 <g fill="#fff" stroke="#000" stroke-linecap="round" stroke-linejoin="round" stroke-miterlimit="1.579" stroke-width=".8">
  <path d="m122.9 296.3c1.899 0.0227 11.59-1.78 12.22-2.32 0.6775-0.5757 4.424-11.09 4.264-11.96-0.1658-0.8736-7.393-9.378-8.23-9.676-0.8379-0.298-11.82 1.715-12.49 2.291-0.6775 0.5758-4.424 11.09-4.264 11.96 0.1648 0.8738 7.393 9.378 8.23 9.676 0.054 0.0147 0.1438 0.0274 0.2698 0.0299zm3.166-2.55c-5.216-0.4567-9.074-5.055-8.618-10.27 0.4558-5.216 5.054-9.076 10.27-8.62 5.217 0.456 9.077 5.056 8.62 10.27-0.4568 5.216-5.056 9.075-10.27 8.618z"/>
  <path d="m124.3 275.8c-3.272 0-5.906 2.634-5.906 5.906v5.279c0 3.272 2.634 5.906 5.906 5.906h5.279c3.272 0 5.906-2.634 5.906-5.906v-5.279c0-3.272-2.634-5.906-5.906-5.906zm2.641 1.885a6.662 6.662 0 0 1 6.66 6.66 6.662 6.662 0 0 1-6.66 6.662 6.662 6.662 0 0 1-6.662-6.662 6.662 6.662 0 0 1 6.662-6.66z"/>
  <path d="m88.33 296.3c1.899 0.0227 11.59-1.78 12.22-2.32 0.6775-0.5757 4.424-11.09 4.264-11.96-0.1658-0.8736-7.393-9.378-8.23-9.676-0.8379-0.298-11.82 1.715-12.49 2.291-0.6775 0.5758-4.424 11.09-4.264 11.96 0.1648 0.8738 7.393 9.378 8.23 9.676 0.054 0.0147 0.1438 0.0274 0.2698 0.0299zm3.166-2.55c-5.216-0.4567-9.074-5.055-8.618-10.27 0.4558-5.216 5.054-9.076 10.27-8.62 5.217 0.456 9.077 5.056 8.62 10.27-0.4568 5.216-5.056 9.075-10.27 8.618z"/>
  <path d="m89.69 275.8c-3.272 0-5.906 2.634-5.906 5.906v5.279c0 3.272 2.634 5.906 5.906 5.906h5.279c3.272 0 5.906-2.634 5.906-5.906v-5.279c0-3.272-2.634-5.906-5.906-5.906zm2.641 1.885a6.662 6.662 0 0 1 6.66 6.66 6.662 6.662 0 0 1-6.66 6.662 6.662 6.662 0 0 1-6.662-6.662 6.662 6.662 0 0 1 6.662-6.66z"/>
  <path d="m53.75 296.3c1.899 0.0227 11.59-1.78 12.22-2.32 0.6775-0.5757 4.424-11.09 4.264-11.96-0.1658-0.8736-7.393-9.378-8.23-9.676-0.8379-0.298-11.82 1.715-12.49 2.291-0.6775 0.5758-4.424 11.09-4.264 11.96 0.1648 0.8738 7.393 9.378 8.23 9.676 0.054 0.0147 0.1438 0.0274 0.2698 0.0299zm3.166-2.55c-5.216-0.4567-9.074-5.055-8.618-10.27 0.4558-5.216 5.054-9.076 10.27-8.62 5.217 0.456 9.077 5.056 8.62 10.27-0.4568 5.216-5.056 9.075-10.27 8.618z"/>
  <path d="m55.1 275.8c-3.272 0-5.906 2.634-5.906 5.906v5.279c0 3.272 2.634 5.906 5.906 5.906h5.279c3.272 0 5.906-2.634 5.906-5.906v-5.279c0-3.272-2.634-5.906-5.906-5.906zm2.641 1.885a6.662 6.662 0 0 1 6.66 6.66 6.662 6.662 0 0 1-6.66 6.662 6.662 6.662 0 0 1-6.662-6.662 6.662 6.662 0 0 1 6.662-6.66z"/>
  <path d="m19.16 296.3c1.899 0.0227 11.59-1.78 12.22-2.32 0.6775-0.5757 4.424-11.09 4.264-11.96-0.1658-0.8736-7.393-9.378-8.23-9.676-0.8379-0.298-11.82 1.715-12.49 2.291-0.6775 0.5758-4.424 11.09-4.264 11.96 0.1648 0.8738 7.393 9.378 8.23 9.676 0.054 0.0147 0.1438 0.0274 0.2698 0.0299zm3.166-2.55c-5.216-0.4567-9.074-5.055-8.618-10.27 0.4558-5.216 5.054-9.076 10.27-8.62 5.217 0.456 9.077 5.056 8.62 10.27-0.4568 5.216-5.056 9.075-10.27 8.618z"/>
  <path d="m20.51 275.8c-3.272 0-5.906 2.634-5.906 5.906v5.279c0 3.272 2.634 5.906 5.906 5.906h5.279c3.272 0 5.906-2.634 5.906-5.906v-5.279c0-3.272-2.634-5.906-5.906-5.906zm2.641 1.885a6.662 6.662 0 0 1 6.66 6.66 6.662 6.662 0 0 1-6.66 6.662 6.662 6.662 0 0 1-6.662-6.662 6.662 6.662 0 0 1 6.662-6.66z"/>
  <path d="m122.9 344.3c1.899 0.0227 11.59-1.78 12.22-2.32 0.6775-0.5757 4.424-11.09 4.264-11.96-0.1658-0.8736-7.393-9.378-8.23-9.676-0.8379-0.298-11.82 1.715-12.49 2.291-0.6775 0.5758-4.424 11.09-4.264 11.96 0.1648 0.8738 7.393 9.378 8.23 9.676 0.054 0.0147 0.1438 0.0274 0.2698 0.0299zm3.166-2.55c-5.216-0.4567-9.074-5.055-8.618-10.27 0.4558-5.216 5.054-9.076 10.27-8.62 5.217 0.456 9.077 5.056 8.62 10.27-0.4568 5.216-5.056 9.075-10.27 8.618z"/>
  <path d="m124.3 323.8c-3.272 0-5.906 2.634-5.906 5.906v5.279c0 3.272 2.634 5.906 5.906 5.906h5.279c3.272 0 5.906-2.634 5.906-5.906v-5.279c0-3.272-2.634-5.906-5.906-5.906zm2.641 1.885a6.662 6.662 0 0 1 6.66 6.66 6.662 6.662 0 0 1-6.66 6.662 6.662 6.662 0 0 1-6.662-6.662 6.662 6.662 0 0 1 6.662-6.66z"/>
  <path d="m19.16 344.3c1.899 0.0227 11.59-1.78 12.22-2.32 0.6775-0.5757 4.424-11.09 4.264-11.96-0.1658-0.8736-7.393-9.378-8.23-9.676-0.8379-0.298-11.82 1.715-12.49 2.291-0.6775 0.5758-4.424 11.09-4.264 11.96 0.1648 0.8738 7.393 9.378 8.23 9.676 0.054 0.0147 0.1438 0.0274 0.2698 0.0299zm3.166-2.55c-5.216-0.4567-9.074-5.055-8.618-10.27 0.4558-5.216 5.054-9.076 10.27-8.62 5.217 0.456 9.077 5.056 8.62 10.27-0.4568 5.216-5.056 9.075-10.27 8.618z"/>
  <path d="m20.51 323.8c-3.272 0-5.906 2.634-5.906 5.906v5.279c0 3.272 2.634 5.906 5.906 5.906h5.279c3.272 0 5.906-2.634 5.906-5.906v-5.279c0-3.272-2.634-5.906-5.906-5.906zm2.641 1.885a6.662 6.662 0 0 1 6.66 6.66 6.662 6.662 0 0 1-6.66 6.662 6.662 6.662 0 0 1-6.662-6.662 6.662 6.662 0 0 1 6.662-6.66z"/>
  <path d="m53.75 344.3c1.899 0.0227 11.59-1.78 12.22-2.32 0.6775-0.5757 4.424-11.09 4.264-11.96-0.1658-0.8736-7.393-9.378-8.23-9.676-0.8379-0.298-11.82 1.715-12.49 2.291-0.6775 0.5758-4.424 11.09-4.264 11.96 0.1648 0.8738 7.393 9.378 8.23 9.676 0.054 0.0147 0.1438 0.0274 0.2698 0.0299zm3.166-2.55c-5.216-0.4567-9.074-5.055-8.618-10.27 0.4558-5.216 5.054-9.076 10.27-8.62 5.217 0.456 9.077 5.056 8.62 10.27-0.4568 5.216-5.056 9.075-10.27 8.618z"/>
  <path d="m55.1 323.8c-3.272 0-5.906 2.634-5.906 5.906v5.279c0 3.272 2.634 5.906 5.906 5.906h5.279c3.272 0 5.906-2.634 5.906-5.906v-5.279c0-3.272-2.634-5.906-5.906-5.906zm2.641 1.885a6.662 6.662 0 0 1 6.66 6.66 6.662 6.662 0 0 1-6.66 6.662 6.662 6.662 0 0 1-6.662-6.662 6.662 6.662 0 0 1 6.662-6.66z"/>
  <path d="m88.33 344.3c1.899 0.0227 11.59-1.78 12.22-2.32 0.6775-0.5757 4.424-11.09 4.264-11.96-0.1658-0.8736-7.393-9.378-8.23-9.676-0.8379-0.298-11.82 1.715-12.49 2.291-0.6775 0.5758-4.424 11.09-4.264 11.96 0.1648 0.8738 7.393 9.378 8.23 9.676 0.054 0.0147 0.1438 0.0274 0.2698 0.0299zm3.166-2.55c-5.216-0.4567-9.074-5.055-8.618-10.27 0.4558-5.216 5.054-9.076 10.27-8.62 5.217 0.456 9.077 5.056 8.62 10.27-0.4568 5.216-5.056 9.075-10.27 8.618z"/>
  <path d="m89.69 323.8c-3.272 0-5.906 2.634-5.906 5.906v5.279c0 3.272 2.634 5.906 5.906 5.906h5.279c3.272 0 5.906-2.634 5.906-5.906v-5.279c0-3.272-2.634-5.906-5.906-5.906zm2.641 1.885a6.662 6.662 0 0 1 6.66 6.66 6.662 6.662 0 0 1-6.66 6.662 6.662 6.662 0 0 1-6.662-6.662 6.662 6.662 0 0 1 6.662-6.66z"/>
  <path d="m122.9 248.3c1.899 0.0227 11.59-1.78 12.22-2.32 0.6775-0.5757 4.424-11.09 4.264-11.96-0.1658-0.8736-7.393-9.378-8.23-9.676-0.8379-0.298-11.82 1.715-12.49 2.291-0.6775 0.5758-4.424 11.09-4.264 11.96 0.1648 0.8738 7.393 9.378 8.23 9.676 0.054 0.0147 0.1438 0.0274 0.2698 0.0299zm3.166-2.55c-5.216-0.4567-9.074-5.055-8.618-10.27 0.4558-5.216 5.054-9.076 10.27-8.62 5.217 0.456 9.077 5.056 8.62 10.27-0.4568 5.216-5.056 9.075-10.27 8.618z"/>
  <path d="m124.3 227.8c-3.272 0-5.906 2.634-5.906 5.906v5.279c0 3.272 2.634 5.906 5.906 5.906h5.279c3.272 0 5.906-2.634 5.906-5.906v-5.279c0-3.272-2.634-5.906-5.906-5.906zm2.641 1.885a6.662 6.662 0 0 1 6.66 6.66 6.662 6.662 0 0 1-6.66 6.662 6.662 6.662 0 0 1-6.662-6.662 6.662 6.662 0 0 1 6.662-6.66z"/>
  <path d="m19.16 248.3c1.899 0.0227 11.59-1.78 12.22-2.32 0.6775-0.5757 4.424-11.09 4.264-11.96-0.1658-0.8736-7.393-9.378-8.23-9.676-0.8379-0.298-11.82 1.715-12.49 2.291-0.6775 0.5758-4.424 11.09-4.264 11.96 0.1648 0.8738 7.393 9.378 8.23 9.676 0.054 0.0147 0.1438 0.0274 0.2698 0.0299zm3.166-2.55c-5.216-0.4567-9.074-5.055-8.618-10.27 0.4558-5.216 5.054-9.076 10.27-8.62 5.217 0.456 9.077 5.056 8.62 10.27-0.4568 5.216-5.056 9.075-10.27 8.618z"/>
  <path d="m20.51 227.8c-3.272 0-5.906 2.634-5.906 5.906v5.279c0 3.272 2.634 5.906 5.906 5.906h5.279c3.272 0 5.906-2.634 5.906-5.906v-5.279c0-3.272-2.634-5.906-5.906-5.906zm2.641 1.885a6.662 6.662 0 0 1 6.66 6.66 6.662 6.662 0 0 1-6.66 6.662 6.662 6.662 0 0 1-6.662-6.662 6.662 6.662 0 0 1 6.662-6.66z"/>
  <path d="m53.75 248.3c1.899 0.0227 11.59-1.78 12.22-2.32 0.6775-0.5757 4.424-11.09 4.264-11.96-0.1658-0.8736-7.393-9.378-8.23-9.676-0.8379-0.298-11.82 1.715-12.49 2.291-0.6775 0.5758-4.424 11.09-4.264 11.96 0.1648 0.8738 7.393 9.378 8.23 9.676 0.054 0.0147 0.1438 0.0274 0.2698 0.0299zm3.166-2.55c-5.216-0.4567-9.074-5.055-8.618-10.27 0.4558-5.216 5.054-9.076 10.27-8.62 5.217 0.456 9.077 5.056 8.62 10.27-0.4568 5.216-5.056 9.075-10.27 8.618z"/>
  <path d="m55.1 227.8c-3.272 0-5.906 2.634-5.906 5.906v5.279c0 3.272 2.634 5.906 5.906 5.906h5.279c3.272 0 5.906-2.634 5.906-5.906v-5.279c0-3.272-2.634-5.906-5.906-5.906zm2.641 1.885a6.662 6.662 0 0 1 6.66 6.66 6.662 6.662 0 0 1-6.66 6.662 6.662 6.662 0 0 1-6.662-6.662 6.662 6.662 0 0 1 6.662-6.66z"/>
  <path d="m88.33 248.3c1.899 0.0227 11.59-1.78 12.22-2.32 0.6775-0.5757 4.424-11.09 4.264-11.96-0.1658-0.8736-7.393-9.378-8.23-9.676-0.8379-0.298-11.82 1.715-12.49 2.291-0.6775 0.5758-4.424 11.09-4.264 11.96 0.1648 0.8738 7.393 9.378 8.23 9.676 0.054 0.0147 0.1438 0.0274 0.2698 0.0299zm3.166-2.55c-5.216-0.4567-9.074-5.055-8.618-10.27 0.4558-5.216 5.054-9.076 10.27-8.62 5.217 0.456 9.077 5.056 8.62 10.27-0.4568 5.216-5.056 9.075-10.27 8.618z"/>
  <path d="m89.69 227.8c-3.272 0-5.906 2.634-5.906 5.906v5.279c0 3.272 2.634 5.906 5.906 5.906h5.279c3.272 0 5.906-2.634 5.906-5.906v-5.279c0-3.272-2.634-5.906-5.906-5.906zm2.641 1.885a6.662 6.662 0 0 1 6.66 6.66 6.662 6.662 0 0 1-6.66 6.662 6.662 6.662 0 0 1-6.662-6.662 6.662 6.662 0 0 1 6.662-6.66z"/>
  <path d="m122.9 169.3c1.899 0.0227 11.59-1.78 12.22-2.32 0.6775-0.5757 4.424-11.09 4.264-11.96-0.1658-0.8736-7.393-9.378-8.23-9.676-0.8379-0.298-11.82 1.715-12.49 2.291-0.6775 0.5758-4.424 11.09-4.264 11.96 0.1648 0.8738 7.393 9.378 8.23 9.676 0.054 0.0147 0.1438 0.0274 0.2698 0.0299zm3.166-2.55c-5.216-0.4567-9.074-5.055-8.618-10.27 0.4558-5.216 5.054-9.076 10.27-8.62 5.217 0.456 9.077 5.056 8.62 10.27-0.4568 5.216-5.056 9.075-10.27 8.618z"/>
  <path d="m19.16 169.3c1.899 0.0227 11.59-1.78 12.22-2.32 0.6775-0.5757 4.424-11.09 4.264-11.96-0.1658-0.8736-7.393-9.378-8.23-9.676-0.8379-0.298-11.82 1.715-12.49 2.291-0.6775 0.5758-4.424 11.09-4.264 11.96 0.1648 0.8738 7.393 9.378 8.23 9.676 0.054 0.0147 0.1438 0.0274 0.2698 0.0299zm3.166-2.55c-5.216-0.4567-9.074-5.055-8.618-10.27 0.4558-5.216 5.054-9.076 10.27-8.62 5.217 0.456 9.077 5.056 8.62 10.27-0.4568 5.216-5.056 9.075-10.27 8.618z"/>
  <path d="m19.16 76.32c1.899 0.0227 11.59-1.78 12.22-2.32 0.6775-0.5757 4.424-11.09 4.264-11.96-0.1658-0.8736-7.393-9.378-8.23-9.676-0.8379-0.298-11.82 1.715-12.49 2.291-0.6775 0.5758-4.424 11.09-4.264 11.96 0.1648 0.8738 7.393 9.378 8.23 9.676 0.054 0.0147 0.1438 0.0274 0.2698 0.0299zm3.166-2.55c-5.216-0.4567-9.074-5.055-8.618-10.27 0.4558-5.216 5.054-9.076 10.27-8.62 5.217 0.456 9.077 5.056 8.62 10.27-0.4568 5.216-5.056 9.075-10.27 8.618z"/>
  <path d="m124.3 148.8c-3.272 0-5.906 2.634-5.906 5.906v5.279c0 3.272 2.634 5.906 5.906 5.906h5.279c3.272 0 5.906-2.634 5.906-5.906v-5.279c0-3.272-2.634-5.906-5.906-5.906zm2.641 1.885a6.662 6.662 0 0 1 6.66 6.66 6.662 6.662 0 0 1-6.66 6.662 6.662 6.662 0 0 1-6.662-6.662 6.662 6.662 0 0 1 6.662-6.66z"/>
  <path d="m20.51 148.8c-3.272 0-5.906 2.634-5.906 5.906v5.279c0 3.272 2.634 5.906 5.906 5.906h5.279c3.272 0 5.906-2.634 5.906-5.906v-5.279c0-3.272-2.634-5.906-5.906-5.906zm2.641 1.885a6.662 6.662 0 0 1 6.66 6.66 6.662 6.662 0 0 1-6.66 6.662 6.662 6.662 0 0 1-6.662-6.662 6.662 6.662 0 0 1 6.662-6.66z"/>
  <path d="m20.51 55.77c-3.272 0-5.906 2.634-5.906 5.906v5.279c0 3.272 2.634 5.906 5.906 5.906h5.279c3.272 0 5.906-2.634 5.906-5.906v-5.279c0-3.272-2.634-5.906-5.906-5.906zm2.641 1.885a6.662 6.662 0 0 1 6.66 6.66 6.662 6.662 0 0 1-6.66 6.662 6.662 6.662 0 0 1-6.662-6.662 6.662 6.662 0 0 1 6.662-6.66z"/>
 </g>
 <g>
  <path d="m61.7 27.68q0.1717 0.1905 0.2978-0.05264 0.07378-0.1097 0.1249-0.2205 0.07378-0.1097 0.1952-0.2623 0.04058 0.09289 0.08232 0.1632 0.06556 0.0488 0.1085 0.09642 0.04645-0.02029 0.09289-0.04058 0.04645-0.02029 0.09407-0.06322 0.08702 0.07262 0.1741 0.1452 0.0882 0.04998 0.1514 0.144 0.08467 0.1179 0.03119 0.274-0.0535 0.1561-0.1285 0.2884-0.1238 0.1979-0.2713 0.4172-0.1238 0.1979-0.2702 0.3946-0.1214 0.1526-0.1987 0.3302 0.1202-0.13 0.2405-0.2599 0.1429-0.1288 0.2631-0.2587 0.02264 0.0012-0.0012 0.02264 0 0 0.02264 0.0012-0.04763 0.04293-0.09642 0.1085-0.02616 0.06674-0.07496 0.1323-0.7023 0.8488-1.619 1.46-0.4466 0.2946-0.9696 0.3129l-0.9543 0.01858q-0.7029-0.01377-1.249-0.428-1.922-1.462-1.831-4.09 0.04432-1.292 0.4949-2.539 0.4518-1.27 1.175-2.527 1.329-2.428 3.559-4.287 0.5215-0.4269 1.038-0.7633 0.5406-0.3578 1.146-0.6442 0.5824-0.2876 1.132-0.3726 0.5504-0.1076 1.088 0.03371 0.7185 0.1508 1.364 0.3886 0.6686 0.239 1.241 0.5864 0.1085 0.09642 0.217 0.1928 0.1097 0.07379 0.217 0.1928 0.2182 0.1702 0.02413 0.4098-0.1214 0.1526-0.0094 0.1811-0.2381 0.2146-0.4989 0.4281-0.2381 0.2146-0.5001 0.4507-0.1191 0.1073-0.2596 0.1908-0.1405 0.0835-0.2596 0.1908-0.07143 0.06439-0.2167 0.2384-0.1561-0.05351-0.2299 0.05617-0.05115 0.1108-0.1452 0.1741-0.1202 0.13-0.2631 0.2587-0.1191 0.1073-0.2393 0.2373-0.4821 0.5425-0.9631 1.062-0.4583 0.521-0.9416 1.086-0.2416 0.2825-0.438 0.5674-0.1964 0.2849-0.3939 0.5924-0.1975 0.3075-0.2749 0.4851-0.05467 0.1788-0.06642 0.4051 0.02499-0.0441 0.04998-0.0882t0.04998-0.0882q0.2557-0.5542 0.5997-1.058 0.3666-0.5031 0.7773-0.9811 0.4833-0.5651 0.9654-1.108 0.4821-0.5425 0.9654-1.108 0.0976-0.1311 0.1726-0.2634 0.09289-0.04058 0.1632-0.08232 0.07143-0.0644 0.1643-0.105-0.07261 0.08702-0.1452 0.1741-0.07261 0.08702-0.144 0.1514-0.6976 0.7583-1.349 1.496-0.6512 0.738-1.238 1.547-0.2666 0.3266-0.4892 0.6783-0.1999 0.3528-0.3998 0.7056-0.07496 0.1323-0.1058 0.2896-0.02969 0.1347-0.082 0.2681-0.1179 0.08467-0.2346 0.1467-0.09407 0.06321-0.2358 0.1694-0.1432-0.3025-0.4695-0.1379-0.04763 0.04293-0.1155 0.03941-0.0679-0.0035-0.1144 0.01677-0.4169 0.16-0.5374-0.1414-0.02146-0.02381-0.02029-0.04645 0.0012-0.02264-0.04293-0.04763-0.2431-0.1261-0.254-0.3537-0.01089-0.2276 0.07112-0.4957 0.2448-0.7818 0.8054-1.524 0.7082-0.962 1.48-1.83 0.7726-0.8906 1.677-1.706 0.3096-0.279 0.5941-0.5139 0.3072-0.2337 0.6144-0.4675l0.3537-0.254q-0.5519-0.301-1.18-0.01579-0.5586 0.2661-1.054 0.6263-0.4942 0.3375-0.9466 0.7453-0.6644 0.5557-1.196 1.186-0.5321 0.6307-0.9998 1.333-0.6414 0.9882-1.21 1.889-0.2998 0.5292-0.5318 1.062-0.2093 0.5339-0.4424 1.089-0.0488 0.06556-0.1214 0.1526-0.0488 0.06556-0.05351 0.1561-0.0071 0.1358-0.1058 0.2896-0.07378 0.1097-0.082 0.2681-0.0071 0.1358-0.03791 0.2931 0.02499-0.04411 0.0488-0.06556 0.04763-0.04292 0.1191-0.1073-0.05585 0.2014-0.1105 0.3801-0.05351 0.1561-0.107 0.3122-0.0059 0.1132-0.03556 0.2478-0.02851 0.112 0.01089 0.2276 0.06941 0.4122 0.1615 0.8255 0.09205 0.4134 0.1841 0.8267 0.07998 0.2084 0.2064 0.3966 0.1276 0.1655 0.2314 0.3525 0.07998 0.2084 0.3837 0.0426 0.5157-0.3137 0.9431-0.6774 0.4286-0.3863 0.7714-0.8679 0.0488-0.06556 0.07496-0.1323 0.02734-0.08938 0.07613-0.1549 0.07496-0.1323 0.1487-0.242 0.09642-0.1085 0.281-0.167 0.0835 0.1405 0.0085 0.2728-0.05233 0.1335-0.1726 0.2634-0.1487 0.242-0.2987 0.5066-0.1499 0.2646-0.2987 0.5066l0.02264 0.0012q0.02381-0.02146 0.02381-0.02146 0.02264 0.0012 0.04645-0.02029 0.2619-0.2361 0.4095-0.4554 0.1487-0.242 0.09492-0.5171zm0.0888-8.712q-0.1394 0.06086-0.2131 0.1705-0.194 0.2396-0.4107 0.4781-0.1928 0.217-0.3642 0.4578-0.3428 0.4816-0.6403 0.9655-0.2975 0.4839-0.5735 0.9917 0.09289-0.04058 0.144-0.1514 0.8663-1.385 1.935-2.737 0.02499-0.0441 0.04998-0.0882 0.02617-0.06673 0.05115-0.1108 0.07026-0.04176 0.1179-0.08467 0.07143-0.06439 0.1417-0.1061-0.02146-0.02381-0.0441-0.02499 0 0-0.02146-0.02381-0.07261 0.08703-0.1726 0.2634zm-3.073 5.856q0.07848-0.2002 0.1546-0.3552 0.09995-0.1764 0.1773-0.354 0.05467-0.1788 0.1308-0.3337 0.07613-0.1549 0.1534-0.3325 0.07731-0.1776 0.1523-0.3099 0.09877-0.1538 0.1761-0.3313 0.09995-0.1764 0.1761-0.3313 0.07613-0.1549 0.1534-0.3325 0.1749-0.3087 0.3963-0.6377 0.1214-0.1526 0.1964-0.2849 0.09877-0.1538 0.2214-0.329 0.09877-0.1538 0.1975-0.3075 0.09877-0.1538 0.2214-0.329 0.1214-0.1526 0.219-0.2837 0.1214-0.1526 0.2416-0.2825 0.1452-0.1741 0.2655-0.304 0.144-0.1514 0.2655-0.304 0.1202-0.13 0.2393-0.2373 0.1202-0.13 0.1964-0.2849-0.5656 0.4019-1.198 1.209-0.6309 0.7844-1.201 1.708-0.5474 0.925-0.9804 1.833-0.4318 0.8855-0.5553 1.515zm3.028-2.362 0.04528 0.0023q0.02264 0.0012 0.02264 0.0012 0.0012-0.02264 0.02381-0.02146 0.1464-0.1967 0.2928-0.3934 0.1476-0.2193 0.3166-0.4149 0.7058-0.9167 1.476-1.762 0.7702-0.8453 1.539-1.668 0.0012-0.02264 0.0012-0.02264 0.02381-0.02146-0.02146-0.02381-0.1179 0.08467-0.2131 0.1705-0.07143 0.06439-0.1667 0.1502-0.8334 0.7512-1.535 1.577-0.7 0.8035-1.357 1.655-0.1226 0.1752-0.2237 0.3743-0.1011 0.199-0.2011 0.3754zm-3.035-1.883q0.6808-0.8726 1.426-1.674 0.7679-0.8 1.537-1.623-0.9657 0.6763-1.69 1.501-0.7238 0.825-1.273 1.795zm0.6127 0.4404q0.02146 0.02381 0.02146 0.02381 0.02264 0.0012 0.0441 0.02499 0.3178-0.4375 0.6129-0.8762 0.319-0.4601 0.6594-0.8964-0.4501 0.3625-0.7464 0.8238-0.2951 0.4387-0.5915 0.9zm3.529 1.976q0.3439-0.5042 0.6867-0.9858 0.3428-0.4816 0.6879-1.008-0.2167 0.2384-0.4583 0.521-0.2178 0.2611-0.4142 0.546-0.1952 0.2623-0.3451 0.5269-0.1261 0.2431-0.157 0.4004zm-0.4769-0.4333 0.06439 0.07143q0.1726-0.2634 0.3451-0.5269 0.1726-0.2634 0.3439-0.5042-0.02146-0.02381-0.08938-0.02734zm-0.01929 6.06q0.02264 0.0012 0.02146 0.02381 0.02264 0.0012 0.04528 0.0023 0.04998-0.0882 0.1226-0.1752 0.07261-0.08702 0.1464-0.1967-0.02264-0.0012-0.04528-0.0023 0.0012-0.02264-0.02146-0.02381-0.04998 0.0882-0.1226 0.1752-0.07261 0.08702-0.1464 0.1967z"/>
  <path d="m69.37 23.12q-0.4186 0.7436-0.8371 1.487-0.3964 0.7485-0.8101 1.47-0.04645 0.1058-0.08804 0.1895-0.01945 0.08856-0.06103 0.1723-0.1836 0.3078-0.3721 0.6378-0.1615 0.3127-0.323 0.6253-0.2447 0.4801-0.4623 0.9429-0.2177 0.4628-0.4623 0.9429 0.01241 0.04915-0.01461 0.06642-0.027 0.01727-0.03672 0.06155-0.101-0.0686-0.05939-0.1523 0.04645-0.1058 0.04375-0.1993-0.1177 0.1134-0.2403 0.2489-0.09558 0.1183-0.2776 0.1015-0.0297-0.07614-0.03725-0.1474-0.0076-0.07127-0.03239-0.1696-0.1026 0.256-0.1685 0.4504-0.05616 0.1501-0.243 0.1555-0.209 5.27e-4 -0.1701-0.1766 0.0022-0.1156 0.02164-0.2041 0.04158-0.08369 0.08804-0.1895 0.3251-0.7409 0.6454-1.46 0.3251-0.7409 0.6724-1.477 0.8485-1.856 1.82-3.639 0.9716-1.783 1.975-3.605 0.142-0.2241 0.2571-0.4309 0.142-0.2241 0.2841-0.4482 0.0686-0.101 0.08804-0.1895 0.04645-0.1058-0.03994-0.2409-0.1372 0.202-0.2474 0.3866-0.1053 0.1625-0.2106 0.3251-0.3327 0.6696-0.7048 1.307-0.3673 0.6156-0.7172 1.258-0.6681 1.246-1.314 2.496-0.6411 1.229-1.248 2.511l-1.042 2.208q-0.07561 0.2387-0.1561 0.4995-0.07561 0.2387-0.1512 0.4774-0.0097 0.04429-0.04645 0.1058-0.0146 0.06641-0.02431 0.1107-0.03889 0.1771-0.1987 0.1652-0.1426 0.01512-0.1625-0.1053-0.0081-0.2803 0.07239-0.5411 0.1491-0.3618 0.2711-0.7063 0.1442-0.3397 0.2933-0.7015 0.418-0.9526 0.8534-1.878 0.4402-0.9477 0.9025-1.891 0.7118-1.445 1.463-2.858 0.7734-1.408 1.618-2.824 0.1102-0.1847 0.2204-0.3694 0.1372-0.202 0.2916-0.3769 0.09073-0.09612 0.2036-0.1874 0.1177-0.1134 0.2527-0.1998 0.2479-0.1777 0.256 0.1026 0.01512 0.1426-0.0043 0.2311l0.02214 0.0049q0.1129-0.09126 0.1987-0.1652 0.09072-0.09612 0.2257-0.1825 0 0 0.155 0.03403 0.01294 0.2581-0.107 0.4871-0.1199 0.229-0.2398 0.4579 0.1053-0.1625 0.2549-0.3154 0.1004-0.1404 0.1788-0.2857 0.07832-0.1453 0.1518-0.2684 0.2311 0.0043 0.2732 0.1296 0.04697 0.1031 0.08909 0.2284 0.04915-0.01242 0.07128-0.0076 0.04915-0.01242 0.1031-0.04697l0.03456 0.05401q-0.02431 0.1107-0.07075 0.2165-0.02431 0.1107-0.0929 0.2117-0.7172 1.258-1.434 2.516-0.6951 1.263-1.444 2.561zm0.694-1.681q0.03187-0.03943 0.03672-0.06156 0.0097-0.04429 0.04158-0.08369 0 0-0.03943-0.03186-0.03187 0.03943-0.04159 0.08369-0.0097 0.04429-0.04158 0.0837zm1.777-3.021q-0.3699 0.5222-0.7005 1.076-0.3084 0.5589-0.6216 1.14 0.397-0.5395 0.7053-1.098 0.3305-0.554 0.6168-1.118zm-1.546 1.332q-0.05887 0.05669-0.07346 0.1231 0.01241 0.04915-0.04158 0.08369 0.2695-0.3818 0.4947-0.7733 0.2474-0.3866 0.4996-0.7954 0.04158-0.08369 0.08047-0.2608-0.08318 0.1674-0.1199 0.229-0.2058 0.3029-0.4337 0.601-0.223 0.2759-0.3451 0.6205 0.01241 0.04915-0.01945 0.08856-0.03187 0.03942-0.04158 0.0837zm1.895-1.232q0.08318-0.1674 0.1615-0.3127 0.1004-0.1404 0.223-0.2759-0.1199 0.229-0.2128 0.4407-0.0929 0.2117-0.2079 0.4185-0.5044 0.8176-0.9597 1.623-0.4504 0.783-0.95 1.578-0.9549 1.601-1.865 3.211-0.8884 1.615-1.71 3.245-0.1469 0.2462-0.2765 0.5195-0.1026 0.256-0.2717 0.4974 0.08804-0.1895 0.1809-0.4012 0.0929-0.2117 0.1858-0.4234 0.2447-0.4801 0.4942-0.9823 0.2495-0.5022 0.5163-0.9774 0.03889-0.1771 0.07561-0.2387 0.142-0.2241 0.2619-0.4531 0.142-0.2241 0.2841-0.4482 0.5606-0.9677 1.089-1.896 0.5287-0.9283 1.089-1.896 0.4504-0.783 0.9279-1.583 0.4823-0.8224 0.9646-1.645z"/>
  <path d="m75.95 27.76-8.79e-4 0.02265zm-2.829-3.082 0.02353-0.02177q-0.02353 0.02177-0.02441 0.04443zm3.183 2.732q-0.07059 0.06531-0.1403 0.108-0.06971 0.04267-0.1177 0.1089-0.04706 0.04355-0.07147 0.08797-8.8e-4 0.02265-0.02529 0.06708-0.09236 0.04179-0.1394 0.08533-0.1856 0.1062-0.2309 0.1045-0.04531-0.0018-0.08357-0.1847-0.06971 0.04267-0.1385 0.06267-0.06795-0.0026-0.1377 0.04003-0.1159 0.06355-0.2562 0.1715-0.1168 0.08621-0.2544 0.1262-0.1141 0.01826-0.1856 0.1062-0.04882 0.08884-0.1638 0.1298-0.1385 0.06267-0.2553 0.1489-0.1168 0.08621-0.1238 0.2674-0.02353 0.02177-0.04706 0.04355-8.8e-4 0.02265-0.04707 0.04355-0.04619 0.02089-0.06971 0.04267-0.06619-0.04794-0.2056 0.03739-0.1159 0.06355-0.1568-0.05146-0.02353 0.02177-0.04619 0.02089-0.02265-8.79e-4 -0.02353 0.02177 0 0-0.02265-8.79e-4l-0.02265-8.79e-4q0.02089 0.04619-0.0035 0.0906-8.8e-4 0.02265 0.02001 0.06883-0.04618 0.02089-0.1159 0.06355-0.04618 0.02089-0.1159 0.06355-0.04707 0.04355-0.115 0.04091-0.0453-0.0018-0.09236 0.04179-0.1359-0.0053-0.183 0.03827-0.1185 0.1315-0.2553 0.1489-0.1368 0.01738-0.2962 0.03388-0.1812-7e-3 -0.4095 0.02948-0.2056 0.03739-0.3868 0.03036-0.2936-0.03408-0.5636-0.08994-0.2474-0.05498-0.4678-0.2223-0.2413-0.2135-0.459-0.4488-0.1942-0.2571-0.2716-0.6004-0.08093-0.2527-0.07038-0.5245 0.01143-0.2945 0.02286-0.5889 0.0026-0.06796 0.05058-0.1341 0.04882-0.08884 0.09763-0.1777 0.02441-0.04443 0.0026-0.06796-0.02089-0.04619-0.01914-0.09148 0.1064-0.4042 0.3017-0.7596 0.1962-0.378 0.4376-0.7543 0.482-0.7299 1.096-1.364 0.638-0.6558 1.384-1.171 0.2327-0.1498 0.4645-0.2769 0.2327-0.1498 0.4862-0.2534 0.1159-0.06355 0.23-0.08181 0.1377-0.04003 0.223 0.09939l0.04531 0.0018q0.2065-0.06004 0.386-0.0077 0.1803 0.02969 0.3868-0.03036 1.88-0.5168 3.067 0.482 0.2639 0.2144 0.3875 0.5368 0.04179 0.09236 0.03739 0.2056 0.01826 0.1141-0.0088 0.2265-0.01582 0.4077-0.1893 0.7866-0.1726 0.3563-0.3914 0.7334-0.3653 0.6437-0.7967 1.239-0.4079 0.574-0.95 1.097zm1.52-2.346q-0.3582 0.4625-0.6938 0.9259-0.3356 0.4634-0.6938 0.9259 0.4697-0.4128 0.828-0.8753 0.3582-0.4625 0.5597-0.9764zm-0.4834-0.4044q-0.2641 0.3754-0.4829 0.7526-0.2188 0.3772-0.4611 0.7761 0.4706-0.4354 0.815-1.125 0.04882-0.08884 0.09763-0.1777 0.07234-0.1106 0.03145-0.2256zm-6.86 1.412q0.1909-0.2421 0.3365-0.486 0.1682-0.243 0.3365-0.486 0.2859-0.3519 0.5709-0.6811 0.285-0.3292 0.5935-0.6802 0.04706-0.04355 0.04794-0.06619 8.79e-4 -0.02265 0.04794-0.06619-0.6797 0.5634-1.225 1.177-0.5456 0.614-0.8482 1.396 0.04707-0.04355 0.06971-0.04267 0.02353-0.02177 0.07059-0.06532zm0.5148 0.1788q0.1935-0.3101 0.3862-0.5975 0.1926-0.2874 0.3853-0.5749-0.2815 0.2386-0.4524 0.5496-0.17 0.2883-0.3635 0.5984 0.02265 8.79e-4 0.02177 0.02353 0 0 0.02265 8.79e-4zm1.671-1.546q-0.8253 0.8073-1.201 1.723 0.312-0.4416 0.6006-0.8614t0.6006-0.8614zm-0.3925 3.682q0.6918-0.2907 1.253-0.7227 0.5839-0.431 1.08-0.9336 0.4009-0.3928 0.7121-0.8117 0.312-0.4416 0.5788-0.8849 0.2659-0.4207 0.4402-0.8223 0.1753-0.4242 0.192-0.8546 0.0079-0.2039-0.08093-0.2527-0.06619-0.04794-0.2718-0.01055-0.5942 0.113-1.129 0.4552-0.1159 0.06355-0.2318 0.1271-0.115 0.04091-0.2544 0.1262 0.0026-0.06795 0.0044-0.1133 0.02529-0.06707 0.02705-0.1124-0.3224 0.1236-0.603 0.3396-0.2571 0.1942-0.5159 0.4337-0.09412 0.08709-0.1656 0.1751-0.07059 0.06531-0.1638 0.1298 0.1177-0.1089 0.19-0.2195 0.07322-0.1333 0.1918-0.2648-0.04707 0.04355-0.06971 0.04267-0.02265-8.79e-4 -0.04618 0.0209-0.6118 0.5661-1.113 1.204-0.5003 0.6158-0.7332 1.355-0.1526 0.4251-0.1911 0.8319-0.0376 0.3842 0.1078 0.7301 0.08357 0.1847 0.128 0.2091 0.06795 0.0026 0.2509-0.03564 0.2065-0.06004 0.4139-0.1427zm2.187-0.8225q0.6344-0.5652 1.157-1.18 0.5456-0.614 0.8926-1.372l-0.0906-0.0035q-0.2632 0.3527-0.4803 0.6846-0.217 0.3319-0.4785 0.6393-0.2615 0.3074-0.5909 0.6123-0.3068 0.3057-0.6388 0.6785 0.2056-0.03739 0.2291-0.05916zm1.035 0.2216q0.1856-0.1062 0.3277-0.2595 0.1647-0.1524 0.3294-0.3048-0.1856 0.1062-0.373 0.2577-0.1638 0.1298-0.2841 0.3066zm2.95-2.948q-0.06092-0.1838 0.08289-0.3824-0.0044 0.1133-0.03057 0.203-0.02617 0.08972-0.05146 0.1568zm-0.1874 0.1515q0.05146-0.1568 0.1874-0.1515-0.1212 0.1995-0.2423 0.3989-0.1212 0.1995-0.2423 0.3989-0.1229 0.2448-0.2903 0.4651-0.1673 0.2204-0.3791 0.4163 0.07498-0.1786 0.17-0.2883 0.2388-0.3083 0.4315-0.5958 0.1935-0.3101 0.3653-0.6437zm-1.822 2.515q-0.04355-0.04706-0.04355-0.04706 0.1882-0.1742 0.3547-0.3719 0.1665-0.1977 0.3556-0.3945-0.1229 0.2448-0.312 0.4416-0.1665 0.1977-0.3547 0.3719zm-0.3268 0.2369q-0.07147 0.08797-0.095 0.1097-0.02265-8.79e-4 -0.06531-0.07059 0.04619-0.02089 0.06883-0.02002 0.04531 0.0018 0.09148-0.01914zm-4.207-1.479q0.07234-0.1106 0.1447-0.2212 0.07322-0.1333 0.1682-0.243 0.1203-0.1768 0.2397-0.331 0.1421-0.1533 0.285-0.3292-0.07146 0.08796-0.1203 0.1768-0.04794 0.06619-0.09588 0.1324-0.122 0.2221-0.2885 0.4198-0.1438 0.1986-0.265 0.3981zm0.8394-1.17 0.02265 8.79e-4q-0.02353 0.02177-0.02441 0.04443zm-1.163 1.906q0.02529-0.06707 0.05058-0.1342 0.04882-0.08884 0.07498-0.1786l0.04531 0.0018q-0.02617 0.08972-0.07498 0.1786-0.02529 0.06708-0.05058 0.1341zm1.518-2.3t0.02353-0.02177l-8.79e-4 0.02265zm-0.3094 0.3736q0.07674-0.2239 0.3094-0.3736-0.05234 0.1795-0.3094 0.3736zm-0.04619 0.02089q0.02265 8.79e-4 0.04619-0.02089l-0.02353 0.02177z"/>
  <path d="m84.05 27.78q0.09412-0.08709 0.163-0.1071-0.02441 0.04443-0.07234 0.1106-0.02441 0.04443-0.07234 0.1106-0.1177 0.1089-0.258 0.2168-0.1168 0.08621-0.1691 0.2657-0.0026 0.06795-0.09324 0.06443-0.135-0.02793-0.2292 0.05917-0.07059 0.06531-0.1882 0.1742-0.1168 0.08621-0.2327 0.1498-0.115 0.04091-0.23 0.08181-0.4174 0.2333-0.8321 0.3987-0.3912 0.1436-0.8042 0.2637-0.115 0.04091-0.2074 0.08269-0.09236 0.04179-0.183 0.03827-0.4104 0.05212-0.839-0.0099-0.2945-0.01143-0.6298-0.1379-0.5845-0.1361-0.8414-0.5317-0.256-0.4183-0.302-0.9872-0.02772-0.4548 0.1258-0.9025 0.1535-0.4478 0.4202-0.8911 0.5588-0.9538 1.314-1.718 0.7791-0.7864 1.691-1.477 0.4671-0.3448 0.9315-0.6217 0.4871-0.276 1.015-0.437 0.1377-0.04003 0.2745-0.0574 0.1603-0.03915 0.2753-0.08005 0.3198-0.05564 0.5645 0.06728 0.2456 0.1003 0.4669 0.245 0.1777 0.09764 0.2857 0.2379 0.1306 0.1412 0.2386 0.2815 0.1715 0.2562 0.1174 0.481-0.03056 0.203-0.3147 0.5096-0.2127 0.2186-0.448 0.4363-0.2118 0.196-0.4244 0.4146-0.04706 0.04355-0.1177 0.1089-0.04794 0.0662-0.1185 0.1315 0.02265 8.8e-4 0.02353-0.02177-8.8e-4 0.02265-0.02353 0.02177 0 0-8.79e-4 0.02265l8.79e-4 -0.02265q-0.163 0.1071-0.3259 0.2142-0.1394 0.08533-0.3224 0.1236 0.0035-0.0906-0.06444-0.09324-0.04443-0.02441-0.1124-0.02705-0.06795-0.0026-0.135-0.02793-0.04443-0.02441-0.06443-0.09324-0.1847 0.08357-0.2544 0.1262-0.155-0.09676-0.01386-0.2274 0.1874-0.1515 0.3285-0.2822 0.1412-0.1306 0.2824-0.2613 0.1177-0.1089 0.2127-0.2186 0.09588-0.1324 0.2144-0.2639-0.1124-0.02705-0.183 0.03827-0.04706 0.04355-0.09412 0.08709-0.1656 0.1751-0.3303 0.3275-0.1421 0.1533-0.3303 0.3275-0.04794 0.06619-0.258 0.2168-0.03827-0.183 0.05673-0.2927 0.09588-0.1324 0.2135-0.2413 0.2588-0.2395 0.3574-0.4398-0.1847 0.08357-0.2553 0.1489-0.9786 0.6653-1.781 1.473-0.78 0.8091-1.34 1.786-0.09675 0.155-0.1926 0.2874-0.07322 0.1333-0.1247 0.2901-0.05234 0.1795-0.05937 0.3607-0.0062 0.1586-0.01319 0.3398-0.0018 0.04531 0.06531 0.07059 0.0906 0.0035 0.1368-0.01738 0.183-0.03827 0.3877-0.053 0.2056-0.03739 0.3903-0.121 0.4374-0.1645 0.8522-0.3299 0.4383-0.1872 0.8539-0.3752 0.2074-0.08269 0.3939-0.2116 0.1865-0.1289 0.3721-0.2351 0.06971-0.04267 0.1159-0.06356 0.06971-0.04267 0.1621-0.08445-0.02969 0.1803-0.1709 0.311-0.1403 0.108-0.2153 0.2866 0.2065-0.06004 0.3468-0.168 0.1638-0.1298 0.3277-0.2595 0.1542 0.1194 0.01386 0.2274-0.1403 0.108-0.122 0.2221l0.3503-0.2586q0.1106 0.07234 0.08533 0.1394-0.02529 0.06707-0.2432 0.4216 0.1865-0.1289 0.21-0.1506zm1.017-3.999q-0.1177 0.1089-0.2118 0.1959-0.07147 0.08797-0.1891 0.1968-0.0018 0.04531 0.0209 0.04619 0.2344-0.1951 0.4235-0.3919 0.0018-0.04531-0.04355-0.04706zm-0.5656 0.5452q-0.02441 0.04443-0.04794 0.06619-0.02265-8.79e-4 -0.04618 0.02089-8.8e-4 0.02265 0.02177 0.02353 0.04707-0.04355 0.1168-0.08621-0.02265-8.79e-4 -0.02265-8.79e-4 8.8e-4 -0.02265-0.02177-0.02353zm-1.552-0.3551q-0.7904 0.4911-1.427 1.102-0.6362 0.6105-1.097 1.387 0.5491-0.7046 1.163-1.316 0.6362-0.6105 1.361-1.172zm-2.173 1.64q0.3285-0.2822 0.6118-0.5661 0.3059-0.283 0.59-0.5896 0.04706-0.04355 0.04794-0.06619 0.02353-0.02177 0.07059-0.06531-0.04619 0.02089-0.09236 0.04179-0.04619 0.02089-0.07059 0.06531-0.2588 0.2395-0.5412 0.5008-0.2597 0.2621-0.5194 0.5243-0.02441 0.04443-0.04882 0.08884-8.79e-4 0.02265-0.04794 0.0662zm1.529-1.415q-0.02177-0.02353-0.04443-0.02441 0 0-0.02177-0.02353-0.04882 0.08884-0.1194 0.1542 0.04706-0.04355 0.09324-0.06443 0.04619-0.02089 0.09236-0.04179zm0.2313-1.284q-0.2527 0.08093-0.6256 0.3387-0.3721 0.2351-0.7477 0.5608-0.3747 0.3031-0.6824 0.6314-0.3077 0.3283-0.4524 0.5496 0.5665-0.5678 1.198-1.065 0.6318-0.4972 1.31-1.015zm-2.066 2.392q0.19-0.2195 0.4018-0.4154 0.2353-0.2177 0.4253-0.4372-0.02177-0.02353-0.02089-0.04619-0.2571 0.1942-0.4697 0.4128-0.1891 0.1968-0.38 0.439zm4.251-0.8105q-0.1185 0.1315-0.1882 0.1742-0.04619 0.02089-0.1838 0.06093 0.2083-0.1053 0.3721-0.2351zm0.6597-0.6323q0.04707-0.04355 0.095-0.1097 0.04794-0.06619 0.095-0.1097l0.04531 0.0018q-0.04794 0.0662-0.09588 0.1324-0.04794 0.06619-0.095 0.1097-0.02265-8.79e-4 -0.04443-0.02441zm-0.38 0.439q-0.02265-8.79e-4 -0.04443-0.02441l0.09412-0.08709q0.02265 8.79e-4 0.02177 0.02353 0 0 0.02265 8.79e-4z"/>
  <path d="m94.89 21.48q0.1166 0.5036-0.3358 1.053-0.0497 0.1115-0.1212 0.1995-0.04882 0.08884-0.09763 0.1777-0.09412 0.08709-0.1638 0.1298-0.09588 0.1324-0.17 0.2883-0.07322 0.1333-0.1909 0.2421-0.4262 0.4599-0.895 0.85-0.4688 0.3901-1.002 0.687-0.04706 0.04355-0.09588 0.1324-0.04794 0.06619-0.095 0.1097-0.06971 0.04267-0.1385 0.06267-0.06795-0.0026-0.115 0.04091-0.1856 0.1062-0.3712 0.2124-0.1621 0.08445-0.3477 0.1907-0.04706 0.04355-0.09236 0.04179-0.04531-0.0018-0.09236 0.04179l-0.02265-8.79e-4q-0.06971 0.04267-0.1621 0.08445-0.06971 0.04267-0.1621 0.08445-0.09236 0.04179-0.1847 0.08357-0.09236 0.04179-0.2074 0.08269 0.04706-0.04355 0.07147-0.08797 0.02441-0.04443 0.07148-0.08796-0.1133-0.0044-0.203-0.03056 0.01914 0.09148-0.0044 0.1133-0.1212 0.1995-0.08201 0.3598 0.03915 0.1603 0.05564 0.3198 0.05388 0.3651 0.1548 0.6866 0.1236 0.3224 0.3396 0.603 0.108 0.1403 0.1942 0.2571 0.1089 0.1177 0.2177 0.2353 0.115-0.04091 0.1838-0.06092 0.09148-0.01914 0.1838-0.06092-0.02529 0.06707-0.05058 0.1341-0.0018 0.04531-0.02793 0.135 0.1141-0.01826 0.2056-0.03739 0.1141-0.01826 0.2291-0.05916-0.05234 0.1795-0.05585 0.2701 0.06971-0.04267 0.1159-0.06355 0.06883-0.02002 0.115-0.04091 0.1568 0.05146 0.08445 0.1621-0.0497 0.1115-0.09939 0.223 0.1847-0.08357 0.2083-0.1053-0.0026 0.06795-0.0026 0.06795-0.07059 0.06531-0.095 0.1097-0.19 0.2195-0.3059 0.283-0.115 0.04091-0.3633 0.0086-1.107-0.111-1.78-0.9084-0.2395-0.2588-0.4781-0.5403-0.2151-0.3033-0.3378-0.6483-0.1463-0.3233-0.2437-0.7354-0.04091-0.115-0.06267-0.1385 0.0018-0.0453-0.1071-0.163-0.2632 0.3528-0.4367 0.7317-0.15 0.3571-0.4132 0.7099 0.1953-0.3554 0.3679-0.7117 0.1726-0.3563 0.3688-0.7343-0.1133-0.0044-0.1385 0.06267-0.02441 0.04443-0.04882 0.08884-0.2694 0.5113-0.5152 1.001-0.245 0.4669-0.4917 0.9791-0.1709 0.311-0.32 0.6455-0.1256 0.3127-0.2511 0.6254-0.09764 0.1777-0.1055 0.3816 0.01386 0.2274-0.2188 0.3772-0.06443-0.09324-0.2021-0.05322-0.115 0.04091-0.1559-0.0741-0.02177-0.02353-0.09148 0.01914-0.06883 0.02001-0.06971 0.04267-0.02793 0.135-0.1212 0.1995-0.06971 0.04267-0.163 0.1071-0.1341-0.05058-0.2212-0.1447-0.06355-0.1159-0.223-0.09939-0.04531-0.0018-0.06443-0.09324 0.0035-0.0906 0.0053-0.1359 0.05849-0.338 0.1623-0.6743 0.1047-0.3589 0.2538-0.6934 0.07498-0.1786 0.1264-0.3354 0.0741-0.1559 0.1264-0.3354 0.9469-2.186 1.96-4.325 1.014-2.161 2.208-4.293 0.2197-0.3998 0.462-0.7987 0.265-0.3981 0.53-0.7961 0.09588-0.1324 0.2135-0.2413 0.1185-0.1315 0.2362-0.2404 0.1647-0.1524 0.2953-0.01122l0.06531 0.07059-0.0053 0.1359q0.04618-0.02089 0.09148-0.01914 0.04618-0.02089 0.09324-0.06443 0.02353-0.02177 0.02441-0.04443 0.02353-0.02177 0.06972-0.04267 0.04618-0.02089 0.09236-0.04179 0.06971-0.04267 0.1141-0.01826 0.04531 0.0018 0.08445 0.1621 0.0209 0.04619-0.0035 0.0906-0.02353 0.02177-0.04794 0.0662-0.0018 0.04531-0.02529 0.06707-8.79e-4 0.02265 0.04267 0.06971 0.04882-0.08884 0.1203-0.1768 0.09412-0.08709 0.1429-0.1759 0.1586 0.0062 0.2003 0.09851 0.06531 0.07059 0.1071 0.163 0.02002 0.06883 0.08884 0.04882 0.0906 0.0035 0.08796 0.07147-0.0026 0.06795-0.02705 0.1124-0.1229 0.2448-0.2685 0.4887-0.1229 0.2448-0.2685 0.4887-0.4394 0.7996-0.9249 1.62-0.462 0.7987-0.9014 1.598-0.04706 0.04355-0.07234 0.1106-0.0018 0.04531-0.0497 0.1115 0.115-0.04091 0.1403-0.108 0.04794-0.06619 0.09588-0.1324 0.2179-0.3545 0.4123-0.6872 0.2179-0.3545 0.4132-0.7099 0.3653-0.6437 0.7061-1.243 0.3644-0.621 0.7288-1.242 0.0018-0.0453 0.1168-0.08621-0.04882 0.08884-0.0741 0.1559-0.02529 0.06707-0.07411 0.1559-0.7802 1.399-1.581 2.752-0.09763 0.1777-0.1944 0.3327-0.0741 0.1559-0.1944 0.3327-0.02441 0.04443-0.0497 0.1115-0.02441 0.04443-0.0741 0.1559 0.2327-0.1498 0.4183-0.256 0.1865-0.1289 0.373-0.2577 0.06971-0.04267 0.1159-0.06355 0.04618-0.02089 0.1124 0.02705-0.0497 0.1115-0.1665 0.1977-0.09412 0.08709-0.21 0.1506-0.5098 0.2751-0.8174 0.6035-0.1177 0.1089-0.1918 0.2648l0.1385-0.06267q0.3268-0.2369 0.6292-0.4293 0.3259-0.2142 0.6518-0.4284 0.2562-0.1715 0.4889-0.3213 0.2553-0.1489 0.5115-0.3204 0.1865-0.1289 0.278-0.148 0.1377-0.04003 0.23-0.08181 0.115-0.04091 0.2327-0.1498 0.04706-0.04355 0.1159-0.06356 0.06883-0.02002 0.1385-0.06267-0.1089-0.1177-0.1733-0.2109 0.06971-0.04267 0.1159-0.06355 0.04619-0.02089 0.1159-0.06356 0.04355 0.04706 0.04091 0.115 0.02089 0.04618 0.06443 0.09324 0.06971-0.04267 0.1168-0.08621 0.04794-0.0662 0.095-0.1097 0.08621 0.1168 0.2012 0.07587 0.1377-0.04003 0.25-0.01298 0.1759 0.1429 0.2657 0.1691 0.2265 0.0088 0.2883 0.17 0.06443 0.09324 0.1289 0.1865 0.08796 0.07146 0.1062 0.1856zm-0.8 0.7403q-0.1177 0.1089-0.19 0.2195-0.07147 0.08797-0.1673 0.2204-0.1212 0.1995-0.38 0.439-0.1177 0.1089-0.2362 0.2404-0.095 0.1097-0.19 0.2195-0.095 0.1097-0.1891 0.1968-0.09412 0.08708-0.1665 0.1977 0.2074-0.08269 0.3947-0.2342 0.1638-0.1298 0.3059-0.283 0.1918-0.2648 0.5089-0.2525-0.04443-0.02441-0.1786-0.07498 0.1918-0.2648 0.2876-0.3972 0.1185-0.1315 0.1674-0.2204 0.04882-0.08884 0.05058-0.1341 0.0026-0.06795-0.01738-0.1368zm-1.142-0.3846q-0.0906-0.0035-0.1812-7e-3 -0.0906-0.0035-0.2091 0.128 0.1586 0.0062 0.2256 0.03144 0.04706-0.04355 0.07059-0.06531 0.04706-0.04355 0.09412-0.08708zm-1.766 1.088q-0.04707 0.04355-0.1168 0.08621-0.04619 0.02089-0.1159 0.06355 0.06795 0.0026 0.1368-0.01738 0.06972-0.04267 0.09588-0.1324zm-0.2335 0.1724q-0.1856 0.1062-0.3712 0.2124-0.163 0.1071-0.3059 0.283 0.1621-0.08445 0.3024-0.1924 0.163-0.1071 0.3259-0.2142 0.04531 0.0018 0.04882-0.08884zm-0.8627 0.6017q-0.04618 0.02089-0.06971 0.04267-8.79e-4 0.02265-0.02441 0.04443 0 0-8.79e-4 0.02265 0.09236-0.04179 0.1159-0.06356-0.04443-0.02441-0.02089-0.04619zm-4.4 4.661q0.2799-0.7831 0.6269-1.541 0.3697-0.757 0.7393-1.514 1.059-2.159 2.21-4.338 0.3435-0.6672 0.7088-1.311 0.3888-0.6655 0.8664-1.282 0.02441-0.04443 0.0035-0.0906 0.0018-0.04531 0.0035-0.0906l-0.06795-0.0026q-0.09412 0.08709-0.19 0.2195-0.0497 0.1115-0.122 0.2221-0.07147 0.08797-0.1882 0.1742-0.04706 0.04355-0.07322 0.1333-0.02617 0.08972-0.07498 0.1786-0.04882 0.08884-0.07498 0.1786-0.02529 0.06707-0.0741 0.1559-0.1212 0.1995-0.265 0.3981-0.1203 0.1768-0.2415 0.3763-0.1203 0.1768-0.2188 0.3772-0.09763 0.1777-0.1953 0.3554-0.07498 0.1786-0.15 0.3571-0.0741 0.1559-0.1944 0.3327-0.0497 0.1115-0.122 0.2221-0.04882 0.08884-0.09851 0.2003-0.07322 0.1333-0.1473 0.2892-0.05058 0.1341-0.1238 0.2674-0.32 0.6455-0.6408 1.314-0.32 0.6455-0.6408 1.314-0.245 0.4669-0.4673 0.9346-0.1997 0.4686-0.4455 0.9582-0.09763 0.1777-0.2188 0.3772-0.09851 0.2003-0.1962 0.378-0.1726 0.3563-0.3217 0.6908-0.1264 0.3354-0.2764 0.6925-0.07762 0.2465-0.1552 0.4931-0.0541 0.2248-0.1099 0.4948 0.1203-0.1768 0.2388-0.3083 0.1412-0.1306 0.1709-0.311-0.01914-0.09148 7e-3 -0.1812 0.04882-0.08884 0.09851-0.2003 0.1003-0.2456 0.1988-0.446 0.122-0.2221 0.2223-0.4678zm-0.268 1.646q0.422-0.9364 0.796-1.807 0.3976-0.892 0.796-1.807-0.1962 0.378-0.3914 0.7334-0.1944 0.3327-0.3906 0.7108-0.0497 0.1115-0.09851 0.2003-0.04882 0.08884-0.09851 0.2003-0.1238 0.2674-0.225 0.5357-0.07762 0.2465-0.2232 0.4904-0.09764 0.1777-0.1264 0.3354-0.02881 0.1577-0.08114 0.3371 8.79e-4 -0.02265 0.04267 0.06971zm2.01-3.279q0.04882-0.08884 0.07498-0.1786 0.04882-0.08884 0.05322-0.2021-0.07234 0.1106-0.07234 0.1106-0.1709 0.311-0.3191 0.6228-0.1482 0.3118-0.3191 0.6228-0.122 0.2221-0.2214 0.4451-0.09939 0.223-0.245 0.4669-0.1194 0.1542-0.1709 0.311-0.02881 0.1577-0.1256 0.3127-0.07498 0.1786-0.1491 0.3345-0.05146 0.1568-0.1264 0.3354-0.0026 0.06795-0.05322 0.2021 0.04531 0.0018 0.08972 0.02617 0.09763-0.1777 0.09939-0.223 0.04882-0.08884 0.07499-0.1786 0.02617-0.08972 0.07498-0.1786 0.3452-0.7125 0.667-1.403 0.3226-0.7134 0.6678-1.426zm1.495-2.868q0.04706-0.04355 0.04794-0.06619 0.0018-0.04531 0.04882-0.08884l-0.04531-0.0018q-0.02441 0.04443-0.04794 0.0662t-0.04794 0.06619q0 0 0.04443 0.02441zm-0.6125-0.0011q0.7296-1.265 1.459-2.529 0.7296-1.265 1.437-2.53l0.0053-0.1359q-0.8229 1.329-1.531 2.617-0.707 1.266-1.37 2.578zm1.032-0.8674q-0.02353 0.02177 0.02177 0.02353 0.04706-0.04355 0.2415-0.3763 0.217-0.3319 0.4847-0.7979 0.2903-0.4651 0.6058-0.9973 0.3164-0.5549 0.5841-1.021 0.2685-0.4887 0.4402-0.8223 0.1944-0.3327 0.2197-0.3998-0.09412 0.08709-0.1403 0.108-0.632 1.087-1.24 2.152-0.5858 1.066-1.217 2.131zm0.02772 0.4548q0.163-0.1071 0.1865-0.1289 0.02441-0.04443 0.05322-0.2021-0.0741 0.1559-0.2397 0.331zm-0.4108 1.232q0.163-0.1071 0.4209-0.3239 0.2588-0.2395 0.3312-0.3501-0.2318 0.1271-0.4418 0.2778-0.1865 0.1289-0.3103 0.3963zm1.113 0.5423q0.04619-0.02089 0.04706-0.04355 0.02441-0.04443 0.04794-0.0662-0.04443-0.02441-0.06619-0.04794 8.79e-4 -0.02265-0.04531-0.0018-0.09236 0.04179-0.1847 0.08357-0.09148 0.01914-0.1612 0.0618-0.07322 0.1333-0.0062 0.1586 0.09236-0.04179 0.1838-0.06092 0.09236-0.04179 0.1847-0.08357zm-0.3851-0.01494q-0.02177-0.02353-0.1106-0.07236l-0.0026 0.06796zm0.5412-0.5008q0.1856-0.1062 0.3939-0.2116 0.2091-0.128 0.3956-0.2569 0.4418-0.2778 0.8401-0.6026 0.3991-0.3475 0.8427-0.6705l0.07322-0.1333q0.04706-0.04355 0.04882-0.08884 0.02529-0.06707 0.07234-0.1106 0.2127-0.2186 0.3356-0.4634 0.1229-0.2448 0.2023-0.5366-0.2692-0.0785-0.4609 0.1863 0.08796 0.07146 0.1777 0.09764-0.1682 0.243-0.3659 0.07654-0.07059 0.06531-0.1612 0.0618-0.06795-0.0026-0.183 0.03827-0.115 0.04091-0.2309 0.1045-0.1159 0.06355-0.2318 0.1271l-0.3503 0.2586q0.02002 0.06883 0.04091 0.115 0.02177 0.02353 0.04267 0.06971-0.2571 0.1942-0.5142 0.3884-0.2562 0.1715-0.5124 0.3431-0.3277 0.2595-0.678 0.5181-0.3494 0.236-0.6762 0.4728l-0.1882 0.1742q-0.04794 0.06619-0.05322 0.2021-0.0053 0.1359 0.06179 0.1612 0.0906 0.0035 0.1812 7e-3 0.0906 0.0035 0.1577 0.02881 0.06795 0.0026 0.1377-0.04003 0.09236-0.04179 0.1847-0.08357 0.115-0.04091 0.2083-0.1053 0.09324-0.06444 0.2091-0.128zm-0.1433 1.356q0.115-0.04091 0.2292-0.05916 0.1141-0.01826 0.2292-0.05916 0.0018-0.04531-0.06619-0.04794-0.0906-0.0035-0.1821 0.01562-0.06795-0.0026-0.08709-0.09412 8.79e-4 -0.02265-0.04531-0.0018-0.04618 0.02089-0.06883 0.02002zm0.976-0.5973q0.04618-0.02089 0.04618-0.02089 8.8e-4 -0.02265 0.02441-0.04443-0.04355-0.04706-0.08796-0.07147l-0.04706 0.04355q0.02177 0.02353 0.02089 0.04619 0.02177 0.02353 0.04355 0.04706zm0.21-0.1506q0.02353-0.02177 0.04618-0.02089 0.04619-0.0209 0.06971-0.04267l-0.0209-0.04619q-0.09236 0.04179-0.115 0.04091 0.02177 0.02353-0.0018 0.04531 0 0 0.02177 0.02353zm0.4726-1.071q0.1865-0.1289 0.3503-0.2586 0.1874-0.1515 0.3747-0.3031 0.2562-0.1715 0.4235-0.3919 0.19-0.2195 0.3809-0.4616 0.095-0.1097 0.1673-0.2204 0.07322-0.1333 0.3233-0.1463-0.1768-0.1203-0.2683-0.1012-0.0906-0.0035-0.2562 0.1715-0.2606 0.2848-0.5212 0.5696-0.2379 0.2857-0.5212 0.5696-0.6353 0.5878-1.515 1.053-0.115 0.04091-0.2091 0.128-0.07059 0.06531-0.122 0.2221 0.04618-0.02089 0.1141-0.01826 0.06883-0.02002 0.06971-0.04267 0.02793-0.135 0.1429-0.1759 0.1377-0.04003 0.2309-0.1045 0.2091-0.128 0.4174-0.2333 0.2318-0.1271 0.4183-0.256zm-0.1746 0.9914q0.2065-0.06005 0.2135-0.2412-0.1377 0.04003-0.1621 0.08445-0.02353 0.02177-0.05146 0.1568zm0.2371-0.263q0.2509-0.03564 0.3956-0.2569-0.1159 0.06355-0.2309 0.1045-0.09236 0.04179-0.1647 0.1524zm2.177-1.73q0.07147-0.08796 0.1891-0.1968 0.0018-0.0453 0.0044-0.1133 0.02529-0.06708 0.02705-0.1124-0.04531-0.0018-0.04443-0.02441-0.1429 0.1759-0.2362 0.2404-0.04882 0.08884-0.1194 0.1542-0.1665 0.1977-0.3329 0.3954-0.1438 0.1986-0.3983 0.3248-0.04706 0.04355-0.04794 0.06619-0.04794 0.06619-0.1185 0.1315-0.04794 0.06619-0.1185 0.1315l-0.4915 0.3893q0.1812 7e-3 0.2039 0.0079 0.02353-0.02177 0.07059-0.06531l0.1647-0.1524q0.373-0.2577 0.6789-0.5408 0.3068-0.3057 0.5691-0.6358zm-2.393-1.477q-0.04706 0.04355-0.1612 0.0618-0.09148 0.01914-0.1838 0.06092 0.0053-0.1359 0.09763-0.1777 0.09324-0.06443 0.1856-0.1062 0.163-0.1071 0.3015-0.1698 0.1612-0.0618 0.3468-0.168l0.08884 0.04882q-0.09412 0.08709-0.07147 0.08796-0.1612 0.0618-0.3233 0.1463-0.1385 0.06267-0.2806 0.216zm1.488-0.9404q-0.1185 0.1315-0.2127 0.2186-0.09412 0.08708-0.1656 0.1751-0.04355-0.04706-0.1106-0.07234-0.06619-0.04794-0.1324-0.09588 0.1612-0.0618 0.2989-0.1018 0.1385-0.06267 0.3224-0.1236zm0.4174-0.2333q0.06795 0.0026 0.1133 0.0044 0.06883-0.02002 0.1368-0.01738-0.04707 0.04355-0.07059 0.06531-8.8e-4 0.02265-0.02529 0.06707-0.04443-0.02441-0.08884-0.04882-0.02177-0.02353-0.06531-0.07059zm-7.155 9.001q0.02353-0.02177 0.02441-0.04443 8.79e-4 -0.02265 0.02441-0.04443-0.0018 0.04531-0.02617 0.08972zm6.095-7.408q-0.07586 0.2012-0.1229 0.2448-0.02353 0.02177-0.1803-0.02969 0.09324-0.06443 0.163-0.1071 0.07059-0.06531 0.1403-0.108z"/>
  <g>
   <g aria-label="180">
    <path d="m115.4 95.97v4.705h-0.8738v-3.972h-0.9948v-0.7327z"/>
    <path d="m119.4 98.2q0.3697 0.168 0.5646 0.4571 0.2016 0.2823 0.2016 0.6654 0 0.4302-0.242 0.7528-0.2353 0.3226-0.6722 0.4974-0.4369 0.168-1.015 0.168t-1.015-0.168q-0.4302-0.1748-0.6654-0.4974-0.2352-0.3226-0.2352-0.7528 0-0.3831 0.1949-0.6654 0.1949-0.289 0.5579-0.4571-0.2823-0.1546-0.4369-0.4033-0.1479-0.2554-0.1479-0.5848 0-0.3966 0.2151-0.6923 0.2218-0.2958 0.6184-0.4571t0.9141-0.1613q0.5243 0 0.9209 0.1613 0.3966 0.1613 0.6184 0.4571 0.2218 0.2958 0.2218 0.6923 0 0.3294-0.1546 0.5781-0.1546 0.2487-0.4436 0.41zm-1.163-1.613q-0.41 0-0.652 0.1748-0.2352 0.1748-0.2352 0.4907 0 0.3025 0.2352 0.484 0.242 0.1748 0.652 0.1748 0.4167 0 0.6587-0.1748 0.242-0.1815 0.242-0.484 0-0.3159-0.2487-0.4907-0.242-0.1748-0.652-0.1748zm0 3.468q0.484 0 0.7663-0.2017 0.2823-0.2016 0.2823-0.5579 0-0.3495-0.2823-0.5512t-0.7663-0.2016-0.7595 0.2016q-0.2756 0.2016-0.2756 0.5512 0 0.3562 0.2756 0.5579 0.2756 0.2017 0.7595 0.2017z"/>
    <path d="m122.7 100.7q-0.5646 0-1.008-0.2823-0.4436-0.289-0.699-0.8335-0.2554-0.5512-0.2554-1.304 0-0.7528 0.2554-1.297 0.2554-0.5512 0.699-0.8335 0.4436-0.289 1.008-0.289 0.5646 0 1.008 0.289 0.4504 0.2823 0.7058 0.8335 0.2554 0.5445 0.2554 1.297 0 0.7528-0.2554 1.304-0.2554 0.5444-0.7058 0.8335-0.4436 0.2823-1.008 0.2823zm0-0.7595q0.5041 0 0.7932-0.4167 0.2958-0.4167 0.2958-1.244 0-0.8268-0.2958-1.244-0.289-0.4167-0.7932-0.4167-0.4974 0-0.7932 0.4167-0.289 0.4167-0.289 1.244 0 0.8268 0.289 1.244 0.2958 0.4167 0.7932 0.4167z"/>
   </g>
   <g aria-label="60">
    <path d="m29.29 97.59q0.4638 0 0.8335 0.1815 0.3697 0.1748 0.5781 0.5041 0.2084 0.3294 0.2084 0.7595 0 0.4571-0.2285 0.8066-0.2285 0.3428-0.6184 0.531-0.3899 0.1882-0.8738 0.1882-0.9679 0-1.506-0.605-0.531-0.6049-0.531-1.734 0-0.7932 0.289-1.351 0.289-0.5646 0.8066-0.8536 0.5243-0.2958 1.21-0.2958 0.363 0 0.6789 0.08066 0.3226 0.07394 0.5579 0.2218l-0.3226 0.6587q-0.3495-0.2285-0.894-0.2285-0.6789 0-1.062 0.4167t-0.3831 1.203v0.0067q0.2084-0.242 0.531-0.363 0.3226-0.1277 0.7259-0.1277zm-0.1479 2.285q0.41 0 0.6654-0.2151 0.2554-0.2218 0.2554-0.5848 0-0.3697-0.2554-0.5848t-0.6856-0.2151q-0.4235 0-0.6923 0.2285-0.2621 0.2285-0.2621 0.5781 0 0.3428 0.2554 0.5713 0.2621 0.2218 0.7192 0.2218z"/>
    <path d="m33.33 100.6q-0.5646 0-1.008-0.2823-0.4436-0.289-0.699-0.8335-0.2554-0.5512-0.2554-1.304 0-0.7528 0.2554-1.297 0.2554-0.5512 0.699-0.8335 0.4436-0.289 1.008-0.289t1.008 0.289q0.4504 0.2823 0.7058 0.8335 0.2554 0.5445 0.2554 1.297 0 0.7528-0.2554 1.304-0.2554 0.5445-0.7058 0.8335-0.4436 0.2823-1.008 0.2823zm0-0.7595q0.5041 0 0.7932-0.4167 0.2958-0.4167 0.2958-1.244 0-0.8268-0.2958-1.244-0.289-0.4167-0.7932-0.4167-0.4974 0-0.7932 0.4167-0.289 0.4167-0.289 1.244 0 0.8268 0.289 1.244 0.2958 0.4167 0.7932 0.4167z"/>
   </g>
   <g aria-label="30">
    <path d="m26.3 124.6q0.652 0.0807 0.9948 0.4436 0.3428 0.363 0.3428 0.9074 0 0.41-0.2084 0.7461-0.2084 0.3361-0.6318 0.5377-0.4167 0.1949-1.022 0.1949-0.5041 0-0.9746-0.1412-0.4638-0.1479-0.7932-0.4033l0.3764-0.6789q0.2554 0.2151 0.6184 0.3428 0.3697 0.121 0.7595 0.121 0.4638 0 0.7259-0.1882 0.2689-0.1949 0.2689-0.5243t-0.2554-0.5108q-0.2487-0.1882-0.7663-0.1882h-0.4302v-0.5982l1.069-1.27h-2.137v-0.7327h3.206v0.5848z"/>
    <path d="m30.17 127.4q-0.5646 0-1.008-0.2823-0.4436-0.289-0.699-0.8335-0.2554-0.5512-0.2554-1.304 0-0.7528 0.2554-1.297 0.2554-0.5512 0.699-0.8335 0.4436-0.289 1.008-0.289t1.008 0.289q0.4503 0.2823 0.7058 0.8335 0.2554 0.5444 0.2554 1.297 0 0.7528-0.2554 1.304-0.2554 0.5444-0.7058 0.8335-0.4436 0.2823-1.008 0.2823zm0-0.7595q0.5041 0 0.7932-0.4168 0.2958-0.4167 0.2958-1.244t-0.2958-1.244q-0.289-0.4167-0.7932-0.4167-0.4974 0-0.7932 0.4167-0.289 0.4167-0.289 1.244t0.289 1.244q0.2958 0.4168 0.7932 0.4168z"/>
   </g>
   <g aria-label="90">
    <path d="m46.55 73.85q0.9679 0 1.499 0.6049 0.5377 0.6049 0.5377 1.734 0 0.7932-0.289 1.358-0.289 0.5579-0.8133 0.8536-0.5176 0.289-1.203 0.289-0.363 0-0.6856-0.07394-0.3159-0.08066-0.5512-0.2285l0.3226-0.6587q0.3495 0.2285 0.894 0.2285 0.6789 0 1.062-0.4167 0.3831-0.4167 0.3831-1.203v-0.0067q-0.2084 0.242-0.531 0.3697-0.3226 0.121-0.7259 0.121-0.4638 0-0.8335-0.1748-0.3697-0.1815-0.5781-0.5108-0.2084-0.3294-0.2084-0.7595 0-0.4571 0.2285-0.7999 0.2285-0.3495 0.6184-0.5377 0.3899-0.1882 0.8738-0.1882zm0.06722 2.285q0.4235 0 0.6856-0.2285 0.2689-0.2285 0.2689-0.5781 0-0.3428-0.2621-0.5646-0.2554-0.2285-0.7125-0.2285-0.41 0-0.6654 0.2218-0.2554 0.2151-0.2554 0.5781 0 0.3697 0.2554 0.5848t0.6856 0.2151z"/>
    <path d="m51.14 78.69q-0.5646 0-1.008-0.2823-0.4436-0.289-0.699-0.8335-0.2554-0.5512-0.2554-1.304 0-0.7528 0.2554-1.297 0.2554-0.5512 0.699-0.8335 0.4436-0.289 1.008-0.289t1.008 0.289q0.4504 0.2823 0.7058 0.8335 0.2554 0.5445 0.2554 1.297 0 0.7528-0.2554 1.304-0.2554 0.5445-0.7058 0.8335-0.4436 0.2823-1.008 0.2823zm0-0.7595q0.5041 0 0.7932-0.4167 0.2958-0.4167 0.2958-1.244 0-0.8268-0.2958-1.244-0.289-0.4167-0.7932-0.4167-0.4974 0-0.7932 0.4167-0.289 0.4167-0.289 1.244 0 0.8268 0.289 1.244 0.2958 0.4167 0.7932 0.4167z"/>
   </g>
   <g aria-label="150">
    <path d="m97.56 74.05v4.705h-0.8738v-3.972h-0.9948v-0.7327z"/>
    <path d="m99.96 75.87q0.9948 0 1.472 0.3899 0.4772 0.3831 0.4772 1.049 0 0.4235-0.2084 0.7663t-0.6251 0.5445-1.028 0.2016q-0.5041 0-0.9746-0.1412-0.4705-0.1479-0.7932-0.4033l0.3697-0.6789q0.2621 0.2151 0.6251 0.3428 0.3697 0.121 0.7595 0.121 0.4638 0 0.7259-0.1882 0.2689-0.1949 0.2689-0.531 0-0.363-0.289-0.5445-0.2823-0.1882-0.9746-0.1882h-1.136l0.242-2.561h2.763v0.7327h-2.023l-0.1008 1.089z"/>
    <path d="m104.4 78.82q-0.5646 0-1.008-0.2823-0.4436-0.289-0.699-0.8335-0.2554-0.5512-0.2554-1.304 0-0.7528 0.2554-1.297 0.2554-0.5512 0.699-0.8335 0.4436-0.289 1.008-0.289 0.5646 0 1.008 0.289 0.4504 0.2823 0.7058 0.8335 0.2554 0.5445 0.2554 1.297 0 0.7528-0.2554 1.304-0.2554 0.5445-0.7058 0.8335-0.4436 0.2823-1.008 0.2823zm0-0.7595q0.5041 0 0.7932-0.4167 0.2958-0.4167 0.2958-1.244 0-0.8268-0.2958-1.244-0.289-0.4167-0.7932-0.4167-0.4974 0-0.7932 0.4167-0.289 0.4167-0.289 1.244 0 0.8268 0.289 1.244 0.2958 0.4167 0.7932 0.4167z"/>
   </g>
   <g aria-label="210">
    <path d="m120.2 126.4v0.7394h-3.468v-0.5848l1.869-1.775q0.3159-0.3025 0.4235-0.5243 0.1143-0.2285 0.1143-0.4504 0-0.3294-0.2218-0.5041-0.2218-0.1748-0.652-0.1748-0.7192 0-1.102 0.4907l-0.6117-0.4705q0.2756-0.3697 0.7394-0.5713 0.4705-0.2084 1.049-0.2084 0.7663 0 1.223 0.363 0.4571 0.363 0.4571 0.9881 0 0.3831-0.1613 0.7192t-0.6184 0.7663l-1.257 1.196z"/>
    <path d="m122.3 122.4v4.705h-0.8738v-3.972h-0.9948v-0.7327z"/>
    <path d="m125.2 127.2q-0.5646 0-1.008-0.2823-0.4436-0.289-0.699-0.8335-0.2554-0.5512-0.2554-1.304 0-0.7528 0.2554-1.297 0.2554-0.5512 0.699-0.8335 0.4436-0.289 1.008-0.289 0.5646 0 1.008 0.289 0.4504 0.2823 0.7058 0.8335 0.2554 0.5444 0.2554 1.297 0 0.7528-0.2554 1.304-0.2554 0.5444-0.7058 0.8335-0.4436 0.2823-1.008 0.2823zm0-0.7595q0.5041 0 0.7932-0.4168 0.2958-0.4167 0.2958-1.244t-0.2958-1.244q-0.289-0.4167-0.7932-0.4167-0.4974 0-0.7932 0.4167-0.289 0.4167-0.289 1.244t0.289 1.244q0.2958 0.4168 0.7932 0.4168z"/>
   </g>
   <g aria-label="REV">
    <path d="m123.2 46.91-0.9955-1.427q-0.0627 7e-3 -0.188 7e-3h-1.1v1.42h-0.905v-4.873h2.005q0.6335 0 1.1 0.2088 0.4734 0.2088 0.724 0.5987t0.2506 0.9259q0 0.55-0.2715 0.9468-0.2645 0.3968-0.7658 0.5917l1.121 1.601zm-0.0209-3.14q0-0.4664-0.3063-0.717-0.3063-0.2506-0.898-0.2506h-1.058v1.942h1.058q0.5917 0 0.898-0.2506 0.3063-0.2576 0.3063-0.724z"/>
    <path d="m128.8 46.16v0.7588h-3.655v-4.873h3.557v0.7588h-2.652v1.267h2.353v0.7449h-2.353v1.344z"/>
    <path d="m134.2 42.04-2.123 4.873h-0.8911l-2.13-4.873h0.9816l1.622 3.759 1.636-3.759z"/>
   </g>
   <g aria-label="RUN">
    <path d="m53.47 161.9-0.9955-1.427q-0.06265 7e-3 -0.188 7e-3h-1.1v1.42h-0.905v-4.873h2.005q0.6335 0 1.1 0.2088 0.4734 0.2088 0.724 0.5987 0.2506 0.3898 0.2506 0.9259 0 0.55-0.2715 0.9468-0.2645 0.3968-0.7658 0.5917l1.121 1.601zm-0.02088-3.14q0-0.4664-0.3063-0.717-0.3063-0.2506-0.8981-0.2506h-1.058v1.942h1.058q0.5917 0 0.8981-0.2506 0.3063-0.2576 0.3063-0.724z"/>
    <path d="m57.46 162q-1.009 0-1.573-0.5639-0.5639-0.5708-0.5639-1.629v-2.75h0.905v2.715q0 1.434 1.239 1.434 1.232 0 1.232-1.434v-2.715h0.8911v2.75q0 1.058-0.5639 1.629-0.5569 0.5639-1.566 0.5639z"/>
    <path d="m65.19 157v4.873h-0.7449l-2.687-3.3v3.3h-0.8981v-4.873h0.7449l2.687 3.3v-3.3z"/>
   </g>
  </g>
  <g aria-label="2">
   <path d="m21.42 264.6 0.8321 0.8387-0.4521 0.4783-0.8452-0.8518-0.8452 0.8518-0.439-0.4783 0.8256-0.8387-0.8256-0.8387 0.439-0.4783 0.8452 0.8518 0.8452-0.8518 0.4521 0.4783z"/>
   <path d="m26.5 266.2v0.7207h-3.381v-0.57l1.822-1.73q0.308-0.2948 0.4128-0.5111 0.1114-0.2228 0.1114-0.439 0-0.3211-0.2162-0.4914t-0.6356-0.1704q-0.7011 0-1.075 0.4783l-0.5963-0.4587q0.2686-0.3604 0.7207-0.5569 0.4587-0.2031 1.022-0.2031 0.747 0 1.193 0.3538 0.4456 0.3538 0.4456 0.9632 0 0.3735-0.1573 0.7011-0.1573 0.3276-0.6028 0.747l-1.225 1.166z"/>
  </g>
  <g aria-label="RST">
   <path d="m89.44 161.9-0.9955-1.427q-0.06265 7e-3 -0.188 7e-3h-1.1v1.42h-0.905v-4.873h2.005q0.6335 0 1.1 0.2088 0.4734 0.2088 0.724 0.5987 0.2506 0.3898 0.2506 0.9259 0 0.55-0.2715 0.9468-0.2645 0.3968-0.7658 0.5917l1.121 1.601zm-0.02089-3.14q0-0.4664-0.3063-0.717-0.3063-0.2506-0.8981-0.2506h-1.058v1.942h1.058q0.5917 0 0.8981-0.2506 0.3063-0.2576 0.3063-0.724z"/>
   <path d="m92.85 162q-0.5639 0-1.093-0.1601-0.5221-0.1601-0.8284-0.4247l0.3133-0.7031q0.2994 0.2367 0.731 0.3898 0.4386 0.1462 0.8772 0.1462 0.543 0 0.8076-0.174 0.2715-0.174 0.2715-0.4595 0-0.2088-0.1532-0.3411-0.1462-0.1392-0.3759-0.2158-0.2297-0.0766-0.6265-0.174-0.5569-0.1323-0.905-0.2645-0.3411-0.1323-0.5917-0.4107-0.2437-0.2854-0.2437-0.7658 0-0.4038 0.2158-0.731 0.2228-0.3342 0.6614-0.5291 0.4455-0.1949 1.086-0.1949 0.4455 0 0.8772 0.1114 0.4316 0.1114 0.7449 0.3202l-0.2854 0.7031q-0.3202-0.188-0.6683-0.2854-0.3481-0.0975-0.6753-0.0975-0.536 0-0.8006 0.181-0.2576 0.181-0.2576 0.4804 0 0.2088 0.1462 0.3411 0.1532 0.1323 0.3829 0.2088 0.2297 0.0766 0.6265 0.174 0.543 0.1253 0.8911 0.2646 0.3481 0.1323 0.5917 0.4107 0.2506 0.2785 0.2506 0.7519 0 0.4038-0.2228 0.731-0.2158 0.3272-0.6614 0.5221-0.4455 0.1949-1.086 0.1949z"/>
   <path d="m96.64 157.8h-1.615v-0.7658h4.135v0.7658h-1.615v4.107h-0.905z"/>
  </g>
  <g aria-label="XTRNL">
   <path d="m66.76 203-1.323-1.852-1.309 1.852h-1.03l1.81-2.485-1.713-2.388h1.023l1.246 1.733 1.232-1.733h0.9816l-1.706 2.353 1.831 2.52z"/>
   <path d="m69.3 198.9h-1.615v-0.7658h4.135v0.7658h-1.615v4.107h-0.905z"/>
   <path d="m75.69 203-0.9955-1.427q-0.06265 7e-3 -0.188 7e-3h-1.1v1.42h-0.905v-4.873h2.005q0.6335 0 1.1 0.2088 0.4734 0.2088 0.724 0.5987 0.2506 0.3898 0.2506 0.9259 0 0.55-0.2715 0.9468-0.2645 0.3968-0.7658 0.5917l1.121 1.601zm-0.02089-3.14q0-0.4664-0.3063-0.717-0.3063-0.2506-0.8981-0.2506h-1.058v1.942h1.058q0.5917 0 0.8981-0.2506 0.3063-0.2576 0.3063-0.724z"/>
   <path d="m81.92 198.1v4.873h-0.7449l-2.687-3.3v3.3h-0.8981v-4.873h0.7449l2.687 3.3v-3.3z"/>
   <path d="m83.23 198.1h0.905v4.107h2.548v0.7658h-3.453z"/>
  </g>
  <g aria-label="RUN">
   <path d="m53.75 314.9-0.937-1.343q-0.05897 7e-3 -0.1769 7e-3h-1.035v1.337h-0.8518v-4.587h1.887q0.5963 0 1.035 0.1966 0.4456 0.1966 0.6814 0.5635 0.2359 0.3669 0.2359 0.8714 0 0.5176-0.2555 0.8911-0.249 0.3735-0.7207 0.5569l1.055 1.507zm-0.01966-2.955q0-0.439-0.2883-0.6749-0.2883-0.2359-0.8452-0.2359h-0.9959v1.828h0.9959q0.5569 0 0.8452-0.2359 0.2883-0.2424 0.2883-0.6814z"/>
   <path d="m57.51 315q-0.9501 0-1.481-0.5307-0.5307-0.5373-0.5307-1.533v-2.588h0.8518v2.555q0 1.35 1.166 1.35 1.16 0 1.16-1.35v-2.555h0.8387v2.588q0 0.996-0.5307 1.533-0.5242 0.5307-1.474 0.5307z"/>
   <path d="m64.79 310.3v4.587h-0.7011l-2.529-3.106v3.106h-0.8452v-4.587h0.7011l2.529 3.106v-3.106z"/>
  </g>
  <g aria-label="RESET">
   <path d="m85.17 314.9-0.937-1.343q-0.05897 7e-3 -0.1769 7e-3h-1.035v1.337h-0.8518v-4.587h1.887q0.5963 0 1.035 0.1966 0.4456 0.1966 0.6814 0.5635 0.2359 0.3669 0.2359 0.8714 0 0.5176-0.2555 0.8911-0.249 0.3735-0.7207 0.5569l1.055 1.507zm-0.01966-2.955q0-0.439-0.2883-0.6749t-0.8452-0.2359h-0.9959v1.828h0.9959q0.5569 0 0.8452-0.2359 0.2883-0.2424 0.2883-0.6814z"/>
   <path d="m90.4 314.2v0.7142h-3.44v-4.587h3.348v0.7142h-2.496v1.193h2.215v0.7011h-2.215v1.265z"/>
   <path d="m92.77 315q-0.5307 0-1.029-0.1507-0.4914-0.1507-0.7797-0.3997l0.2949-0.6618q0.2817 0.2228 0.688 0.3669 0.4128 0.1376 0.8256 0.1376 0.5111 0 0.7601-0.1638 0.2555-0.1638 0.2555-0.4324 0-0.1966-0.1442-0.3211-0.1376-0.131-0.3538-0.2031-0.2162-0.0721-0.5897-0.1638-0.5242-0.1245-0.8518-0.249-0.3211-0.1245-0.5569-0.3866-0.2293-0.2686-0.2293-0.7208 0-0.38 0.2031-0.688 0.2097-0.3145 0.6225-0.498 0.4193-0.1835 1.022-0.1835 0.4193 0 0.8256 0.1048 0.4062 0.1048 0.7011 0.3014l-0.2686 0.6618q-0.3014-0.1769-0.629-0.2686-0.3276-0.0917-0.6356-0.0917-0.5045 0-0.7535 0.1704-0.2424 0.1704-0.2424 0.4521 0 0.1966 0.1376 0.3211 0.1441 0.1245 0.3604 0.1966 0.2162 0.0721 0.5897 0.1638 0.5111 0.1179 0.8387 0.249 0.3276 0.1245 0.5569 0.3866 0.2359 0.2621 0.2359 0.7076 0 0.38-0.2097 0.688-0.2031 0.308-0.6225 0.4914-0.4193 0.1835-1.022 0.1835z"/>
   <path d="m98.91 314.2v0.7142h-3.44v-4.587h3.348v0.7142h-2.496v1.193h2.215v0.7011h-2.215v1.265z"/>
   <path d="m100.8 311h-1.52v-0.7207h3.892v0.7207h-1.52v3.866h-0.8518z"/>
  </g>
  <g aria-label="V/SPB">
   <path d="m121.4 310.3-1.998 4.587h-0.8387l-2.005-4.587h0.9239l1.527 3.538 1.54-3.538z"/>
   <path d="m123.1 309.4h0.7338l-2.162 6.172h-0.7338z"/>
   <path d="m125.5 315q-0.5307 0-1.029-0.1507-0.4914-0.1507-0.7797-0.3997l0.2948-0.6618q0.2818 0.2228 0.688 0.3669 0.4128 0.1376 0.8256 0.1376 0.5111 0 0.7601-0.1638 0.2555-0.1638 0.2555-0.4324 0-0.1966-0.1442-0.3211-0.1376-0.131-0.3538-0.2031-0.2162-0.0721-0.5897-0.1638-0.5242-0.1245-0.8518-0.249-0.3211-0.1245-0.5569-0.3866-0.2293-0.2686-0.2293-0.7207 0-0.38 0.2031-0.688 0.2097-0.3145 0.6225-0.498 0.4193-0.1835 1.022-0.1835 0.4193 0 0.8256 0.1048 0.4062 0.1048 0.7011 0.3014l-0.2686 0.6618q-0.3014-0.1769-0.629-0.2686-0.3276-0.0917-0.6356-0.0917-0.5045 0-0.7535 0.1704-0.2424 0.1704-0.2424 0.4521 0 0.1966 0.1376 0.3211 0.1442 0.1245 0.3604 0.1966 0.2162 0.0721 0.5897 0.1638 0.5111 0.1179 0.8387 0.249 0.3276 0.1245 0.557 0.3866 0.2359 0.2621 0.2359 0.7076 0 0.38-0.2097 0.688-0.2031 0.308-0.6225 0.4914t-1.022 0.1835z"/>
   <path d="m130.1 310.3q0.5962 0 1.035 0.1966 0.4456 0.1966 0.6814 0.5635t0.2359 0.8714q0 0.498-0.2359 0.8714-0.2359 0.3669-0.6814 0.5635-0.439 0.1966-1.035 0.1966h-1.035v1.324h-0.8518v-4.587zm-0.0393 2.542q0.557 0 0.8452-0.2359 0.2883-0.2359 0.2883-0.6749t-0.2883-0.6749q-0.2883-0.2359-0.8452-0.2359h-0.9959v1.822z"/>
   <path d="m136.1 312.5q0.38 0.1245 0.6028 0.4194 0.2228 0.2883 0.2228 0.7208 0 0.5962-0.4587 0.9239-0.4587 0.3211-1.337 0.3211h-2.28v-4.587h2.149q0.8125 0 1.251 0.3211 0.439 0.3145 0.439 0.8714 0 0.3407-0.1573 0.6028-0.1572 0.2621-0.4324 0.4062zm-2.398-1.533v1.265h1.206q0.4456 0 0.6814-0.1572 0.2424-0.1638 0.2424-0.4718 0-0.3145-0.2424-0.4718-0.2359-0.1638-0.6814-0.1638zm1.376 3.25q0.9894 0 0.9894-0.6618 0-0.6618-0.9894-0.6618h-1.376v1.324z"/>
  </g>
  <g aria-label="V/BPS">
   <path d="m17.25 310.3-1.998 4.587h-0.8387l-2.005-4.587h0.9239l1.527 3.538 1.54-3.538z"/>
   <path d="m18.92 309.4h0.7339l-2.162 6.172h-0.7339z"/>
   <path d="m23.25 312.5q0.38 0.1245 0.6028 0.4194 0.2228 0.2883 0.2228 0.7208 0 0.5962-0.4587 0.9239-0.4587 0.3211-1.337 0.3211h-2.28v-4.587h2.149q0.8125 0 1.251 0.3211 0.439 0.3145 0.439 0.8714 0 0.3407-0.1573 0.6028t-0.4324 0.4062zm-2.398-1.533v1.265h1.206q0.4456 0 0.6814-0.1572 0.2424-0.1638 0.2424-0.4718 0-0.3145-0.2424-0.4718-0.2359-0.1638-0.6814-0.1638zm1.376 3.25q0.9894 0 0.9894-0.6618 0-0.6618-0.9894-0.6618h-1.376v1.324z"/>
   <path d="m26.88 310.3q0.5963 0 1.035 0.1966 0.4456 0.1966 0.6814 0.5635t0.2359 0.8714q0 0.498-0.2359 0.8714-0.2359 0.3669-0.6814 0.5635-0.439 0.1966-1.035 0.1966h-1.035v1.324h-0.8518v-4.587zm-0.03931 2.542q0.5569 0 0.8452-0.2359 0.2883-0.2359 0.2883-0.6749t-0.2883-0.6749q-0.2883-0.2359-0.8452-0.2359h-0.9959v1.822z"/>
   <path d="m31.18 315q-0.5307 0-1.029-0.1507-0.4914-0.1507-0.7797-0.3997l0.2949-0.6618q0.2817 0.2228 0.688 0.3669 0.4128 0.1376 0.8256 0.1376 0.5111 0 0.7601-0.1638 0.2555-0.1638 0.2555-0.4324 0-0.1966-0.1441-0.3211-0.1376-0.131-0.3538-0.2031-0.2162-0.0721-0.5897-0.1638-0.5242-0.1245-0.8518-0.249-0.3211-0.1245-0.5569-0.3866-0.2293-0.2686-0.2293-0.7207 0-0.38 0.2031-0.688 0.2097-0.3145 0.6225-0.498 0.4193-0.1835 1.022-0.1835 0.4193 0 0.8256 0.1048 0.4062 0.1048 0.7011 0.3014l-0.2686 0.6618q-0.3014-0.1769-0.629-0.2686-0.3276-0.0917-0.6356-0.0917-0.5045 0-0.7535 0.1704-0.2424 0.1704-0.2424 0.4521 0 0.1966 0.1376 0.3211 0.1441 0.1245 0.3604 0.1966 0.2162 0.0721 0.5897 0.1638 0.5111 0.1179 0.8387 0.249 0.3276 0.1245 0.5569 0.3866 0.2359 0.2621 0.2359 0.7076 0 0.38-0.2097 0.688-0.2031 0.308-0.6225 0.4914-0.4193 0.1835-1.022 0.1835z"/>
  </g>
  <g aria-label="V/BPS">
   <path d="m17.25 42.04-2.123 4.873h-0.8911l-2.13-4.873h0.9816l1.622 3.759 1.636-3.759z"/>
   <path d="m19.03 41.05h0.7797l-2.297 6.558h-0.7797z"/>
   <path d="m23.63 44.38q0.4038 0.1323 0.6405 0.4455 0.2367 0.3063 0.2367 0.7658 0 0.6335-0.4873 0.9816-0.4873 0.3411-1.42 0.3411h-2.423v-4.873h2.283q0.8632 0 1.33 0.3411 0.4664 0.3342 0.4664 0.9259 0 0.362-0.1671 0.6405-0.1671 0.2785-0.4595 0.4316zm-2.548-1.629v1.344h1.281q0.4734 0 0.724-0.1671 0.2576-0.174 0.2576-0.5012 0-0.3342-0.2576-0.5012-0.2506-0.174-0.724-0.174zm1.462 3.453q1.051 0 1.051-0.7031 0-0.7031-1.051-0.7031h-1.462v1.406z"/>
   <path d="m27.49 42.04q0.6335 0 1.1 0.2088 0.4734 0.2088 0.724 0.5987 0.2506 0.3899 0.2506 0.9259 0 0.5291-0.2506 0.9259-0.2506 0.3899-0.724 0.5987-0.4664 0.2088-1.1 0.2088h-1.1v1.406h-0.905v-4.873zm-0.04177 2.701q0.5917 0 0.8981-0.2506 0.3063-0.2506 0.3063-0.717t-0.3063-0.717q-0.3063-0.2506-0.8981-0.2506h-1.058v1.935z"/>
   <path d="m32.05 46.98q-0.5639 0-1.093-0.1601-0.5221-0.1601-0.8284-0.4247l0.3133-0.7031q0.2994 0.2367 0.731 0.3899 0.4386 0.1462 0.8772 0.1462 0.543 0 0.8076-0.174 0.2715-0.174 0.2715-0.4595 0-0.2088-0.1532-0.3411-0.1462-0.1392-0.3759-0.2158-0.2297-0.07658-0.6265-0.174-0.5569-0.1323-0.905-0.2645-0.3411-0.1323-0.5917-0.4107-0.2437-0.2854-0.2437-0.7658 0-0.4038 0.2158-0.731 0.2228-0.3342 0.6614-0.5291 0.4455-0.1949 1.086-0.1949 0.4455 0 0.8772 0.1114 0.4316 0.1114 0.7449 0.3202l-0.2854 0.7031q-0.3202-0.188-0.6683-0.2854-0.3481-0.09746-0.6753-0.09746-0.536 0-0.8006 0.181-0.2576 0.181-0.2576 0.4804 0 0.2088 0.1462 0.3411 0.1532 0.1323 0.3829 0.2088 0.2297 0.07658 0.6265 0.174 0.543 0.1253 0.8911 0.2645 0.3481 0.1323 0.5917 0.4107 0.2506 0.2785 0.2506 0.7519 0 0.4038-0.2228 0.731-0.2158 0.3272-0.6614 0.5221-0.4455 0.1949-1.086 0.1949z"/>
  </g>
  <g aria-label="CLK">
   <path d="m53.78 267q-0.6945 0-1.258-0.3014-0.5569-0.308-0.878-0.8452-0.3145-0.5373-0.3145-1.212t0.3211-1.212q0.3211-0.5373 0.878-0.8387 0.5635-0.308 1.258-0.308 0.5635 0 1.029 0.1966 0.4652 0.1966 0.7863 0.57l-0.5504 0.5176q-0.498-0.5373-1.225-0.5373-0.4718 0-0.8452 0.2097-0.3735 0.2031-0.5832 0.57-0.2097 0.3669-0.2097 0.8321t0.2097 0.8321q0.2097 0.3669 0.5832 0.5766 0.3735 0.2031 0.8452 0.2031 0.7273 0 1.225-0.5438l0.5504 0.5242q-0.3211 0.3735-0.7928 0.57-0.4652 0.1966-1.029 0.1966z"/>
   <path d="m56.42 262.3h0.8518v3.866h2.398v0.7208h-3.25z"/>
   <path d="m61.93 265-0.7273 0.747v1.173h-0.8518v-4.587h0.8518v2.352l2.267-2.352h0.9566l-1.926 2.051 2.044 2.536h-0.9959z"/>
  </g>
  <g aria-label="PHASE">
   <path d="m83.16 262.3q0.5963 0 1.035 0.1966 0.4456 0.1966 0.6814 0.5635 0.2359 0.3669 0.2359 0.8714 0 0.498-0.2359 0.8714-0.2359 0.3669-0.6814 0.5635-0.439 0.1966-1.035 0.1966h-1.035v1.324h-0.8518v-4.587zm-0.03931 2.542q0.5569 0 0.8452-0.2359t0.2883-0.6749q0-0.439-0.2883-0.6749t-0.8452-0.2359h-0.9959v1.822z"/>
   <path d="m90.04 262.3v4.587h-0.8518v-1.966h-2.372v1.966h-0.8518v-4.587h0.8518v1.894h2.372v-1.894z"/>
   <path d="m94.25 265.8h-2.293l-0.4521 1.061h-0.878l2.064-4.587h0.8387l2.071 4.587h-0.8911zm-0.2817-0.6683-0.8649-2.005-0.8583 2.005z"/>
   <path d="m97.6 267q-0.5307 0-1.029-0.1507-0.4914-0.1507-0.7797-0.3997l0.2949-0.6618q0.2817 0.2228 0.688 0.3669 0.4128 0.1376 0.8256 0.1376 0.5111 0 0.7601-0.1638 0.2555-0.1638 0.2555-0.4324 0-0.1966-0.1441-0.3211-0.1376-0.131-0.3538-0.2031-0.2162-0.0721-0.5897-0.1638-0.5242-0.1245-0.8518-0.249-0.3211-0.1245-0.5569-0.3866-0.2293-0.2686-0.2293-0.7208 0-0.38 0.2031-0.688 0.2097-0.3145 0.6225-0.498 0.4193-0.1835 1.022-0.1835 0.4193 0 0.8256 0.1048 0.4062 0.1048 0.7011 0.3014l-0.2686 0.6618q-0.3014-0.1769-0.629-0.2686-0.3276-0.0917-0.6356-0.0917-0.5045 0-0.7535 0.1704-0.2424 0.1704-0.2424 0.4521 0 0.1966 0.1376 0.3211 0.1441 0.1245 0.3604 0.1966 0.2162 0.0721 0.5897 0.1638 0.5111 0.1179 0.8387 0.249 0.3276 0.1245 0.5569 0.3866 0.2359 0.2621 0.2359 0.7076 0 0.38-0.2097 0.688-0.2031 0.308-0.6225 0.4914-0.4193 0.1835-1.022 0.1835z"/>
   <path d="m103.7 266.2v0.7142h-3.44v-4.587h3.348v0.7142h-2.496v1.193h2.215v0.7011h-2.215v1.265z"/>
  </g>
  <g aria-label="4">
   <path d="m125.2 264.6 0.8321 0.8387-0.4521 0.4783-0.8452-0.8518-0.8452 0.8518-0.439-0.4783 0.8256-0.8387-0.8256-0.8387 0.439-0.4783 0.8452 0.8518 0.8452-0.8518 0.4521 0.4783z"/>
   <path d="m131 265.9h-0.8125v1.042h-0.8256v-1.042h-2.516v-0.5897l2.261-2.955h0.9108l-2.129 2.824h1.5v-0.9239h0.7994v0.9239h0.8125z"/>
  </g>
 </g>
</svg>
