<?xml version="1.0" encoding="UTF-8" standalone="no"?>
<!-- Created with Inkscape (http://www.inkscape.org/) -->

<svg
   xmlns:dc="http://purl.org/dc/elements/1.1/"
   xmlns:cc="http://creativecommons.org/ns#"
   xmlns:rdf="http://www.w3.org/1999/02/22-rdf-syntax-ns#"
   xmlns:svg="http://www.w3.org/2000/svg"
   xmlns="http://www.w3.org/2000/svg"
   xmlns:sodipodi="http://sodipodi.sourceforge.net/DTD/sodipodi-0.dtd"
   xmlns:inkscape="http://www.inkscape.org/namespaces/inkscape"
   width="145"
   height="190"
   viewBox="0 0 145 190"
   version="1.1"
   id="svg8"
   inkscape:version="0.92.3 (2405546, 2018-03-11)"
   sodipodi:docname="phaseque-pattern-grid-absolute-navigation.svg">
  <defs
     id="defs2" />
  <sodipodi:namedview
     id="base"
     pagecolor="#f5f5f5"
     bordercolor="#000000"
     borderopacity="0.16470588"
     inkscape:pageopacity="0"
     inkscape:pageshadow="2"
     inkscape:zoom="1"
     inkscape:cx="266.40831"
     inkscape:cy="56.656923"
     inkscape:document-units="px"
     inkscape:current-layer="layer1"
     showgrid="false"
     units="px"
     guidecolor="#00d1ae"
     guideopacity="0.49803922"
     inkscape:window-width="2727"
     inkscape:window-height="1324"
     inkscape:window-x="849"
     inkscape:window-y="818"
     inkscape:window-maximized="0">
    <inkscape:grid
       type="xygrid"
       id="grid815"
       color="#3fb6ff"
       opacity="0.1254902"
       empcolor="#3f96ff"
       empopacity="0.29019608" />
  </sodipodi:namedview>
  <metadata
     id="metadata5">
    <rdf:RDF>
      <cc:Work
         rdf:about="">
        <dc:format>image/svg+xml</dc:format>
        <dc:type
           rdf:resource="http://purl.org/dc/dcmitype/StillImage" />
        <dc:title></dc:title>
      </cc:Work>
    </rdf:RDF>
  </metadata>
  <g
     inkscape:label="Layer 1"
     inkscape:groupmode="layer"
     id="layer1"
     transform="translate(0,-636.5)">
    <g
       id="g1001"
       transform="matrix(2,0,0,2,-68.589357,-677.30047)">
      <g
         aria-label="GOTO"
         id="g824"
         transform="translate(26.710677,546.16765)">
        <path
           d="m 20.08,118.5 h 0.8563 v 1.942 q -0.3759,0.2994 -0.8772,0.4595 -0.5012,0.1601 -1.03,0.1601 -0.7449,0 -1.344,-0.3202 -0.5987,-0.3272 -0.9398,-0.898 -0.3411,-0.5709 -0.3411,-1.288 0,-0.7171 0.3411,-1.288 0.3411,-0.5709 0.9398,-0.8911 0.6057,-0.3272 1.358,-0.3272 0.6126,0 1.114,0.2019 0.5012,0.2019 0.8424,0.5917 l -0.5709,0.5569 q -0.5569,-0.5569 -1.344,-0.5569 -0.5152,0 -0.9189,0.2158 -0.3968,0.2158 -0.6265,0.6057 -0.2228,0.3899 -0.2228,0.8911 0,0.4873 0.2228,0.8772 0.2297,0.3898 0.6265,0.6126 0.4038,0.2228 0.912,0.2228 0.5709,0 1.002,-0.2506 z"
           id="path816"
           inkscape:connector-curvature="0" />
        <path
           d="m 24.4,121 q -0.7449,0 -1.344,-0.3202 -0.5987,-0.3272 -0.9398,-0.898 -0.3411,-0.5778 -0.3411,-1.288 0,-0.7101 0.3411,-1.281 0.3411,-0.5778 0.9398,-0.898 0.5987,-0.3272 1.344,-0.3272 0.7453,0 1.344,0.3272 0.5987,0.3202 0.9398,0.8911 0.3411,0.5708 0.3411,1.288 0,0.7172 -0.3411,1.288 -0.3411,0.5708 -0.9398,0.898 -0.5987,0.3202 -1.344,0.3202 z m 0,-0.7936 q 0.4873,0 0.8772,-0.2158 0.3899,-0.2228 0.6126,-0.6126 0.2228,-0.3968 0.2228,-0.8841 0,-0.4873 -0.2228,-0.8772 -0.2228,-0.3968 -0.6126,-0.6126 -0.3899,-0.2228 -0.8772,-0.2228 -0.4873,0 -0.8772,0.2228 -0.3899,0.2158 -0.6126,0.6126 -0.2228,0.3898 -0.2228,0.8772 0,0.4873 0.2228,0.8841 0.2228,0.3899 0.6126,0.6126 0.3899,0.2158 0.8772,0.2158 z"
           id="path818"
           inkscape:connector-curvature="0" />
        <path
           d="m 28.91,116.8 h -1.615 v -0.7658 H 31.43 V 116.8 h -1.615 v 4.107 H 28.91 Z"
           id="path820"
           inkscape:connector-curvature="0" />
        <path
           d="m 34.31,121 q -0.7449,0 -1.344,-0.3202 -0.5987,-0.3272 -0.9398,-0.898 -0.3411,-0.5778 -0.3411,-1.288 0,-0.7101 0.3411,-1.281 0.3411,-0.5778 0.9398,-0.898 0.5987,-0.3272 1.344,-0.3272 0.7453,0 1.344,0.3272 0.5987,0.3202 0.9398,0.8911 0.3411,0.5708 0.3411,1.288 0,0.7172 -0.3411,1.288 -0.3411,0.5708 -0.9398,0.898 -0.5987,0.3202 -1.344,0.3202 z m 0,-0.7936 q 0.4873,0 0.8772,-0.2158 0.3899,-0.2228 0.6126,-0.6126 0.2228,-0.3968 0.2228,-0.8841 0,-0.4873 -0.2228,-0.8772 -0.2228,-0.3968 -0.6126,-0.6126 -0.3899,-0.2228 -0.8772,-0.2228 -0.4873,0 -0.8772,0.2228 -0.3899,0.2158 -0.6126,0.6126 -0.2228,0.3898 -0.2228,0.8772 0,0.4873 0.2228,0.8841 0.2228,0.3899 0.6126,0.6126 0.3899,0.2158 0.8772,0.2158 z"
           id="path822"
           inkscape:connector-curvature="0" />
      </g>
      <g
         aria-label="V/12P"
         id="g836"
         transform="translate(26.710677,546.16765)">
        <path
           d="m 57.11,116.1 -2.123,4.873 h -0.8911 l -2.13,-4.873 h 0.9816 l 1.622,3.759 1.636,-3.759 z"
           id="path826"
           inkscape:connector-curvature="0" />
        <path
           d="m 58.89,115.1 h 0.7797 l -2.297,6.558 H 56.593 Z"
           id="path828"
           inkscape:connector-curvature="0" />
        <path
           d="m 61.58,116.1 v 4.873 h -0.905 v -4.114 h -1.03 v -0.7588 z"
           id="path830"
           inkscape:connector-curvature="0" />
        <path
           d="m 66.07,120.2 v 0.7658 h -3.592 v -0.6057 l 1.935,-1.838 q 0.3272,-0.3133 0.4386,-0.543 0.1183,-0.2367 0.1183,-0.4664 0,-0.3411 -0.2297,-0.5221 -0.2297,-0.181 -0.6753,-0.181 -0.7449,0 -1.142,0.5082 l -0.6335,-0.4873 q 0.2854,-0.3829 0.7658,-0.5917 0.4873,-0.2158 1.086,-0.2158 0.7936,0 1.267,0.3759 0.4734,0.3759 0.4734,1.023 0,0.3968 -0.1671,0.7449 -0.1671,0.3481 -0.6405,0.7936 l -1.302,1.239 z"
           id="path832"
           inkscape:connector-curvature="0" />
        <path
           d="m 68.95,116.1 q 0.6335,0 1.1,0.2088 0.4734,0.2088 0.724,0.5987 0.2506,0.3898 0.2506,0.9259 0,0.5291 -0.2506,0.9259 -0.2506,0.3899 -0.724,0.5987 -0.4664,0.2088 -1.1,0.2088 h -1.1 v 1.406 h -0.905 v -4.873 z m -0.04177,2.701 q 0.5917,0 0.8981,-0.2506 0.3063,-0.2506 0.3063,-0.717 0,-0.4664 -0.3063,-0.717 -0.3063,-0.2506 -0.8981,-0.2506 h -1.058 v 1.935 z"
           id="path834"
           inkscape:connector-curvature="0" />
      </g>
      <path
         d="m 78.710677,684.66765 h -18"
         id="path874"
         inkscape:connector-curvature="0"
         style="fill:none;stroke:#000000;stroke-width:0.69999999" />
      <rect
         x="73.670677"
         y="704.86761"
         width="29.08"
         height="43.220001"
         rx="2.652"
         ry="2.652"
         stroke-miterlimit="1.333"
         id="rect1207"
         style="fill:#ffffff;stroke:#000000;stroke-width:0.80000001;stroke-linecap:round;stroke-linejoin:round;stroke-miterlimit:1.33299994" />
      <g
         aria-label="V/12P"
         id="g1219"
         style="stroke-width:0.1"
         transform="translate(26.710677,546.16765)">
        <path
           d="m 57.1,164.2 -1.998,4.587 h -0.8387 l -2.005,-4.587 h 0.9239 l 1.527,3.538 1.54,-3.538 z"
           id="path1209"
           inkscape:connector-curvature="0" />
        <path
           d="m 58.77,163.3 h 0.7339 l -2.162,6.172 H 56.608 Z"
           id="path1211"
           inkscape:connector-curvature="0" />
        <path
           d="m 61.3,164.2 v 4.587 h -0.8518 v -3.872 h -0.9697 v -0.7142 z"
           id="path1213"
           inkscape:connector-curvature="0" />
        <path
           d="m 65.53,168.1 v 0.7208 h -3.381 v -0.57 l 1.822,-1.73 q 0.308,-0.2948 0.4128,-0.5111 0.1114,-0.2228 0.1114,-0.439 0,-0.3211 -0.2162,-0.4914 -0.2162,-0.1704 -0.6356,-0.1704 -0.7011,0 -1.075,0.4783 l -0.5963,-0.4587 q 0.2686,-0.3604 0.7207,-0.5569 0.4587,-0.2031 1.022,-0.2031 0.747,0 1.193,0.3538 0.4456,0.3538 0.4456,0.9632 0,0.3735 -0.1573,0.7011 -0.1573,0.3276 -0.6028,0.747 l -1.225,1.166 z"
           id="path1215"
           inkscape:connector-curvature="0" />
        <path
           d="m 68.24,164.2 q 0.5963,0 1.035,0.1966 0.4456,0.1966 0.6814,0.5635 0.2359,0.3669 0.2359,0.8714 0,0.498 -0.2359,0.8714 -0.2359,0.3669 -0.6814,0.5635 -0.439,0.1966 -1.035,0.1966 h -1.035 v 1.324 H 66.3532 V 164.2 Z m -0.03931,2.542 q 0.5569,0 0.8452,-0.2359 0.2883,-0.2359 0.2883,-0.6749 0,-0.439 -0.2883,-0.6749 -0.2883,-0.2359 -0.8452,-0.2359 h -0.9959 v 1.822 z"
           id="path1217"
           inkscape:connector-curvature="0" />
      </g>
      <rect
         x="38.670677"
         y="704.86761"
         width="29.08"
         height="43.220001"
         rx="2.652"
         ry="2.652"
         stroke-miterlimit="1.333"
         id="rect1221"
         style="fill:#ffffff;stroke:#000000;stroke-width:0.80000001;stroke-linecap:round;stroke-linejoin:round;stroke-miterlimit:1.33299994" />
      <g
         aria-label="WENT"
         id="g1231"
         style="stroke-width:0.1"
         transform="translate(26.710677,546.16765)">
        <path
           d="m 23.19,164.2 -1.52,4.587 h -0.9042 l -1.134,-3.394 -1.153,3.394 H 17.568 l -1.52,-4.587 h 0.8846 l 1.14,3.486 1.186,-3.486 h 0.7863 l 1.16,3.505 1.173,-3.505 z"
           id="path1223"
           inkscape:connector-curvature="0" />
        <path
           d="m 27.33,168.1 v 0.7142 h -3.44 v -4.587 h 3.348 v 0.7142 h -2.496 v 1.193 h 2.215 v 0.7011 h -2.215 v 1.265 z"
           id="path1225"
           inkscape:connector-curvature="0" />
        <path
           d="m 32.35,164.2 v 4.587 h -0.7011 l -2.529,-3.106 v 3.106 H 28.2747 V 164.2 h 0.7011 l 2.529,3.106 V 164.2 Z"
           id="path1227"
           inkscape:connector-curvature="0" />
        <path
           d="M 34.52,164.9 H 33 v -0.7208 h 3.892 V 164.9 h -1.52 v 3.866 h -0.8518 z"
           id="path1229"
           inkscape:connector-curvature="0" />
      </g>
      <g
         id="g1856"
         transform="translate(-574.98932,322.36765)"
         style="fill:#ffffff;stroke:#000000;stroke-width:0.80000001">
        <path
           id="path1848"
           d="m 628.2,398 a 12.13,12.13 0 0 0 -12.13,12.13 12.13,12.13 0 0 0 12.13,12.13 12.13,12.13 0 0 0 12.13,-12.13 A 12.13,12.13 0 0 0 628.2,398 Z m 0,2.312 a 9.818,9.818 0 0 1 9.816,9.816 9.818,9.818 0 0 1 -9.816,9.818 9.818,9.818 0 0 1 -9.818,-9.818 9.818,9.818 0 0 1 9.818,-9.816 z"
           inkscape:connector-curvature="0" />
        <path
           id="path1850"
           d="m 628.2,403.3 c -3.748,10e-6 -6.786,3.038 -6.787,6.786 0,3.748 3.038,6.787 6.787,6.787 3.748,-6e-4 6.786,-3.039 6.786,-6.787 -5e-4,-3.747 -3.038,-6.785 -6.786,-6.786 z m 0,1.602 c 2.862,5.6e-4 5.183,2.321 5.184,5.184 0,2.863 -2.321,5.184 -5.184,5.185 -2.864,0 -5.185,-2.321 -5.185,-5.185 6e-4,-2.863 2.322,-5.184 5.185,-5.184 z"
           inkscape:connector-curvature="0" />
        <path
           id="path1852"
           d="m 624.2,422.1 c 1.899,0.0227 11.59,-1.78 12.22,-2.32 0.6775,-0.5757 4.424,-11.09 4.264,-11.96 -0.1658,-0.8736 -7.393,-9.378 -8.23,-9.676 -0.8379,-0.298 -11.82,1.715 -12.49,2.291 -0.6775,0.5758 -4.424,11.09 -4.264,11.96 0.1648,0.8738 7.393,9.378 8.23,9.676 0.054,0.0147 0.1438,0.0274 0.2698,0.0299 z m 3.166,-2.55 c -5.216,-0.4567 -9.074,-5.055 -8.618,-10.27 0.4558,-5.216 5.054,-9.076 10.27,-8.62 5.217,0.456 9.077,5.056 8.62,10.27 -0.4568,5.216 -5.056,9.075 -10.27,8.618 z"
           inkscape:connector-curvature="0" />
        <path
           id="path1854"
           d="m 625.6,401.6 c -3.272,0 -5.906,2.634 -5.906,5.906 v 5.279 c 0,3.272 2.634,5.906 5.906,5.906 h 5.279 c 3.272,0 5.906,-2.634 5.906,-5.906 v -5.279 c 0,-3.272 -2.634,-5.906 -5.906,-5.906 z m 2.641,1.885 a 6.662,6.662 0 0 1 6.66,6.66 6.662,6.662 0 0 1 -6.66,6.662 6.662,6.662 0 0 1 -6.662,-6.662 6.662,6.662 0 0 1 6.662,-6.66 z"
           inkscape:connector-curvature="0" />
      </g>
      <g
         id="g1866"
         transform="translate(-539.98932,322.36765)"
         style="fill:#ffffff;stroke:#000000;stroke-width:0.80000001">
        <path
           id="path1858"
           d="m 628.2,398 a 12.13,12.13 0 0 0 -12.13,12.13 12.13,12.13 0 0 0 12.13,12.13 12.13,12.13 0 0 0 12.13,-12.13 A 12.13,12.13 0 0 0 628.2,398 Z m 0,2.312 a 9.818,9.818 0 0 1 9.816,9.816 9.818,9.818 0 0 1 -9.816,9.818 9.818,9.818 0 0 1 -9.818,-9.818 9.818,9.818 0 0 1 9.818,-9.816 z"
           inkscape:connector-curvature="0" />
        <path
           id="path1860"
           d="m 628.2,403.3 c -3.748,10e-6 -6.786,3.038 -6.787,6.786 0,3.748 3.038,6.787 6.787,6.787 3.748,-6e-4 6.786,-3.039 6.786,-6.787 -5e-4,-3.747 -3.038,-6.785 -6.786,-6.786 z m 0,1.602 c 2.862,5.6e-4 5.183,2.321 5.184,5.184 0,2.863 -2.321,5.184 -5.184,5.185 -2.864,0 -5.185,-2.321 -5.185,-5.185 6e-4,-2.863 2.322,-5.184 5.185,-5.184 z"
           inkscape:connector-curvature="0" />
        <path
           id="path1862"
           d="m 624.2,422.1 c 1.899,0.0227 11.59,-1.78 12.22,-2.32 0.6775,-0.5757 4.424,-11.09 4.264,-11.96 -0.1658,-0.8736 -7.393,-9.378 -8.23,-9.676 -0.8379,-0.298 -11.82,1.715 -12.49,2.291 -0.6775,0.5758 -4.424,11.09 -4.264,11.96 0.1648,0.8738 7.393,9.378 8.23,9.676 0.054,0.0147 0.1438,0.0274 0.2698,0.0299 z m 3.166,-2.55 c -5.216,-0.4567 -9.074,-5.055 -8.618,-10.27 0.4558,-5.216 5.054,-9.076 10.27,-8.62 5.217,0.456 9.077,5.056 8.62,10.27 -0.4568,5.216 -5.056,9.075 -10.27,8.618 z"
           inkscape:connector-curvature="0" />
        <path
           id="path1864"
           d="m 625.6,401.6 c -3.272,0 -5.906,2.634 -5.906,5.906 v 5.279 c 0,3.272 2.634,5.906 5.906,5.906 h 5.279 c 3.272,0 5.906,-2.634 5.906,-5.906 v -5.279 c 0,-3.272 -2.634,-5.906 -5.906,-5.906 z m 2.641,1.885 a 6.662,6.662 0 0 1 6.66,6.66 6.662,6.662 0 0 1 -6.66,6.662 6.662,6.662 0 0 1 -6.662,-6.662 6.662,6.662 0 0 1 6.662,-6.66 z"
           inkscape:connector-curvature="0" />
      </g>
      <g
         id="g1896"
         transform="translate(-574.98932,274.26765)"
         style="fill:#ffffff;stroke:#000000;stroke-width:0.80000001">
        <path
           id="path1888"
           d="m 628.2,398 a 12.13,12.13 0 0 0 -12.13,12.13 12.13,12.13 0 0 0 12.13,12.13 12.13,12.13 0 0 0 12.13,-12.13 A 12.13,12.13 0 0 0 628.2,398 Z m 0,2.312 a 9.818,9.818 0 0 1 9.816,9.816 9.818,9.818 0 0 1 -9.816,9.818 9.818,9.818 0 0 1 -9.818,-9.818 9.818,9.818 0 0 1 9.818,-9.816 z"
           inkscape:connector-curvature="0" />
        <path
           id="path1890"
           d="m 628.2,403.3 c -3.748,10e-6 -6.786,3.038 -6.787,6.786 0,3.748 3.038,6.787 6.787,6.787 3.748,-6e-4 6.786,-3.039 6.786,-6.787 -5e-4,-3.747 -3.038,-6.785 -6.786,-6.786 z m 0,1.602 c 2.862,5.6e-4 5.183,2.321 5.184,5.184 0,2.863 -2.321,5.184 -5.184,5.185 -2.864,0 -5.185,-2.321 -5.185,-5.185 6e-4,-2.863 2.322,-5.184 5.185,-5.184 z"
           inkscape:connector-curvature="0" />
        <path
           id="path1892"
           d="m 624.2,422.1 c 1.899,0.0227 11.59,-1.78 12.22,-2.32 0.6775,-0.5757 4.424,-11.09 4.264,-11.96 -0.1658,-0.8736 -7.393,-9.378 -8.23,-9.676 -0.8379,-0.298 -11.82,1.715 -12.49,2.291 -0.6775,0.5758 -4.424,11.09 -4.264,11.96 0.1648,0.8738 7.393,9.378 8.23,9.676 0.054,0.0147 0.1438,0.0274 0.2698,0.0299 z m 3.166,-2.55 c -5.216,-0.4567 -9.074,-5.055 -8.618,-10.27 0.4558,-5.216 5.054,-9.076 10.27,-8.62 5.217,0.456 9.077,5.056 8.62,10.27 -0.4568,5.216 -5.056,9.075 -10.27,8.618 z"
           inkscape:connector-curvature="0" />
        <path
           id="path1894"
           d="m 625.6,401.6 c -3.272,0 -5.906,2.634 -5.906,5.906 v 5.279 c 0,3.272 2.634,5.906 5.906,5.906 h 5.279 c 3.272,0 5.906,-2.634 5.906,-5.906 v -5.279 c 0,-3.272 -2.634,-5.906 -5.906,-5.906 z m 2.641,1.885 a 6.662,6.662 0 0 1 6.66,6.66 6.662,6.662 0 0 1 -6.66,6.662 6.662,6.662 0 0 1 -6.662,-6.662 6.662,6.662 0 0 1 6.662,-6.66 z"
           inkscape:connector-curvature="0" />
      </g>
      <g
         id="g1906"
         transform="translate(-539.98932,274.26765)"
         style="fill:#ffffff;stroke:#000000;stroke-width:0.80000001">
        <path
           id="path1898"
           d="m 628.2,398 a 12.13,12.13 0 0 0 -12.13,12.13 12.13,12.13 0 0 0 12.13,12.13 12.13,12.13 0 0 0 12.13,-12.13 A 12.13,12.13 0 0 0 628.2,398 Z m 0,2.312 a 9.818,9.818 0 0 1 9.816,9.816 9.818,9.818 0 0 1 -9.816,9.818 9.818,9.818 0 0 1 -9.818,-9.818 9.818,9.818 0 0 1 9.818,-9.816 z"
           inkscape:connector-curvature="0" />
        <path
           id="path1900"
           d="m 628.2,403.3 c -3.748,10e-6 -6.786,3.038 -6.787,6.786 0,3.748 3.038,6.787 6.787,6.787 3.748,-6e-4 6.786,-3.039 6.786,-6.787 -5e-4,-3.747 -3.038,-6.785 -6.786,-6.786 z m 0,1.602 c 2.862,5.6e-4 5.183,2.321 5.184,5.184 0,2.863 -2.321,5.184 -5.184,5.185 -2.864,0 -5.185,-2.321 -5.185,-5.185 6e-4,-2.863 2.322,-5.184 5.185,-5.184 z"
           inkscape:connector-curvature="0" />
        <path
           id="path1902"
           d="m 624.2,422.1 c 1.899,0.0227 11.59,-1.78 12.22,-2.32 0.6775,-0.5757 4.424,-11.09 4.264,-11.96 -0.1658,-0.8736 -7.393,-9.378 -8.23,-9.676 -0.8379,-0.298 -11.82,1.715 -12.49,2.291 -0.6775,0.5758 -4.424,11.09 -4.264,11.96 0.1648,0.8738 7.393,9.378 8.23,9.676 0.054,0.0147 0.1438,0.0274 0.2698,0.0299 z m 3.166,-2.55 c -5.216,-0.4567 -9.074,-5.055 -8.618,-10.27 0.4558,-5.216 5.054,-9.076 10.27,-8.62 5.217,0.456 9.077,5.056 8.62,10.27 -0.4568,5.216 -5.056,9.075 -10.27,8.618 z"
           inkscape:connector-curvature="0" />
        <path
           id="path1904"
           d="m 625.6,401.6 c -3.272,0 -5.906,2.634 -5.906,5.906 v 5.279 c 0,3.272 2.634,5.906 5.906,5.906 h 5.279 c 3.272,0 5.906,-2.634 5.906,-5.906 v -5.279 c 0,-3.272 -2.634,-5.906 -5.906,-5.906 z m 2.641,1.885 a 6.662,6.662 0 0 1 6.66,6.66 6.662,6.662 0 0 1 -6.66,6.662 6.662,6.662 0 0 1 -6.662,-6.662 6.662,6.662 0 0 1 6.662,-6.66 z"
           inkscape:connector-curvature="0" />
      </g>
    </g>
  </g>
</svg>
